M48
; DRILL file {KiCad (5.1.5)-3} date 12/19/2020 5:07:12 PM
; FORMAT={-:-/ absolute / metric / decimal}
; #@! TF.CreationDate,2020-12-19T17:07:12+01:00
; #@! TF.GenerationSoftware,Kicad,Pcbnew,(5.1.5)-3
; #@! TF.FileFunction,Plated,1,2,PTH
FMAT,2
METRIC
T1C0.300
T2C0.400
T3C0.600
T4C0.800
T5C1.000
T6C1.520
T7C2.200
%
G90
G05
T1
X133.52Y-68.75
X133.52Y-69.85
X133.52Y-70.95
X134.62Y-68.75
X134.62Y-69.85
X134.62Y-70.95
X135.72Y-68.75
X135.72Y-69.85
X135.72Y-70.95
X151.369Y-66.944
X151.369Y-67.96
X151.369Y-68.976
X152.385Y-66.944
X152.385Y-67.96
X152.385Y-68.976
X153.401Y-66.944
X153.401Y-67.96
X153.401Y-68.976
X151.384Y-79.121
X151.384Y-80.137
X151.384Y-81.153
X152.4Y-79.121
X152.4Y-80.137
X152.4Y-81.153
X153.416Y-79.121
X153.416Y-80.137
X153.416Y-81.153
T2
X113.538Y-67.818
X114.046Y-72.009
X114.554Y-67.818
X114.554Y-68.834
X115.316Y-72.009
X121.793Y-78.613
X122.428Y-66.04
X122.428Y-67.564
X123.19Y-66.802
X123.19Y-68.326
X126.365Y-72.39
X129.413Y-76.2
X129.54Y-62.103
X130.048Y-65.532
X130.048Y-72.39
X131.826Y-67.564
X133.096Y-60.96
X133.096Y-76.2
X133.477Y-66.197
X134.62Y-60.96
X136.392Y-77.349
X137.705Y-72.39
X138.557Y-68.707
X144.018Y-70.612
X147.955Y-65.616
X148.082Y-78.359
X150.114Y-71.628
X150.368Y-69.85
X150.368Y-82.042
X152.4Y-65.024
X152.4Y-77.216
X157.417Y-77.851
X157.607Y-66.802
X161.671Y-78.105
X162.306Y-66.548
X164.465Y-66.675
X164.592Y-77.343
X176.403Y-68.58
X178.943Y-64.77
X180.213Y-64.77
X180.213Y-69.85
X184.277Y-69.596
X186.563Y-66.167
X188.849Y-66.167
X189.611Y-62.611
X190.5Y-74.041
X195.326Y-69.596
X195.326Y-65.913
X197.612Y-75.692
X199.009Y-74.803
X199.39Y-66.167
X199.39Y-68.58
X199.771Y-72.517
X200.406Y-75.438
X200.914Y-66.04
X201.803Y-75.819
X202.184Y-66.04
X204.978Y-66.04
X205.359Y-68.326
X206.502Y-76.327
X207.264Y-73.533
X207.645Y-65.024
X211.455Y-68.072
X215.265Y-69.342
X216.789Y-59.436
X108.124Y-70.612
X108.124Y-71.462
X108.124Y-72.312
X108.124Y-73.162
X108.124Y-74.012
X108.124Y-74.862
X108.124Y-75.712
X108.124Y-76.562
X109.474Y-70.612
X109.474Y-71.462
X109.474Y-72.312
X109.474Y-73.162
X109.474Y-74.012
X109.474Y-74.862
X109.474Y-75.712
X109.474Y-76.562
T4
X137.16Y-80.645
X139.7Y-80.645
X160.782Y-79.629
X160.782Y-82.169
X210.82Y-80.518
X212.82Y-80.518
X214.82Y-80.518
X216.82Y-80.518
X173.197Y-80.518
X175.197Y-80.518
X177.197Y-80.518
X179.197Y-80.518
X188.087Y-71.692
X188.087Y-73.692
X188.087Y-75.692
X160.782Y-67.437
X160.782Y-69.977
X221.234Y-67.564
X221.234Y-69.564
X221.234Y-71.564
X221.234Y-73.564
X210.789Y-61.214
X212.789Y-61.214
X214.789Y-61.214
X216.789Y-61.214
X219.837Y-80.518
X221.837Y-80.518
X223.837Y-80.518
X225.837Y-80.518
X121.158Y-80.518
X123.158Y-80.518
X125.158Y-80.518
X127.158Y-80.518
X129.158Y-80.518
X219.806Y-61.214
X221.806Y-61.214
X223.806Y-61.214
X225.806Y-61.214
T5
X171.577Y-64.77
X171.577Y-67.31
X171.577Y-69.85
X175.26Y-60.833
X177.8Y-60.833
X180.34Y-60.833
X182.88Y-60.833
T6
X167.894Y-80.645
X167.767Y-60.833
X167.767Y-65.913
X142.875Y-75.565
X142.875Y-80.645
X167.894Y-75.565
X104.14Y-62.103
X109.22Y-62.103
T7
X218.313Y-73.914
X183.515Y-80.645
X105.029Y-66.421
X105.029Y-80.772
T3
G00X226.82Y-67.112
M15
G01X227.52Y-67.112
M16
G05
G00X227.52Y-74.112
M15
G01X226.82Y-74.112
M16
G05
G00X105.514Y-69.262
M15
G01X104.714Y-69.262
M16
G05
G00X105.514Y-77.912
M15
G01X104.714Y-77.912
M16
G05
G00X109.244Y-69.262
M15
G01X107.744Y-69.262
M16
G05
G00X109.244Y-77.912
M15
G01X107.744Y-77.912
M16
G05
T0
M30
