G04 #@! TF.GenerationSoftware,KiCad,Pcbnew,(6.99.0-1936-gea29c66608)*
G04 #@! TF.CreationDate,2022-05-24T07:37:37+02:00*
G04 #@! TF.ProjectId,BalthazarPSU3,42616c74-6861-47a6-9172-505355332e6b,rev?*
G04 #@! TF.SameCoordinates,Original*
G04 #@! TF.FileFunction,Soldermask,Bot*
G04 #@! TF.FilePolarity,Negative*
%FSLAX46Y46*%
G04 Gerber Fmt 4.6, Leading zero omitted, Abs format (unit mm)*
G04 Created by KiCad (PCBNEW (6.99.0-1936-gea29c66608)) date 2022-05-24 07:37:37*
%MOMM*%
%LPD*%
G01*
G04 APERTURE LIST*
G04 Aperture macros list*
%AMRoundRect*
0 Rectangle with rounded corners*
0 $1 Rounding radius*
0 $2 $3 $4 $5 $6 $7 $8 $9 X,Y pos of 4 corners*
0 Add a 4 corners polygon primitive as box body*
4,1,4,$2,$3,$4,$5,$6,$7,$8,$9,$2,$3,0*
0 Add four circle primitives for the rounded corners*
1,1,$1+$1,$2,$3*
1,1,$1+$1,$4,$5*
1,1,$1+$1,$6,$7*
1,1,$1+$1,$8,$9*
0 Add four rect primitives between the rounded corners*
20,1,$1+$1,$2,$3,$4,$5,0*
20,1,$1+$1,$4,$5,$6,$7,0*
20,1,$1+$1,$6,$7,$8,$9,0*
20,1,$1+$1,$8,$9,$2,$3,0*%
G04 Aperture macros list end*
%ADD10C,1.400000*%
%ADD11C,0.500000*%
%ADD12R,3.000000X3.000000*%
%ADD13C,3.000000*%
%ADD14C,0.700000*%
%ADD15O,2.400000X0.900000*%
%ADD16O,1.700000X0.900000*%
%ADD17O,1.700000X1.700000*%
%ADD18R,1.700000X1.700000*%
%ADD19R,1.350000X1.350000*%
%ADD20O,1.350000X1.350000*%
%ADD21C,4.400000*%
%ADD22RoundRect,0.250000X0.375000X0.625000X-0.375000X0.625000X-0.375000X-0.625000X0.375000X-0.625000X0*%
%ADD23RoundRect,0.250000X-0.262500X-0.450000X0.262500X-0.450000X0.262500X0.450000X-0.262500X0.450000X0*%
%ADD24RoundRect,0.250000X-0.475000X0.250000X-0.475000X-0.250000X0.475000X-0.250000X0.475000X0.250000X0*%
%ADD25RoundRect,0.250000X-0.250000X-0.475000X0.250000X-0.475000X0.250000X0.475000X-0.250000X0.475000X0*%
G04 APERTURE END LIST*
D10*
X135275000Y-80772000D03*
X137815000Y-80772000D03*
D11*
X153401000Y-68976000D03*
X153401000Y-67960000D03*
X153401000Y-66944000D03*
X152385000Y-68976000D03*
X152385000Y-67960000D03*
X152385000Y-66944000D03*
X151369000Y-68976000D03*
X151369000Y-67960000D03*
X151369000Y-66944000D03*
D12*
X142874999Y-80644999D03*
D13*
X142875000Y-75565000D03*
D12*
X169290999Y-60832999D03*
D13*
X169291000Y-65913000D03*
D12*
X167385999Y-80644999D03*
D13*
X167386000Y-75565000D03*
D14*
X109474000Y-70612000D03*
X109474000Y-71462000D03*
X109474000Y-72312000D03*
X109474000Y-73162000D03*
X109474000Y-74012000D03*
X109474000Y-74862000D03*
X109474000Y-75712000D03*
X109474000Y-76562000D03*
X108124000Y-76562000D03*
X108124000Y-75712000D03*
X108124000Y-74862000D03*
X108124000Y-74012000D03*
X108124000Y-73162000D03*
X108124000Y-72312000D03*
X108124000Y-71462000D03*
X108124000Y-70612000D03*
D15*
X108493999Y-69261999D03*
D16*
X105113999Y-69261999D03*
D15*
X108493999Y-77911999D03*
D16*
X105113999Y-77911999D03*
D13*
X109220000Y-62103000D03*
D12*
X104139999Y-62102999D03*
D17*
X182879999Y-60832999D03*
X180339999Y-60832999D03*
X177799999Y-60832999D03*
D18*
X175259999Y-60832999D03*
D19*
X121157999Y-80517999D03*
D20*
X123157999Y-80517999D03*
X125157999Y-80517999D03*
X127157999Y-80517999D03*
X129157999Y-80517999D03*
D19*
X179196999Y-80517999D03*
D20*
X177196999Y-80517999D03*
X175196999Y-80517999D03*
X173196999Y-80517999D03*
D21*
X105029000Y-66421000D03*
X105029000Y-80772000D03*
X183515000Y-80645000D03*
D22*
X164341000Y-70866000D03*
X161541000Y-70866000D03*
D23*
X155678500Y-70993000D03*
X157503500Y-70993000D03*
X155678500Y-68961000D03*
X157503500Y-68961000D03*
X132842000Y-61976000D03*
X134667000Y-61976000D03*
D24*
X132080000Y-64810500D03*
X132080000Y-66710500D03*
D25*
X155702000Y-66929000D03*
X157602000Y-66929000D03*
D24*
X134112000Y-64810500D03*
X134112000Y-66710500D03*
D23*
X104497500Y-74295000D03*
X106322500Y-74295000D03*
X104497500Y-76200000D03*
X106322500Y-76200000D03*
D25*
X152085000Y-77851000D03*
X153985000Y-77851000D03*
M02*
