M48
; DRILL file {KiCad (6.99.0-1936-gea29c66608)} date Tue May 24 07:37:25 2022
; FORMAT={-:-/ absolute / inch / decimal}
; #@! TF.CreationDate,2022-05-24T07:37:25+02:00
; #@! TF.GenerationSoftware,Kicad,Pcbnew,(6.99.0-1936-gea29c66608)
; #@! TF.FileFunction,Plated,1,2,PTH
FMAT,2
INCH
; #@! TA.AperFunction,Plated,PTH,ComponentDrill
T1C0.0118
; #@! TA.AperFunction,Plated,PTH,ViaDrill
T2C0.0157
; #@! TA.AperFunction,Plated,PTH,ComponentDrill
T3C0.0157
; #@! TA.AperFunction,Plated,PTH,ComponentDrill
T4C0.0236
; #@! TA.AperFunction,Plated,PTH,ComponentDrill
T5C0.0315
; #@! TA.AperFunction,Plated,PTH,ComponentDrill
T6C0.0394
; #@! TA.AperFunction,Plated,PTH,ComponentDrill
T7C0.0598
; #@! TA.AperFunction,Plated,PTH,ComponentDrill
T8C0.0866
%
G90
G05
T1
X5.2567Y-2.7067
X5.2567Y-2.75
X5.2567Y-2.7933
X5.3Y-2.7067
X5.3Y-2.75
X5.3Y-2.7933
X5.3433Y-2.7067
X5.3433Y-2.75
X5.3433Y-2.7933
X5.9594Y-2.6356
X5.9594Y-2.6756
X5.9594Y-2.7156
X5.9994Y-2.6356
X5.9994Y-2.6756
X5.9994Y-2.7156
X6.0394Y-2.6356
X6.0394Y-2.6756
X6.0394Y-2.7156
T2
X4.47Y-2.67
X4.49Y-2.835
X4.505Y-2.67
X4.505Y-2.725
X4.54Y-2.835
X4.795Y-3.095
X4.82Y-2.6
X4.82Y-2.66
X4.85Y-2.63
X4.85Y-2.69
X4.9245Y-3.0112
X5.08Y-2.37
X5.095Y-2.9
X5.095Y-3.0
X5.12Y-2.58
X5.19Y-2.66
X5.225Y-2.395
X5.24Y-3.0
X5.255Y-2.6062
X5.3Y-2.4
X5.355Y-3.035
X5.4215Y-2.85
X5.45Y-2.34
X5.45Y-2.57
X5.455Y-2.705
X5.67Y-2.78
X5.7Y-2.34
X5.825Y-2.585
X5.875Y-2.815
X5.92Y-2.7565
X5.96Y-2.3425
X5.985Y-3.125
X6.0Y-2.56
X6.1Y-3.065
X6.105Y-3.175
X6.205Y-2.59
X6.475Y-2.73
X6.835Y-2.7
X7.095Y-2.55
X7.095Y-2.75
T3
X4.2569Y-2.78
X4.2569Y-2.8135
X4.2569Y-2.8469
X4.2569Y-2.8804
X4.2569Y-2.9139
X4.2569Y-2.9473
X4.2569Y-2.9808
X4.2569Y-3.0143
X4.31Y-2.78
X4.31Y-2.8135
X4.31Y-2.8469
X4.31Y-2.8804
X4.31Y-2.9139
X4.31Y-2.9473
X4.31Y-2.9808
X4.31Y-3.0143
T5
X4.77Y-3.17
X4.8487Y-3.17
X4.9275Y-3.17
X5.0062Y-3.17
X5.085Y-3.17
X5.3258Y-3.18
X5.4258Y-3.18
X6.8188Y-3.17
X6.8975Y-3.17
X6.9763Y-3.17
X7.055Y-3.17
T6
X6.9Y-2.395
X7.0Y-2.395
X7.1Y-2.395
X7.2Y-2.395
T7
X4.1Y-2.445
X4.3Y-2.445
X5.625Y-2.975
X5.625Y-3.175
X6.59Y-2.975
X6.59Y-3.175
X6.665Y-2.395
X6.665Y-2.595
T8
X4.135Y-2.615
X4.135Y-3.18
X7.225Y-3.175
T4
G00X4.1541Y-2.7269
M15
G01X4.1226Y-2.7269
M16
G05
G00X4.1541Y-3.0674
M15
G01X4.1226Y-3.0674
M16
G05
G00X4.3009Y-2.7269
M15
G01X4.2419Y-2.7269
M16
G05
G00X4.3009Y-3.0674
M15
G01X4.2419Y-3.0674
M16
G05
T0
M30
