G04 #@! TF.GenerationSoftware,KiCad,Pcbnew,(6.99.0-1936-gea29c66608)*
G04 #@! TF.CreationDate,2022-05-24T09:47:40+02:00*
G04 #@! TF.ProjectId,BalthazarPSU3,42616c74-6861-47a6-9172-505355332e6b,rev?*
G04 #@! TF.SameCoordinates,Original*
G04 #@! TF.FileFunction,Soldermask,Top*
G04 #@! TF.FilePolarity,Negative*
%FSLAX46Y46*%
G04 Gerber Fmt 4.6, Leading zero omitted, Abs format (unit mm)*
G04 Created by KiCad (PCBNEW (6.99.0-1936-gea29c66608)) date 2022-05-24 09:47:40*
%MOMM*%
%LPD*%
G01*
G04 APERTURE LIST*
G04 Aperture macros list*
%AMRoundRect*
0 Rectangle with rounded corners*
0 $1 Rounding radius*
0 $2 $3 $4 $5 $6 $7 $8 $9 X,Y pos of 4 corners*
0 Add a 4 corners polygon primitive as box body*
4,1,4,$2,$3,$4,$5,$6,$7,$8,$9,$2,$3,0*
0 Add four circle primitives for the rounded corners*
1,1,$1+$1,$2,$3*
1,1,$1+$1,$4,$5*
1,1,$1+$1,$6,$7*
1,1,$1+$1,$8,$9*
0 Add four rect primitives between the rounded corners*
20,1,$1+$1,$2,$3,$4,$5,0*
20,1,$1+$1,$4,$5,$6,$7,0*
20,1,$1+$1,$6,$7,$8,$9,0*
20,1,$1+$1,$8,$9,$2,$3,0*%
G04 Aperture macros list end*
%ADD10R,3.500000X3.500000*%
%ADD11RoundRect,0.750000X-0.750000X-1.000000X0.750000X-1.000000X0.750000X1.000000X-0.750000X1.000000X0*%
%ADD12RoundRect,0.875000X-0.875000X-0.875000X0.875000X-0.875000X0.875000X0.875000X-0.875000X0.875000X0*%
%ADD13RoundRect,0.250000X0.325000X0.650000X-0.325000X0.650000X-0.325000X-0.650000X0.325000X-0.650000X0*%
%ADD14RoundRect,0.250000X-0.650000X0.325000X-0.650000X-0.325000X0.650000X-0.325000X0.650000X0.325000X0*%
%ADD15RoundRect,0.250000X0.650000X-0.325000X0.650000X0.325000X-0.650000X0.325000X-0.650000X-0.325000X0*%
%ADD16RoundRect,0.250000X0.250000X0.475000X-0.250000X0.475000X-0.250000X-0.475000X0.250000X-0.475000X0*%
%ADD17RoundRect,0.250000X0.625000X-0.375000X0.625000X0.375000X-0.625000X0.375000X-0.625000X-0.375000X0*%
%ADD18RoundRect,0.250000X-0.450000X0.262500X-0.450000X-0.262500X0.450000X-0.262500X0.450000X0.262500X0*%
%ADD19RoundRect,0.250000X0.262500X0.450000X-0.262500X0.450000X-0.262500X-0.450000X0.262500X-0.450000X0*%
%ADD20RoundRect,0.250000X-0.262500X-0.450000X0.262500X-0.450000X0.262500X0.450000X-0.262500X0.450000X0*%
%ADD21RoundRect,0.250000X0.475000X-0.250000X0.475000X0.250000X-0.475000X0.250000X-0.475000X-0.250000X0*%
%ADD22RoundRect,0.250000X0.450000X-0.262500X0.450000X0.262500X-0.450000X0.262500X-0.450000X-0.262500X0*%
%ADD23RoundRect,0.150000X-0.650000X-0.150000X0.650000X-0.150000X0.650000X0.150000X-0.650000X0.150000X0*%
%ADD24RoundRect,0.062500X-0.350000X-0.062500X0.350000X-0.062500X0.350000X0.062500X-0.350000X0.062500X0*%
%ADD25RoundRect,0.062500X-0.062500X-0.350000X0.062500X-0.350000X0.062500X0.350000X-0.062500X0.350000X0*%
%ADD26RoundRect,0.251100X-1.098900X-1.098900X1.098900X-1.098900X1.098900X1.098900X-1.098900X1.098900X0*%
%ADD27C,1.400000*%
%ADD28R,0.250000X0.825000*%
%ADD29R,0.825000X0.250000*%
%ADD30C,0.500000*%
%ADD31RoundRect,0.650000X0.650000X-1.350000X0.650000X1.350000X-0.650000X1.350000X-0.650000X-1.350000X0*%
%ADD32R,3.000000X3.000000*%
%ADD33C,3.000000*%
%ADD34C,0.700000*%
%ADD35O,2.400000X0.900000*%
%ADD36O,1.700000X0.900000*%
%ADD37R,2.950000X3.500000*%
%ADD38R,0.900000X0.800000*%
%ADD39R,1.700000X1.700000*%
%ADD40O,1.700000X1.700000*%
%ADD41R,1.350000X1.350000*%
%ADD42O,1.350000X1.350000*%
%ADD43RoundRect,0.250000X-0.625000X0.312500X-0.625000X-0.312500X0.625000X-0.312500X0.625000X0.312500X0*%
%ADD44RoundRect,0.250000X0.625000X-0.312500X0.625000X0.312500X-0.625000X0.312500X-0.625000X-0.312500X0*%
%ADD45C,4.400000*%
%ADD46RoundRect,0.150000X0.150000X-0.825000X0.150000X0.825000X-0.150000X0.825000X-0.150000X-0.825000X0*%
%ADD47RoundRect,0.450000X-0.550000X-0.450000X0.550000X-0.450000X0.550000X0.450000X-0.550000X0.450000X0*%
%ADD48R,2.500000X2.300000*%
%ADD49R,1.450000X0.450000*%
G04 APERTURE END LIST*
D10*
X110997999Y-62288499D03*
D11*
X104998000Y-62288500D03*
D12*
X107998000Y-66988500D03*
D13*
X142575000Y-69850000D03*
X139625000Y-69850000D03*
D14*
X132715000Y-61390000D03*
X132715000Y-64340000D03*
X184277000Y-66851000D03*
X184277000Y-69801000D03*
X118872000Y-77646000D03*
X118872000Y-80596000D03*
X125476000Y-61390000D03*
X125476000Y-64340000D03*
D15*
X168275000Y-72341000D03*
X168275000Y-69391000D03*
X184277000Y-74754000D03*
X184277000Y-71804000D03*
D16*
X176718000Y-75057000D03*
X174818000Y-75057000D03*
D15*
X172720000Y-74832000D03*
X172720000Y-71882000D03*
D14*
X127889000Y-61390000D03*
X127889000Y-64340000D03*
D13*
X140730500Y-66611500D03*
X137780500Y-66611500D03*
D17*
X118872000Y-76457000D03*
X118872000Y-73657000D03*
X123698000Y-76457000D03*
X123698000Y-73657000D03*
D18*
X121285000Y-73509500D03*
X121285000Y-75334500D03*
D19*
X127785500Y-71755000D03*
X125960500Y-71755000D03*
X133119500Y-80772000D03*
X131294500Y-80772000D03*
X138837500Y-73660000D03*
X137012500Y-73660000D03*
D18*
X180086000Y-74779500D03*
X180086000Y-76604500D03*
D19*
X138834500Y-75946000D03*
X137009500Y-75946000D03*
D20*
X172315500Y-77089000D03*
X174140500Y-77089000D03*
D21*
X147955000Y-70165000D03*
X147955000Y-68265000D03*
D15*
X157099000Y-64213000D03*
X157099000Y-61263000D03*
X163957000Y-64216000D03*
X163957000Y-61266000D03*
X159385000Y-64210000D03*
X159385000Y-61260000D03*
X161671000Y-64213000D03*
X161671000Y-61263000D03*
D14*
X123063000Y-61390000D03*
X123063000Y-64340000D03*
D15*
X144780000Y-64418000D03*
X144780000Y-61468000D03*
D22*
X158496000Y-67968500D03*
X158496000Y-66143500D03*
X158496000Y-70889500D03*
X158496000Y-69064500D03*
D20*
X137009500Y-78232000D03*
X138834500Y-78232000D03*
D14*
X130302000Y-61341000D03*
X130302000Y-64291000D03*
D23*
X175185000Y-63500000D03*
X175185000Y-64770000D03*
X175185000Y-66040000D03*
X175185000Y-67310000D03*
X175185000Y-68580000D03*
X175185000Y-69850000D03*
X175185000Y-71120000D03*
X175185000Y-72390000D03*
X181685000Y-72390000D03*
X181685000Y-71120000D03*
X181685000Y-69850000D03*
X181685000Y-68580000D03*
X181685000Y-67310000D03*
X181685000Y-66040000D03*
X181685000Y-64770000D03*
X181685000Y-63500000D03*
D18*
X170561000Y-69826500D03*
X170561000Y-71651500D03*
D24*
X132657500Y-68600000D03*
X132657500Y-69100000D03*
X132657500Y-69600000D03*
X132657500Y-70100000D03*
X132657500Y-70600000D03*
X132657500Y-71100000D03*
D25*
X133370000Y-71812500D03*
X133870000Y-71812500D03*
X134370000Y-71812500D03*
X134870000Y-71812500D03*
X135370000Y-71812500D03*
X135870000Y-71812500D03*
D24*
X136582500Y-71100000D03*
X136582500Y-70600000D03*
X136582500Y-70100000D03*
X136582500Y-69600000D03*
X136582500Y-69100000D03*
X136582500Y-68600000D03*
D25*
X135870000Y-67887500D03*
X135370000Y-67887500D03*
X134870000Y-67887500D03*
X134370000Y-67887500D03*
X133870000Y-67887500D03*
X133370000Y-67887500D03*
D26*
X134620000Y-69850000D03*
D27*
X135275000Y-80772000D03*
X137815000Y-80772000D03*
D22*
X147574000Y-77239500D03*
X147574000Y-75414500D03*
D28*
X153146999Y-69991999D03*
X153146999Y-65927999D03*
X152638999Y-69991999D03*
X152638999Y-65927999D03*
X152130999Y-69991999D03*
X152130999Y-65927999D03*
X151622999Y-69991999D03*
X151622999Y-65927999D03*
D29*
X154416999Y-69459999D03*
X154416999Y-68975999D03*
X154416999Y-68467999D03*
X154416999Y-67959999D03*
X154416999Y-67459999D03*
X154416999Y-66943999D03*
X154416999Y-66459999D03*
X150352999Y-66459999D03*
X150352999Y-66959999D03*
X150352999Y-67459999D03*
X150352999Y-67959999D03*
X150352999Y-68467999D03*
X150352999Y-68959999D03*
X150352999Y-69483999D03*
D30*
X153401000Y-68976000D03*
X153401000Y-67960000D03*
X153401000Y-66944000D03*
X152385000Y-68976000D03*
X152385000Y-67960000D03*
D31*
X152385000Y-67960000D03*
D30*
X152385000Y-66944000D03*
X151369000Y-68976000D03*
X151369000Y-67960000D03*
X151369000Y-66944000D03*
D32*
X142874999Y-80644999D03*
D33*
X142875000Y-75565000D03*
D32*
X169290999Y-60832999D03*
D33*
X169291000Y-65913000D03*
D32*
X167385999Y-80644999D03*
D33*
X167386000Y-75565000D03*
D34*
X106895000Y-70612000D03*
X106895000Y-71462000D03*
X106895000Y-72312000D03*
X106895000Y-73162000D03*
X106895000Y-74012000D03*
X106895000Y-74862000D03*
X106895000Y-75712000D03*
X106895000Y-76562000D03*
X105545000Y-76562000D03*
X105545000Y-75712000D03*
X105545000Y-74862000D03*
X105545000Y-74012000D03*
X105545000Y-73162000D03*
X105545000Y-72312000D03*
X105545000Y-71462000D03*
X105545000Y-70612000D03*
D35*
X105914999Y-69261999D03*
D36*
X102534999Y-69261999D03*
D35*
X105914999Y-77911999D03*
D36*
X102534999Y-77911999D03*
D37*
X135704999Y-61594999D03*
X141154999Y-61594999D03*
X148658999Y-61594999D03*
X154108999Y-61594999D03*
D21*
X116459000Y-80071000D03*
X116459000Y-78171000D03*
D16*
X117155000Y-69215000D03*
X115255000Y-69215000D03*
D38*
X111521999Y-78170999D03*
X111521999Y-80070999D03*
X113521999Y-79120999D03*
X118760999Y-65978999D03*
X118760999Y-67878999D03*
X120760999Y-66928999D03*
D20*
X111482500Y-69215000D03*
X113307500Y-69215000D03*
D19*
X113307500Y-71120000D03*
X111482500Y-71120000D03*
D18*
X118745000Y-62333500D03*
X118745000Y-64158500D03*
D22*
X120777000Y-64158500D03*
X120777000Y-62333500D03*
D20*
X115292500Y-67310000D03*
X117117500Y-67310000D03*
D19*
X132230500Y-73660000D03*
X130405500Y-73660000D03*
X127785500Y-75565000D03*
X125960500Y-75565000D03*
X127785500Y-73660000D03*
X125960500Y-73660000D03*
D20*
X132942500Y-78740000D03*
X134767500Y-78740000D03*
D18*
X121285000Y-69445500D03*
X121285000Y-71270500D03*
D19*
X132227500Y-76200000D03*
X130402500Y-76200000D03*
D39*
X175259999Y-60832999D03*
D40*
X177799999Y-60832999D03*
X180339999Y-60832999D03*
X182879999Y-60832999D03*
D41*
X121157999Y-80517999D03*
D42*
X123157999Y-80517999D03*
X125157999Y-80517999D03*
X127157999Y-80517999D03*
X129157999Y-80517999D03*
D41*
X179196999Y-80517999D03*
D42*
X177196999Y-80517999D03*
X175196999Y-80517999D03*
X173196999Y-80517999D03*
D43*
X111887000Y-72959500D03*
X111887000Y-75884500D03*
D44*
X114173000Y-75884500D03*
X114173000Y-72959500D03*
D45*
X104013000Y-80772000D03*
X183515000Y-80645000D03*
D46*
X113030000Y-65594000D03*
X114300000Y-65594000D03*
X115570000Y-65594000D03*
X116840000Y-65594000D03*
X116840000Y-60644000D03*
X115570000Y-60644000D03*
X114300000Y-60644000D03*
X113030000Y-60644000D03*
D14*
X162179000Y-78662000D03*
X162179000Y-81612000D03*
D18*
X158877000Y-79859500D03*
X158877000Y-81684500D03*
D22*
X156718000Y-81684500D03*
X156718000Y-79859500D03*
D47*
X149261000Y-74041000D03*
X153761000Y-74041000D03*
D48*
X160772999Y-75183999D03*
X156472999Y-75183999D03*
D22*
X160401000Y-70889500D03*
X160401000Y-69064500D03*
D49*
X149310999Y-78018999D03*
X149310999Y-78668999D03*
X149310999Y-79318999D03*
X149310999Y-79968999D03*
X153710999Y-79968999D03*
X153710999Y-79318999D03*
X153710999Y-78668999D03*
X153710999Y-78018999D03*
M02*
