M48
; DRILL file {KiCad (6.99.0-1603-g82820d4b1c)} date Fri Jun 17 10:59:54 2022
; FORMAT={-:-/ absolute / metric / decimal}
; #@! TF.CreationDate,2022-06-17T10:59:54+02:00
; #@! TF.GenerationSoftware,Kicad,Pcbnew,(6.99.0-1603-g82820d4b1c)
; #@! TF.FileFunction,Plated,1,2,PTH
FMAT,2
METRIC
; #@! TA.AperFunction,Plated,PTH,ComponentDrill
T1C0.300
; #@! TA.AperFunction,Plated,PTH,ViaDrill
T2C0.400
; #@! TA.AperFunction,Plated,PTH,ComponentDrill
T3C0.400
; #@! TA.AperFunction,Plated,PTH,ComponentDrill
T4C0.600
; #@! TA.AperFunction,Plated,PTH,ComponentDrill
T5C0.800
; #@! TA.AperFunction,Plated,PTH,ComponentDrill
T6C1.000
; #@! TA.AperFunction,Plated,PTH,ComponentDrill
T7C1.520
; #@! TA.AperFunction,Plated,PTH,ComponentDrill
T8C2.200
%
G90
G05
T1
X133.52Y-68.75
X133.52Y-69.85
X133.52Y-70.95
X134.62Y-68.75
X134.62Y-69.85
X134.62Y-70.95
X135.72Y-68.75
X135.72Y-69.85
X135.72Y-70.95
X151.369Y-66.944
X151.369Y-67.96
X151.369Y-68.976
X152.385Y-66.944
X152.385Y-67.96
X152.385Y-68.976
X153.401Y-66.944
X153.401Y-67.96
X153.401Y-68.976
T2
X113.538Y-66.802
X113.538Y-67.818
X114.046Y-72.009
X114.427Y-67.818
X114.427Y-69.215
X115.316Y-72.009
X121.793Y-78.613
X122.428Y-66.04
X122.428Y-67.564
X123.19Y-66.802
X123.19Y-68.326
X125.083Y-76.484
X129.032Y-59.436
X129.413Y-73.66
X129.413Y-76.2
X130.048Y-65.532
X131.826Y-67.564
X132.715Y-60.833
X133.096Y-76.2
X133.477Y-66.197
X134.62Y-60.96
X136.017Y-77.089
X137.705Y-72.39
X138.43Y-59.436
X138.43Y-65.278
X138.557Y-68.707
X144.018Y-70.612
X144.78Y-59.436
X147.955Y-65.659
X149.225Y-71.501
X150.368Y-70.014
X151.384Y-59.499
X152.019Y-79.375
X152.4Y-65.024
X154.94Y-77.851
X155.067Y-80.645
X157.607Y-65.786
X164.465Y-69.342
X173.609Y-68.58
X180.213Y-64.77
X180.213Y-69.85
T3
X105.545Y-70.612
X105.545Y-71.462
X105.545Y-72.312
X105.545Y-73.162
X105.545Y-74.012
X105.545Y-74.862
X105.545Y-75.712
X105.545Y-76.562
X106.895Y-70.612
X106.895Y-71.462
X106.895Y-72.312
X106.895Y-73.162
X106.895Y-74.012
X106.895Y-74.862
X106.895Y-75.712
X106.895Y-76.562
T5
X121.158Y-80.518
X123.158Y-80.518
X125.158Y-80.518
X127.158Y-80.518
X129.158Y-80.518
X135.275Y-80.772
X137.815Y-80.772
X173.197Y-80.518
X175.197Y-80.518
X177.197Y-80.518
X179.197Y-80.518
T6
X175.26Y-60.833
X177.8Y-60.833
X180.34Y-60.833
X182.88Y-60.833
T7
X142.875Y-75.565
X142.875Y-80.645
X167.386Y-75.565
X167.386Y-80.645
X169.291Y-60.833
X169.291Y-65.913
T8
X104.013Y-80.772
X183.515Y-80.645
T4
X102.935Y-69.262G85X102.135Y-69.262
G05
X102.935Y-77.912G85X102.135Y-77.912
G05
X106.665Y-69.262G85X105.165Y-69.262
G05
X106.665Y-77.912G85X105.165Y-77.912
G05
T6
X104.998Y-61.288G85X104.998Y-63.288
G05
X106.998Y-66.989G85X108.998Y-66.989
G05
X110.998Y-61.288G85X110.998Y-63.288
G05
T0
M30
