%FSLAX45Y45*%
G04 Gerber Fmt 4.5, Leading zero omitted, Abs format (unit mm)*
G04 Created by KiCad (PCBNEW (6.99.0-1603-g82820d4b1c)) date 2022-06-17 10:59:55*
%MOMM*%
%LPD*%
G01*
G04 APERTURE LIST*
%TA.AperFunction,Profile*%
%ADD10C,0.100000*%
%TD*%
%ADD11C,0.200000*%
%ADD12C,0.030000*%
%ADD13C,0.040000*%
%ADD14C,0.060000*%
%ADD15C,0.080000*%
%ADD16C,0.100000*%
%ADD17C,0.152000*%
%ADD18C,0.220000*%
G04 APERTURE END LIST*
D10*
X18669000Y-5803900D02*
X10083800Y-5803900D01*
X10083800Y-8343900D02*
X18669000Y-8343900D01*
X18669000Y-8343900D02*
X18669000Y-5803900D01*
X10083800Y-5803900D02*
X10083800Y-8343900D01*
D11*
D12*
X13337000Y-6860000D02*
X13367000Y-6890000D01*
X13367000Y-6860000D02*
X13337000Y-6890000D01*
X13337000Y-6970000D02*
X13367000Y-7000000D01*
X13367000Y-6970000D02*
X13337000Y-7000000D01*
X13337000Y-7080000D02*
X13367000Y-7110000D01*
X13367000Y-7080000D02*
X13337000Y-7110000D01*
X13447000Y-6860000D02*
X13477000Y-6890000D01*
X13477000Y-6860000D02*
X13447000Y-6890000D01*
X13447000Y-6970000D02*
X13477000Y-7000000D01*
X13477000Y-6970000D02*
X13447000Y-7000000D01*
X13447000Y-7080000D02*
X13477000Y-7110000D01*
X13477000Y-7080000D02*
X13447000Y-7110000D01*
X13557000Y-6860000D02*
X13587000Y-6890000D01*
X13587000Y-6860000D02*
X13557000Y-6890000D01*
X13557000Y-6970000D02*
X13587000Y-7000000D01*
X13587000Y-6970000D02*
X13557000Y-7000000D01*
X13557000Y-7080000D02*
X13587000Y-7110000D01*
X13587000Y-7080000D02*
X13557000Y-7110000D01*
X15121900Y-6679400D02*
X15151900Y-6709400D01*
X15151900Y-6679400D02*
X15121900Y-6709400D01*
X15121900Y-6781000D02*
X15151900Y-6811000D01*
X15151900Y-6781000D02*
X15121900Y-6811000D01*
X15121900Y-6882600D02*
X15151900Y-6912600D01*
X15151900Y-6882600D02*
X15121900Y-6912600D01*
X15223500Y-6679400D02*
X15253500Y-6709400D01*
X15253500Y-6679400D02*
X15223500Y-6709400D01*
X15223500Y-6781000D02*
X15253500Y-6811000D01*
X15253500Y-6781000D02*
X15223500Y-6811000D01*
X15223500Y-6882600D02*
X15253500Y-6912600D01*
X15253500Y-6882600D02*
X15223500Y-6912600D01*
X15325100Y-6679400D02*
X15355100Y-6709400D01*
X15355100Y-6679400D02*
X15325100Y-6709400D01*
X15325100Y-6781000D02*
X15355100Y-6811000D01*
X15355100Y-6781000D02*
X15325100Y-6811000D01*
X15325100Y-6882600D02*
X15355100Y-6912600D01*
X15355100Y-6882600D02*
X15325100Y-6912600D01*
D13*
X11373800Y-6680200D02*
G75*
G03*
X11373800Y-6680200I-20000J0D01*
G01*
X11373800Y-6781800D02*
G75*
G03*
X11373800Y-6781800I-20000J0D01*
G01*
X11424600Y-7200900D02*
G75*
G03*
X11424600Y-7200900I-20000J0D01*
G01*
X11462700Y-6781800D02*
G75*
G03*
X11462700Y-6781800I-20000J0D01*
G01*
X11462700Y-6921500D02*
G75*
G03*
X11462700Y-6921500I-20000J0D01*
G01*
X11551600Y-7200900D02*
G75*
G03*
X11551600Y-7200900I-20000J0D01*
G01*
X12199300Y-7861300D02*
G75*
G03*
X12199300Y-7861300I-20000J0D01*
G01*
X12262800Y-6604000D02*
G75*
G03*
X12262800Y-6604000I-20000J0D01*
G01*
X12262800Y-6756400D02*
G75*
G03*
X12262800Y-6756400I-20000J0D01*
G01*
X12339000Y-6680200D02*
G75*
G03*
X12339000Y-6680200I-20000J0D01*
G01*
X12339000Y-6832600D02*
G75*
G03*
X12339000Y-6832600I-20000J0D01*
G01*
X12528257Y-7648386D02*
G75*
G03*
X12528257Y-7648386I-20000J0D01*
G01*
X12923200Y-5943600D02*
G75*
G03*
X12923200Y-5943600I-20000J0D01*
G01*
X12961300Y-7366000D02*
G75*
G03*
X12961300Y-7366000I-20000J0D01*
G01*
X12961300Y-7620000D02*
G75*
G03*
X12961300Y-7620000I-20000J0D01*
G01*
X13024800Y-6553200D02*
G75*
G03*
X13024800Y-6553200I-20000J0D01*
G01*
X13202600Y-6756400D02*
G75*
G03*
X13202600Y-6756400I-20000J0D01*
G01*
X13291500Y-6083300D02*
G75*
G03*
X13291500Y-6083300I-20000J0D01*
G01*
X13329600Y-7620000D02*
G75*
G03*
X13329600Y-7620000I-20000J0D01*
G01*
X13367700Y-6619702D02*
G75*
G03*
X13367700Y-6619702I-20000J0D01*
G01*
X13482000Y-6096000D02*
G75*
G03*
X13482000Y-6096000I-20000J0D01*
G01*
X13621700Y-7708900D02*
G75*
G03*
X13621700Y-7708900I-20000J0D01*
G01*
X13790500Y-7239000D02*
G75*
G03*
X13790500Y-7239000I-20000J0D01*
G01*
X13863000Y-5943600D02*
G75*
G03*
X13863000Y-5943600I-20000J0D01*
G01*
X13863000Y-6527800D02*
G75*
G03*
X13863000Y-6527800I-20000J0D01*
G01*
X13875700Y-6870700D02*
G75*
G03*
X13875700Y-6870700I-20000J0D01*
G01*
X14421800Y-7061200D02*
G75*
G03*
X14421800Y-7061200I-20000J0D01*
G01*
X14498000Y-5943600D02*
G75*
G03*
X14498000Y-5943600I-20000J0D01*
G01*
X14815500Y-6565900D02*
G75*
G03*
X14815500Y-6565900I-20000J0D01*
G01*
X14942500Y-7150100D02*
G75*
G03*
X14942500Y-7150100I-20000J0D01*
G01*
X15056800Y-7001450D02*
G75*
G03*
X15056800Y-7001450I-20000J0D01*
G01*
X15158400Y-5949950D02*
G75*
G03*
X15158400Y-5949950I-20000J0D01*
G01*
X15221900Y-7937500D02*
G75*
G03*
X15221900Y-7937500I-20000J0D01*
G01*
X15260000Y-6502400D02*
G75*
G03*
X15260000Y-6502400I-20000J0D01*
G01*
X15514000Y-7785100D02*
G75*
G03*
X15514000Y-7785100I-20000J0D01*
G01*
X15526700Y-8064500D02*
G75*
G03*
X15526700Y-8064500I-20000J0D01*
G01*
X15780700Y-6578600D02*
G75*
G03*
X15780700Y-6578600I-20000J0D01*
G01*
X16466500Y-6934200D02*
G75*
G03*
X16466500Y-6934200I-20000J0D01*
G01*
X17380900Y-6858000D02*
G75*
G03*
X17380900Y-6858000I-20000J0D01*
G01*
X18041300Y-6477000D02*
G75*
G03*
X18041300Y-6477000I-20000J0D01*
G01*
X18041300Y-6985000D02*
G75*
G03*
X18041300Y-6985000I-20000J0D01*
G01*
X10554500Y-7041200D02*
X10554500Y-7081200D01*
X10534500Y-7061200D02*
X10574500Y-7061200D01*
X10554500Y-7126200D02*
X10554500Y-7166200D01*
X10534500Y-7146200D02*
X10574500Y-7146200D01*
X10554500Y-7211200D02*
X10554500Y-7251200D01*
X10534500Y-7231200D02*
X10574500Y-7231200D01*
X10554500Y-7296200D02*
X10554500Y-7336200D01*
X10534500Y-7316200D02*
X10574500Y-7316200D01*
X10554500Y-7381200D02*
X10554500Y-7421200D01*
X10534500Y-7401200D02*
X10574500Y-7401200D01*
X10554500Y-7466200D02*
X10554500Y-7506200D01*
X10534500Y-7486200D02*
X10574500Y-7486200D01*
X10554500Y-7551200D02*
X10554500Y-7591200D01*
X10534500Y-7571200D02*
X10574500Y-7571200D01*
X10554500Y-7636200D02*
X10554500Y-7676200D01*
X10534500Y-7656200D02*
X10574500Y-7656200D01*
X10689500Y-7041200D02*
X10689500Y-7081200D01*
X10669500Y-7061200D02*
X10709500Y-7061200D01*
X10689500Y-7126200D02*
X10689500Y-7166200D01*
X10669500Y-7146200D02*
X10709500Y-7146200D01*
X10689500Y-7211200D02*
X10689500Y-7251200D01*
X10669500Y-7231200D02*
X10709500Y-7231200D01*
X10689500Y-7296200D02*
X10689500Y-7336200D01*
X10669500Y-7316200D02*
X10709500Y-7316200D01*
X10689500Y-7381200D02*
X10689500Y-7421200D01*
X10669500Y-7401200D02*
X10709500Y-7401200D01*
X10689500Y-7466200D02*
X10689500Y-7506200D01*
X10669500Y-7486200D02*
X10709500Y-7486200D01*
X10689500Y-7551200D02*
X10689500Y-7591200D01*
X10669500Y-7571200D02*
X10709500Y-7571200D01*
X10689500Y-7636200D02*
X10689500Y-7676200D01*
X10669500Y-7656200D02*
X10709500Y-7656200D01*
D14*
X10274713Y-6947413D02*
X10274713Y-6904987D01*
X10232287Y-6904987D01*
X10232287Y-6947413D01*
X10274713Y-6947413D01*
D11*
X10293500Y-6906200D02*
X10213500Y-6906200D01*
X10293500Y-6946200D02*
X10213500Y-6946200D01*
X10213500Y-6906200D02*
G75*
G03*
X10213500Y-6946200I0J-20000D01*
G01*
X10293500Y-6946200D02*
G75*
G03*
X10293500Y-6906200I0J20000D01*
G01*
D14*
X10274713Y-7812413D02*
X10274713Y-7769987D01*
X10232287Y-7769987D01*
X10232287Y-7812413D01*
X10274713Y-7812413D01*
D11*
X10293500Y-7771200D02*
X10213500Y-7771200D01*
X10293500Y-7811200D02*
X10213500Y-7811200D01*
X10213500Y-7771200D02*
G75*
G03*
X10213500Y-7811200I0J-20000D01*
G01*
X10293500Y-7811200D02*
G75*
G03*
X10293500Y-7771200I0J20000D01*
G01*
D14*
X10612713Y-6947413D02*
X10612713Y-6904987D01*
X10570287Y-6904987D01*
X10570287Y-6947413D01*
X10612713Y-6947413D01*
D11*
X10666500Y-6906200D02*
X10516500Y-6906200D01*
X10666500Y-6946200D02*
X10516500Y-6946200D01*
X10516500Y-6906200D02*
G75*
G03*
X10516500Y-6946200I0J-20000D01*
G01*
X10666500Y-6946200D02*
G75*
G03*
X10666500Y-6906200I0J20000D01*
G01*
D14*
X10612713Y-7812413D02*
X10612713Y-7769987D01*
X10570287Y-7769987D01*
X10570287Y-7812413D01*
X10612713Y-7812413D01*
D11*
X10666500Y-7771200D02*
X10516500Y-7771200D01*
X10666500Y-7811200D02*
X10516500Y-7811200D01*
X10516500Y-7771200D02*
G75*
G03*
X10516500Y-7811200I0J-20000D01*
G01*
X10666500Y-7811200D02*
G75*
G03*
X10666500Y-7771200I0J20000D01*
G01*
D15*
X12115800Y-8091800D02*
X12155800Y-8051800D01*
X12115800Y-8011800D01*
X12075800Y-8051800D01*
X12115800Y-8091800D01*
X12315800Y-8091800D02*
X12355800Y-8051800D01*
X12315800Y-8011800D01*
X12275800Y-8051800D01*
X12315800Y-8091800D01*
X12515800Y-8091800D02*
X12555800Y-8051800D01*
X12515800Y-8011800D01*
X12475800Y-8051800D01*
X12515800Y-8091800D01*
X12715800Y-8091800D02*
X12755800Y-8051800D01*
X12715800Y-8011800D01*
X12675800Y-8051800D01*
X12715800Y-8091800D01*
X12915800Y-8091800D02*
X12955800Y-8051800D01*
X12915800Y-8011800D01*
X12875800Y-8051800D01*
X12915800Y-8091800D01*
X13527500Y-8117200D02*
X13567500Y-8077200D01*
X13527500Y-8037200D01*
X13487500Y-8077200D01*
X13527500Y-8117200D01*
X13781500Y-8117200D02*
X13821500Y-8077200D01*
X13781500Y-8037200D01*
X13741500Y-8077200D01*
X13781500Y-8117200D01*
X17319700Y-8091800D02*
X17359700Y-8051800D01*
X17319700Y-8011800D01*
X17279700Y-8051800D01*
X17319700Y-8091800D01*
X17519700Y-8091800D02*
X17559700Y-8051800D01*
X17519700Y-8011800D01*
X17479700Y-8051800D01*
X17519700Y-8091800D01*
X17719700Y-8091800D02*
X17759700Y-8051800D01*
X17719700Y-8011800D01*
X17679700Y-8051800D01*
X17719700Y-8091800D01*
X17919700Y-8091800D02*
X17959700Y-8051800D01*
X17919700Y-8011800D01*
X17879700Y-8051800D01*
X17919700Y-8091800D01*
D16*
X10449800Y-6178850D02*
X10549800Y-6278850D01*
X10549800Y-6178850D02*
X10449800Y-6278850D01*
X10549800Y-6228850D02*
G75*
G03*
X10549800Y-6228850I-50000J0D01*
G01*
D11*
X10459800Y-6128850D02*
X10459800Y-6328850D01*
X10539800Y-6128850D02*
X10539800Y-6328850D01*
X10459800Y-6328850D02*
G75*
G03*
X10539800Y-6328850I40000J0D01*
G01*
X10539800Y-6128850D02*
G75*
G03*
X10459800Y-6128850I-40000J0D01*
G01*
D16*
X10749800Y-6648850D02*
X10849800Y-6748850D01*
X10849800Y-6648850D02*
X10749800Y-6748850D01*
X10849800Y-6698850D02*
G75*
G03*
X10849800Y-6698850I-50000J0D01*
G01*
D11*
X10699800Y-6738850D02*
X10899800Y-6738850D01*
X10699800Y-6658850D02*
X10899800Y-6658850D01*
X10899800Y-6738850D02*
G75*
G03*
X10899800Y-6658850I0J40000D01*
G01*
X10699800Y-6658850D02*
G75*
G03*
X10699800Y-6738850I0J-40000D01*
G01*
D16*
X11049800Y-6178850D02*
X11149800Y-6278850D01*
X11149800Y-6178850D02*
X11049800Y-6278850D01*
X11149800Y-6228850D02*
G75*
G03*
X11149800Y-6228850I-50000J0D01*
G01*
D11*
X11059800Y-6128850D02*
X11059800Y-6328850D01*
X11139800Y-6128850D02*
X11139800Y-6328850D01*
X11059800Y-6328850D02*
G75*
G03*
X11139800Y-6328850I40000J0D01*
G01*
X11139800Y-6128850D02*
G75*
G03*
X11059800Y-6128850I-40000J0D01*
G01*
D16*
X17476000Y-6033300D02*
X17576000Y-6133300D01*
X17576000Y-6033300D02*
X17476000Y-6133300D01*
X17576000Y-6083300D02*
G75*
G03*
X17576000Y-6083300I-50000J0D01*
G01*
X17730000Y-6033300D02*
X17830000Y-6133300D01*
X17830000Y-6033300D02*
X17730000Y-6133300D01*
X17830000Y-6083300D02*
G75*
G03*
X17830000Y-6083300I-50000J0D01*
G01*
X17984000Y-6033300D02*
X18084000Y-6133300D01*
X18084000Y-6033300D02*
X17984000Y-6133300D01*
X18084000Y-6083300D02*
G75*
G03*
X18084000Y-6083300I-50000J0D01*
G01*
X18238000Y-6033300D02*
X18338000Y-6133300D01*
X18338000Y-6033300D02*
X18238000Y-6133300D01*
X18338000Y-6083300D02*
G75*
G03*
X18338000Y-6083300I-50000J0D01*
G01*
D17*
X14211500Y-7480500D02*
X14363500Y-7632500D01*
X14363500Y-7480500D02*
X14211500Y-7632500D01*
X14287500Y-7480500D02*
X14287500Y-7632500D01*
X14211500Y-7556500D02*
X14363500Y-7556500D01*
X14211500Y-7988500D02*
X14363500Y-8140500D01*
X14363500Y-7988500D02*
X14211500Y-8140500D01*
X14287500Y-7988500D02*
X14287500Y-8140500D01*
X14211500Y-8064500D02*
X14363500Y-8064500D01*
X16662600Y-7480500D02*
X16814600Y-7632500D01*
X16814600Y-7480500D02*
X16662600Y-7632500D01*
X16738600Y-7480500D02*
X16738600Y-7632500D01*
X16662600Y-7556500D02*
X16814600Y-7556500D01*
X16662600Y-7988500D02*
X16814600Y-8140500D01*
X16814600Y-7988500D02*
X16662600Y-8140500D01*
X16738600Y-7988500D02*
X16738600Y-8140500D01*
X16662600Y-8064500D02*
X16814600Y-8064500D01*
X16853100Y-6007300D02*
X17005100Y-6159300D01*
X17005100Y-6007300D02*
X16853100Y-6159300D01*
X16929100Y-6007300D02*
X16929100Y-6159300D01*
X16853100Y-6083300D02*
X17005100Y-6083300D01*
X16853100Y-6515300D02*
X17005100Y-6667300D01*
X17005100Y-6515300D02*
X16853100Y-6667300D01*
X16929100Y-6515300D02*
X16929100Y-6667300D01*
X16853100Y-6591300D02*
X17005100Y-6591300D01*
D18*
X10291300Y-7967200D02*
X10511300Y-8187200D01*
X10511300Y-7967200D02*
X10291300Y-8187200D01*
X10479083Y-8154982D02*
X10479083Y-7999417D01*
X10323518Y-7999417D01*
X10323518Y-8154982D01*
X10479083Y-8154982D01*
X18241500Y-7954500D02*
X18461500Y-8174500D01*
X18461500Y-7954500D02*
X18241500Y-8174500D01*
X18429283Y-8142282D02*
X18429283Y-7986717D01*
X18273718Y-7986717D01*
X18273718Y-8142282D01*
X18429283Y-8142282D01*
D11*
X10326419Y-8642376D02*
X10326419Y-8442376D01*
X10326419Y-8442376D02*
X10374038Y-8442376D01*
X10374038Y-8442376D02*
X10402610Y-8451900D01*
X10402610Y-8451900D02*
X10421657Y-8470948D01*
X10421657Y-8470948D02*
X10431181Y-8489995D01*
X10431181Y-8489995D02*
X10440705Y-8528090D01*
X10440705Y-8528090D02*
X10440705Y-8556662D01*
X10440705Y-8556662D02*
X10431181Y-8594757D01*
X10431181Y-8594757D02*
X10421657Y-8613805D01*
X10421657Y-8613805D02*
X10402610Y-8632852D01*
X10402610Y-8632852D02*
X10374038Y-8642376D01*
X10374038Y-8642376D02*
X10326419Y-8642376D01*
X10526419Y-8642376D02*
X10526419Y-8509043D01*
X10526419Y-8547138D02*
X10535943Y-8528090D01*
X10535943Y-8528090D02*
X10545467Y-8518567D01*
X10545467Y-8518567D02*
X10564514Y-8509043D01*
X10564514Y-8509043D02*
X10583562Y-8509043D01*
X10650229Y-8642376D02*
X10650229Y-8509043D01*
X10650229Y-8442376D02*
X10640705Y-8451900D01*
X10640705Y-8451900D02*
X10650229Y-8461424D01*
X10650229Y-8461424D02*
X10659752Y-8451900D01*
X10659752Y-8451900D02*
X10650229Y-8442376D01*
X10650229Y-8442376D02*
X10650229Y-8461424D01*
X10774038Y-8642376D02*
X10754990Y-8632852D01*
X10754990Y-8632852D02*
X10745467Y-8613805D01*
X10745467Y-8613805D02*
X10745467Y-8442376D01*
X10878800Y-8642376D02*
X10859752Y-8632852D01*
X10859752Y-8632852D02*
X10850229Y-8613805D01*
X10850229Y-8613805D02*
X10850229Y-8442376D01*
X11074990Y-8642376D02*
X11074990Y-8442376D01*
X11074990Y-8442376D02*
X11141657Y-8585233D01*
X11141657Y-8585233D02*
X11208324Y-8442376D01*
X11208324Y-8442376D02*
X11208324Y-8642376D01*
X11389276Y-8642376D02*
X11389276Y-8537614D01*
X11389276Y-8537614D02*
X11379752Y-8518567D01*
X11379752Y-8518567D02*
X11360705Y-8509043D01*
X11360705Y-8509043D02*
X11322609Y-8509043D01*
X11322609Y-8509043D02*
X11303562Y-8518567D01*
X11389276Y-8632852D02*
X11370228Y-8642376D01*
X11370228Y-8642376D02*
X11322609Y-8642376D01*
X11322609Y-8642376D02*
X11303562Y-8632852D01*
X11303562Y-8632852D02*
X11294038Y-8613805D01*
X11294038Y-8613805D02*
X11294038Y-8594757D01*
X11294038Y-8594757D02*
X11303562Y-8575710D01*
X11303562Y-8575710D02*
X11322609Y-8566186D01*
X11322609Y-8566186D02*
X11370228Y-8566186D01*
X11370228Y-8566186D02*
X11389276Y-8556662D01*
X11484514Y-8509043D02*
X11484514Y-8709043D01*
X11484514Y-8518567D02*
X11503562Y-8509043D01*
X11503562Y-8509043D02*
X11541657Y-8509043D01*
X11541657Y-8509043D02*
X11560705Y-8518567D01*
X11560705Y-8518567D02*
X11570228Y-8528090D01*
X11570228Y-8528090D02*
X11579752Y-8547138D01*
X11579752Y-8547138D02*
X11579752Y-8604281D01*
X11579752Y-8604281D02*
X11570228Y-8623329D01*
X11570228Y-8623329D02*
X11560705Y-8632852D01*
X11560705Y-8632852D02*
X11541657Y-8642376D01*
X11541657Y-8642376D02*
X11503562Y-8642376D01*
X11503562Y-8642376D02*
X11484514Y-8632852D01*
X11665467Y-8623329D02*
X11674990Y-8632852D01*
X11674990Y-8632852D02*
X11665467Y-8642376D01*
X11665467Y-8642376D02*
X11655943Y-8632852D01*
X11655943Y-8632852D02*
X11665467Y-8623329D01*
X11665467Y-8623329D02*
X11665467Y-8642376D01*
X11665467Y-8518567D02*
X11674990Y-8528090D01*
X11674990Y-8528090D02*
X11665467Y-8537614D01*
X11665467Y-8537614D02*
X11655943Y-8528090D01*
X11655943Y-8528090D02*
X11665467Y-8518567D01*
X11665467Y-8518567D02*
X11665467Y-8537614D01*
D12*
X10048800Y-8973900D02*
X10078800Y-9003900D01*
X10078800Y-8973900D02*
X10048800Y-9003900D01*
D11*
X10364514Y-8862376D02*
X10383562Y-8862376D01*
X10383562Y-8862376D02*
X10402610Y-8871900D01*
X10402610Y-8871900D02*
X10412133Y-8881424D01*
X10412133Y-8881424D02*
X10421657Y-8900471D01*
X10421657Y-8900471D02*
X10431181Y-8938567D01*
X10431181Y-8938567D02*
X10431181Y-8986186D01*
X10431181Y-8986186D02*
X10421657Y-9024281D01*
X10421657Y-9024281D02*
X10412133Y-9043329D01*
X10412133Y-9043329D02*
X10402610Y-9052852D01*
X10402610Y-9052852D02*
X10383562Y-9062376D01*
X10383562Y-9062376D02*
X10364514Y-9062376D01*
X10364514Y-9062376D02*
X10345467Y-9052852D01*
X10345467Y-9052852D02*
X10335943Y-9043329D01*
X10335943Y-9043329D02*
X10326419Y-9024281D01*
X10326419Y-9024281D02*
X10316895Y-8986186D01*
X10316895Y-8986186D02*
X10316895Y-8938567D01*
X10316895Y-8938567D02*
X10326419Y-8900471D01*
X10326419Y-8900471D02*
X10335943Y-8881424D01*
X10335943Y-8881424D02*
X10345467Y-8871900D01*
X10345467Y-8871900D02*
X10364514Y-8862376D01*
X10516895Y-9043329D02*
X10526419Y-9052852D01*
X10526419Y-9052852D02*
X10516895Y-9062376D01*
X10516895Y-9062376D02*
X10507371Y-9052852D01*
X10507371Y-9052852D02*
X10516895Y-9043329D01*
X10516895Y-9043329D02*
X10516895Y-9062376D01*
X10593086Y-8862376D02*
X10716895Y-8862376D01*
X10716895Y-8862376D02*
X10650229Y-8938567D01*
X10650229Y-8938567D02*
X10678800Y-8938567D01*
X10678800Y-8938567D02*
X10697848Y-8948090D01*
X10697848Y-8948090D02*
X10707371Y-8957614D01*
X10707371Y-8957614D02*
X10716895Y-8976662D01*
X10716895Y-8976662D02*
X10716895Y-9024281D01*
X10716895Y-9024281D02*
X10707371Y-9043329D01*
X10707371Y-9043329D02*
X10697848Y-9052852D01*
X10697848Y-9052852D02*
X10678800Y-9062376D01*
X10678800Y-9062376D02*
X10621657Y-9062376D01*
X10621657Y-9062376D02*
X10602610Y-9052852D01*
X10602610Y-9052852D02*
X10593086Y-9043329D01*
X10840705Y-8862376D02*
X10859752Y-8862376D01*
X10859752Y-8862376D02*
X10878800Y-8871900D01*
X10878800Y-8871900D02*
X10888324Y-8881424D01*
X10888324Y-8881424D02*
X10897848Y-8900471D01*
X10897848Y-8900471D02*
X10907371Y-8938567D01*
X10907371Y-8938567D02*
X10907371Y-8986186D01*
X10907371Y-8986186D02*
X10897848Y-9024281D01*
X10897848Y-9024281D02*
X10888324Y-9043329D01*
X10888324Y-9043329D02*
X10878800Y-9052852D01*
X10878800Y-9052852D02*
X10859752Y-9062376D01*
X10859752Y-9062376D02*
X10840705Y-9062376D01*
X10840705Y-9062376D02*
X10821657Y-9052852D01*
X10821657Y-9052852D02*
X10812133Y-9043329D01*
X10812133Y-9043329D02*
X10802610Y-9024281D01*
X10802610Y-9024281D02*
X10793086Y-8986186D01*
X10793086Y-8986186D02*
X10793086Y-8938567D01*
X10793086Y-8938567D02*
X10802610Y-8900471D01*
X10802610Y-8900471D02*
X10812133Y-8881424D01*
X10812133Y-8881424D02*
X10821657Y-8871900D01*
X10821657Y-8871900D02*
X10840705Y-8862376D01*
X11031181Y-8862376D02*
X11050229Y-8862376D01*
X11050229Y-8862376D02*
X11069276Y-8871900D01*
X11069276Y-8871900D02*
X11078800Y-8881424D01*
X11078800Y-8881424D02*
X11088324Y-8900471D01*
X11088324Y-8900471D02*
X11097848Y-8938567D01*
X11097848Y-8938567D02*
X11097848Y-8986186D01*
X11097848Y-8986186D02*
X11088324Y-9024281D01*
X11088324Y-9024281D02*
X11078800Y-9043329D01*
X11078800Y-9043329D02*
X11069276Y-9052852D01*
X11069276Y-9052852D02*
X11050229Y-9062376D01*
X11050229Y-9062376D02*
X11031181Y-9062376D01*
X11031181Y-9062376D02*
X11012133Y-9052852D01*
X11012133Y-9052852D02*
X11002610Y-9043329D01*
X11002610Y-9043329D02*
X10993086Y-9024281D01*
X10993086Y-9024281D02*
X10983562Y-8986186D01*
X10983562Y-8986186D02*
X10983562Y-8938567D01*
X10983562Y-8938567D02*
X10993086Y-8900471D01*
X10993086Y-8900471D02*
X11002610Y-8881424D01*
X11002610Y-8881424D02*
X11012133Y-8871900D01*
X11012133Y-8871900D02*
X11031181Y-8862376D01*
X11183562Y-9062376D02*
X11183562Y-8929043D01*
X11183562Y-8948090D02*
X11193086Y-8938567D01*
X11193086Y-8938567D02*
X11212133Y-8929043D01*
X11212133Y-8929043D02*
X11240705Y-8929043D01*
X11240705Y-8929043D02*
X11259752Y-8938567D01*
X11259752Y-8938567D02*
X11269276Y-8957614D01*
X11269276Y-8957614D02*
X11269276Y-9062376D01*
X11269276Y-8957614D02*
X11278800Y-8938567D01*
X11278800Y-8938567D02*
X11297848Y-8929043D01*
X11297848Y-8929043D02*
X11326419Y-8929043D01*
X11326419Y-8929043D02*
X11345467Y-8938567D01*
X11345467Y-8938567D02*
X11354990Y-8957614D01*
X11354990Y-8957614D02*
X11354990Y-9062376D01*
X11450229Y-9062376D02*
X11450229Y-8929043D01*
X11450229Y-8948090D02*
X11459752Y-8938567D01*
X11459752Y-8938567D02*
X11478800Y-8929043D01*
X11478800Y-8929043D02*
X11507371Y-8929043D01*
X11507371Y-8929043D02*
X11526419Y-8938567D01*
X11526419Y-8938567D02*
X11535943Y-8957614D01*
X11535943Y-8957614D02*
X11535943Y-9062376D01*
X11535943Y-8957614D02*
X11545467Y-8938567D01*
X11545467Y-8938567D02*
X11564514Y-8929043D01*
X11564514Y-8929043D02*
X11593086Y-8929043D01*
X11593086Y-8929043D02*
X11612133Y-8938567D01*
X11612133Y-8938567D02*
X11621657Y-8957614D01*
X11621657Y-8957614D02*
X11621657Y-9062376D01*
X11979752Y-8852852D02*
X11808324Y-9109995D01*
X12204514Y-8862376D02*
X12223562Y-8862376D01*
X12223562Y-8862376D02*
X12242610Y-8871900D01*
X12242610Y-8871900D02*
X12252133Y-8881424D01*
X12252133Y-8881424D02*
X12261657Y-8900471D01*
X12261657Y-8900471D02*
X12271181Y-8938567D01*
X12271181Y-8938567D02*
X12271181Y-8986186D01*
X12271181Y-8986186D02*
X12261657Y-9024281D01*
X12261657Y-9024281D02*
X12252133Y-9043329D01*
X12252133Y-9043329D02*
X12242610Y-9052852D01*
X12242610Y-9052852D02*
X12223562Y-9062376D01*
X12223562Y-9062376D02*
X12204514Y-9062376D01*
X12204514Y-9062376D02*
X12185467Y-9052852D01*
X12185467Y-9052852D02*
X12175943Y-9043329D01*
X12175943Y-9043329D02*
X12166419Y-9024281D01*
X12166419Y-9024281D02*
X12156895Y-8986186D01*
X12156895Y-8986186D02*
X12156895Y-8938567D01*
X12156895Y-8938567D02*
X12166419Y-8900471D01*
X12166419Y-8900471D02*
X12175943Y-8881424D01*
X12175943Y-8881424D02*
X12185467Y-8871900D01*
X12185467Y-8871900D02*
X12204514Y-8862376D01*
X12356895Y-9043329D02*
X12366419Y-9052852D01*
X12366419Y-9052852D02*
X12356895Y-9062376D01*
X12356895Y-9062376D02*
X12347371Y-9052852D01*
X12347371Y-9052852D02*
X12356895Y-9043329D01*
X12356895Y-9043329D02*
X12356895Y-9062376D01*
X12490229Y-8862376D02*
X12509276Y-8862376D01*
X12509276Y-8862376D02*
X12528324Y-8871900D01*
X12528324Y-8871900D02*
X12537848Y-8881424D01*
X12537848Y-8881424D02*
X12547371Y-8900471D01*
X12547371Y-8900471D02*
X12556895Y-8938567D01*
X12556895Y-8938567D02*
X12556895Y-8986186D01*
X12556895Y-8986186D02*
X12547371Y-9024281D01*
X12547371Y-9024281D02*
X12537848Y-9043329D01*
X12537848Y-9043329D02*
X12528324Y-9052852D01*
X12528324Y-9052852D02*
X12509276Y-9062376D01*
X12509276Y-9062376D02*
X12490229Y-9062376D01*
X12490229Y-9062376D02*
X12471181Y-9052852D01*
X12471181Y-9052852D02*
X12461657Y-9043329D01*
X12461657Y-9043329D02*
X12452133Y-9024281D01*
X12452133Y-9024281D02*
X12442610Y-8986186D01*
X12442610Y-8986186D02*
X12442610Y-8938567D01*
X12442610Y-8938567D02*
X12452133Y-8900471D01*
X12452133Y-8900471D02*
X12461657Y-8881424D01*
X12461657Y-8881424D02*
X12471181Y-8871900D01*
X12471181Y-8871900D02*
X12490229Y-8862376D01*
X12747371Y-9062376D02*
X12633086Y-9062376D01*
X12690229Y-9062376D02*
X12690229Y-8862376D01*
X12690229Y-8862376D02*
X12671181Y-8890948D01*
X12671181Y-8890948D02*
X12652133Y-8909995D01*
X12652133Y-8909995D02*
X12633086Y-8919519D01*
X12937848Y-9062376D02*
X12823562Y-9062376D01*
X12880705Y-9062376D02*
X12880705Y-8862376D01*
X12880705Y-8862376D02*
X12861657Y-8890948D01*
X12861657Y-8890948D02*
X12842610Y-8909995D01*
X12842610Y-8909995D02*
X12823562Y-8919519D01*
X13052133Y-8948090D02*
X13033086Y-8938567D01*
X13033086Y-8938567D02*
X13023562Y-8929043D01*
X13023562Y-8929043D02*
X13014038Y-8909995D01*
X13014038Y-8909995D02*
X13014038Y-8900471D01*
X13014038Y-8900471D02*
X13023562Y-8881424D01*
X13023562Y-8881424D02*
X13033086Y-8871900D01*
X13033086Y-8871900D02*
X13052133Y-8862376D01*
X13052133Y-8862376D02*
X13090229Y-8862376D01*
X13090229Y-8862376D02*
X13109276Y-8871900D01*
X13109276Y-8871900D02*
X13118800Y-8881424D01*
X13118800Y-8881424D02*
X13128324Y-8900471D01*
X13128324Y-8900471D02*
X13128324Y-8909995D01*
X13128324Y-8909995D02*
X13118800Y-8929043D01*
X13118800Y-8929043D02*
X13109276Y-8938567D01*
X13109276Y-8938567D02*
X13090229Y-8948090D01*
X13090229Y-8948090D02*
X13052133Y-8948090D01*
X13052133Y-8948090D02*
X13033086Y-8957614D01*
X13033086Y-8957614D02*
X13023562Y-8967138D01*
X13023562Y-8967138D02*
X13014038Y-8986186D01*
X13014038Y-8986186D02*
X13014038Y-9024281D01*
X13014038Y-9024281D02*
X13023562Y-9043329D01*
X13023562Y-9043329D02*
X13033086Y-9052852D01*
X13033086Y-9052852D02*
X13052133Y-9062376D01*
X13052133Y-9062376D02*
X13090229Y-9062376D01*
X13090229Y-9062376D02*
X13109276Y-9052852D01*
X13109276Y-9052852D02*
X13118800Y-9043329D01*
X13118800Y-9043329D02*
X13128324Y-9024281D01*
X13128324Y-9024281D02*
X13128324Y-8986186D01*
X13128324Y-8986186D02*
X13118800Y-8967138D01*
X13118800Y-8967138D02*
X13109276Y-8957614D01*
X13109276Y-8957614D02*
X13090229Y-8948090D01*
X13204514Y-8862376D02*
X13204514Y-8900471D01*
X13280705Y-8862376D02*
X13280705Y-8900471D01*
X13543562Y-9138567D02*
X13534038Y-9129043D01*
X13534038Y-9129043D02*
X13514991Y-9100471D01*
X13514991Y-9100471D02*
X13505467Y-9081424D01*
X13505467Y-9081424D02*
X13495943Y-9052852D01*
X13495943Y-9052852D02*
X13486419Y-9005233D01*
X13486419Y-9005233D02*
X13486419Y-8967138D01*
X13486419Y-8967138D02*
X13495943Y-8919519D01*
X13495943Y-8919519D02*
X13505467Y-8890948D01*
X13505467Y-8890948D02*
X13514991Y-8871900D01*
X13514991Y-8871900D02*
X13534038Y-8843329D01*
X13534038Y-8843329D02*
X13543562Y-8833805D01*
X13724514Y-9062376D02*
X13610229Y-9062376D01*
X13667371Y-9062376D02*
X13667371Y-8862376D01*
X13667371Y-8862376D02*
X13648324Y-8890948D01*
X13648324Y-8890948D02*
X13629276Y-8909995D01*
X13629276Y-8909995D02*
X13610229Y-8919519D01*
X13838800Y-8948090D02*
X13819752Y-8938567D01*
X13819752Y-8938567D02*
X13810229Y-8929043D01*
X13810229Y-8929043D02*
X13800705Y-8909995D01*
X13800705Y-8909995D02*
X13800705Y-8900471D01*
X13800705Y-8900471D02*
X13810229Y-8881424D01*
X13810229Y-8881424D02*
X13819752Y-8871900D01*
X13819752Y-8871900D02*
X13838800Y-8862376D01*
X13838800Y-8862376D02*
X13876895Y-8862376D01*
X13876895Y-8862376D02*
X13895943Y-8871900D01*
X13895943Y-8871900D02*
X13905467Y-8881424D01*
X13905467Y-8881424D02*
X13914991Y-8900471D01*
X13914991Y-8900471D02*
X13914991Y-8909995D01*
X13914991Y-8909995D02*
X13905467Y-8929043D01*
X13905467Y-8929043D02*
X13895943Y-8938567D01*
X13895943Y-8938567D02*
X13876895Y-8948090D01*
X13876895Y-8948090D02*
X13838800Y-8948090D01*
X13838800Y-8948090D02*
X13819752Y-8957614D01*
X13819752Y-8957614D02*
X13810229Y-8967138D01*
X13810229Y-8967138D02*
X13800705Y-8986186D01*
X13800705Y-8986186D02*
X13800705Y-9024281D01*
X13800705Y-9024281D02*
X13810229Y-9043329D01*
X13810229Y-9043329D02*
X13819752Y-9052852D01*
X13819752Y-9052852D02*
X13838800Y-9062376D01*
X13838800Y-9062376D02*
X13876895Y-9062376D01*
X13876895Y-9062376D02*
X13895943Y-9052852D01*
X13895943Y-9052852D02*
X13905467Y-9043329D01*
X13905467Y-9043329D02*
X13914991Y-9024281D01*
X13914991Y-9024281D02*
X13914991Y-8986186D01*
X13914991Y-8986186D02*
X13905467Y-8967138D01*
X13905467Y-8967138D02*
X13895943Y-8957614D01*
X13895943Y-8957614D02*
X13876895Y-8948090D01*
X14120705Y-9062376D02*
X14120705Y-8862376D01*
X14206419Y-9062376D02*
X14206419Y-8957614D01*
X14206419Y-8957614D02*
X14196895Y-8938567D01*
X14196895Y-8938567D02*
X14177848Y-8929043D01*
X14177848Y-8929043D02*
X14149276Y-8929043D01*
X14149276Y-8929043D02*
X14130229Y-8938567D01*
X14130229Y-8938567D02*
X14120705Y-8948090D01*
X14330229Y-9062376D02*
X14311181Y-9052852D01*
X14311181Y-9052852D02*
X14301657Y-9043329D01*
X14301657Y-9043329D02*
X14292133Y-9024281D01*
X14292133Y-9024281D02*
X14292133Y-8967138D01*
X14292133Y-8967138D02*
X14301657Y-8948090D01*
X14301657Y-8948090D02*
X14311181Y-8938567D01*
X14311181Y-8938567D02*
X14330229Y-8929043D01*
X14330229Y-8929043D02*
X14358800Y-8929043D01*
X14358800Y-8929043D02*
X14377848Y-8938567D01*
X14377848Y-8938567D02*
X14387372Y-8948090D01*
X14387372Y-8948090D02*
X14396895Y-8967138D01*
X14396895Y-8967138D02*
X14396895Y-9024281D01*
X14396895Y-9024281D02*
X14387372Y-9043329D01*
X14387372Y-9043329D02*
X14377848Y-9052852D01*
X14377848Y-9052852D02*
X14358800Y-9062376D01*
X14358800Y-9062376D02*
X14330229Y-9062376D01*
X14511181Y-9062376D02*
X14492133Y-9052852D01*
X14492133Y-9052852D02*
X14482610Y-9033805D01*
X14482610Y-9033805D02*
X14482610Y-8862376D01*
X14663562Y-9052852D02*
X14644514Y-9062376D01*
X14644514Y-9062376D02*
X14606419Y-9062376D01*
X14606419Y-9062376D02*
X14587372Y-9052852D01*
X14587372Y-9052852D02*
X14577848Y-9033805D01*
X14577848Y-9033805D02*
X14577848Y-8957614D01*
X14577848Y-8957614D02*
X14587372Y-8938567D01*
X14587372Y-8938567D02*
X14606419Y-8929043D01*
X14606419Y-8929043D02*
X14644514Y-8929043D01*
X14644514Y-8929043D02*
X14663562Y-8938567D01*
X14663562Y-8938567D02*
X14673086Y-8957614D01*
X14673086Y-8957614D02*
X14673086Y-8976662D01*
X14673086Y-8976662D02*
X14577848Y-8995710D01*
X14749276Y-9052852D02*
X14768324Y-9062376D01*
X14768324Y-9062376D02*
X14806419Y-9062376D01*
X14806419Y-9062376D02*
X14825467Y-9052852D01*
X14825467Y-9052852D02*
X14834991Y-9033805D01*
X14834991Y-9033805D02*
X14834991Y-9024281D01*
X14834991Y-9024281D02*
X14825467Y-9005233D01*
X14825467Y-9005233D02*
X14806419Y-8995710D01*
X14806419Y-8995710D02*
X14777848Y-8995710D01*
X14777848Y-8995710D02*
X14758800Y-8986186D01*
X14758800Y-8986186D02*
X14749276Y-8967138D01*
X14749276Y-8967138D02*
X14749276Y-8957614D01*
X14749276Y-8957614D02*
X14758800Y-8938567D01*
X14758800Y-8938567D02*
X14777848Y-8929043D01*
X14777848Y-8929043D02*
X14806419Y-8929043D01*
X14806419Y-8929043D02*
X14825467Y-8938567D01*
X14901657Y-9138567D02*
X14911181Y-9129043D01*
X14911181Y-9129043D02*
X14930229Y-9100471D01*
X14930229Y-9100471D02*
X14939753Y-9081424D01*
X14939753Y-9081424D02*
X14949276Y-9052852D01*
X14949276Y-9052852D02*
X14958800Y-9005233D01*
X14958800Y-9005233D02*
X14958800Y-8967138D01*
X14958800Y-8967138D02*
X14949276Y-8919519D01*
X14949276Y-8919519D02*
X14939753Y-8890948D01*
X14939753Y-8890948D02*
X14930229Y-8871900D01*
X14930229Y-8871900D02*
X14911181Y-8843329D01*
X14911181Y-8843329D02*
X14901657Y-8833805D01*
D13*
X10078800Y-9252900D02*
G75*
G03*
X10078800Y-9252900I-20000J0D01*
G01*
D11*
X10364514Y-9126376D02*
X10383562Y-9126376D01*
X10383562Y-9126376D02*
X10402610Y-9135900D01*
X10402610Y-9135900D02*
X10412133Y-9145424D01*
X10412133Y-9145424D02*
X10421657Y-9164471D01*
X10421657Y-9164471D02*
X10431181Y-9202567D01*
X10431181Y-9202567D02*
X10431181Y-9250186D01*
X10431181Y-9250186D02*
X10421657Y-9288281D01*
X10421657Y-9288281D02*
X10412133Y-9307329D01*
X10412133Y-9307329D02*
X10402610Y-9316852D01*
X10402610Y-9316852D02*
X10383562Y-9326376D01*
X10383562Y-9326376D02*
X10364514Y-9326376D01*
X10364514Y-9326376D02*
X10345467Y-9316852D01*
X10345467Y-9316852D02*
X10335943Y-9307329D01*
X10335943Y-9307329D02*
X10326419Y-9288281D01*
X10326419Y-9288281D02*
X10316895Y-9250186D01*
X10316895Y-9250186D02*
X10316895Y-9202567D01*
X10316895Y-9202567D02*
X10326419Y-9164471D01*
X10326419Y-9164471D02*
X10335943Y-9145424D01*
X10335943Y-9145424D02*
X10345467Y-9135900D01*
X10345467Y-9135900D02*
X10364514Y-9126376D01*
X10516895Y-9307329D02*
X10526419Y-9316852D01*
X10526419Y-9316852D02*
X10516895Y-9326376D01*
X10516895Y-9326376D02*
X10507371Y-9316852D01*
X10507371Y-9316852D02*
X10516895Y-9307329D01*
X10516895Y-9307329D02*
X10516895Y-9326376D01*
X10697848Y-9193043D02*
X10697848Y-9326376D01*
X10650229Y-9116852D02*
X10602610Y-9259710D01*
X10602610Y-9259710D02*
X10726419Y-9259710D01*
X10840705Y-9126376D02*
X10859752Y-9126376D01*
X10859752Y-9126376D02*
X10878800Y-9135900D01*
X10878800Y-9135900D02*
X10888324Y-9145424D01*
X10888324Y-9145424D02*
X10897848Y-9164471D01*
X10897848Y-9164471D02*
X10907371Y-9202567D01*
X10907371Y-9202567D02*
X10907371Y-9250186D01*
X10907371Y-9250186D02*
X10897848Y-9288281D01*
X10897848Y-9288281D02*
X10888324Y-9307329D01*
X10888324Y-9307329D02*
X10878800Y-9316852D01*
X10878800Y-9316852D02*
X10859752Y-9326376D01*
X10859752Y-9326376D02*
X10840705Y-9326376D01*
X10840705Y-9326376D02*
X10821657Y-9316852D01*
X10821657Y-9316852D02*
X10812133Y-9307329D01*
X10812133Y-9307329D02*
X10802610Y-9288281D01*
X10802610Y-9288281D02*
X10793086Y-9250186D01*
X10793086Y-9250186D02*
X10793086Y-9202567D01*
X10793086Y-9202567D02*
X10802610Y-9164471D01*
X10802610Y-9164471D02*
X10812133Y-9145424D01*
X10812133Y-9145424D02*
X10821657Y-9135900D01*
X10821657Y-9135900D02*
X10840705Y-9126376D01*
X11031181Y-9126376D02*
X11050229Y-9126376D01*
X11050229Y-9126376D02*
X11069276Y-9135900D01*
X11069276Y-9135900D02*
X11078800Y-9145424D01*
X11078800Y-9145424D02*
X11088324Y-9164471D01*
X11088324Y-9164471D02*
X11097848Y-9202567D01*
X11097848Y-9202567D02*
X11097848Y-9250186D01*
X11097848Y-9250186D02*
X11088324Y-9288281D01*
X11088324Y-9288281D02*
X11078800Y-9307329D01*
X11078800Y-9307329D02*
X11069276Y-9316852D01*
X11069276Y-9316852D02*
X11050229Y-9326376D01*
X11050229Y-9326376D02*
X11031181Y-9326376D01*
X11031181Y-9326376D02*
X11012133Y-9316852D01*
X11012133Y-9316852D02*
X11002610Y-9307329D01*
X11002610Y-9307329D02*
X10993086Y-9288281D01*
X10993086Y-9288281D02*
X10983562Y-9250186D01*
X10983562Y-9250186D02*
X10983562Y-9202567D01*
X10983562Y-9202567D02*
X10993086Y-9164471D01*
X10993086Y-9164471D02*
X11002610Y-9145424D01*
X11002610Y-9145424D02*
X11012133Y-9135900D01*
X11012133Y-9135900D02*
X11031181Y-9126376D01*
X11183562Y-9326376D02*
X11183562Y-9193043D01*
X11183562Y-9212090D02*
X11193086Y-9202567D01*
X11193086Y-9202567D02*
X11212133Y-9193043D01*
X11212133Y-9193043D02*
X11240705Y-9193043D01*
X11240705Y-9193043D02*
X11259752Y-9202567D01*
X11259752Y-9202567D02*
X11269276Y-9221614D01*
X11269276Y-9221614D02*
X11269276Y-9326376D01*
X11269276Y-9221614D02*
X11278800Y-9202567D01*
X11278800Y-9202567D02*
X11297848Y-9193043D01*
X11297848Y-9193043D02*
X11326419Y-9193043D01*
X11326419Y-9193043D02*
X11345467Y-9202567D01*
X11345467Y-9202567D02*
X11354990Y-9221614D01*
X11354990Y-9221614D02*
X11354990Y-9326376D01*
X11450229Y-9326376D02*
X11450229Y-9193043D01*
X11450229Y-9212090D02*
X11459752Y-9202567D01*
X11459752Y-9202567D02*
X11478800Y-9193043D01*
X11478800Y-9193043D02*
X11507371Y-9193043D01*
X11507371Y-9193043D02*
X11526419Y-9202567D01*
X11526419Y-9202567D02*
X11535943Y-9221614D01*
X11535943Y-9221614D02*
X11535943Y-9326376D01*
X11535943Y-9221614D02*
X11545467Y-9202567D01*
X11545467Y-9202567D02*
X11564514Y-9193043D01*
X11564514Y-9193043D02*
X11593086Y-9193043D01*
X11593086Y-9193043D02*
X11612133Y-9202567D01*
X11612133Y-9202567D02*
X11621657Y-9221614D01*
X11621657Y-9221614D02*
X11621657Y-9326376D01*
X11979752Y-9116852D02*
X11808324Y-9373995D01*
X12204514Y-9126376D02*
X12223562Y-9126376D01*
X12223562Y-9126376D02*
X12242610Y-9135900D01*
X12242610Y-9135900D02*
X12252133Y-9145424D01*
X12252133Y-9145424D02*
X12261657Y-9164471D01*
X12261657Y-9164471D02*
X12271181Y-9202567D01*
X12271181Y-9202567D02*
X12271181Y-9250186D01*
X12271181Y-9250186D02*
X12261657Y-9288281D01*
X12261657Y-9288281D02*
X12252133Y-9307329D01*
X12252133Y-9307329D02*
X12242610Y-9316852D01*
X12242610Y-9316852D02*
X12223562Y-9326376D01*
X12223562Y-9326376D02*
X12204514Y-9326376D01*
X12204514Y-9326376D02*
X12185467Y-9316852D01*
X12185467Y-9316852D02*
X12175943Y-9307329D01*
X12175943Y-9307329D02*
X12166419Y-9288281D01*
X12166419Y-9288281D02*
X12156895Y-9250186D01*
X12156895Y-9250186D02*
X12156895Y-9202567D01*
X12156895Y-9202567D02*
X12166419Y-9164471D01*
X12166419Y-9164471D02*
X12175943Y-9145424D01*
X12175943Y-9145424D02*
X12185467Y-9135900D01*
X12185467Y-9135900D02*
X12204514Y-9126376D01*
X12356895Y-9307329D02*
X12366419Y-9316852D01*
X12366419Y-9316852D02*
X12356895Y-9326376D01*
X12356895Y-9326376D02*
X12347371Y-9316852D01*
X12347371Y-9316852D02*
X12356895Y-9307329D01*
X12356895Y-9307329D02*
X12356895Y-9326376D01*
X12490229Y-9126376D02*
X12509276Y-9126376D01*
X12509276Y-9126376D02*
X12528324Y-9135900D01*
X12528324Y-9135900D02*
X12537848Y-9145424D01*
X12537848Y-9145424D02*
X12547371Y-9164471D01*
X12547371Y-9164471D02*
X12556895Y-9202567D01*
X12556895Y-9202567D02*
X12556895Y-9250186D01*
X12556895Y-9250186D02*
X12547371Y-9288281D01*
X12547371Y-9288281D02*
X12537848Y-9307329D01*
X12537848Y-9307329D02*
X12528324Y-9316852D01*
X12528324Y-9316852D02*
X12509276Y-9326376D01*
X12509276Y-9326376D02*
X12490229Y-9326376D01*
X12490229Y-9326376D02*
X12471181Y-9316852D01*
X12471181Y-9316852D02*
X12461657Y-9307329D01*
X12461657Y-9307329D02*
X12452133Y-9288281D01*
X12452133Y-9288281D02*
X12442610Y-9250186D01*
X12442610Y-9250186D02*
X12442610Y-9202567D01*
X12442610Y-9202567D02*
X12452133Y-9164471D01*
X12452133Y-9164471D02*
X12461657Y-9145424D01*
X12461657Y-9145424D02*
X12471181Y-9135900D01*
X12471181Y-9135900D02*
X12490229Y-9126376D01*
X12747371Y-9326376D02*
X12633086Y-9326376D01*
X12690229Y-9326376D02*
X12690229Y-9126376D01*
X12690229Y-9126376D02*
X12671181Y-9154948D01*
X12671181Y-9154948D02*
X12652133Y-9173995D01*
X12652133Y-9173995D02*
X12633086Y-9183519D01*
X12928324Y-9126376D02*
X12833086Y-9126376D01*
X12833086Y-9126376D02*
X12823562Y-9221614D01*
X12823562Y-9221614D02*
X12833086Y-9212090D01*
X12833086Y-9212090D02*
X12852133Y-9202567D01*
X12852133Y-9202567D02*
X12899752Y-9202567D01*
X12899752Y-9202567D02*
X12918800Y-9212090D01*
X12918800Y-9212090D02*
X12928324Y-9221614D01*
X12928324Y-9221614D02*
X12937848Y-9240662D01*
X12937848Y-9240662D02*
X12937848Y-9288281D01*
X12937848Y-9288281D02*
X12928324Y-9307329D01*
X12928324Y-9307329D02*
X12918800Y-9316852D01*
X12918800Y-9316852D02*
X12899752Y-9326376D01*
X12899752Y-9326376D02*
X12852133Y-9326376D01*
X12852133Y-9326376D02*
X12833086Y-9316852D01*
X12833086Y-9316852D02*
X12823562Y-9307329D01*
X13004514Y-9126376D02*
X13137848Y-9126376D01*
X13137848Y-9126376D02*
X13052133Y-9326376D01*
X13204514Y-9126376D02*
X13204514Y-9164471D01*
X13280705Y-9126376D02*
X13280705Y-9164471D01*
X13543562Y-9402567D02*
X13534038Y-9393043D01*
X13534038Y-9393043D02*
X13514991Y-9364471D01*
X13514991Y-9364471D02*
X13505467Y-9345424D01*
X13505467Y-9345424D02*
X13495943Y-9316852D01*
X13495943Y-9316852D02*
X13486419Y-9269233D01*
X13486419Y-9269233D02*
X13486419Y-9231138D01*
X13486419Y-9231138D02*
X13495943Y-9183519D01*
X13495943Y-9183519D02*
X13505467Y-9154948D01*
X13505467Y-9154948D02*
X13514991Y-9135900D01*
X13514991Y-9135900D02*
X13534038Y-9107329D01*
X13534038Y-9107329D02*
X13543562Y-9097805D01*
X13705467Y-9193043D02*
X13705467Y-9326376D01*
X13657848Y-9116852D02*
X13610229Y-9259710D01*
X13610229Y-9259710D02*
X13734038Y-9259710D01*
X13914991Y-9326376D02*
X13800705Y-9326376D01*
X13857848Y-9326376D02*
X13857848Y-9126376D01*
X13857848Y-9126376D02*
X13838800Y-9154948D01*
X13838800Y-9154948D02*
X13819752Y-9173995D01*
X13819752Y-9173995D02*
X13800705Y-9183519D01*
X14120705Y-9326376D02*
X14120705Y-9126376D01*
X14206419Y-9326376D02*
X14206419Y-9221614D01*
X14206419Y-9221614D02*
X14196895Y-9202567D01*
X14196895Y-9202567D02*
X14177848Y-9193043D01*
X14177848Y-9193043D02*
X14149276Y-9193043D01*
X14149276Y-9193043D02*
X14130229Y-9202567D01*
X14130229Y-9202567D02*
X14120705Y-9212090D01*
X14330229Y-9326376D02*
X14311181Y-9316852D01*
X14311181Y-9316852D02*
X14301657Y-9307329D01*
X14301657Y-9307329D02*
X14292133Y-9288281D01*
X14292133Y-9288281D02*
X14292133Y-9231138D01*
X14292133Y-9231138D02*
X14301657Y-9212090D01*
X14301657Y-9212090D02*
X14311181Y-9202567D01*
X14311181Y-9202567D02*
X14330229Y-9193043D01*
X14330229Y-9193043D02*
X14358800Y-9193043D01*
X14358800Y-9193043D02*
X14377848Y-9202567D01*
X14377848Y-9202567D02*
X14387372Y-9212090D01*
X14387372Y-9212090D02*
X14396895Y-9231138D01*
X14396895Y-9231138D02*
X14396895Y-9288281D01*
X14396895Y-9288281D02*
X14387372Y-9307329D01*
X14387372Y-9307329D02*
X14377848Y-9316852D01*
X14377848Y-9316852D02*
X14358800Y-9326376D01*
X14358800Y-9326376D02*
X14330229Y-9326376D01*
X14511181Y-9326376D02*
X14492133Y-9316852D01*
X14492133Y-9316852D02*
X14482610Y-9297805D01*
X14482610Y-9297805D02*
X14482610Y-9126376D01*
X14663562Y-9316852D02*
X14644514Y-9326376D01*
X14644514Y-9326376D02*
X14606419Y-9326376D01*
X14606419Y-9326376D02*
X14587372Y-9316852D01*
X14587372Y-9316852D02*
X14577848Y-9297805D01*
X14577848Y-9297805D02*
X14577848Y-9221614D01*
X14577848Y-9221614D02*
X14587372Y-9202567D01*
X14587372Y-9202567D02*
X14606419Y-9193043D01*
X14606419Y-9193043D02*
X14644514Y-9193043D01*
X14644514Y-9193043D02*
X14663562Y-9202567D01*
X14663562Y-9202567D02*
X14673086Y-9221614D01*
X14673086Y-9221614D02*
X14673086Y-9240662D01*
X14673086Y-9240662D02*
X14577848Y-9259710D01*
X14749276Y-9316852D02*
X14768324Y-9326376D01*
X14768324Y-9326376D02*
X14806419Y-9326376D01*
X14806419Y-9326376D02*
X14825467Y-9316852D01*
X14825467Y-9316852D02*
X14834991Y-9297805D01*
X14834991Y-9297805D02*
X14834991Y-9288281D01*
X14834991Y-9288281D02*
X14825467Y-9269233D01*
X14825467Y-9269233D02*
X14806419Y-9259710D01*
X14806419Y-9259710D02*
X14777848Y-9259710D01*
X14777848Y-9259710D02*
X14758800Y-9250186D01*
X14758800Y-9250186D02*
X14749276Y-9231138D01*
X14749276Y-9231138D02*
X14749276Y-9221614D01*
X14749276Y-9221614D02*
X14758800Y-9202567D01*
X14758800Y-9202567D02*
X14777848Y-9193043D01*
X14777848Y-9193043D02*
X14806419Y-9193043D01*
X14806419Y-9193043D02*
X14825467Y-9202567D01*
X14901657Y-9402567D02*
X14911181Y-9393043D01*
X14911181Y-9393043D02*
X14930229Y-9364471D01*
X14930229Y-9364471D02*
X14939753Y-9345424D01*
X14939753Y-9345424D02*
X14949276Y-9316852D01*
X14949276Y-9316852D02*
X14958800Y-9269233D01*
X14958800Y-9269233D02*
X14958800Y-9231138D01*
X14958800Y-9231138D02*
X14949276Y-9183519D01*
X14949276Y-9183519D02*
X14939753Y-9154948D01*
X14939753Y-9154948D02*
X14930229Y-9135900D01*
X14930229Y-9135900D02*
X14911181Y-9107329D01*
X14911181Y-9107329D02*
X14901657Y-9097805D01*
D13*
X10058800Y-9496900D02*
X10058800Y-9536900D01*
X10038800Y-9516900D02*
X10078800Y-9516900D01*
D11*
X10364514Y-9390376D02*
X10383562Y-9390376D01*
X10383562Y-9390376D02*
X10402610Y-9399900D01*
X10402610Y-9399900D02*
X10412133Y-9409424D01*
X10412133Y-9409424D02*
X10421657Y-9428471D01*
X10421657Y-9428471D02*
X10431181Y-9466567D01*
X10431181Y-9466567D02*
X10431181Y-9514186D01*
X10431181Y-9514186D02*
X10421657Y-9552281D01*
X10421657Y-9552281D02*
X10412133Y-9571329D01*
X10412133Y-9571329D02*
X10402610Y-9580852D01*
X10402610Y-9580852D02*
X10383562Y-9590376D01*
X10383562Y-9590376D02*
X10364514Y-9590376D01*
X10364514Y-9590376D02*
X10345467Y-9580852D01*
X10345467Y-9580852D02*
X10335943Y-9571329D01*
X10335943Y-9571329D02*
X10326419Y-9552281D01*
X10326419Y-9552281D02*
X10316895Y-9514186D01*
X10316895Y-9514186D02*
X10316895Y-9466567D01*
X10316895Y-9466567D02*
X10326419Y-9428471D01*
X10326419Y-9428471D02*
X10335943Y-9409424D01*
X10335943Y-9409424D02*
X10345467Y-9399900D01*
X10345467Y-9399900D02*
X10364514Y-9390376D01*
X10516895Y-9571329D02*
X10526419Y-9580852D01*
X10526419Y-9580852D02*
X10516895Y-9590376D01*
X10516895Y-9590376D02*
X10507371Y-9580852D01*
X10507371Y-9580852D02*
X10516895Y-9571329D01*
X10516895Y-9571329D02*
X10516895Y-9590376D01*
X10697848Y-9457043D02*
X10697848Y-9590376D01*
X10650229Y-9380852D02*
X10602610Y-9523710D01*
X10602610Y-9523710D02*
X10726419Y-9523710D01*
X10840705Y-9390376D02*
X10859752Y-9390376D01*
X10859752Y-9390376D02*
X10878800Y-9399900D01*
X10878800Y-9399900D02*
X10888324Y-9409424D01*
X10888324Y-9409424D02*
X10897848Y-9428471D01*
X10897848Y-9428471D02*
X10907371Y-9466567D01*
X10907371Y-9466567D02*
X10907371Y-9514186D01*
X10907371Y-9514186D02*
X10897848Y-9552281D01*
X10897848Y-9552281D02*
X10888324Y-9571329D01*
X10888324Y-9571329D02*
X10878800Y-9580852D01*
X10878800Y-9580852D02*
X10859752Y-9590376D01*
X10859752Y-9590376D02*
X10840705Y-9590376D01*
X10840705Y-9590376D02*
X10821657Y-9580852D01*
X10821657Y-9580852D02*
X10812133Y-9571329D01*
X10812133Y-9571329D02*
X10802610Y-9552281D01*
X10802610Y-9552281D02*
X10793086Y-9514186D01*
X10793086Y-9514186D02*
X10793086Y-9466567D01*
X10793086Y-9466567D02*
X10802610Y-9428471D01*
X10802610Y-9428471D02*
X10812133Y-9409424D01*
X10812133Y-9409424D02*
X10821657Y-9399900D01*
X10821657Y-9399900D02*
X10840705Y-9390376D01*
X11031181Y-9390376D02*
X11050229Y-9390376D01*
X11050229Y-9390376D02*
X11069276Y-9399900D01*
X11069276Y-9399900D02*
X11078800Y-9409424D01*
X11078800Y-9409424D02*
X11088324Y-9428471D01*
X11088324Y-9428471D02*
X11097848Y-9466567D01*
X11097848Y-9466567D02*
X11097848Y-9514186D01*
X11097848Y-9514186D02*
X11088324Y-9552281D01*
X11088324Y-9552281D02*
X11078800Y-9571329D01*
X11078800Y-9571329D02*
X11069276Y-9580852D01*
X11069276Y-9580852D02*
X11050229Y-9590376D01*
X11050229Y-9590376D02*
X11031181Y-9590376D01*
X11031181Y-9590376D02*
X11012133Y-9580852D01*
X11012133Y-9580852D02*
X11002610Y-9571329D01*
X11002610Y-9571329D02*
X10993086Y-9552281D01*
X10993086Y-9552281D02*
X10983562Y-9514186D01*
X10983562Y-9514186D02*
X10983562Y-9466567D01*
X10983562Y-9466567D02*
X10993086Y-9428471D01*
X10993086Y-9428471D02*
X11002610Y-9409424D01*
X11002610Y-9409424D02*
X11012133Y-9399900D01*
X11012133Y-9399900D02*
X11031181Y-9390376D01*
X11183562Y-9590376D02*
X11183562Y-9457043D01*
X11183562Y-9476090D02*
X11193086Y-9466567D01*
X11193086Y-9466567D02*
X11212133Y-9457043D01*
X11212133Y-9457043D02*
X11240705Y-9457043D01*
X11240705Y-9457043D02*
X11259752Y-9466567D01*
X11259752Y-9466567D02*
X11269276Y-9485614D01*
X11269276Y-9485614D02*
X11269276Y-9590376D01*
X11269276Y-9485614D02*
X11278800Y-9466567D01*
X11278800Y-9466567D02*
X11297848Y-9457043D01*
X11297848Y-9457043D02*
X11326419Y-9457043D01*
X11326419Y-9457043D02*
X11345467Y-9466567D01*
X11345467Y-9466567D02*
X11354990Y-9485614D01*
X11354990Y-9485614D02*
X11354990Y-9590376D01*
X11450229Y-9590376D02*
X11450229Y-9457043D01*
X11450229Y-9476090D02*
X11459752Y-9466567D01*
X11459752Y-9466567D02*
X11478800Y-9457043D01*
X11478800Y-9457043D02*
X11507371Y-9457043D01*
X11507371Y-9457043D02*
X11526419Y-9466567D01*
X11526419Y-9466567D02*
X11535943Y-9485614D01*
X11535943Y-9485614D02*
X11535943Y-9590376D01*
X11535943Y-9485614D02*
X11545467Y-9466567D01*
X11545467Y-9466567D02*
X11564514Y-9457043D01*
X11564514Y-9457043D02*
X11593086Y-9457043D01*
X11593086Y-9457043D02*
X11612133Y-9466567D01*
X11612133Y-9466567D02*
X11621657Y-9485614D01*
X11621657Y-9485614D02*
X11621657Y-9590376D01*
X11979752Y-9380852D02*
X11808324Y-9637995D01*
X12204514Y-9390376D02*
X12223562Y-9390376D01*
X12223562Y-9390376D02*
X12242610Y-9399900D01*
X12242610Y-9399900D02*
X12252133Y-9409424D01*
X12252133Y-9409424D02*
X12261657Y-9428471D01*
X12261657Y-9428471D02*
X12271181Y-9466567D01*
X12271181Y-9466567D02*
X12271181Y-9514186D01*
X12271181Y-9514186D02*
X12261657Y-9552281D01*
X12261657Y-9552281D02*
X12252133Y-9571329D01*
X12252133Y-9571329D02*
X12242610Y-9580852D01*
X12242610Y-9580852D02*
X12223562Y-9590376D01*
X12223562Y-9590376D02*
X12204514Y-9590376D01*
X12204514Y-9590376D02*
X12185467Y-9580852D01*
X12185467Y-9580852D02*
X12175943Y-9571329D01*
X12175943Y-9571329D02*
X12166419Y-9552281D01*
X12166419Y-9552281D02*
X12156895Y-9514186D01*
X12156895Y-9514186D02*
X12156895Y-9466567D01*
X12156895Y-9466567D02*
X12166419Y-9428471D01*
X12166419Y-9428471D02*
X12175943Y-9409424D01*
X12175943Y-9409424D02*
X12185467Y-9399900D01*
X12185467Y-9399900D02*
X12204514Y-9390376D01*
X12356895Y-9571329D02*
X12366419Y-9580852D01*
X12366419Y-9580852D02*
X12356895Y-9590376D01*
X12356895Y-9590376D02*
X12347371Y-9580852D01*
X12347371Y-9580852D02*
X12356895Y-9571329D01*
X12356895Y-9571329D02*
X12356895Y-9590376D01*
X12490229Y-9390376D02*
X12509276Y-9390376D01*
X12509276Y-9390376D02*
X12528324Y-9399900D01*
X12528324Y-9399900D02*
X12537848Y-9409424D01*
X12537848Y-9409424D02*
X12547371Y-9428471D01*
X12547371Y-9428471D02*
X12556895Y-9466567D01*
X12556895Y-9466567D02*
X12556895Y-9514186D01*
X12556895Y-9514186D02*
X12547371Y-9552281D01*
X12547371Y-9552281D02*
X12537848Y-9571329D01*
X12537848Y-9571329D02*
X12528324Y-9580852D01*
X12528324Y-9580852D02*
X12509276Y-9590376D01*
X12509276Y-9590376D02*
X12490229Y-9590376D01*
X12490229Y-9590376D02*
X12471181Y-9580852D01*
X12471181Y-9580852D02*
X12461657Y-9571329D01*
X12461657Y-9571329D02*
X12452133Y-9552281D01*
X12452133Y-9552281D02*
X12442610Y-9514186D01*
X12442610Y-9514186D02*
X12442610Y-9466567D01*
X12442610Y-9466567D02*
X12452133Y-9428471D01*
X12452133Y-9428471D02*
X12461657Y-9409424D01*
X12461657Y-9409424D02*
X12471181Y-9399900D01*
X12471181Y-9399900D02*
X12490229Y-9390376D01*
X12747371Y-9590376D02*
X12633086Y-9590376D01*
X12690229Y-9590376D02*
X12690229Y-9390376D01*
X12690229Y-9390376D02*
X12671181Y-9418948D01*
X12671181Y-9418948D02*
X12652133Y-9437995D01*
X12652133Y-9437995D02*
X12633086Y-9447519D01*
X12928324Y-9390376D02*
X12833086Y-9390376D01*
X12833086Y-9390376D02*
X12823562Y-9485614D01*
X12823562Y-9485614D02*
X12833086Y-9476090D01*
X12833086Y-9476090D02*
X12852133Y-9466567D01*
X12852133Y-9466567D02*
X12899752Y-9466567D01*
X12899752Y-9466567D02*
X12918800Y-9476090D01*
X12918800Y-9476090D02*
X12928324Y-9485614D01*
X12928324Y-9485614D02*
X12937848Y-9504662D01*
X12937848Y-9504662D02*
X12937848Y-9552281D01*
X12937848Y-9552281D02*
X12928324Y-9571329D01*
X12928324Y-9571329D02*
X12918800Y-9580852D01*
X12918800Y-9580852D02*
X12899752Y-9590376D01*
X12899752Y-9590376D02*
X12852133Y-9590376D01*
X12852133Y-9590376D02*
X12833086Y-9580852D01*
X12833086Y-9580852D02*
X12823562Y-9571329D01*
X13004514Y-9390376D02*
X13137848Y-9390376D01*
X13137848Y-9390376D02*
X13052133Y-9590376D01*
X13204514Y-9390376D02*
X13204514Y-9428471D01*
X13280705Y-9390376D02*
X13280705Y-9428471D01*
X13543562Y-9666567D02*
X13534038Y-9657043D01*
X13534038Y-9657043D02*
X13514991Y-9628471D01*
X13514991Y-9628471D02*
X13505467Y-9609424D01*
X13505467Y-9609424D02*
X13495943Y-9580852D01*
X13495943Y-9580852D02*
X13486419Y-9533233D01*
X13486419Y-9533233D02*
X13486419Y-9495138D01*
X13486419Y-9495138D02*
X13495943Y-9447519D01*
X13495943Y-9447519D02*
X13505467Y-9418948D01*
X13505467Y-9418948D02*
X13514991Y-9399900D01*
X13514991Y-9399900D02*
X13534038Y-9371329D01*
X13534038Y-9371329D02*
X13543562Y-9361805D01*
X13724514Y-9590376D02*
X13610229Y-9590376D01*
X13667371Y-9590376D02*
X13667371Y-9390376D01*
X13667371Y-9390376D02*
X13648324Y-9418948D01*
X13648324Y-9418948D02*
X13629276Y-9437995D01*
X13629276Y-9437995D02*
X13610229Y-9447519D01*
X13895943Y-9390376D02*
X13857848Y-9390376D01*
X13857848Y-9390376D02*
X13838800Y-9399900D01*
X13838800Y-9399900D02*
X13829276Y-9409424D01*
X13829276Y-9409424D02*
X13810229Y-9437995D01*
X13810229Y-9437995D02*
X13800705Y-9476090D01*
X13800705Y-9476090D02*
X13800705Y-9552281D01*
X13800705Y-9552281D02*
X13810229Y-9571329D01*
X13810229Y-9571329D02*
X13819752Y-9580852D01*
X13819752Y-9580852D02*
X13838800Y-9590376D01*
X13838800Y-9590376D02*
X13876895Y-9590376D01*
X13876895Y-9590376D02*
X13895943Y-9580852D01*
X13895943Y-9580852D02*
X13905467Y-9571329D01*
X13905467Y-9571329D02*
X13914991Y-9552281D01*
X13914991Y-9552281D02*
X13914991Y-9504662D01*
X13914991Y-9504662D02*
X13905467Y-9485614D01*
X13905467Y-9485614D02*
X13895943Y-9476090D01*
X13895943Y-9476090D02*
X13876895Y-9466567D01*
X13876895Y-9466567D02*
X13838800Y-9466567D01*
X13838800Y-9466567D02*
X13819752Y-9476090D01*
X13819752Y-9476090D02*
X13810229Y-9485614D01*
X13810229Y-9485614D02*
X13800705Y-9504662D01*
X14120705Y-9590376D02*
X14120705Y-9390376D01*
X14206419Y-9590376D02*
X14206419Y-9485614D01*
X14206419Y-9485614D02*
X14196895Y-9466567D01*
X14196895Y-9466567D02*
X14177848Y-9457043D01*
X14177848Y-9457043D02*
X14149276Y-9457043D01*
X14149276Y-9457043D02*
X14130229Y-9466567D01*
X14130229Y-9466567D02*
X14120705Y-9476090D01*
X14330229Y-9590376D02*
X14311181Y-9580852D01*
X14311181Y-9580852D02*
X14301657Y-9571329D01*
X14301657Y-9571329D02*
X14292133Y-9552281D01*
X14292133Y-9552281D02*
X14292133Y-9495138D01*
X14292133Y-9495138D02*
X14301657Y-9476090D01*
X14301657Y-9476090D02*
X14311181Y-9466567D01*
X14311181Y-9466567D02*
X14330229Y-9457043D01*
X14330229Y-9457043D02*
X14358800Y-9457043D01*
X14358800Y-9457043D02*
X14377848Y-9466567D01*
X14377848Y-9466567D02*
X14387372Y-9476090D01*
X14387372Y-9476090D02*
X14396895Y-9495138D01*
X14396895Y-9495138D02*
X14396895Y-9552281D01*
X14396895Y-9552281D02*
X14387372Y-9571329D01*
X14387372Y-9571329D02*
X14377848Y-9580852D01*
X14377848Y-9580852D02*
X14358800Y-9590376D01*
X14358800Y-9590376D02*
X14330229Y-9590376D01*
X14511181Y-9590376D02*
X14492133Y-9580852D01*
X14492133Y-9580852D02*
X14482610Y-9561805D01*
X14482610Y-9561805D02*
X14482610Y-9390376D01*
X14663562Y-9580852D02*
X14644514Y-9590376D01*
X14644514Y-9590376D02*
X14606419Y-9590376D01*
X14606419Y-9590376D02*
X14587372Y-9580852D01*
X14587372Y-9580852D02*
X14577848Y-9561805D01*
X14577848Y-9561805D02*
X14577848Y-9485614D01*
X14577848Y-9485614D02*
X14587372Y-9466567D01*
X14587372Y-9466567D02*
X14606419Y-9457043D01*
X14606419Y-9457043D02*
X14644514Y-9457043D01*
X14644514Y-9457043D02*
X14663562Y-9466567D01*
X14663562Y-9466567D02*
X14673086Y-9485614D01*
X14673086Y-9485614D02*
X14673086Y-9504662D01*
X14673086Y-9504662D02*
X14577848Y-9523710D01*
X14749276Y-9580852D02*
X14768324Y-9590376D01*
X14768324Y-9590376D02*
X14806419Y-9590376D01*
X14806419Y-9590376D02*
X14825467Y-9580852D01*
X14825467Y-9580852D02*
X14834991Y-9561805D01*
X14834991Y-9561805D02*
X14834991Y-9552281D01*
X14834991Y-9552281D02*
X14825467Y-9533233D01*
X14825467Y-9533233D02*
X14806419Y-9523710D01*
X14806419Y-9523710D02*
X14777848Y-9523710D01*
X14777848Y-9523710D02*
X14758800Y-9514186D01*
X14758800Y-9514186D02*
X14749276Y-9495138D01*
X14749276Y-9495138D02*
X14749276Y-9485614D01*
X14749276Y-9485614D02*
X14758800Y-9466567D01*
X14758800Y-9466567D02*
X14777848Y-9457043D01*
X14777848Y-9457043D02*
X14806419Y-9457043D01*
X14806419Y-9457043D02*
X14825467Y-9466567D01*
X14901657Y-9666567D02*
X14911181Y-9657043D01*
X14911181Y-9657043D02*
X14930229Y-9628471D01*
X14930229Y-9628471D02*
X14939753Y-9609424D01*
X14939753Y-9609424D02*
X14949276Y-9580852D01*
X14949276Y-9580852D02*
X14958800Y-9533233D01*
X14958800Y-9533233D02*
X14958800Y-9495138D01*
X14958800Y-9495138D02*
X14949276Y-9447519D01*
X14949276Y-9447519D02*
X14939753Y-9418948D01*
X14939753Y-9418948D02*
X14930229Y-9399900D01*
X14930229Y-9399900D02*
X14911181Y-9371329D01*
X14911181Y-9371329D02*
X14901657Y-9361805D01*
D14*
X10070013Y-9802113D02*
X10070013Y-9759687D01*
X10027587Y-9759687D01*
X10027587Y-9802113D01*
X10070013Y-9802113D01*
D11*
X10364514Y-9654376D02*
X10383562Y-9654376D01*
X10383562Y-9654376D02*
X10402610Y-9663900D01*
X10402610Y-9663900D02*
X10412133Y-9673424D01*
X10412133Y-9673424D02*
X10421657Y-9692471D01*
X10421657Y-9692471D02*
X10431181Y-9730567D01*
X10431181Y-9730567D02*
X10431181Y-9778186D01*
X10431181Y-9778186D02*
X10421657Y-9816281D01*
X10421657Y-9816281D02*
X10412133Y-9835329D01*
X10412133Y-9835329D02*
X10402610Y-9844852D01*
X10402610Y-9844852D02*
X10383562Y-9854376D01*
X10383562Y-9854376D02*
X10364514Y-9854376D01*
X10364514Y-9854376D02*
X10345467Y-9844852D01*
X10345467Y-9844852D02*
X10335943Y-9835329D01*
X10335943Y-9835329D02*
X10326419Y-9816281D01*
X10326419Y-9816281D02*
X10316895Y-9778186D01*
X10316895Y-9778186D02*
X10316895Y-9730567D01*
X10316895Y-9730567D02*
X10326419Y-9692471D01*
X10326419Y-9692471D02*
X10335943Y-9673424D01*
X10335943Y-9673424D02*
X10345467Y-9663900D01*
X10345467Y-9663900D02*
X10364514Y-9654376D01*
X10516895Y-9835329D02*
X10526419Y-9844852D01*
X10526419Y-9844852D02*
X10516895Y-9854376D01*
X10516895Y-9854376D02*
X10507371Y-9844852D01*
X10507371Y-9844852D02*
X10516895Y-9835329D01*
X10516895Y-9835329D02*
X10516895Y-9854376D01*
X10697848Y-9654376D02*
X10659752Y-9654376D01*
X10659752Y-9654376D02*
X10640705Y-9663900D01*
X10640705Y-9663900D02*
X10631181Y-9673424D01*
X10631181Y-9673424D02*
X10612133Y-9701995D01*
X10612133Y-9701995D02*
X10602610Y-9740090D01*
X10602610Y-9740090D02*
X10602610Y-9816281D01*
X10602610Y-9816281D02*
X10612133Y-9835329D01*
X10612133Y-9835329D02*
X10621657Y-9844852D01*
X10621657Y-9844852D02*
X10640705Y-9854376D01*
X10640705Y-9854376D02*
X10678800Y-9854376D01*
X10678800Y-9854376D02*
X10697848Y-9844852D01*
X10697848Y-9844852D02*
X10707371Y-9835329D01*
X10707371Y-9835329D02*
X10716895Y-9816281D01*
X10716895Y-9816281D02*
X10716895Y-9768662D01*
X10716895Y-9768662D02*
X10707371Y-9749614D01*
X10707371Y-9749614D02*
X10697848Y-9740090D01*
X10697848Y-9740090D02*
X10678800Y-9730567D01*
X10678800Y-9730567D02*
X10640705Y-9730567D01*
X10640705Y-9730567D02*
X10621657Y-9740090D01*
X10621657Y-9740090D02*
X10612133Y-9749614D01*
X10612133Y-9749614D02*
X10602610Y-9768662D01*
X10840705Y-9654376D02*
X10859752Y-9654376D01*
X10859752Y-9654376D02*
X10878800Y-9663900D01*
X10878800Y-9663900D02*
X10888324Y-9673424D01*
X10888324Y-9673424D02*
X10897848Y-9692471D01*
X10897848Y-9692471D02*
X10907371Y-9730567D01*
X10907371Y-9730567D02*
X10907371Y-9778186D01*
X10907371Y-9778186D02*
X10897848Y-9816281D01*
X10897848Y-9816281D02*
X10888324Y-9835329D01*
X10888324Y-9835329D02*
X10878800Y-9844852D01*
X10878800Y-9844852D02*
X10859752Y-9854376D01*
X10859752Y-9854376D02*
X10840705Y-9854376D01*
X10840705Y-9854376D02*
X10821657Y-9844852D01*
X10821657Y-9844852D02*
X10812133Y-9835329D01*
X10812133Y-9835329D02*
X10802610Y-9816281D01*
X10802610Y-9816281D02*
X10793086Y-9778186D01*
X10793086Y-9778186D02*
X10793086Y-9730567D01*
X10793086Y-9730567D02*
X10802610Y-9692471D01*
X10802610Y-9692471D02*
X10812133Y-9673424D01*
X10812133Y-9673424D02*
X10821657Y-9663900D01*
X10821657Y-9663900D02*
X10840705Y-9654376D01*
X11031181Y-9654376D02*
X11050229Y-9654376D01*
X11050229Y-9654376D02*
X11069276Y-9663900D01*
X11069276Y-9663900D02*
X11078800Y-9673424D01*
X11078800Y-9673424D02*
X11088324Y-9692471D01*
X11088324Y-9692471D02*
X11097848Y-9730567D01*
X11097848Y-9730567D02*
X11097848Y-9778186D01*
X11097848Y-9778186D02*
X11088324Y-9816281D01*
X11088324Y-9816281D02*
X11078800Y-9835329D01*
X11078800Y-9835329D02*
X11069276Y-9844852D01*
X11069276Y-9844852D02*
X11050229Y-9854376D01*
X11050229Y-9854376D02*
X11031181Y-9854376D01*
X11031181Y-9854376D02*
X11012133Y-9844852D01*
X11012133Y-9844852D02*
X11002610Y-9835329D01*
X11002610Y-9835329D02*
X10993086Y-9816281D01*
X10993086Y-9816281D02*
X10983562Y-9778186D01*
X10983562Y-9778186D02*
X10983562Y-9730567D01*
X10983562Y-9730567D02*
X10993086Y-9692471D01*
X10993086Y-9692471D02*
X11002610Y-9673424D01*
X11002610Y-9673424D02*
X11012133Y-9663900D01*
X11012133Y-9663900D02*
X11031181Y-9654376D01*
X11183562Y-9854376D02*
X11183562Y-9721043D01*
X11183562Y-9740090D02*
X11193086Y-9730567D01*
X11193086Y-9730567D02*
X11212133Y-9721043D01*
X11212133Y-9721043D02*
X11240705Y-9721043D01*
X11240705Y-9721043D02*
X11259752Y-9730567D01*
X11259752Y-9730567D02*
X11269276Y-9749614D01*
X11269276Y-9749614D02*
X11269276Y-9854376D01*
X11269276Y-9749614D02*
X11278800Y-9730567D01*
X11278800Y-9730567D02*
X11297848Y-9721043D01*
X11297848Y-9721043D02*
X11326419Y-9721043D01*
X11326419Y-9721043D02*
X11345467Y-9730567D01*
X11345467Y-9730567D02*
X11354990Y-9749614D01*
X11354990Y-9749614D02*
X11354990Y-9854376D01*
X11450229Y-9854376D02*
X11450229Y-9721043D01*
X11450229Y-9740090D02*
X11459752Y-9730567D01*
X11459752Y-9730567D02*
X11478800Y-9721043D01*
X11478800Y-9721043D02*
X11507371Y-9721043D01*
X11507371Y-9721043D02*
X11526419Y-9730567D01*
X11526419Y-9730567D02*
X11535943Y-9749614D01*
X11535943Y-9749614D02*
X11535943Y-9854376D01*
X11535943Y-9749614D02*
X11545467Y-9730567D01*
X11545467Y-9730567D02*
X11564514Y-9721043D01*
X11564514Y-9721043D02*
X11593086Y-9721043D01*
X11593086Y-9721043D02*
X11612133Y-9730567D01*
X11612133Y-9730567D02*
X11621657Y-9749614D01*
X11621657Y-9749614D02*
X11621657Y-9854376D01*
X11979752Y-9644852D02*
X11808324Y-9901995D01*
X12204514Y-9654376D02*
X12223562Y-9654376D01*
X12223562Y-9654376D02*
X12242610Y-9663900D01*
X12242610Y-9663900D02*
X12252133Y-9673424D01*
X12252133Y-9673424D02*
X12261657Y-9692471D01*
X12261657Y-9692471D02*
X12271181Y-9730567D01*
X12271181Y-9730567D02*
X12271181Y-9778186D01*
X12271181Y-9778186D02*
X12261657Y-9816281D01*
X12261657Y-9816281D02*
X12252133Y-9835329D01*
X12252133Y-9835329D02*
X12242610Y-9844852D01*
X12242610Y-9844852D02*
X12223562Y-9854376D01*
X12223562Y-9854376D02*
X12204514Y-9854376D01*
X12204514Y-9854376D02*
X12185467Y-9844852D01*
X12185467Y-9844852D02*
X12175943Y-9835329D01*
X12175943Y-9835329D02*
X12166419Y-9816281D01*
X12166419Y-9816281D02*
X12156895Y-9778186D01*
X12156895Y-9778186D02*
X12156895Y-9730567D01*
X12156895Y-9730567D02*
X12166419Y-9692471D01*
X12166419Y-9692471D02*
X12175943Y-9673424D01*
X12175943Y-9673424D02*
X12185467Y-9663900D01*
X12185467Y-9663900D02*
X12204514Y-9654376D01*
X12356895Y-9835329D02*
X12366419Y-9844852D01*
X12366419Y-9844852D02*
X12356895Y-9854376D01*
X12356895Y-9854376D02*
X12347371Y-9844852D01*
X12347371Y-9844852D02*
X12356895Y-9835329D01*
X12356895Y-9835329D02*
X12356895Y-9854376D01*
X12490229Y-9654376D02*
X12509276Y-9654376D01*
X12509276Y-9654376D02*
X12528324Y-9663900D01*
X12528324Y-9663900D02*
X12537848Y-9673424D01*
X12537848Y-9673424D02*
X12547371Y-9692471D01*
X12547371Y-9692471D02*
X12556895Y-9730567D01*
X12556895Y-9730567D02*
X12556895Y-9778186D01*
X12556895Y-9778186D02*
X12547371Y-9816281D01*
X12547371Y-9816281D02*
X12537848Y-9835329D01*
X12537848Y-9835329D02*
X12528324Y-9844852D01*
X12528324Y-9844852D02*
X12509276Y-9854376D01*
X12509276Y-9854376D02*
X12490229Y-9854376D01*
X12490229Y-9854376D02*
X12471181Y-9844852D01*
X12471181Y-9844852D02*
X12461657Y-9835329D01*
X12461657Y-9835329D02*
X12452133Y-9816281D01*
X12452133Y-9816281D02*
X12442610Y-9778186D01*
X12442610Y-9778186D02*
X12442610Y-9730567D01*
X12442610Y-9730567D02*
X12452133Y-9692471D01*
X12452133Y-9692471D02*
X12461657Y-9673424D01*
X12461657Y-9673424D02*
X12471181Y-9663900D01*
X12471181Y-9663900D02*
X12490229Y-9654376D01*
X12633086Y-9673424D02*
X12642610Y-9663900D01*
X12642610Y-9663900D02*
X12661657Y-9654376D01*
X12661657Y-9654376D02*
X12709276Y-9654376D01*
X12709276Y-9654376D02*
X12728324Y-9663900D01*
X12728324Y-9663900D02*
X12737848Y-9673424D01*
X12737848Y-9673424D02*
X12747371Y-9692471D01*
X12747371Y-9692471D02*
X12747371Y-9711519D01*
X12747371Y-9711519D02*
X12737848Y-9740090D01*
X12737848Y-9740090D02*
X12623562Y-9854376D01*
X12623562Y-9854376D02*
X12747371Y-9854376D01*
X12814038Y-9654376D02*
X12937848Y-9654376D01*
X12937848Y-9654376D02*
X12871181Y-9730567D01*
X12871181Y-9730567D02*
X12899752Y-9730567D01*
X12899752Y-9730567D02*
X12918800Y-9740090D01*
X12918800Y-9740090D02*
X12928324Y-9749614D01*
X12928324Y-9749614D02*
X12937848Y-9768662D01*
X12937848Y-9768662D02*
X12937848Y-9816281D01*
X12937848Y-9816281D02*
X12928324Y-9835329D01*
X12928324Y-9835329D02*
X12918800Y-9844852D01*
X12918800Y-9844852D02*
X12899752Y-9854376D01*
X12899752Y-9854376D02*
X12842610Y-9854376D01*
X12842610Y-9854376D02*
X12823562Y-9844852D01*
X12823562Y-9844852D02*
X12814038Y-9835329D01*
X13109276Y-9654376D02*
X13071181Y-9654376D01*
X13071181Y-9654376D02*
X13052133Y-9663900D01*
X13052133Y-9663900D02*
X13042610Y-9673424D01*
X13042610Y-9673424D02*
X13023562Y-9701995D01*
X13023562Y-9701995D02*
X13014038Y-9740090D01*
X13014038Y-9740090D02*
X13014038Y-9816281D01*
X13014038Y-9816281D02*
X13023562Y-9835329D01*
X13023562Y-9835329D02*
X13033086Y-9844852D01*
X13033086Y-9844852D02*
X13052133Y-9854376D01*
X13052133Y-9854376D02*
X13090229Y-9854376D01*
X13090229Y-9854376D02*
X13109276Y-9844852D01*
X13109276Y-9844852D02*
X13118800Y-9835329D01*
X13118800Y-9835329D02*
X13128324Y-9816281D01*
X13128324Y-9816281D02*
X13128324Y-9768662D01*
X13128324Y-9768662D02*
X13118800Y-9749614D01*
X13118800Y-9749614D02*
X13109276Y-9740090D01*
X13109276Y-9740090D02*
X13090229Y-9730567D01*
X13090229Y-9730567D02*
X13052133Y-9730567D01*
X13052133Y-9730567D02*
X13033086Y-9740090D01*
X13033086Y-9740090D02*
X13023562Y-9749614D01*
X13023562Y-9749614D02*
X13014038Y-9768662D01*
X13204514Y-9654376D02*
X13204514Y-9692471D01*
X13280705Y-9654376D02*
X13280705Y-9692471D01*
X13543562Y-9930567D02*
X13534038Y-9921043D01*
X13534038Y-9921043D02*
X13514991Y-9892471D01*
X13514991Y-9892471D02*
X13505467Y-9873424D01*
X13505467Y-9873424D02*
X13495943Y-9844852D01*
X13495943Y-9844852D02*
X13486419Y-9797233D01*
X13486419Y-9797233D02*
X13486419Y-9759138D01*
X13486419Y-9759138D02*
X13495943Y-9711519D01*
X13495943Y-9711519D02*
X13505467Y-9682948D01*
X13505467Y-9682948D02*
X13514991Y-9663900D01*
X13514991Y-9663900D02*
X13534038Y-9635329D01*
X13534038Y-9635329D02*
X13543562Y-9625805D01*
X13657848Y-9654376D02*
X13676895Y-9654376D01*
X13676895Y-9654376D02*
X13695943Y-9663900D01*
X13695943Y-9663900D02*
X13705467Y-9673424D01*
X13705467Y-9673424D02*
X13714991Y-9692471D01*
X13714991Y-9692471D02*
X13724514Y-9730567D01*
X13724514Y-9730567D02*
X13724514Y-9778186D01*
X13724514Y-9778186D02*
X13714991Y-9816281D01*
X13714991Y-9816281D02*
X13705467Y-9835329D01*
X13705467Y-9835329D02*
X13695943Y-9844852D01*
X13695943Y-9844852D02*
X13676895Y-9854376D01*
X13676895Y-9854376D02*
X13657848Y-9854376D01*
X13657848Y-9854376D02*
X13638800Y-9844852D01*
X13638800Y-9844852D02*
X13629276Y-9835329D01*
X13629276Y-9835329D02*
X13619752Y-9816281D01*
X13619752Y-9816281D02*
X13610229Y-9778186D01*
X13610229Y-9778186D02*
X13610229Y-9730567D01*
X13610229Y-9730567D02*
X13619752Y-9692471D01*
X13619752Y-9692471D02*
X13629276Y-9673424D01*
X13629276Y-9673424D02*
X13638800Y-9663900D01*
X13638800Y-9663900D02*
X13657848Y-9654376D01*
X13930229Y-9854376D02*
X13930229Y-9654376D01*
X14015943Y-9854376D02*
X14015943Y-9749614D01*
X14015943Y-9749614D02*
X14006419Y-9730567D01*
X14006419Y-9730567D02*
X13987372Y-9721043D01*
X13987372Y-9721043D02*
X13958800Y-9721043D01*
X13958800Y-9721043D02*
X13939752Y-9730567D01*
X13939752Y-9730567D02*
X13930229Y-9740090D01*
X14139752Y-9854376D02*
X14120705Y-9844852D01*
X14120705Y-9844852D02*
X14111181Y-9835329D01*
X14111181Y-9835329D02*
X14101657Y-9816281D01*
X14101657Y-9816281D02*
X14101657Y-9759138D01*
X14101657Y-9759138D02*
X14111181Y-9740090D01*
X14111181Y-9740090D02*
X14120705Y-9730567D01*
X14120705Y-9730567D02*
X14139752Y-9721043D01*
X14139752Y-9721043D02*
X14168324Y-9721043D01*
X14168324Y-9721043D02*
X14187372Y-9730567D01*
X14187372Y-9730567D02*
X14196895Y-9740090D01*
X14196895Y-9740090D02*
X14206419Y-9759138D01*
X14206419Y-9759138D02*
X14206419Y-9816281D01*
X14206419Y-9816281D02*
X14196895Y-9835329D01*
X14196895Y-9835329D02*
X14187372Y-9844852D01*
X14187372Y-9844852D02*
X14168324Y-9854376D01*
X14168324Y-9854376D02*
X14139752Y-9854376D01*
X14320705Y-9854376D02*
X14301657Y-9844852D01*
X14301657Y-9844852D02*
X14292133Y-9825805D01*
X14292133Y-9825805D02*
X14292133Y-9654376D01*
X14473086Y-9844852D02*
X14454038Y-9854376D01*
X14454038Y-9854376D02*
X14415943Y-9854376D01*
X14415943Y-9854376D02*
X14396895Y-9844852D01*
X14396895Y-9844852D02*
X14387372Y-9825805D01*
X14387372Y-9825805D02*
X14387372Y-9749614D01*
X14387372Y-9749614D02*
X14396895Y-9730567D01*
X14396895Y-9730567D02*
X14415943Y-9721043D01*
X14415943Y-9721043D02*
X14454038Y-9721043D01*
X14454038Y-9721043D02*
X14473086Y-9730567D01*
X14473086Y-9730567D02*
X14482610Y-9749614D01*
X14482610Y-9749614D02*
X14482610Y-9768662D01*
X14482610Y-9768662D02*
X14387372Y-9787710D01*
X14558800Y-9844852D02*
X14577848Y-9854376D01*
X14577848Y-9854376D02*
X14615943Y-9854376D01*
X14615943Y-9854376D02*
X14634991Y-9844852D01*
X14634991Y-9844852D02*
X14644514Y-9825805D01*
X14644514Y-9825805D02*
X14644514Y-9816281D01*
X14644514Y-9816281D02*
X14634991Y-9797233D01*
X14634991Y-9797233D02*
X14615943Y-9787710D01*
X14615943Y-9787710D02*
X14587372Y-9787710D01*
X14587372Y-9787710D02*
X14568324Y-9778186D01*
X14568324Y-9778186D02*
X14558800Y-9759138D01*
X14558800Y-9759138D02*
X14558800Y-9749614D01*
X14558800Y-9749614D02*
X14568324Y-9730567D01*
X14568324Y-9730567D02*
X14587372Y-9721043D01*
X14587372Y-9721043D02*
X14615943Y-9721043D01*
X14615943Y-9721043D02*
X14634991Y-9730567D01*
X14850229Y-9778186D02*
X15002610Y-9778186D01*
X14926419Y-9854376D02*
X14926419Y-9701995D01*
X15303562Y-9721043D02*
X15303562Y-9854376D01*
X15255943Y-9644852D02*
X15208324Y-9787710D01*
X15208324Y-9787710D02*
X15332133Y-9787710D01*
X15518800Y-9844852D02*
X15537848Y-9854376D01*
X15537848Y-9854376D02*
X15575943Y-9854376D01*
X15575943Y-9854376D02*
X15594991Y-9844852D01*
X15594991Y-9844852D02*
X15604514Y-9825805D01*
X15604514Y-9825805D02*
X15604514Y-9816281D01*
X15604514Y-9816281D02*
X15594991Y-9797233D01*
X15594991Y-9797233D02*
X15575943Y-9787710D01*
X15575943Y-9787710D02*
X15547372Y-9787710D01*
X15547372Y-9787710D02*
X15528324Y-9778186D01*
X15528324Y-9778186D02*
X15518800Y-9759138D01*
X15518800Y-9759138D02*
X15518800Y-9749614D01*
X15518800Y-9749614D02*
X15528324Y-9730567D01*
X15528324Y-9730567D02*
X15547372Y-9721043D01*
X15547372Y-9721043D02*
X15575943Y-9721043D01*
X15575943Y-9721043D02*
X15594991Y-9730567D01*
X15718800Y-9854376D02*
X15699753Y-9844852D01*
X15699753Y-9844852D02*
X15690229Y-9825805D01*
X15690229Y-9825805D02*
X15690229Y-9654376D01*
X15823562Y-9854376D02*
X15804514Y-9844852D01*
X15804514Y-9844852D02*
X15794991Y-9835329D01*
X15794991Y-9835329D02*
X15785467Y-9816281D01*
X15785467Y-9816281D02*
X15785467Y-9759138D01*
X15785467Y-9759138D02*
X15794991Y-9740090D01*
X15794991Y-9740090D02*
X15804514Y-9730567D01*
X15804514Y-9730567D02*
X15823562Y-9721043D01*
X15823562Y-9721043D02*
X15852134Y-9721043D01*
X15852134Y-9721043D02*
X15871181Y-9730567D01*
X15871181Y-9730567D02*
X15880705Y-9740090D01*
X15880705Y-9740090D02*
X15890229Y-9759138D01*
X15890229Y-9759138D02*
X15890229Y-9816281D01*
X15890229Y-9816281D02*
X15880705Y-9835329D01*
X15880705Y-9835329D02*
X15871181Y-9844852D01*
X15871181Y-9844852D02*
X15852134Y-9854376D01*
X15852134Y-9854376D02*
X15823562Y-9854376D01*
X15947372Y-9721043D02*
X16023562Y-9721043D01*
X15975943Y-9654376D02*
X15975943Y-9825805D01*
X15975943Y-9825805D02*
X15985467Y-9844852D01*
X15985467Y-9844852D02*
X16004514Y-9854376D01*
X16004514Y-9854376D02*
X16023562Y-9854376D01*
X16080705Y-9844852D02*
X16099753Y-9854376D01*
X16099753Y-9854376D02*
X16137848Y-9854376D01*
X16137848Y-9854376D02*
X16156895Y-9844852D01*
X16156895Y-9844852D02*
X16166419Y-9825805D01*
X16166419Y-9825805D02*
X16166419Y-9816281D01*
X16166419Y-9816281D02*
X16156895Y-9797233D01*
X16156895Y-9797233D02*
X16137848Y-9787710D01*
X16137848Y-9787710D02*
X16109276Y-9787710D01*
X16109276Y-9787710D02*
X16090229Y-9778186D01*
X16090229Y-9778186D02*
X16080705Y-9759138D01*
X16080705Y-9759138D02*
X16080705Y-9749614D01*
X16080705Y-9749614D02*
X16090229Y-9730567D01*
X16090229Y-9730567D02*
X16109276Y-9721043D01*
X16109276Y-9721043D02*
X16137848Y-9721043D01*
X16137848Y-9721043D02*
X16156895Y-9730567D01*
X16233086Y-9930567D02*
X16242610Y-9921043D01*
X16242610Y-9921043D02*
X16261657Y-9892471D01*
X16261657Y-9892471D02*
X16271181Y-9873424D01*
X16271181Y-9873424D02*
X16280705Y-9844852D01*
X16280705Y-9844852D02*
X16290229Y-9797233D01*
X16290229Y-9797233D02*
X16290229Y-9759138D01*
X16290229Y-9759138D02*
X16280705Y-9711519D01*
X16280705Y-9711519D02*
X16271181Y-9682948D01*
X16271181Y-9682948D02*
X16261657Y-9663900D01*
X16261657Y-9663900D02*
X16242610Y-9635329D01*
X16242610Y-9635329D02*
X16233086Y-9625805D01*
D15*
X10038800Y-10084900D02*
X10078800Y-10044900D01*
X10038800Y-10004900D01*
X9998800Y-10044900D01*
X10038800Y-10084900D01*
D11*
X10364514Y-9918376D02*
X10383562Y-9918376D01*
X10383562Y-9918376D02*
X10402610Y-9927900D01*
X10402610Y-9927900D02*
X10412133Y-9937424D01*
X10412133Y-9937424D02*
X10421657Y-9956471D01*
X10421657Y-9956471D02*
X10431181Y-9994567D01*
X10431181Y-9994567D02*
X10431181Y-10042186D01*
X10431181Y-10042186D02*
X10421657Y-10080281D01*
X10421657Y-10080281D02*
X10412133Y-10099329D01*
X10412133Y-10099329D02*
X10402610Y-10108852D01*
X10402610Y-10108852D02*
X10383562Y-10118376D01*
X10383562Y-10118376D02*
X10364514Y-10118376D01*
X10364514Y-10118376D02*
X10345467Y-10108852D01*
X10345467Y-10108852D02*
X10335943Y-10099329D01*
X10335943Y-10099329D02*
X10326419Y-10080281D01*
X10326419Y-10080281D02*
X10316895Y-10042186D01*
X10316895Y-10042186D02*
X10316895Y-9994567D01*
X10316895Y-9994567D02*
X10326419Y-9956471D01*
X10326419Y-9956471D02*
X10335943Y-9937424D01*
X10335943Y-9937424D02*
X10345467Y-9927900D01*
X10345467Y-9927900D02*
X10364514Y-9918376D01*
X10516895Y-10099329D02*
X10526419Y-10108852D01*
X10526419Y-10108852D02*
X10516895Y-10118376D01*
X10516895Y-10118376D02*
X10507371Y-10108852D01*
X10507371Y-10108852D02*
X10516895Y-10099329D01*
X10516895Y-10099329D02*
X10516895Y-10118376D01*
X10640705Y-10004090D02*
X10621657Y-9994567D01*
X10621657Y-9994567D02*
X10612133Y-9985043D01*
X10612133Y-9985043D02*
X10602610Y-9965995D01*
X10602610Y-9965995D02*
X10602610Y-9956471D01*
X10602610Y-9956471D02*
X10612133Y-9937424D01*
X10612133Y-9937424D02*
X10621657Y-9927900D01*
X10621657Y-9927900D02*
X10640705Y-9918376D01*
X10640705Y-9918376D02*
X10678800Y-9918376D01*
X10678800Y-9918376D02*
X10697848Y-9927900D01*
X10697848Y-9927900D02*
X10707371Y-9937424D01*
X10707371Y-9937424D02*
X10716895Y-9956471D01*
X10716895Y-9956471D02*
X10716895Y-9965995D01*
X10716895Y-9965995D02*
X10707371Y-9985043D01*
X10707371Y-9985043D02*
X10697848Y-9994567D01*
X10697848Y-9994567D02*
X10678800Y-10004090D01*
X10678800Y-10004090D02*
X10640705Y-10004090D01*
X10640705Y-10004090D02*
X10621657Y-10013614D01*
X10621657Y-10013614D02*
X10612133Y-10023138D01*
X10612133Y-10023138D02*
X10602610Y-10042186D01*
X10602610Y-10042186D02*
X10602610Y-10080281D01*
X10602610Y-10080281D02*
X10612133Y-10099329D01*
X10612133Y-10099329D02*
X10621657Y-10108852D01*
X10621657Y-10108852D02*
X10640705Y-10118376D01*
X10640705Y-10118376D02*
X10678800Y-10118376D01*
X10678800Y-10118376D02*
X10697848Y-10108852D01*
X10697848Y-10108852D02*
X10707371Y-10099329D01*
X10707371Y-10099329D02*
X10716895Y-10080281D01*
X10716895Y-10080281D02*
X10716895Y-10042186D01*
X10716895Y-10042186D02*
X10707371Y-10023138D01*
X10707371Y-10023138D02*
X10697848Y-10013614D01*
X10697848Y-10013614D02*
X10678800Y-10004090D01*
X10840705Y-9918376D02*
X10859752Y-9918376D01*
X10859752Y-9918376D02*
X10878800Y-9927900D01*
X10878800Y-9927900D02*
X10888324Y-9937424D01*
X10888324Y-9937424D02*
X10897848Y-9956471D01*
X10897848Y-9956471D02*
X10907371Y-9994567D01*
X10907371Y-9994567D02*
X10907371Y-10042186D01*
X10907371Y-10042186D02*
X10897848Y-10080281D01*
X10897848Y-10080281D02*
X10888324Y-10099329D01*
X10888324Y-10099329D02*
X10878800Y-10108852D01*
X10878800Y-10108852D02*
X10859752Y-10118376D01*
X10859752Y-10118376D02*
X10840705Y-10118376D01*
X10840705Y-10118376D02*
X10821657Y-10108852D01*
X10821657Y-10108852D02*
X10812133Y-10099329D01*
X10812133Y-10099329D02*
X10802610Y-10080281D01*
X10802610Y-10080281D02*
X10793086Y-10042186D01*
X10793086Y-10042186D02*
X10793086Y-9994567D01*
X10793086Y-9994567D02*
X10802610Y-9956471D01*
X10802610Y-9956471D02*
X10812133Y-9937424D01*
X10812133Y-9937424D02*
X10821657Y-9927900D01*
X10821657Y-9927900D02*
X10840705Y-9918376D01*
X11031181Y-9918376D02*
X11050229Y-9918376D01*
X11050229Y-9918376D02*
X11069276Y-9927900D01*
X11069276Y-9927900D02*
X11078800Y-9937424D01*
X11078800Y-9937424D02*
X11088324Y-9956471D01*
X11088324Y-9956471D02*
X11097848Y-9994567D01*
X11097848Y-9994567D02*
X11097848Y-10042186D01*
X11097848Y-10042186D02*
X11088324Y-10080281D01*
X11088324Y-10080281D02*
X11078800Y-10099329D01*
X11078800Y-10099329D02*
X11069276Y-10108852D01*
X11069276Y-10108852D02*
X11050229Y-10118376D01*
X11050229Y-10118376D02*
X11031181Y-10118376D01*
X11031181Y-10118376D02*
X11012133Y-10108852D01*
X11012133Y-10108852D02*
X11002610Y-10099329D01*
X11002610Y-10099329D02*
X10993086Y-10080281D01*
X10993086Y-10080281D02*
X10983562Y-10042186D01*
X10983562Y-10042186D02*
X10983562Y-9994567D01*
X10983562Y-9994567D02*
X10993086Y-9956471D01*
X10993086Y-9956471D02*
X11002610Y-9937424D01*
X11002610Y-9937424D02*
X11012133Y-9927900D01*
X11012133Y-9927900D02*
X11031181Y-9918376D01*
X11183562Y-10118376D02*
X11183562Y-9985043D01*
X11183562Y-10004090D02*
X11193086Y-9994567D01*
X11193086Y-9994567D02*
X11212133Y-9985043D01*
X11212133Y-9985043D02*
X11240705Y-9985043D01*
X11240705Y-9985043D02*
X11259752Y-9994567D01*
X11259752Y-9994567D02*
X11269276Y-10013614D01*
X11269276Y-10013614D02*
X11269276Y-10118376D01*
X11269276Y-10013614D02*
X11278800Y-9994567D01*
X11278800Y-9994567D02*
X11297848Y-9985043D01*
X11297848Y-9985043D02*
X11326419Y-9985043D01*
X11326419Y-9985043D02*
X11345467Y-9994567D01*
X11345467Y-9994567D02*
X11354990Y-10013614D01*
X11354990Y-10013614D02*
X11354990Y-10118376D01*
X11450229Y-10118376D02*
X11450229Y-9985043D01*
X11450229Y-10004090D02*
X11459752Y-9994567D01*
X11459752Y-9994567D02*
X11478800Y-9985043D01*
X11478800Y-9985043D02*
X11507371Y-9985043D01*
X11507371Y-9985043D02*
X11526419Y-9994567D01*
X11526419Y-9994567D02*
X11535943Y-10013614D01*
X11535943Y-10013614D02*
X11535943Y-10118376D01*
X11535943Y-10013614D02*
X11545467Y-9994567D01*
X11545467Y-9994567D02*
X11564514Y-9985043D01*
X11564514Y-9985043D02*
X11593086Y-9985043D01*
X11593086Y-9985043D02*
X11612133Y-9994567D01*
X11612133Y-9994567D02*
X11621657Y-10013614D01*
X11621657Y-10013614D02*
X11621657Y-10118376D01*
X11979752Y-9908852D02*
X11808324Y-10165995D01*
X12204514Y-9918376D02*
X12223562Y-9918376D01*
X12223562Y-9918376D02*
X12242610Y-9927900D01*
X12242610Y-9927900D02*
X12252133Y-9937424D01*
X12252133Y-9937424D02*
X12261657Y-9956471D01*
X12261657Y-9956471D02*
X12271181Y-9994567D01*
X12271181Y-9994567D02*
X12271181Y-10042186D01*
X12271181Y-10042186D02*
X12261657Y-10080281D01*
X12261657Y-10080281D02*
X12252133Y-10099329D01*
X12252133Y-10099329D02*
X12242610Y-10108852D01*
X12242610Y-10108852D02*
X12223562Y-10118376D01*
X12223562Y-10118376D02*
X12204514Y-10118376D01*
X12204514Y-10118376D02*
X12185467Y-10108852D01*
X12185467Y-10108852D02*
X12175943Y-10099329D01*
X12175943Y-10099329D02*
X12166419Y-10080281D01*
X12166419Y-10080281D02*
X12156895Y-10042186D01*
X12156895Y-10042186D02*
X12156895Y-9994567D01*
X12156895Y-9994567D02*
X12166419Y-9956471D01*
X12166419Y-9956471D02*
X12175943Y-9937424D01*
X12175943Y-9937424D02*
X12185467Y-9927900D01*
X12185467Y-9927900D02*
X12204514Y-9918376D01*
X12356895Y-10099329D02*
X12366419Y-10108852D01*
X12366419Y-10108852D02*
X12356895Y-10118376D01*
X12356895Y-10118376D02*
X12347371Y-10108852D01*
X12347371Y-10108852D02*
X12356895Y-10099329D01*
X12356895Y-10099329D02*
X12356895Y-10118376D01*
X12490229Y-9918376D02*
X12509276Y-9918376D01*
X12509276Y-9918376D02*
X12528324Y-9927900D01*
X12528324Y-9927900D02*
X12537848Y-9937424D01*
X12537848Y-9937424D02*
X12547371Y-9956471D01*
X12547371Y-9956471D02*
X12556895Y-9994567D01*
X12556895Y-9994567D02*
X12556895Y-10042186D01*
X12556895Y-10042186D02*
X12547371Y-10080281D01*
X12547371Y-10080281D02*
X12537848Y-10099329D01*
X12537848Y-10099329D02*
X12528324Y-10108852D01*
X12528324Y-10108852D02*
X12509276Y-10118376D01*
X12509276Y-10118376D02*
X12490229Y-10118376D01*
X12490229Y-10118376D02*
X12471181Y-10108852D01*
X12471181Y-10108852D02*
X12461657Y-10099329D01*
X12461657Y-10099329D02*
X12452133Y-10080281D01*
X12452133Y-10080281D02*
X12442610Y-10042186D01*
X12442610Y-10042186D02*
X12442610Y-9994567D01*
X12442610Y-9994567D02*
X12452133Y-9956471D01*
X12452133Y-9956471D02*
X12461657Y-9937424D01*
X12461657Y-9937424D02*
X12471181Y-9927900D01*
X12471181Y-9927900D02*
X12490229Y-9918376D01*
X12623562Y-9918376D02*
X12747371Y-9918376D01*
X12747371Y-9918376D02*
X12680705Y-9994567D01*
X12680705Y-9994567D02*
X12709276Y-9994567D01*
X12709276Y-9994567D02*
X12728324Y-10004090D01*
X12728324Y-10004090D02*
X12737848Y-10013614D01*
X12737848Y-10013614D02*
X12747371Y-10032662D01*
X12747371Y-10032662D02*
X12747371Y-10080281D01*
X12747371Y-10080281D02*
X12737848Y-10099329D01*
X12737848Y-10099329D02*
X12728324Y-10108852D01*
X12728324Y-10108852D02*
X12709276Y-10118376D01*
X12709276Y-10118376D02*
X12652133Y-10118376D01*
X12652133Y-10118376D02*
X12633086Y-10108852D01*
X12633086Y-10108852D02*
X12623562Y-10099329D01*
X12937848Y-10118376D02*
X12823562Y-10118376D01*
X12880705Y-10118376D02*
X12880705Y-9918376D01*
X12880705Y-9918376D02*
X12861657Y-9946948D01*
X12861657Y-9946948D02*
X12842610Y-9965995D01*
X12842610Y-9965995D02*
X12823562Y-9975519D01*
X13118800Y-9918376D02*
X13023562Y-9918376D01*
X13023562Y-9918376D02*
X13014038Y-10013614D01*
X13014038Y-10013614D02*
X13023562Y-10004090D01*
X13023562Y-10004090D02*
X13042610Y-9994567D01*
X13042610Y-9994567D02*
X13090229Y-9994567D01*
X13090229Y-9994567D02*
X13109276Y-10004090D01*
X13109276Y-10004090D02*
X13118800Y-10013614D01*
X13118800Y-10013614D02*
X13128324Y-10032662D01*
X13128324Y-10032662D02*
X13128324Y-10080281D01*
X13128324Y-10080281D02*
X13118800Y-10099329D01*
X13118800Y-10099329D02*
X13109276Y-10108852D01*
X13109276Y-10108852D02*
X13090229Y-10118376D01*
X13090229Y-10118376D02*
X13042610Y-10118376D01*
X13042610Y-10118376D02*
X13023562Y-10108852D01*
X13023562Y-10108852D02*
X13014038Y-10099329D01*
X13204514Y-9918376D02*
X13204514Y-9956471D01*
X13280705Y-9918376D02*
X13280705Y-9956471D01*
X13543562Y-10194567D02*
X13534038Y-10185043D01*
X13534038Y-10185043D02*
X13514991Y-10156471D01*
X13514991Y-10156471D02*
X13505467Y-10137424D01*
X13505467Y-10137424D02*
X13495943Y-10108852D01*
X13495943Y-10108852D02*
X13486419Y-10061233D01*
X13486419Y-10061233D02*
X13486419Y-10023138D01*
X13486419Y-10023138D02*
X13495943Y-9975519D01*
X13495943Y-9975519D02*
X13505467Y-9946948D01*
X13505467Y-9946948D02*
X13514991Y-9927900D01*
X13514991Y-9927900D02*
X13534038Y-9899329D01*
X13534038Y-9899329D02*
X13543562Y-9889805D01*
X13724514Y-10118376D02*
X13610229Y-10118376D01*
X13667371Y-10118376D02*
X13667371Y-9918376D01*
X13667371Y-9918376D02*
X13648324Y-9946948D01*
X13648324Y-9946948D02*
X13629276Y-9965995D01*
X13629276Y-9965995D02*
X13610229Y-9975519D01*
X13914991Y-10118376D02*
X13800705Y-10118376D01*
X13857848Y-10118376D02*
X13857848Y-9918376D01*
X13857848Y-9918376D02*
X13838800Y-9946948D01*
X13838800Y-9946948D02*
X13819752Y-9965995D01*
X13819752Y-9965995D02*
X13800705Y-9975519D01*
X14120705Y-10118376D02*
X14120705Y-9918376D01*
X14206419Y-10118376D02*
X14206419Y-10013614D01*
X14206419Y-10013614D02*
X14196895Y-9994567D01*
X14196895Y-9994567D02*
X14177848Y-9985043D01*
X14177848Y-9985043D02*
X14149276Y-9985043D01*
X14149276Y-9985043D02*
X14130229Y-9994567D01*
X14130229Y-9994567D02*
X14120705Y-10004090D01*
X14330229Y-10118376D02*
X14311181Y-10108852D01*
X14311181Y-10108852D02*
X14301657Y-10099329D01*
X14301657Y-10099329D02*
X14292133Y-10080281D01*
X14292133Y-10080281D02*
X14292133Y-10023138D01*
X14292133Y-10023138D02*
X14301657Y-10004090D01*
X14301657Y-10004090D02*
X14311181Y-9994567D01*
X14311181Y-9994567D02*
X14330229Y-9985043D01*
X14330229Y-9985043D02*
X14358800Y-9985043D01*
X14358800Y-9985043D02*
X14377848Y-9994567D01*
X14377848Y-9994567D02*
X14387372Y-10004090D01*
X14387372Y-10004090D02*
X14396895Y-10023138D01*
X14396895Y-10023138D02*
X14396895Y-10080281D01*
X14396895Y-10080281D02*
X14387372Y-10099329D01*
X14387372Y-10099329D02*
X14377848Y-10108852D01*
X14377848Y-10108852D02*
X14358800Y-10118376D01*
X14358800Y-10118376D02*
X14330229Y-10118376D01*
X14511181Y-10118376D02*
X14492133Y-10108852D01*
X14492133Y-10108852D02*
X14482610Y-10089805D01*
X14482610Y-10089805D02*
X14482610Y-9918376D01*
X14663562Y-10108852D02*
X14644514Y-10118376D01*
X14644514Y-10118376D02*
X14606419Y-10118376D01*
X14606419Y-10118376D02*
X14587372Y-10108852D01*
X14587372Y-10108852D02*
X14577848Y-10089805D01*
X14577848Y-10089805D02*
X14577848Y-10013614D01*
X14577848Y-10013614D02*
X14587372Y-9994567D01*
X14587372Y-9994567D02*
X14606419Y-9985043D01*
X14606419Y-9985043D02*
X14644514Y-9985043D01*
X14644514Y-9985043D02*
X14663562Y-9994567D01*
X14663562Y-9994567D02*
X14673086Y-10013614D01*
X14673086Y-10013614D02*
X14673086Y-10032662D01*
X14673086Y-10032662D02*
X14577848Y-10051710D01*
X14749276Y-10108852D02*
X14768324Y-10118376D01*
X14768324Y-10118376D02*
X14806419Y-10118376D01*
X14806419Y-10118376D02*
X14825467Y-10108852D01*
X14825467Y-10108852D02*
X14834991Y-10089805D01*
X14834991Y-10089805D02*
X14834991Y-10080281D01*
X14834991Y-10080281D02*
X14825467Y-10061233D01*
X14825467Y-10061233D02*
X14806419Y-10051710D01*
X14806419Y-10051710D02*
X14777848Y-10051710D01*
X14777848Y-10051710D02*
X14758800Y-10042186D01*
X14758800Y-10042186D02*
X14749276Y-10023138D01*
X14749276Y-10023138D02*
X14749276Y-10013614D01*
X14749276Y-10013614D02*
X14758800Y-9994567D01*
X14758800Y-9994567D02*
X14777848Y-9985043D01*
X14777848Y-9985043D02*
X14806419Y-9985043D01*
X14806419Y-9985043D02*
X14825467Y-9994567D01*
X14901657Y-10194567D02*
X14911181Y-10185043D01*
X14911181Y-10185043D02*
X14930229Y-10156471D01*
X14930229Y-10156471D02*
X14939753Y-10137424D01*
X14939753Y-10137424D02*
X14949276Y-10108852D01*
X14949276Y-10108852D02*
X14958800Y-10061233D01*
X14958800Y-10061233D02*
X14958800Y-10023138D01*
X14958800Y-10023138D02*
X14949276Y-9975519D01*
X14949276Y-9975519D02*
X14939753Y-9946948D01*
X14939753Y-9946948D02*
X14930229Y-9927900D01*
X14930229Y-9927900D02*
X14911181Y-9899329D01*
X14911181Y-9899329D02*
X14901657Y-9889805D01*
D16*
X9978800Y-10258900D02*
X10078800Y-10358900D01*
X10078800Y-10258900D02*
X9978800Y-10358900D01*
X10078800Y-10308900D02*
G75*
G03*
X10078800Y-10308900I-50000J0D01*
G01*
D11*
X10431181Y-10382376D02*
X10316895Y-10382376D01*
X10374038Y-10382376D02*
X10374038Y-10182376D01*
X10374038Y-10182376D02*
X10354990Y-10210948D01*
X10354990Y-10210948D02*
X10335943Y-10229995D01*
X10335943Y-10229995D02*
X10316895Y-10239519D01*
X10516895Y-10363329D02*
X10526419Y-10372852D01*
X10526419Y-10372852D02*
X10516895Y-10382376D01*
X10516895Y-10382376D02*
X10507371Y-10372852D01*
X10507371Y-10372852D02*
X10516895Y-10363329D01*
X10516895Y-10363329D02*
X10516895Y-10382376D01*
X10650229Y-10182376D02*
X10669276Y-10182376D01*
X10669276Y-10182376D02*
X10688324Y-10191900D01*
X10688324Y-10191900D02*
X10697848Y-10201424D01*
X10697848Y-10201424D02*
X10707371Y-10220471D01*
X10707371Y-10220471D02*
X10716895Y-10258567D01*
X10716895Y-10258567D02*
X10716895Y-10306186D01*
X10716895Y-10306186D02*
X10707371Y-10344281D01*
X10707371Y-10344281D02*
X10697848Y-10363329D01*
X10697848Y-10363329D02*
X10688324Y-10372852D01*
X10688324Y-10372852D02*
X10669276Y-10382376D01*
X10669276Y-10382376D02*
X10650229Y-10382376D01*
X10650229Y-10382376D02*
X10631181Y-10372852D01*
X10631181Y-10372852D02*
X10621657Y-10363329D01*
X10621657Y-10363329D02*
X10612133Y-10344281D01*
X10612133Y-10344281D02*
X10602610Y-10306186D01*
X10602610Y-10306186D02*
X10602610Y-10258567D01*
X10602610Y-10258567D02*
X10612133Y-10220471D01*
X10612133Y-10220471D02*
X10621657Y-10201424D01*
X10621657Y-10201424D02*
X10631181Y-10191900D01*
X10631181Y-10191900D02*
X10650229Y-10182376D01*
X10840705Y-10182376D02*
X10859752Y-10182376D01*
X10859752Y-10182376D02*
X10878800Y-10191900D01*
X10878800Y-10191900D02*
X10888324Y-10201424D01*
X10888324Y-10201424D02*
X10897848Y-10220471D01*
X10897848Y-10220471D02*
X10907371Y-10258567D01*
X10907371Y-10258567D02*
X10907371Y-10306186D01*
X10907371Y-10306186D02*
X10897848Y-10344281D01*
X10897848Y-10344281D02*
X10888324Y-10363329D01*
X10888324Y-10363329D02*
X10878800Y-10372852D01*
X10878800Y-10372852D02*
X10859752Y-10382376D01*
X10859752Y-10382376D02*
X10840705Y-10382376D01*
X10840705Y-10382376D02*
X10821657Y-10372852D01*
X10821657Y-10372852D02*
X10812133Y-10363329D01*
X10812133Y-10363329D02*
X10802610Y-10344281D01*
X10802610Y-10344281D02*
X10793086Y-10306186D01*
X10793086Y-10306186D02*
X10793086Y-10258567D01*
X10793086Y-10258567D02*
X10802610Y-10220471D01*
X10802610Y-10220471D02*
X10812133Y-10201424D01*
X10812133Y-10201424D02*
X10821657Y-10191900D01*
X10821657Y-10191900D02*
X10840705Y-10182376D01*
X11031181Y-10182376D02*
X11050229Y-10182376D01*
X11050229Y-10182376D02*
X11069276Y-10191900D01*
X11069276Y-10191900D02*
X11078800Y-10201424D01*
X11078800Y-10201424D02*
X11088324Y-10220471D01*
X11088324Y-10220471D02*
X11097848Y-10258567D01*
X11097848Y-10258567D02*
X11097848Y-10306186D01*
X11097848Y-10306186D02*
X11088324Y-10344281D01*
X11088324Y-10344281D02*
X11078800Y-10363329D01*
X11078800Y-10363329D02*
X11069276Y-10372852D01*
X11069276Y-10372852D02*
X11050229Y-10382376D01*
X11050229Y-10382376D02*
X11031181Y-10382376D01*
X11031181Y-10382376D02*
X11012133Y-10372852D01*
X11012133Y-10372852D02*
X11002610Y-10363329D01*
X11002610Y-10363329D02*
X10993086Y-10344281D01*
X10993086Y-10344281D02*
X10983562Y-10306186D01*
X10983562Y-10306186D02*
X10983562Y-10258567D01*
X10983562Y-10258567D02*
X10993086Y-10220471D01*
X10993086Y-10220471D02*
X11002610Y-10201424D01*
X11002610Y-10201424D02*
X11012133Y-10191900D01*
X11012133Y-10191900D02*
X11031181Y-10182376D01*
X11183562Y-10382376D02*
X11183562Y-10249043D01*
X11183562Y-10268090D02*
X11193086Y-10258567D01*
X11193086Y-10258567D02*
X11212133Y-10249043D01*
X11212133Y-10249043D02*
X11240705Y-10249043D01*
X11240705Y-10249043D02*
X11259752Y-10258567D01*
X11259752Y-10258567D02*
X11269276Y-10277614D01*
X11269276Y-10277614D02*
X11269276Y-10382376D01*
X11269276Y-10277614D02*
X11278800Y-10258567D01*
X11278800Y-10258567D02*
X11297848Y-10249043D01*
X11297848Y-10249043D02*
X11326419Y-10249043D01*
X11326419Y-10249043D02*
X11345467Y-10258567D01*
X11345467Y-10258567D02*
X11354990Y-10277614D01*
X11354990Y-10277614D02*
X11354990Y-10382376D01*
X11450229Y-10382376D02*
X11450229Y-10249043D01*
X11450229Y-10268090D02*
X11459752Y-10258567D01*
X11459752Y-10258567D02*
X11478800Y-10249043D01*
X11478800Y-10249043D02*
X11507371Y-10249043D01*
X11507371Y-10249043D02*
X11526419Y-10258567D01*
X11526419Y-10258567D02*
X11535943Y-10277614D01*
X11535943Y-10277614D02*
X11535943Y-10382376D01*
X11535943Y-10277614D02*
X11545467Y-10258567D01*
X11545467Y-10258567D02*
X11564514Y-10249043D01*
X11564514Y-10249043D02*
X11593086Y-10249043D01*
X11593086Y-10249043D02*
X11612133Y-10258567D01*
X11612133Y-10258567D02*
X11621657Y-10277614D01*
X11621657Y-10277614D02*
X11621657Y-10382376D01*
X11979752Y-10172852D02*
X11808324Y-10429995D01*
X12204514Y-10182376D02*
X12223562Y-10182376D01*
X12223562Y-10182376D02*
X12242610Y-10191900D01*
X12242610Y-10191900D02*
X12252133Y-10201424D01*
X12252133Y-10201424D02*
X12261657Y-10220471D01*
X12261657Y-10220471D02*
X12271181Y-10258567D01*
X12271181Y-10258567D02*
X12271181Y-10306186D01*
X12271181Y-10306186D02*
X12261657Y-10344281D01*
X12261657Y-10344281D02*
X12252133Y-10363329D01*
X12252133Y-10363329D02*
X12242610Y-10372852D01*
X12242610Y-10372852D02*
X12223562Y-10382376D01*
X12223562Y-10382376D02*
X12204514Y-10382376D01*
X12204514Y-10382376D02*
X12185467Y-10372852D01*
X12185467Y-10372852D02*
X12175943Y-10363329D01*
X12175943Y-10363329D02*
X12166419Y-10344281D01*
X12166419Y-10344281D02*
X12156895Y-10306186D01*
X12156895Y-10306186D02*
X12156895Y-10258567D01*
X12156895Y-10258567D02*
X12166419Y-10220471D01*
X12166419Y-10220471D02*
X12175943Y-10201424D01*
X12175943Y-10201424D02*
X12185467Y-10191900D01*
X12185467Y-10191900D02*
X12204514Y-10182376D01*
X12356895Y-10363329D02*
X12366419Y-10372852D01*
X12366419Y-10372852D02*
X12356895Y-10382376D01*
X12356895Y-10382376D02*
X12347371Y-10372852D01*
X12347371Y-10372852D02*
X12356895Y-10363329D01*
X12356895Y-10363329D02*
X12356895Y-10382376D01*
X12490229Y-10182376D02*
X12509276Y-10182376D01*
X12509276Y-10182376D02*
X12528324Y-10191900D01*
X12528324Y-10191900D02*
X12537848Y-10201424D01*
X12537848Y-10201424D02*
X12547371Y-10220471D01*
X12547371Y-10220471D02*
X12556895Y-10258567D01*
X12556895Y-10258567D02*
X12556895Y-10306186D01*
X12556895Y-10306186D02*
X12547371Y-10344281D01*
X12547371Y-10344281D02*
X12537848Y-10363329D01*
X12537848Y-10363329D02*
X12528324Y-10372852D01*
X12528324Y-10372852D02*
X12509276Y-10382376D01*
X12509276Y-10382376D02*
X12490229Y-10382376D01*
X12490229Y-10382376D02*
X12471181Y-10372852D01*
X12471181Y-10372852D02*
X12461657Y-10363329D01*
X12461657Y-10363329D02*
X12452133Y-10344281D01*
X12452133Y-10344281D02*
X12442610Y-10306186D01*
X12442610Y-10306186D02*
X12442610Y-10258567D01*
X12442610Y-10258567D02*
X12452133Y-10220471D01*
X12452133Y-10220471D02*
X12461657Y-10201424D01*
X12461657Y-10201424D02*
X12471181Y-10191900D01*
X12471181Y-10191900D02*
X12490229Y-10182376D01*
X12623562Y-10182376D02*
X12747371Y-10182376D01*
X12747371Y-10182376D02*
X12680705Y-10258567D01*
X12680705Y-10258567D02*
X12709276Y-10258567D01*
X12709276Y-10258567D02*
X12728324Y-10268090D01*
X12728324Y-10268090D02*
X12737848Y-10277614D01*
X12737848Y-10277614D02*
X12747371Y-10296662D01*
X12747371Y-10296662D02*
X12747371Y-10344281D01*
X12747371Y-10344281D02*
X12737848Y-10363329D01*
X12737848Y-10363329D02*
X12728324Y-10372852D01*
X12728324Y-10372852D02*
X12709276Y-10382376D01*
X12709276Y-10382376D02*
X12652133Y-10382376D01*
X12652133Y-10382376D02*
X12633086Y-10372852D01*
X12633086Y-10372852D02*
X12623562Y-10363329D01*
X12842610Y-10382376D02*
X12880705Y-10382376D01*
X12880705Y-10382376D02*
X12899752Y-10372852D01*
X12899752Y-10372852D02*
X12909276Y-10363329D01*
X12909276Y-10363329D02*
X12928324Y-10334757D01*
X12928324Y-10334757D02*
X12937848Y-10296662D01*
X12937848Y-10296662D02*
X12937848Y-10220471D01*
X12937848Y-10220471D02*
X12928324Y-10201424D01*
X12928324Y-10201424D02*
X12918800Y-10191900D01*
X12918800Y-10191900D02*
X12899752Y-10182376D01*
X12899752Y-10182376D02*
X12861657Y-10182376D01*
X12861657Y-10182376D02*
X12842610Y-10191900D01*
X12842610Y-10191900D02*
X12833086Y-10201424D01*
X12833086Y-10201424D02*
X12823562Y-10220471D01*
X12823562Y-10220471D02*
X12823562Y-10268090D01*
X12823562Y-10268090D02*
X12833086Y-10287138D01*
X12833086Y-10287138D02*
X12842610Y-10296662D01*
X12842610Y-10296662D02*
X12861657Y-10306186D01*
X12861657Y-10306186D02*
X12899752Y-10306186D01*
X12899752Y-10306186D02*
X12918800Y-10296662D01*
X12918800Y-10296662D02*
X12928324Y-10287138D01*
X12928324Y-10287138D02*
X12937848Y-10268090D01*
X13109276Y-10249043D02*
X13109276Y-10382376D01*
X13061657Y-10172852D02*
X13014038Y-10315710D01*
X13014038Y-10315710D02*
X13137848Y-10315710D01*
X13204514Y-10182376D02*
X13204514Y-10220471D01*
X13280705Y-10182376D02*
X13280705Y-10220471D01*
X13543562Y-10458567D02*
X13534038Y-10449043D01*
X13534038Y-10449043D02*
X13514991Y-10420471D01*
X13514991Y-10420471D02*
X13505467Y-10401424D01*
X13505467Y-10401424D02*
X13495943Y-10372852D01*
X13495943Y-10372852D02*
X13486419Y-10325233D01*
X13486419Y-10325233D02*
X13486419Y-10287138D01*
X13486419Y-10287138D02*
X13495943Y-10239519D01*
X13495943Y-10239519D02*
X13505467Y-10210948D01*
X13505467Y-10210948D02*
X13514991Y-10191900D01*
X13514991Y-10191900D02*
X13534038Y-10163329D01*
X13534038Y-10163329D02*
X13543562Y-10153805D01*
X13705467Y-10249043D02*
X13705467Y-10382376D01*
X13657848Y-10172852D02*
X13610229Y-10315710D01*
X13610229Y-10315710D02*
X13734038Y-10315710D01*
X13930229Y-10382376D02*
X13930229Y-10182376D01*
X14015943Y-10382376D02*
X14015943Y-10277614D01*
X14015943Y-10277614D02*
X14006419Y-10258567D01*
X14006419Y-10258567D02*
X13987372Y-10249043D01*
X13987372Y-10249043D02*
X13958800Y-10249043D01*
X13958800Y-10249043D02*
X13939752Y-10258567D01*
X13939752Y-10258567D02*
X13930229Y-10268090D01*
X14139752Y-10382376D02*
X14120705Y-10372852D01*
X14120705Y-10372852D02*
X14111181Y-10363329D01*
X14111181Y-10363329D02*
X14101657Y-10344281D01*
X14101657Y-10344281D02*
X14101657Y-10287138D01*
X14101657Y-10287138D02*
X14111181Y-10268090D01*
X14111181Y-10268090D02*
X14120705Y-10258567D01*
X14120705Y-10258567D02*
X14139752Y-10249043D01*
X14139752Y-10249043D02*
X14168324Y-10249043D01*
X14168324Y-10249043D02*
X14187372Y-10258567D01*
X14187372Y-10258567D02*
X14196895Y-10268090D01*
X14196895Y-10268090D02*
X14206419Y-10287138D01*
X14206419Y-10287138D02*
X14206419Y-10344281D01*
X14206419Y-10344281D02*
X14196895Y-10363329D01*
X14196895Y-10363329D02*
X14187372Y-10372852D01*
X14187372Y-10372852D02*
X14168324Y-10382376D01*
X14168324Y-10382376D02*
X14139752Y-10382376D01*
X14320705Y-10382376D02*
X14301657Y-10372852D01*
X14301657Y-10372852D02*
X14292133Y-10353805D01*
X14292133Y-10353805D02*
X14292133Y-10182376D01*
X14473086Y-10372852D02*
X14454038Y-10382376D01*
X14454038Y-10382376D02*
X14415943Y-10382376D01*
X14415943Y-10382376D02*
X14396895Y-10372852D01*
X14396895Y-10372852D02*
X14387372Y-10353805D01*
X14387372Y-10353805D02*
X14387372Y-10277614D01*
X14387372Y-10277614D02*
X14396895Y-10258567D01*
X14396895Y-10258567D02*
X14415943Y-10249043D01*
X14415943Y-10249043D02*
X14454038Y-10249043D01*
X14454038Y-10249043D02*
X14473086Y-10258567D01*
X14473086Y-10258567D02*
X14482610Y-10277614D01*
X14482610Y-10277614D02*
X14482610Y-10296662D01*
X14482610Y-10296662D02*
X14387372Y-10315710D01*
X14558800Y-10372852D02*
X14577848Y-10382376D01*
X14577848Y-10382376D02*
X14615943Y-10382376D01*
X14615943Y-10382376D02*
X14634991Y-10372852D01*
X14634991Y-10372852D02*
X14644514Y-10353805D01*
X14644514Y-10353805D02*
X14644514Y-10344281D01*
X14644514Y-10344281D02*
X14634991Y-10325233D01*
X14634991Y-10325233D02*
X14615943Y-10315710D01*
X14615943Y-10315710D02*
X14587372Y-10315710D01*
X14587372Y-10315710D02*
X14568324Y-10306186D01*
X14568324Y-10306186D02*
X14558800Y-10287138D01*
X14558800Y-10287138D02*
X14558800Y-10277614D01*
X14558800Y-10277614D02*
X14568324Y-10258567D01*
X14568324Y-10258567D02*
X14587372Y-10249043D01*
X14587372Y-10249043D02*
X14615943Y-10249043D01*
X14615943Y-10249043D02*
X14634991Y-10258567D01*
X14850229Y-10306186D02*
X15002610Y-10306186D01*
X14926419Y-10382376D02*
X14926419Y-10229995D01*
X15198800Y-10182376D02*
X15322610Y-10182376D01*
X15322610Y-10182376D02*
X15255943Y-10258567D01*
X15255943Y-10258567D02*
X15284514Y-10258567D01*
X15284514Y-10258567D02*
X15303562Y-10268090D01*
X15303562Y-10268090D02*
X15313086Y-10277614D01*
X15313086Y-10277614D02*
X15322610Y-10296662D01*
X15322610Y-10296662D02*
X15322610Y-10344281D01*
X15322610Y-10344281D02*
X15313086Y-10363329D01*
X15313086Y-10363329D02*
X15303562Y-10372852D01*
X15303562Y-10372852D02*
X15284514Y-10382376D01*
X15284514Y-10382376D02*
X15227372Y-10382376D01*
X15227372Y-10382376D02*
X15208324Y-10372852D01*
X15208324Y-10372852D02*
X15198800Y-10363329D01*
X15518800Y-10372852D02*
X15537848Y-10382376D01*
X15537848Y-10382376D02*
X15575943Y-10382376D01*
X15575943Y-10382376D02*
X15594991Y-10372852D01*
X15594991Y-10372852D02*
X15604514Y-10353805D01*
X15604514Y-10353805D02*
X15604514Y-10344281D01*
X15604514Y-10344281D02*
X15594991Y-10325233D01*
X15594991Y-10325233D02*
X15575943Y-10315710D01*
X15575943Y-10315710D02*
X15547372Y-10315710D01*
X15547372Y-10315710D02*
X15528324Y-10306186D01*
X15528324Y-10306186D02*
X15518800Y-10287138D01*
X15518800Y-10287138D02*
X15518800Y-10277614D01*
X15518800Y-10277614D02*
X15528324Y-10258567D01*
X15528324Y-10258567D02*
X15547372Y-10249043D01*
X15547372Y-10249043D02*
X15575943Y-10249043D01*
X15575943Y-10249043D02*
X15594991Y-10258567D01*
X15718800Y-10382376D02*
X15699753Y-10372852D01*
X15699753Y-10372852D02*
X15690229Y-10353805D01*
X15690229Y-10353805D02*
X15690229Y-10182376D01*
X15823562Y-10382376D02*
X15804514Y-10372852D01*
X15804514Y-10372852D02*
X15794991Y-10363329D01*
X15794991Y-10363329D02*
X15785467Y-10344281D01*
X15785467Y-10344281D02*
X15785467Y-10287138D01*
X15785467Y-10287138D02*
X15794991Y-10268090D01*
X15794991Y-10268090D02*
X15804514Y-10258567D01*
X15804514Y-10258567D02*
X15823562Y-10249043D01*
X15823562Y-10249043D02*
X15852134Y-10249043D01*
X15852134Y-10249043D02*
X15871181Y-10258567D01*
X15871181Y-10258567D02*
X15880705Y-10268090D01*
X15880705Y-10268090D02*
X15890229Y-10287138D01*
X15890229Y-10287138D02*
X15890229Y-10344281D01*
X15890229Y-10344281D02*
X15880705Y-10363329D01*
X15880705Y-10363329D02*
X15871181Y-10372852D01*
X15871181Y-10372852D02*
X15852134Y-10382376D01*
X15852134Y-10382376D02*
X15823562Y-10382376D01*
X15947372Y-10249043D02*
X16023562Y-10249043D01*
X15975943Y-10182376D02*
X15975943Y-10353805D01*
X15975943Y-10353805D02*
X15985467Y-10372852D01*
X15985467Y-10372852D02*
X16004514Y-10382376D01*
X16004514Y-10382376D02*
X16023562Y-10382376D01*
X16080705Y-10372852D02*
X16099753Y-10382376D01*
X16099753Y-10382376D02*
X16137848Y-10382376D01*
X16137848Y-10382376D02*
X16156895Y-10372852D01*
X16156895Y-10372852D02*
X16166419Y-10353805D01*
X16166419Y-10353805D02*
X16166419Y-10344281D01*
X16166419Y-10344281D02*
X16156895Y-10325233D01*
X16156895Y-10325233D02*
X16137848Y-10315710D01*
X16137848Y-10315710D02*
X16109276Y-10315710D01*
X16109276Y-10315710D02*
X16090229Y-10306186D01*
X16090229Y-10306186D02*
X16080705Y-10287138D01*
X16080705Y-10287138D02*
X16080705Y-10277614D01*
X16080705Y-10277614D02*
X16090229Y-10258567D01*
X16090229Y-10258567D02*
X16109276Y-10249043D01*
X16109276Y-10249043D02*
X16137848Y-10249043D01*
X16137848Y-10249043D02*
X16156895Y-10258567D01*
X16233086Y-10458567D02*
X16242610Y-10449043D01*
X16242610Y-10449043D02*
X16261657Y-10420471D01*
X16261657Y-10420471D02*
X16271181Y-10401424D01*
X16271181Y-10401424D02*
X16280705Y-10372852D01*
X16280705Y-10372852D02*
X16290229Y-10325233D01*
X16290229Y-10325233D02*
X16290229Y-10287138D01*
X16290229Y-10287138D02*
X16280705Y-10239519D01*
X16280705Y-10239519D02*
X16271181Y-10210948D01*
X16271181Y-10210948D02*
X16261657Y-10191900D01*
X16261657Y-10191900D02*
X16242610Y-10163329D01*
X16242610Y-10163329D02*
X16233086Y-10153805D01*
D17*
X9926800Y-10496900D02*
X10078800Y-10648900D01*
X10078800Y-10496900D02*
X9926800Y-10648900D01*
X10002800Y-10496900D02*
X10002800Y-10648900D01*
X9926800Y-10572900D02*
X10078800Y-10572900D01*
D11*
X10431181Y-10646376D02*
X10316895Y-10646376D01*
X10374038Y-10646376D02*
X10374038Y-10446376D01*
X10374038Y-10446376D02*
X10354990Y-10474948D01*
X10354990Y-10474948D02*
X10335943Y-10493995D01*
X10335943Y-10493995D02*
X10316895Y-10503519D01*
X10516895Y-10627329D02*
X10526419Y-10636852D01*
X10526419Y-10636852D02*
X10516895Y-10646376D01*
X10516895Y-10646376D02*
X10507371Y-10636852D01*
X10507371Y-10636852D02*
X10516895Y-10627329D01*
X10516895Y-10627329D02*
X10516895Y-10646376D01*
X10707371Y-10446376D02*
X10612133Y-10446376D01*
X10612133Y-10446376D02*
X10602610Y-10541614D01*
X10602610Y-10541614D02*
X10612133Y-10532090D01*
X10612133Y-10532090D02*
X10631181Y-10522567D01*
X10631181Y-10522567D02*
X10678800Y-10522567D01*
X10678800Y-10522567D02*
X10697848Y-10532090D01*
X10697848Y-10532090D02*
X10707371Y-10541614D01*
X10707371Y-10541614D02*
X10716895Y-10560662D01*
X10716895Y-10560662D02*
X10716895Y-10608281D01*
X10716895Y-10608281D02*
X10707371Y-10627329D01*
X10707371Y-10627329D02*
X10697848Y-10636852D01*
X10697848Y-10636852D02*
X10678800Y-10646376D01*
X10678800Y-10646376D02*
X10631181Y-10646376D01*
X10631181Y-10646376D02*
X10612133Y-10636852D01*
X10612133Y-10636852D02*
X10602610Y-10627329D01*
X10793086Y-10465424D02*
X10802610Y-10455900D01*
X10802610Y-10455900D02*
X10821657Y-10446376D01*
X10821657Y-10446376D02*
X10869276Y-10446376D01*
X10869276Y-10446376D02*
X10888324Y-10455900D01*
X10888324Y-10455900D02*
X10897848Y-10465424D01*
X10897848Y-10465424D02*
X10907371Y-10484471D01*
X10907371Y-10484471D02*
X10907371Y-10503519D01*
X10907371Y-10503519D02*
X10897848Y-10532090D01*
X10897848Y-10532090D02*
X10783562Y-10646376D01*
X10783562Y-10646376D02*
X10907371Y-10646376D01*
X11031181Y-10446376D02*
X11050229Y-10446376D01*
X11050229Y-10446376D02*
X11069276Y-10455900D01*
X11069276Y-10455900D02*
X11078800Y-10465424D01*
X11078800Y-10465424D02*
X11088324Y-10484471D01*
X11088324Y-10484471D02*
X11097848Y-10522567D01*
X11097848Y-10522567D02*
X11097848Y-10570186D01*
X11097848Y-10570186D02*
X11088324Y-10608281D01*
X11088324Y-10608281D02*
X11078800Y-10627329D01*
X11078800Y-10627329D02*
X11069276Y-10636852D01*
X11069276Y-10636852D02*
X11050229Y-10646376D01*
X11050229Y-10646376D02*
X11031181Y-10646376D01*
X11031181Y-10646376D02*
X11012133Y-10636852D01*
X11012133Y-10636852D02*
X11002610Y-10627329D01*
X11002610Y-10627329D02*
X10993086Y-10608281D01*
X10993086Y-10608281D02*
X10983562Y-10570186D01*
X10983562Y-10570186D02*
X10983562Y-10522567D01*
X10983562Y-10522567D02*
X10993086Y-10484471D01*
X10993086Y-10484471D02*
X11002610Y-10465424D01*
X11002610Y-10465424D02*
X11012133Y-10455900D01*
X11012133Y-10455900D02*
X11031181Y-10446376D01*
X11183562Y-10646376D02*
X11183562Y-10513043D01*
X11183562Y-10532090D02*
X11193086Y-10522567D01*
X11193086Y-10522567D02*
X11212133Y-10513043D01*
X11212133Y-10513043D02*
X11240705Y-10513043D01*
X11240705Y-10513043D02*
X11259752Y-10522567D01*
X11259752Y-10522567D02*
X11269276Y-10541614D01*
X11269276Y-10541614D02*
X11269276Y-10646376D01*
X11269276Y-10541614D02*
X11278800Y-10522567D01*
X11278800Y-10522567D02*
X11297848Y-10513043D01*
X11297848Y-10513043D02*
X11326419Y-10513043D01*
X11326419Y-10513043D02*
X11345467Y-10522567D01*
X11345467Y-10522567D02*
X11354990Y-10541614D01*
X11354990Y-10541614D02*
X11354990Y-10646376D01*
X11450229Y-10646376D02*
X11450229Y-10513043D01*
X11450229Y-10532090D02*
X11459752Y-10522567D01*
X11459752Y-10522567D02*
X11478800Y-10513043D01*
X11478800Y-10513043D02*
X11507371Y-10513043D01*
X11507371Y-10513043D02*
X11526419Y-10522567D01*
X11526419Y-10522567D02*
X11535943Y-10541614D01*
X11535943Y-10541614D02*
X11535943Y-10646376D01*
X11535943Y-10541614D02*
X11545467Y-10522567D01*
X11545467Y-10522567D02*
X11564514Y-10513043D01*
X11564514Y-10513043D02*
X11593086Y-10513043D01*
X11593086Y-10513043D02*
X11612133Y-10522567D01*
X11612133Y-10522567D02*
X11621657Y-10541614D01*
X11621657Y-10541614D02*
X11621657Y-10646376D01*
X11979752Y-10436852D02*
X11808324Y-10693995D01*
X12204514Y-10446376D02*
X12223562Y-10446376D01*
X12223562Y-10446376D02*
X12242610Y-10455900D01*
X12242610Y-10455900D02*
X12252133Y-10465424D01*
X12252133Y-10465424D02*
X12261657Y-10484471D01*
X12261657Y-10484471D02*
X12271181Y-10522567D01*
X12271181Y-10522567D02*
X12271181Y-10570186D01*
X12271181Y-10570186D02*
X12261657Y-10608281D01*
X12261657Y-10608281D02*
X12252133Y-10627329D01*
X12252133Y-10627329D02*
X12242610Y-10636852D01*
X12242610Y-10636852D02*
X12223562Y-10646376D01*
X12223562Y-10646376D02*
X12204514Y-10646376D01*
X12204514Y-10646376D02*
X12185467Y-10636852D01*
X12185467Y-10636852D02*
X12175943Y-10627329D01*
X12175943Y-10627329D02*
X12166419Y-10608281D01*
X12166419Y-10608281D02*
X12156895Y-10570186D01*
X12156895Y-10570186D02*
X12156895Y-10522567D01*
X12156895Y-10522567D02*
X12166419Y-10484471D01*
X12166419Y-10484471D02*
X12175943Y-10465424D01*
X12175943Y-10465424D02*
X12185467Y-10455900D01*
X12185467Y-10455900D02*
X12204514Y-10446376D01*
X12356895Y-10627329D02*
X12366419Y-10636852D01*
X12366419Y-10636852D02*
X12356895Y-10646376D01*
X12356895Y-10646376D02*
X12347371Y-10636852D01*
X12347371Y-10636852D02*
X12356895Y-10627329D01*
X12356895Y-10627329D02*
X12356895Y-10646376D01*
X12490229Y-10446376D02*
X12509276Y-10446376D01*
X12509276Y-10446376D02*
X12528324Y-10455900D01*
X12528324Y-10455900D02*
X12537848Y-10465424D01*
X12537848Y-10465424D02*
X12547371Y-10484471D01*
X12547371Y-10484471D02*
X12556895Y-10522567D01*
X12556895Y-10522567D02*
X12556895Y-10570186D01*
X12556895Y-10570186D02*
X12547371Y-10608281D01*
X12547371Y-10608281D02*
X12537848Y-10627329D01*
X12537848Y-10627329D02*
X12528324Y-10636852D01*
X12528324Y-10636852D02*
X12509276Y-10646376D01*
X12509276Y-10646376D02*
X12490229Y-10646376D01*
X12490229Y-10646376D02*
X12471181Y-10636852D01*
X12471181Y-10636852D02*
X12461657Y-10627329D01*
X12461657Y-10627329D02*
X12452133Y-10608281D01*
X12452133Y-10608281D02*
X12442610Y-10570186D01*
X12442610Y-10570186D02*
X12442610Y-10522567D01*
X12442610Y-10522567D02*
X12452133Y-10484471D01*
X12452133Y-10484471D02*
X12461657Y-10465424D01*
X12461657Y-10465424D02*
X12471181Y-10455900D01*
X12471181Y-10455900D02*
X12490229Y-10446376D01*
X12737848Y-10446376D02*
X12642610Y-10446376D01*
X12642610Y-10446376D02*
X12633086Y-10541614D01*
X12633086Y-10541614D02*
X12642610Y-10532090D01*
X12642610Y-10532090D02*
X12661657Y-10522567D01*
X12661657Y-10522567D02*
X12709276Y-10522567D01*
X12709276Y-10522567D02*
X12728324Y-10532090D01*
X12728324Y-10532090D02*
X12737848Y-10541614D01*
X12737848Y-10541614D02*
X12747371Y-10560662D01*
X12747371Y-10560662D02*
X12747371Y-10608281D01*
X12747371Y-10608281D02*
X12737848Y-10627329D01*
X12737848Y-10627329D02*
X12728324Y-10636852D01*
X12728324Y-10636852D02*
X12709276Y-10646376D01*
X12709276Y-10646376D02*
X12661657Y-10646376D01*
X12661657Y-10646376D02*
X12642610Y-10636852D01*
X12642610Y-10636852D02*
X12633086Y-10627329D01*
X12842610Y-10646376D02*
X12880705Y-10646376D01*
X12880705Y-10646376D02*
X12899752Y-10636852D01*
X12899752Y-10636852D02*
X12909276Y-10627329D01*
X12909276Y-10627329D02*
X12928324Y-10598757D01*
X12928324Y-10598757D02*
X12937848Y-10560662D01*
X12937848Y-10560662D02*
X12937848Y-10484471D01*
X12937848Y-10484471D02*
X12928324Y-10465424D01*
X12928324Y-10465424D02*
X12918800Y-10455900D01*
X12918800Y-10455900D02*
X12899752Y-10446376D01*
X12899752Y-10446376D02*
X12861657Y-10446376D01*
X12861657Y-10446376D02*
X12842610Y-10455900D01*
X12842610Y-10455900D02*
X12833086Y-10465424D01*
X12833086Y-10465424D02*
X12823562Y-10484471D01*
X12823562Y-10484471D02*
X12823562Y-10532090D01*
X12823562Y-10532090D02*
X12833086Y-10551138D01*
X12833086Y-10551138D02*
X12842610Y-10560662D01*
X12842610Y-10560662D02*
X12861657Y-10570186D01*
X12861657Y-10570186D02*
X12899752Y-10570186D01*
X12899752Y-10570186D02*
X12918800Y-10560662D01*
X12918800Y-10560662D02*
X12928324Y-10551138D01*
X12928324Y-10551138D02*
X12937848Y-10532090D01*
X13052133Y-10532090D02*
X13033086Y-10522567D01*
X13033086Y-10522567D02*
X13023562Y-10513043D01*
X13023562Y-10513043D02*
X13014038Y-10493995D01*
X13014038Y-10493995D02*
X13014038Y-10484471D01*
X13014038Y-10484471D02*
X13023562Y-10465424D01*
X13023562Y-10465424D02*
X13033086Y-10455900D01*
X13033086Y-10455900D02*
X13052133Y-10446376D01*
X13052133Y-10446376D02*
X13090229Y-10446376D01*
X13090229Y-10446376D02*
X13109276Y-10455900D01*
X13109276Y-10455900D02*
X13118800Y-10465424D01*
X13118800Y-10465424D02*
X13128324Y-10484471D01*
X13128324Y-10484471D02*
X13128324Y-10493995D01*
X13128324Y-10493995D02*
X13118800Y-10513043D01*
X13118800Y-10513043D02*
X13109276Y-10522567D01*
X13109276Y-10522567D02*
X13090229Y-10532090D01*
X13090229Y-10532090D02*
X13052133Y-10532090D01*
X13052133Y-10532090D02*
X13033086Y-10541614D01*
X13033086Y-10541614D02*
X13023562Y-10551138D01*
X13023562Y-10551138D02*
X13014038Y-10570186D01*
X13014038Y-10570186D02*
X13014038Y-10608281D01*
X13014038Y-10608281D02*
X13023562Y-10627329D01*
X13023562Y-10627329D02*
X13033086Y-10636852D01*
X13033086Y-10636852D02*
X13052133Y-10646376D01*
X13052133Y-10646376D02*
X13090229Y-10646376D01*
X13090229Y-10646376D02*
X13109276Y-10636852D01*
X13109276Y-10636852D02*
X13118800Y-10627329D01*
X13118800Y-10627329D02*
X13128324Y-10608281D01*
X13128324Y-10608281D02*
X13128324Y-10570186D01*
X13128324Y-10570186D02*
X13118800Y-10551138D01*
X13118800Y-10551138D02*
X13109276Y-10541614D01*
X13109276Y-10541614D02*
X13090229Y-10532090D01*
X13204514Y-10446376D02*
X13204514Y-10484471D01*
X13280705Y-10446376D02*
X13280705Y-10484471D01*
X13543562Y-10722567D02*
X13534038Y-10713043D01*
X13534038Y-10713043D02*
X13514991Y-10684471D01*
X13514991Y-10684471D02*
X13505467Y-10665424D01*
X13505467Y-10665424D02*
X13495943Y-10636852D01*
X13495943Y-10636852D02*
X13486419Y-10589233D01*
X13486419Y-10589233D02*
X13486419Y-10551138D01*
X13486419Y-10551138D02*
X13495943Y-10503519D01*
X13495943Y-10503519D02*
X13505467Y-10474948D01*
X13505467Y-10474948D02*
X13514991Y-10455900D01*
X13514991Y-10455900D02*
X13534038Y-10427329D01*
X13534038Y-10427329D02*
X13543562Y-10417805D01*
X13705467Y-10446376D02*
X13667371Y-10446376D01*
X13667371Y-10446376D02*
X13648324Y-10455900D01*
X13648324Y-10455900D02*
X13638800Y-10465424D01*
X13638800Y-10465424D02*
X13619752Y-10493995D01*
X13619752Y-10493995D02*
X13610229Y-10532090D01*
X13610229Y-10532090D02*
X13610229Y-10608281D01*
X13610229Y-10608281D02*
X13619752Y-10627329D01*
X13619752Y-10627329D02*
X13629276Y-10636852D01*
X13629276Y-10636852D02*
X13648324Y-10646376D01*
X13648324Y-10646376D02*
X13686419Y-10646376D01*
X13686419Y-10646376D02*
X13705467Y-10636852D01*
X13705467Y-10636852D02*
X13714991Y-10627329D01*
X13714991Y-10627329D02*
X13724514Y-10608281D01*
X13724514Y-10608281D02*
X13724514Y-10560662D01*
X13724514Y-10560662D02*
X13714991Y-10541614D01*
X13714991Y-10541614D02*
X13705467Y-10532090D01*
X13705467Y-10532090D02*
X13686419Y-10522567D01*
X13686419Y-10522567D02*
X13648324Y-10522567D01*
X13648324Y-10522567D02*
X13629276Y-10532090D01*
X13629276Y-10532090D02*
X13619752Y-10541614D01*
X13619752Y-10541614D02*
X13610229Y-10560662D01*
X13930229Y-10646376D02*
X13930229Y-10446376D01*
X14015943Y-10646376D02*
X14015943Y-10541614D01*
X14015943Y-10541614D02*
X14006419Y-10522567D01*
X14006419Y-10522567D02*
X13987372Y-10513043D01*
X13987372Y-10513043D02*
X13958800Y-10513043D01*
X13958800Y-10513043D02*
X13939752Y-10522567D01*
X13939752Y-10522567D02*
X13930229Y-10532090D01*
X14139752Y-10646376D02*
X14120705Y-10636852D01*
X14120705Y-10636852D02*
X14111181Y-10627329D01*
X14111181Y-10627329D02*
X14101657Y-10608281D01*
X14101657Y-10608281D02*
X14101657Y-10551138D01*
X14101657Y-10551138D02*
X14111181Y-10532090D01*
X14111181Y-10532090D02*
X14120705Y-10522567D01*
X14120705Y-10522567D02*
X14139752Y-10513043D01*
X14139752Y-10513043D02*
X14168324Y-10513043D01*
X14168324Y-10513043D02*
X14187372Y-10522567D01*
X14187372Y-10522567D02*
X14196895Y-10532090D01*
X14196895Y-10532090D02*
X14206419Y-10551138D01*
X14206419Y-10551138D02*
X14206419Y-10608281D01*
X14206419Y-10608281D02*
X14196895Y-10627329D01*
X14196895Y-10627329D02*
X14187372Y-10636852D01*
X14187372Y-10636852D02*
X14168324Y-10646376D01*
X14168324Y-10646376D02*
X14139752Y-10646376D01*
X14320705Y-10646376D02*
X14301657Y-10636852D01*
X14301657Y-10636852D02*
X14292133Y-10617805D01*
X14292133Y-10617805D02*
X14292133Y-10446376D01*
X14473086Y-10636852D02*
X14454038Y-10646376D01*
X14454038Y-10646376D02*
X14415943Y-10646376D01*
X14415943Y-10646376D02*
X14396895Y-10636852D01*
X14396895Y-10636852D02*
X14387372Y-10617805D01*
X14387372Y-10617805D02*
X14387372Y-10541614D01*
X14387372Y-10541614D02*
X14396895Y-10522567D01*
X14396895Y-10522567D02*
X14415943Y-10513043D01*
X14415943Y-10513043D02*
X14454038Y-10513043D01*
X14454038Y-10513043D02*
X14473086Y-10522567D01*
X14473086Y-10522567D02*
X14482610Y-10541614D01*
X14482610Y-10541614D02*
X14482610Y-10560662D01*
X14482610Y-10560662D02*
X14387372Y-10579710D01*
X14558800Y-10636852D02*
X14577848Y-10646376D01*
X14577848Y-10646376D02*
X14615943Y-10646376D01*
X14615943Y-10646376D02*
X14634991Y-10636852D01*
X14634991Y-10636852D02*
X14644514Y-10617805D01*
X14644514Y-10617805D02*
X14644514Y-10608281D01*
X14644514Y-10608281D02*
X14634991Y-10589233D01*
X14634991Y-10589233D02*
X14615943Y-10579710D01*
X14615943Y-10579710D02*
X14587372Y-10579710D01*
X14587372Y-10579710D02*
X14568324Y-10570186D01*
X14568324Y-10570186D02*
X14558800Y-10551138D01*
X14558800Y-10551138D02*
X14558800Y-10541614D01*
X14558800Y-10541614D02*
X14568324Y-10522567D01*
X14568324Y-10522567D02*
X14587372Y-10513043D01*
X14587372Y-10513043D02*
X14615943Y-10513043D01*
X14615943Y-10513043D02*
X14634991Y-10522567D01*
X14711181Y-10722567D02*
X14720705Y-10713043D01*
X14720705Y-10713043D02*
X14739753Y-10684471D01*
X14739753Y-10684471D02*
X14749276Y-10665424D01*
X14749276Y-10665424D02*
X14758800Y-10636852D01*
X14758800Y-10636852D02*
X14768324Y-10589233D01*
X14768324Y-10589233D02*
X14768324Y-10551138D01*
X14768324Y-10551138D02*
X14758800Y-10503519D01*
X14758800Y-10503519D02*
X14749276Y-10474948D01*
X14749276Y-10474948D02*
X14739753Y-10455900D01*
X14739753Y-10455900D02*
X14720705Y-10427329D01*
X14720705Y-10427329D02*
X14711181Y-10417805D01*
X9878800Y-10744900D02*
X10078800Y-10944900D01*
X10078800Y-10744900D02*
X9878800Y-10944900D01*
X10049511Y-10915611D02*
X10049511Y-10774189D01*
X9908089Y-10774189D01*
X9908089Y-10915611D01*
X10049511Y-10915611D01*
X10316895Y-10737424D02*
X10326419Y-10727900D01*
X10326419Y-10727900D02*
X10345467Y-10718376D01*
X10345467Y-10718376D02*
X10393086Y-10718376D01*
X10393086Y-10718376D02*
X10412133Y-10727900D01*
X10412133Y-10727900D02*
X10421657Y-10737424D01*
X10421657Y-10737424D02*
X10431181Y-10756471D01*
X10431181Y-10756471D02*
X10431181Y-10775519D01*
X10431181Y-10775519D02*
X10421657Y-10804090D01*
X10421657Y-10804090D02*
X10307371Y-10918376D01*
X10307371Y-10918376D02*
X10431181Y-10918376D01*
X10516895Y-10899329D02*
X10526419Y-10908852D01*
X10526419Y-10908852D02*
X10516895Y-10918376D01*
X10516895Y-10918376D02*
X10507371Y-10908852D01*
X10507371Y-10908852D02*
X10516895Y-10899329D01*
X10516895Y-10899329D02*
X10516895Y-10918376D01*
X10602610Y-10737424D02*
X10612133Y-10727900D01*
X10612133Y-10727900D02*
X10631181Y-10718376D01*
X10631181Y-10718376D02*
X10678800Y-10718376D01*
X10678800Y-10718376D02*
X10697848Y-10727900D01*
X10697848Y-10727900D02*
X10707371Y-10737424D01*
X10707371Y-10737424D02*
X10716895Y-10756471D01*
X10716895Y-10756471D02*
X10716895Y-10775519D01*
X10716895Y-10775519D02*
X10707371Y-10804090D01*
X10707371Y-10804090D02*
X10593086Y-10918376D01*
X10593086Y-10918376D02*
X10716895Y-10918376D01*
X10840705Y-10718376D02*
X10859752Y-10718376D01*
X10859752Y-10718376D02*
X10878800Y-10727900D01*
X10878800Y-10727900D02*
X10888324Y-10737424D01*
X10888324Y-10737424D02*
X10897848Y-10756471D01*
X10897848Y-10756471D02*
X10907371Y-10794567D01*
X10907371Y-10794567D02*
X10907371Y-10842186D01*
X10907371Y-10842186D02*
X10897848Y-10880281D01*
X10897848Y-10880281D02*
X10888324Y-10899329D01*
X10888324Y-10899329D02*
X10878800Y-10908852D01*
X10878800Y-10908852D02*
X10859752Y-10918376D01*
X10859752Y-10918376D02*
X10840705Y-10918376D01*
X10840705Y-10918376D02*
X10821657Y-10908852D01*
X10821657Y-10908852D02*
X10812133Y-10899329D01*
X10812133Y-10899329D02*
X10802610Y-10880281D01*
X10802610Y-10880281D02*
X10793086Y-10842186D01*
X10793086Y-10842186D02*
X10793086Y-10794567D01*
X10793086Y-10794567D02*
X10802610Y-10756471D01*
X10802610Y-10756471D02*
X10812133Y-10737424D01*
X10812133Y-10737424D02*
X10821657Y-10727900D01*
X10821657Y-10727900D02*
X10840705Y-10718376D01*
X11031181Y-10718376D02*
X11050229Y-10718376D01*
X11050229Y-10718376D02*
X11069276Y-10727900D01*
X11069276Y-10727900D02*
X11078800Y-10737424D01*
X11078800Y-10737424D02*
X11088324Y-10756471D01*
X11088324Y-10756471D02*
X11097848Y-10794567D01*
X11097848Y-10794567D02*
X11097848Y-10842186D01*
X11097848Y-10842186D02*
X11088324Y-10880281D01*
X11088324Y-10880281D02*
X11078800Y-10899329D01*
X11078800Y-10899329D02*
X11069276Y-10908852D01*
X11069276Y-10908852D02*
X11050229Y-10918376D01*
X11050229Y-10918376D02*
X11031181Y-10918376D01*
X11031181Y-10918376D02*
X11012133Y-10908852D01*
X11012133Y-10908852D02*
X11002610Y-10899329D01*
X11002610Y-10899329D02*
X10993086Y-10880281D01*
X10993086Y-10880281D02*
X10983562Y-10842186D01*
X10983562Y-10842186D02*
X10983562Y-10794567D01*
X10983562Y-10794567D02*
X10993086Y-10756471D01*
X10993086Y-10756471D02*
X11002610Y-10737424D01*
X11002610Y-10737424D02*
X11012133Y-10727900D01*
X11012133Y-10727900D02*
X11031181Y-10718376D01*
X11183562Y-10918376D02*
X11183562Y-10785043D01*
X11183562Y-10804090D02*
X11193086Y-10794567D01*
X11193086Y-10794567D02*
X11212133Y-10785043D01*
X11212133Y-10785043D02*
X11240705Y-10785043D01*
X11240705Y-10785043D02*
X11259752Y-10794567D01*
X11259752Y-10794567D02*
X11269276Y-10813614D01*
X11269276Y-10813614D02*
X11269276Y-10918376D01*
X11269276Y-10813614D02*
X11278800Y-10794567D01*
X11278800Y-10794567D02*
X11297848Y-10785043D01*
X11297848Y-10785043D02*
X11326419Y-10785043D01*
X11326419Y-10785043D02*
X11345467Y-10794567D01*
X11345467Y-10794567D02*
X11354990Y-10813614D01*
X11354990Y-10813614D02*
X11354990Y-10918376D01*
X11450229Y-10918376D02*
X11450229Y-10785043D01*
X11450229Y-10804090D02*
X11459752Y-10794567D01*
X11459752Y-10794567D02*
X11478800Y-10785043D01*
X11478800Y-10785043D02*
X11507371Y-10785043D01*
X11507371Y-10785043D02*
X11526419Y-10794567D01*
X11526419Y-10794567D02*
X11535943Y-10813614D01*
X11535943Y-10813614D02*
X11535943Y-10918376D01*
X11535943Y-10813614D02*
X11545467Y-10794567D01*
X11545467Y-10794567D02*
X11564514Y-10785043D01*
X11564514Y-10785043D02*
X11593086Y-10785043D01*
X11593086Y-10785043D02*
X11612133Y-10794567D01*
X11612133Y-10794567D02*
X11621657Y-10813614D01*
X11621657Y-10813614D02*
X11621657Y-10918376D01*
X11979752Y-10708852D02*
X11808324Y-10965995D01*
X12204514Y-10718376D02*
X12223562Y-10718376D01*
X12223562Y-10718376D02*
X12242610Y-10727900D01*
X12242610Y-10727900D02*
X12252133Y-10737424D01*
X12252133Y-10737424D02*
X12261657Y-10756471D01*
X12261657Y-10756471D02*
X12271181Y-10794567D01*
X12271181Y-10794567D02*
X12271181Y-10842186D01*
X12271181Y-10842186D02*
X12261657Y-10880281D01*
X12261657Y-10880281D02*
X12252133Y-10899329D01*
X12252133Y-10899329D02*
X12242610Y-10908852D01*
X12242610Y-10908852D02*
X12223562Y-10918376D01*
X12223562Y-10918376D02*
X12204514Y-10918376D01*
X12204514Y-10918376D02*
X12185467Y-10908852D01*
X12185467Y-10908852D02*
X12175943Y-10899329D01*
X12175943Y-10899329D02*
X12166419Y-10880281D01*
X12166419Y-10880281D02*
X12156895Y-10842186D01*
X12156895Y-10842186D02*
X12156895Y-10794567D01*
X12156895Y-10794567D02*
X12166419Y-10756471D01*
X12166419Y-10756471D02*
X12175943Y-10737424D01*
X12175943Y-10737424D02*
X12185467Y-10727900D01*
X12185467Y-10727900D02*
X12204514Y-10718376D01*
X12356895Y-10899329D02*
X12366419Y-10908852D01*
X12366419Y-10908852D02*
X12356895Y-10918376D01*
X12356895Y-10918376D02*
X12347371Y-10908852D01*
X12347371Y-10908852D02*
X12356895Y-10899329D01*
X12356895Y-10899329D02*
X12356895Y-10918376D01*
X12490229Y-10718376D02*
X12509276Y-10718376D01*
X12509276Y-10718376D02*
X12528324Y-10727900D01*
X12528324Y-10727900D02*
X12537848Y-10737424D01*
X12537848Y-10737424D02*
X12547371Y-10756471D01*
X12547371Y-10756471D02*
X12556895Y-10794567D01*
X12556895Y-10794567D02*
X12556895Y-10842186D01*
X12556895Y-10842186D02*
X12547371Y-10880281D01*
X12547371Y-10880281D02*
X12537848Y-10899329D01*
X12537848Y-10899329D02*
X12528324Y-10908852D01*
X12528324Y-10908852D02*
X12509276Y-10918376D01*
X12509276Y-10918376D02*
X12490229Y-10918376D01*
X12490229Y-10918376D02*
X12471181Y-10908852D01*
X12471181Y-10908852D02*
X12461657Y-10899329D01*
X12461657Y-10899329D02*
X12452133Y-10880281D01*
X12452133Y-10880281D02*
X12442610Y-10842186D01*
X12442610Y-10842186D02*
X12442610Y-10794567D01*
X12442610Y-10794567D02*
X12452133Y-10756471D01*
X12452133Y-10756471D02*
X12461657Y-10737424D01*
X12461657Y-10737424D02*
X12471181Y-10727900D01*
X12471181Y-10727900D02*
X12490229Y-10718376D01*
X12671181Y-10804090D02*
X12652133Y-10794567D01*
X12652133Y-10794567D02*
X12642610Y-10785043D01*
X12642610Y-10785043D02*
X12633086Y-10765995D01*
X12633086Y-10765995D02*
X12633086Y-10756471D01*
X12633086Y-10756471D02*
X12642610Y-10737424D01*
X12642610Y-10737424D02*
X12652133Y-10727900D01*
X12652133Y-10727900D02*
X12671181Y-10718376D01*
X12671181Y-10718376D02*
X12709276Y-10718376D01*
X12709276Y-10718376D02*
X12728324Y-10727900D01*
X12728324Y-10727900D02*
X12737848Y-10737424D01*
X12737848Y-10737424D02*
X12747371Y-10756471D01*
X12747371Y-10756471D02*
X12747371Y-10765995D01*
X12747371Y-10765995D02*
X12737848Y-10785043D01*
X12737848Y-10785043D02*
X12728324Y-10794567D01*
X12728324Y-10794567D02*
X12709276Y-10804090D01*
X12709276Y-10804090D02*
X12671181Y-10804090D01*
X12671181Y-10804090D02*
X12652133Y-10813614D01*
X12652133Y-10813614D02*
X12642610Y-10823138D01*
X12642610Y-10823138D02*
X12633086Y-10842186D01*
X12633086Y-10842186D02*
X12633086Y-10880281D01*
X12633086Y-10880281D02*
X12642610Y-10899329D01*
X12642610Y-10899329D02*
X12652133Y-10908852D01*
X12652133Y-10908852D02*
X12671181Y-10918376D01*
X12671181Y-10918376D02*
X12709276Y-10918376D01*
X12709276Y-10918376D02*
X12728324Y-10908852D01*
X12728324Y-10908852D02*
X12737848Y-10899329D01*
X12737848Y-10899329D02*
X12747371Y-10880281D01*
X12747371Y-10880281D02*
X12747371Y-10842186D01*
X12747371Y-10842186D02*
X12737848Y-10823138D01*
X12737848Y-10823138D02*
X12728324Y-10813614D01*
X12728324Y-10813614D02*
X12709276Y-10804090D01*
X12918800Y-10718376D02*
X12880705Y-10718376D01*
X12880705Y-10718376D02*
X12861657Y-10727900D01*
X12861657Y-10727900D02*
X12852133Y-10737424D01*
X12852133Y-10737424D02*
X12833086Y-10765995D01*
X12833086Y-10765995D02*
X12823562Y-10804090D01*
X12823562Y-10804090D02*
X12823562Y-10880281D01*
X12823562Y-10880281D02*
X12833086Y-10899329D01*
X12833086Y-10899329D02*
X12842610Y-10908852D01*
X12842610Y-10908852D02*
X12861657Y-10918376D01*
X12861657Y-10918376D02*
X12899752Y-10918376D01*
X12899752Y-10918376D02*
X12918800Y-10908852D01*
X12918800Y-10908852D02*
X12928324Y-10899329D01*
X12928324Y-10899329D02*
X12937848Y-10880281D01*
X12937848Y-10880281D02*
X12937848Y-10832662D01*
X12937848Y-10832662D02*
X12928324Y-10813614D01*
X12928324Y-10813614D02*
X12918800Y-10804090D01*
X12918800Y-10804090D02*
X12899752Y-10794567D01*
X12899752Y-10794567D02*
X12861657Y-10794567D01*
X12861657Y-10794567D02*
X12842610Y-10804090D01*
X12842610Y-10804090D02*
X12833086Y-10813614D01*
X12833086Y-10813614D02*
X12823562Y-10832662D01*
X13109276Y-10718376D02*
X13071181Y-10718376D01*
X13071181Y-10718376D02*
X13052133Y-10727900D01*
X13052133Y-10727900D02*
X13042610Y-10737424D01*
X13042610Y-10737424D02*
X13023562Y-10765995D01*
X13023562Y-10765995D02*
X13014038Y-10804090D01*
X13014038Y-10804090D02*
X13014038Y-10880281D01*
X13014038Y-10880281D02*
X13023562Y-10899329D01*
X13023562Y-10899329D02*
X13033086Y-10908852D01*
X13033086Y-10908852D02*
X13052133Y-10918376D01*
X13052133Y-10918376D02*
X13090229Y-10918376D01*
X13090229Y-10918376D02*
X13109276Y-10908852D01*
X13109276Y-10908852D02*
X13118800Y-10899329D01*
X13118800Y-10899329D02*
X13128324Y-10880281D01*
X13128324Y-10880281D02*
X13128324Y-10832662D01*
X13128324Y-10832662D02*
X13118800Y-10813614D01*
X13118800Y-10813614D02*
X13109276Y-10804090D01*
X13109276Y-10804090D02*
X13090229Y-10794567D01*
X13090229Y-10794567D02*
X13052133Y-10794567D01*
X13052133Y-10794567D02*
X13033086Y-10804090D01*
X13033086Y-10804090D02*
X13023562Y-10813614D01*
X13023562Y-10813614D02*
X13014038Y-10832662D01*
X13204514Y-10718376D02*
X13204514Y-10756471D01*
X13280705Y-10718376D02*
X13280705Y-10756471D01*
X13543562Y-10994567D02*
X13534038Y-10985043D01*
X13534038Y-10985043D02*
X13514991Y-10956471D01*
X13514991Y-10956471D02*
X13505467Y-10937424D01*
X13505467Y-10937424D02*
X13495943Y-10908852D01*
X13495943Y-10908852D02*
X13486419Y-10861233D01*
X13486419Y-10861233D02*
X13486419Y-10823138D01*
X13486419Y-10823138D02*
X13495943Y-10775519D01*
X13495943Y-10775519D02*
X13505467Y-10746948D01*
X13505467Y-10746948D02*
X13514991Y-10727900D01*
X13514991Y-10727900D02*
X13534038Y-10699329D01*
X13534038Y-10699329D02*
X13543562Y-10689805D01*
X13610229Y-10737424D02*
X13619752Y-10727900D01*
X13619752Y-10727900D02*
X13638800Y-10718376D01*
X13638800Y-10718376D02*
X13686419Y-10718376D01*
X13686419Y-10718376D02*
X13705467Y-10727900D01*
X13705467Y-10727900D02*
X13714991Y-10737424D01*
X13714991Y-10737424D02*
X13724514Y-10756471D01*
X13724514Y-10756471D02*
X13724514Y-10775519D01*
X13724514Y-10775519D02*
X13714991Y-10804090D01*
X13714991Y-10804090D02*
X13600705Y-10918376D01*
X13600705Y-10918376D02*
X13724514Y-10918376D01*
X13930229Y-10918376D02*
X13930229Y-10718376D01*
X14015943Y-10918376D02*
X14015943Y-10813614D01*
X14015943Y-10813614D02*
X14006419Y-10794567D01*
X14006419Y-10794567D02*
X13987372Y-10785043D01*
X13987372Y-10785043D02*
X13958800Y-10785043D01*
X13958800Y-10785043D02*
X13939752Y-10794567D01*
X13939752Y-10794567D02*
X13930229Y-10804090D01*
X14139752Y-10918376D02*
X14120705Y-10908852D01*
X14120705Y-10908852D02*
X14111181Y-10899329D01*
X14111181Y-10899329D02*
X14101657Y-10880281D01*
X14101657Y-10880281D02*
X14101657Y-10823138D01*
X14101657Y-10823138D02*
X14111181Y-10804090D01*
X14111181Y-10804090D02*
X14120705Y-10794567D01*
X14120705Y-10794567D02*
X14139752Y-10785043D01*
X14139752Y-10785043D02*
X14168324Y-10785043D01*
X14168324Y-10785043D02*
X14187372Y-10794567D01*
X14187372Y-10794567D02*
X14196895Y-10804090D01*
X14196895Y-10804090D02*
X14206419Y-10823138D01*
X14206419Y-10823138D02*
X14206419Y-10880281D01*
X14206419Y-10880281D02*
X14196895Y-10899329D01*
X14196895Y-10899329D02*
X14187372Y-10908852D01*
X14187372Y-10908852D02*
X14168324Y-10918376D01*
X14168324Y-10918376D02*
X14139752Y-10918376D01*
X14320705Y-10918376D02*
X14301657Y-10908852D01*
X14301657Y-10908852D02*
X14292133Y-10889805D01*
X14292133Y-10889805D02*
X14292133Y-10718376D01*
X14473086Y-10908852D02*
X14454038Y-10918376D01*
X14454038Y-10918376D02*
X14415943Y-10918376D01*
X14415943Y-10918376D02*
X14396895Y-10908852D01*
X14396895Y-10908852D02*
X14387372Y-10889805D01*
X14387372Y-10889805D02*
X14387372Y-10813614D01*
X14387372Y-10813614D02*
X14396895Y-10794567D01*
X14396895Y-10794567D02*
X14415943Y-10785043D01*
X14415943Y-10785043D02*
X14454038Y-10785043D01*
X14454038Y-10785043D02*
X14473086Y-10794567D01*
X14473086Y-10794567D02*
X14482610Y-10813614D01*
X14482610Y-10813614D02*
X14482610Y-10832662D01*
X14482610Y-10832662D02*
X14387372Y-10851710D01*
X14558800Y-10908852D02*
X14577848Y-10918376D01*
X14577848Y-10918376D02*
X14615943Y-10918376D01*
X14615943Y-10918376D02*
X14634991Y-10908852D01*
X14634991Y-10908852D02*
X14644514Y-10889805D01*
X14644514Y-10889805D02*
X14644514Y-10880281D01*
X14644514Y-10880281D02*
X14634991Y-10861233D01*
X14634991Y-10861233D02*
X14615943Y-10851710D01*
X14615943Y-10851710D02*
X14587372Y-10851710D01*
X14587372Y-10851710D02*
X14568324Y-10842186D01*
X14568324Y-10842186D02*
X14558800Y-10823138D01*
X14558800Y-10823138D02*
X14558800Y-10813614D01*
X14558800Y-10813614D02*
X14568324Y-10794567D01*
X14568324Y-10794567D02*
X14587372Y-10785043D01*
X14587372Y-10785043D02*
X14615943Y-10785043D01*
X14615943Y-10785043D02*
X14634991Y-10794567D01*
X14711181Y-10994567D02*
X14720705Y-10985043D01*
X14720705Y-10985043D02*
X14739753Y-10956471D01*
X14739753Y-10956471D02*
X14749276Y-10937424D01*
X14749276Y-10937424D02*
X14758800Y-10908852D01*
X14758800Y-10908852D02*
X14768324Y-10861233D01*
X14768324Y-10861233D02*
X14768324Y-10823138D01*
X14768324Y-10823138D02*
X14758800Y-10775519D01*
X14758800Y-10775519D02*
X14749276Y-10746948D01*
X14749276Y-10746948D02*
X14739753Y-10727900D01*
X14739753Y-10727900D02*
X14720705Y-10699329D01*
X14720705Y-10699329D02*
X14711181Y-10689805D01*
M02*
