G04 #@! TF.GenerationSoftware,KiCad,Pcbnew,(5.1.5)-3*
G04 #@! TF.CreationDate,2020-12-19T17:07:05+01:00*
G04 #@! TF.ProjectId,BalthazarPSU2,42616c74-6861-47a6-9172-505355322e6b,rev?*
G04 #@! TF.SameCoordinates,Original*
G04 #@! TF.FileFunction,Soldermask,Bot*
G04 #@! TF.FilePolarity,Negative*
%FSLAX46Y46*%
G04 Gerber Fmt 4.6, Leading zero omitted, Abs format (unit mm)*
G04 Created by KiCad (PCBNEW (5.1.5)-3) date 2020-12-19 17:07:05*
%MOMM*%
%LPD*%
G04 APERTURE LIST*
%ADD10C,0.500000*%
%ADD11C,0.100000*%
%ADD12C,1.400000*%
%ADD13C,3.000000*%
%ADD14R,3.000000X3.000000*%
%ADD15C,0.700000*%
%ADD16O,2.400000X0.900000*%
%ADD17O,1.700000X0.900000*%
%ADD18R,3.800000X2.000000*%
%ADD19R,1.500000X2.000000*%
%ADD20R,1.900000X1.500000*%
%ADD21R,1.350000X0.400000*%
%ADD22C,1.450000*%
%ADD23O,1.900000X1.200000*%
%ADD24R,1.900000X1.200000*%
%ADD25R,1.350000X1.350000*%
%ADD26O,1.350000X1.350000*%
%ADD27R,1.700000X1.700000*%
%ADD28O,1.700000X1.700000*%
%ADD29C,4.400000*%
G04 APERTURE END LIST*
D10*
X153401000Y-67960000D03*
X151369000Y-67960000D03*
X153401000Y-66944000D03*
X151369000Y-66944000D03*
X151369000Y-68976000D03*
X152385000Y-67960000D03*
X152385000Y-66944000D03*
X152385000Y-68976000D03*
X153401000Y-68976000D03*
D11*
G36*
X133238504Y-61102204D02*
G01*
X133262773Y-61105804D01*
X133286571Y-61111765D01*
X133309671Y-61120030D01*
X133331849Y-61130520D01*
X133352893Y-61143133D01*
X133372598Y-61157747D01*
X133390777Y-61174223D01*
X133407253Y-61192402D01*
X133421867Y-61212107D01*
X133434480Y-61233151D01*
X133444970Y-61255329D01*
X133453235Y-61278429D01*
X133459196Y-61302227D01*
X133462796Y-61326496D01*
X133464000Y-61351000D01*
X133464000Y-62601000D01*
X133462796Y-62625504D01*
X133459196Y-62649773D01*
X133453235Y-62673571D01*
X133444970Y-62696671D01*
X133434480Y-62718849D01*
X133421867Y-62739893D01*
X133407253Y-62759598D01*
X133390777Y-62777777D01*
X133372598Y-62794253D01*
X133352893Y-62808867D01*
X133331849Y-62821480D01*
X133309671Y-62831970D01*
X133286571Y-62840235D01*
X133262773Y-62846196D01*
X133238504Y-62849796D01*
X133214000Y-62851000D01*
X132464000Y-62851000D01*
X132439496Y-62849796D01*
X132415227Y-62846196D01*
X132391429Y-62840235D01*
X132368329Y-62831970D01*
X132346151Y-62821480D01*
X132325107Y-62808867D01*
X132305402Y-62794253D01*
X132287223Y-62777777D01*
X132270747Y-62759598D01*
X132256133Y-62739893D01*
X132243520Y-62718849D01*
X132233030Y-62696671D01*
X132224765Y-62673571D01*
X132218804Y-62649773D01*
X132215204Y-62625504D01*
X132214000Y-62601000D01*
X132214000Y-61351000D01*
X132215204Y-61326496D01*
X132218804Y-61302227D01*
X132224765Y-61278429D01*
X132233030Y-61255329D01*
X132243520Y-61233151D01*
X132256133Y-61212107D01*
X132270747Y-61192402D01*
X132287223Y-61174223D01*
X132305402Y-61157747D01*
X132325107Y-61143133D01*
X132346151Y-61130520D01*
X132368329Y-61120030D01*
X132391429Y-61111765D01*
X132415227Y-61105804D01*
X132439496Y-61102204D01*
X132464000Y-61101000D01*
X133214000Y-61101000D01*
X133238504Y-61102204D01*
G37*
G36*
X136038504Y-61102204D02*
G01*
X136062773Y-61105804D01*
X136086571Y-61111765D01*
X136109671Y-61120030D01*
X136131849Y-61130520D01*
X136152893Y-61143133D01*
X136172598Y-61157747D01*
X136190777Y-61174223D01*
X136207253Y-61192402D01*
X136221867Y-61212107D01*
X136234480Y-61233151D01*
X136244970Y-61255329D01*
X136253235Y-61278429D01*
X136259196Y-61302227D01*
X136262796Y-61326496D01*
X136264000Y-61351000D01*
X136264000Y-62601000D01*
X136262796Y-62625504D01*
X136259196Y-62649773D01*
X136253235Y-62673571D01*
X136244970Y-62696671D01*
X136234480Y-62718849D01*
X136221867Y-62739893D01*
X136207253Y-62759598D01*
X136190777Y-62777777D01*
X136172598Y-62794253D01*
X136152893Y-62808867D01*
X136131849Y-62821480D01*
X136109671Y-62831970D01*
X136086571Y-62840235D01*
X136062773Y-62846196D01*
X136038504Y-62849796D01*
X136014000Y-62851000D01*
X135264000Y-62851000D01*
X135239496Y-62849796D01*
X135215227Y-62846196D01*
X135191429Y-62840235D01*
X135168329Y-62831970D01*
X135146151Y-62821480D01*
X135125107Y-62808867D01*
X135105402Y-62794253D01*
X135087223Y-62777777D01*
X135070747Y-62759598D01*
X135056133Y-62739893D01*
X135043520Y-62718849D01*
X135033030Y-62696671D01*
X135024765Y-62673571D01*
X135018804Y-62649773D01*
X135015204Y-62625504D01*
X135014000Y-62601000D01*
X135014000Y-61351000D01*
X135015204Y-61326496D01*
X135018804Y-61302227D01*
X135024765Y-61278429D01*
X135033030Y-61255329D01*
X135043520Y-61233151D01*
X135056133Y-61212107D01*
X135070747Y-61192402D01*
X135087223Y-61174223D01*
X135105402Y-61157747D01*
X135125107Y-61143133D01*
X135146151Y-61130520D01*
X135168329Y-61120030D01*
X135191429Y-61111765D01*
X135215227Y-61105804D01*
X135239496Y-61102204D01*
X135264000Y-61101000D01*
X136014000Y-61101000D01*
X136038504Y-61102204D01*
G37*
G36*
X178957504Y-66816204D02*
G01*
X178981773Y-66819804D01*
X179005571Y-66825765D01*
X179028671Y-66834030D01*
X179050849Y-66844520D01*
X179071893Y-66857133D01*
X179091598Y-66871747D01*
X179109777Y-66888223D01*
X179126253Y-66906402D01*
X179140867Y-66926107D01*
X179153480Y-66947151D01*
X179163970Y-66969329D01*
X179172235Y-66992429D01*
X179178196Y-67016227D01*
X179181796Y-67040496D01*
X179183000Y-67065000D01*
X179183000Y-67815000D01*
X179181796Y-67839504D01*
X179178196Y-67863773D01*
X179172235Y-67887571D01*
X179163970Y-67910671D01*
X179153480Y-67932849D01*
X179140867Y-67953893D01*
X179126253Y-67973598D01*
X179109777Y-67991777D01*
X179091598Y-68008253D01*
X179071893Y-68022867D01*
X179050849Y-68035480D01*
X179028671Y-68045970D01*
X179005571Y-68054235D01*
X178981773Y-68060196D01*
X178957504Y-68063796D01*
X178933000Y-68065000D01*
X177683000Y-68065000D01*
X177658496Y-68063796D01*
X177634227Y-68060196D01*
X177610429Y-68054235D01*
X177587329Y-68045970D01*
X177565151Y-68035480D01*
X177544107Y-68022867D01*
X177524402Y-68008253D01*
X177506223Y-67991777D01*
X177489747Y-67973598D01*
X177475133Y-67953893D01*
X177462520Y-67932849D01*
X177452030Y-67910671D01*
X177443765Y-67887571D01*
X177437804Y-67863773D01*
X177434204Y-67839504D01*
X177433000Y-67815000D01*
X177433000Y-67065000D01*
X177434204Y-67040496D01*
X177437804Y-67016227D01*
X177443765Y-66992429D01*
X177452030Y-66969329D01*
X177462520Y-66947151D01*
X177475133Y-66926107D01*
X177489747Y-66906402D01*
X177506223Y-66888223D01*
X177524402Y-66871747D01*
X177544107Y-66857133D01*
X177565151Y-66844520D01*
X177587329Y-66834030D01*
X177610429Y-66825765D01*
X177634227Y-66819804D01*
X177658496Y-66816204D01*
X177683000Y-66815000D01*
X178933000Y-66815000D01*
X178957504Y-66816204D01*
G37*
G36*
X178957504Y-64016204D02*
G01*
X178981773Y-64019804D01*
X179005571Y-64025765D01*
X179028671Y-64034030D01*
X179050849Y-64044520D01*
X179071893Y-64057133D01*
X179091598Y-64071747D01*
X179109777Y-64088223D01*
X179126253Y-64106402D01*
X179140867Y-64126107D01*
X179153480Y-64147151D01*
X179163970Y-64169329D01*
X179172235Y-64192429D01*
X179178196Y-64216227D01*
X179181796Y-64240496D01*
X179183000Y-64265000D01*
X179183000Y-65015000D01*
X179181796Y-65039504D01*
X179178196Y-65063773D01*
X179172235Y-65087571D01*
X179163970Y-65110671D01*
X179153480Y-65132849D01*
X179140867Y-65153893D01*
X179126253Y-65173598D01*
X179109777Y-65191777D01*
X179091598Y-65208253D01*
X179071893Y-65222867D01*
X179050849Y-65235480D01*
X179028671Y-65245970D01*
X179005571Y-65254235D01*
X178981773Y-65260196D01*
X178957504Y-65263796D01*
X178933000Y-65265000D01*
X177683000Y-65265000D01*
X177658496Y-65263796D01*
X177634227Y-65260196D01*
X177610429Y-65254235D01*
X177587329Y-65245970D01*
X177565151Y-65235480D01*
X177544107Y-65222867D01*
X177524402Y-65208253D01*
X177506223Y-65191777D01*
X177489747Y-65173598D01*
X177475133Y-65153893D01*
X177462520Y-65132849D01*
X177452030Y-65110671D01*
X177443765Y-65087571D01*
X177437804Y-65063773D01*
X177434204Y-65039504D01*
X177433000Y-65015000D01*
X177433000Y-64265000D01*
X177434204Y-64240496D01*
X177437804Y-64216227D01*
X177443765Y-64192429D01*
X177452030Y-64169329D01*
X177462520Y-64147151D01*
X177475133Y-64126107D01*
X177489747Y-64106402D01*
X177506223Y-64088223D01*
X177524402Y-64071747D01*
X177544107Y-64057133D01*
X177565151Y-64044520D01*
X177587329Y-64034030D01*
X177610429Y-64025765D01*
X177634227Y-64019804D01*
X177658496Y-64016204D01*
X177683000Y-64015000D01*
X178933000Y-64015000D01*
X178957504Y-64016204D01*
G37*
G36*
X178957504Y-68080204D02*
G01*
X178981773Y-68083804D01*
X179005571Y-68089765D01*
X179028671Y-68098030D01*
X179050849Y-68108520D01*
X179071893Y-68121133D01*
X179091598Y-68135747D01*
X179109777Y-68152223D01*
X179126253Y-68170402D01*
X179140867Y-68190107D01*
X179153480Y-68211151D01*
X179163970Y-68233329D01*
X179172235Y-68256429D01*
X179178196Y-68280227D01*
X179181796Y-68304496D01*
X179183000Y-68329000D01*
X179183000Y-69079000D01*
X179181796Y-69103504D01*
X179178196Y-69127773D01*
X179172235Y-69151571D01*
X179163970Y-69174671D01*
X179153480Y-69196849D01*
X179140867Y-69217893D01*
X179126253Y-69237598D01*
X179109777Y-69255777D01*
X179091598Y-69272253D01*
X179071893Y-69286867D01*
X179050849Y-69299480D01*
X179028671Y-69309970D01*
X179005571Y-69318235D01*
X178981773Y-69324196D01*
X178957504Y-69327796D01*
X178933000Y-69329000D01*
X177683000Y-69329000D01*
X177658496Y-69327796D01*
X177634227Y-69324196D01*
X177610429Y-69318235D01*
X177587329Y-69309970D01*
X177565151Y-69299480D01*
X177544107Y-69286867D01*
X177524402Y-69272253D01*
X177506223Y-69255777D01*
X177489747Y-69237598D01*
X177475133Y-69217893D01*
X177462520Y-69196849D01*
X177452030Y-69174671D01*
X177443765Y-69151571D01*
X177437804Y-69127773D01*
X177434204Y-69103504D01*
X177433000Y-69079000D01*
X177433000Y-68329000D01*
X177434204Y-68304496D01*
X177437804Y-68280227D01*
X177443765Y-68256429D01*
X177452030Y-68233329D01*
X177462520Y-68211151D01*
X177475133Y-68190107D01*
X177489747Y-68170402D01*
X177506223Y-68152223D01*
X177524402Y-68135747D01*
X177544107Y-68121133D01*
X177565151Y-68108520D01*
X177587329Y-68098030D01*
X177610429Y-68089765D01*
X177634227Y-68083804D01*
X177658496Y-68080204D01*
X177683000Y-68079000D01*
X178933000Y-68079000D01*
X178957504Y-68080204D01*
G37*
G36*
X178957504Y-70880204D02*
G01*
X178981773Y-70883804D01*
X179005571Y-70889765D01*
X179028671Y-70898030D01*
X179050849Y-70908520D01*
X179071893Y-70921133D01*
X179091598Y-70935747D01*
X179109777Y-70952223D01*
X179126253Y-70970402D01*
X179140867Y-70990107D01*
X179153480Y-71011151D01*
X179163970Y-71033329D01*
X179172235Y-71056429D01*
X179178196Y-71080227D01*
X179181796Y-71104496D01*
X179183000Y-71129000D01*
X179183000Y-71879000D01*
X179181796Y-71903504D01*
X179178196Y-71927773D01*
X179172235Y-71951571D01*
X179163970Y-71974671D01*
X179153480Y-71996849D01*
X179140867Y-72017893D01*
X179126253Y-72037598D01*
X179109777Y-72055777D01*
X179091598Y-72072253D01*
X179071893Y-72086867D01*
X179050849Y-72099480D01*
X179028671Y-72109970D01*
X179005571Y-72118235D01*
X178981773Y-72124196D01*
X178957504Y-72127796D01*
X178933000Y-72129000D01*
X177683000Y-72129000D01*
X177658496Y-72127796D01*
X177634227Y-72124196D01*
X177610429Y-72118235D01*
X177587329Y-72109970D01*
X177565151Y-72099480D01*
X177544107Y-72086867D01*
X177524402Y-72072253D01*
X177506223Y-72055777D01*
X177489747Y-72037598D01*
X177475133Y-72017893D01*
X177462520Y-71996849D01*
X177452030Y-71974671D01*
X177443765Y-71951571D01*
X177437804Y-71927773D01*
X177434204Y-71903504D01*
X177433000Y-71879000D01*
X177433000Y-71129000D01*
X177434204Y-71104496D01*
X177437804Y-71080227D01*
X177443765Y-71056429D01*
X177452030Y-71033329D01*
X177462520Y-71011151D01*
X177475133Y-70990107D01*
X177489747Y-70970402D01*
X177506223Y-70952223D01*
X177524402Y-70935747D01*
X177544107Y-70921133D01*
X177565151Y-70908520D01*
X177587329Y-70898030D01*
X177610429Y-70889765D01*
X177634227Y-70883804D01*
X177658496Y-70880204D01*
X177683000Y-70879000D01*
X178933000Y-70879000D01*
X178957504Y-70880204D01*
G37*
D12*
X137160000Y-80645000D03*
X139700000Y-80645000D03*
X160782000Y-67437000D03*
X160782000Y-69977000D03*
X160782000Y-79629000D03*
X160782000Y-82169000D03*
D11*
G36*
X158393504Y-70373204D02*
G01*
X158417773Y-70376804D01*
X158441571Y-70382765D01*
X158464671Y-70391030D01*
X158486849Y-70401520D01*
X158507893Y-70414133D01*
X158527598Y-70428747D01*
X158545777Y-70445223D01*
X158562253Y-70463402D01*
X158576867Y-70483107D01*
X158589480Y-70504151D01*
X158599970Y-70526329D01*
X158608235Y-70549429D01*
X158614196Y-70573227D01*
X158617796Y-70597496D01*
X158619000Y-70622000D01*
X158619000Y-71872000D01*
X158617796Y-71896504D01*
X158614196Y-71920773D01*
X158608235Y-71944571D01*
X158599970Y-71967671D01*
X158589480Y-71989849D01*
X158576867Y-72010893D01*
X158562253Y-72030598D01*
X158545777Y-72048777D01*
X158527598Y-72065253D01*
X158507893Y-72079867D01*
X158486849Y-72092480D01*
X158464671Y-72102970D01*
X158441571Y-72111235D01*
X158417773Y-72117196D01*
X158393504Y-72120796D01*
X158369000Y-72122000D01*
X157619000Y-72122000D01*
X157594496Y-72120796D01*
X157570227Y-72117196D01*
X157546429Y-72111235D01*
X157523329Y-72102970D01*
X157501151Y-72092480D01*
X157480107Y-72079867D01*
X157460402Y-72065253D01*
X157442223Y-72048777D01*
X157425747Y-72030598D01*
X157411133Y-72010893D01*
X157398520Y-71989849D01*
X157388030Y-71967671D01*
X157379765Y-71944571D01*
X157373804Y-71920773D01*
X157370204Y-71896504D01*
X157369000Y-71872000D01*
X157369000Y-70622000D01*
X157370204Y-70597496D01*
X157373804Y-70573227D01*
X157379765Y-70549429D01*
X157388030Y-70526329D01*
X157398520Y-70504151D01*
X157411133Y-70483107D01*
X157425747Y-70463402D01*
X157442223Y-70445223D01*
X157460402Y-70428747D01*
X157480107Y-70414133D01*
X157501151Y-70401520D01*
X157523329Y-70391030D01*
X157546429Y-70382765D01*
X157570227Y-70376804D01*
X157594496Y-70373204D01*
X157619000Y-70372000D01*
X158369000Y-70372000D01*
X158393504Y-70373204D01*
G37*
G36*
X155593504Y-70373204D02*
G01*
X155617773Y-70376804D01*
X155641571Y-70382765D01*
X155664671Y-70391030D01*
X155686849Y-70401520D01*
X155707893Y-70414133D01*
X155727598Y-70428747D01*
X155745777Y-70445223D01*
X155762253Y-70463402D01*
X155776867Y-70483107D01*
X155789480Y-70504151D01*
X155799970Y-70526329D01*
X155808235Y-70549429D01*
X155814196Y-70573227D01*
X155817796Y-70597496D01*
X155819000Y-70622000D01*
X155819000Y-71872000D01*
X155817796Y-71896504D01*
X155814196Y-71920773D01*
X155808235Y-71944571D01*
X155799970Y-71967671D01*
X155789480Y-71989849D01*
X155776867Y-72010893D01*
X155762253Y-72030598D01*
X155745777Y-72048777D01*
X155727598Y-72065253D01*
X155707893Y-72079867D01*
X155686849Y-72092480D01*
X155664671Y-72102970D01*
X155641571Y-72111235D01*
X155617773Y-72117196D01*
X155593504Y-72120796D01*
X155569000Y-72122000D01*
X154819000Y-72122000D01*
X154794496Y-72120796D01*
X154770227Y-72117196D01*
X154746429Y-72111235D01*
X154723329Y-72102970D01*
X154701151Y-72092480D01*
X154680107Y-72079867D01*
X154660402Y-72065253D01*
X154642223Y-72048777D01*
X154625747Y-72030598D01*
X154611133Y-72010893D01*
X154598520Y-71989849D01*
X154588030Y-71967671D01*
X154579765Y-71944571D01*
X154573804Y-71920773D01*
X154570204Y-71896504D01*
X154569000Y-71872000D01*
X154569000Y-70622000D01*
X154570204Y-70597496D01*
X154573804Y-70573227D01*
X154579765Y-70549429D01*
X154588030Y-70526329D01*
X154598520Y-70504151D01*
X154611133Y-70483107D01*
X154625747Y-70463402D01*
X154642223Y-70445223D01*
X154660402Y-70428747D01*
X154680107Y-70414133D01*
X154701151Y-70401520D01*
X154723329Y-70391030D01*
X154746429Y-70382765D01*
X154770227Y-70376804D01*
X154794496Y-70373204D01*
X154819000Y-70372000D01*
X155569000Y-70372000D01*
X155593504Y-70373204D01*
G37*
G36*
X155463504Y-81422204D02*
G01*
X155487773Y-81425804D01*
X155511571Y-81431765D01*
X155534671Y-81440030D01*
X155556849Y-81450520D01*
X155577893Y-81463133D01*
X155597598Y-81477747D01*
X155615777Y-81494223D01*
X155632253Y-81512402D01*
X155646867Y-81532107D01*
X155659480Y-81553151D01*
X155669970Y-81575329D01*
X155678235Y-81598429D01*
X155684196Y-81622227D01*
X155687796Y-81646496D01*
X155689000Y-81671000D01*
X155689000Y-82921000D01*
X155687796Y-82945504D01*
X155684196Y-82969773D01*
X155678235Y-82993571D01*
X155669970Y-83016671D01*
X155659480Y-83038849D01*
X155646867Y-83059893D01*
X155632253Y-83079598D01*
X155615777Y-83097777D01*
X155597598Y-83114253D01*
X155577893Y-83128867D01*
X155556849Y-83141480D01*
X155534671Y-83151970D01*
X155511571Y-83160235D01*
X155487773Y-83166196D01*
X155463504Y-83169796D01*
X155439000Y-83171000D01*
X154689000Y-83171000D01*
X154664496Y-83169796D01*
X154640227Y-83166196D01*
X154616429Y-83160235D01*
X154593329Y-83151970D01*
X154571151Y-83141480D01*
X154550107Y-83128867D01*
X154530402Y-83114253D01*
X154512223Y-83097777D01*
X154495747Y-83079598D01*
X154481133Y-83059893D01*
X154468520Y-83038849D01*
X154458030Y-83016671D01*
X154449765Y-82993571D01*
X154443804Y-82969773D01*
X154440204Y-82945504D01*
X154439000Y-82921000D01*
X154439000Y-81671000D01*
X154440204Y-81646496D01*
X154443804Y-81622227D01*
X154449765Y-81598429D01*
X154458030Y-81575329D01*
X154468520Y-81553151D01*
X154481133Y-81532107D01*
X154495747Y-81512402D01*
X154512223Y-81494223D01*
X154530402Y-81477747D01*
X154550107Y-81463133D01*
X154571151Y-81450520D01*
X154593329Y-81440030D01*
X154616429Y-81431765D01*
X154640227Y-81425804D01*
X154664496Y-81422204D01*
X154689000Y-81421000D01*
X155439000Y-81421000D01*
X155463504Y-81422204D01*
G37*
G36*
X158263504Y-81422204D02*
G01*
X158287773Y-81425804D01*
X158311571Y-81431765D01*
X158334671Y-81440030D01*
X158356849Y-81450520D01*
X158377893Y-81463133D01*
X158397598Y-81477747D01*
X158415777Y-81494223D01*
X158432253Y-81512402D01*
X158446867Y-81532107D01*
X158459480Y-81553151D01*
X158469970Y-81575329D01*
X158478235Y-81598429D01*
X158484196Y-81622227D01*
X158487796Y-81646496D01*
X158489000Y-81671000D01*
X158489000Y-82921000D01*
X158487796Y-82945504D01*
X158484196Y-82969773D01*
X158478235Y-82993571D01*
X158469970Y-83016671D01*
X158459480Y-83038849D01*
X158446867Y-83059893D01*
X158432253Y-83079598D01*
X158415777Y-83097777D01*
X158397598Y-83114253D01*
X158377893Y-83128867D01*
X158356849Y-83141480D01*
X158334671Y-83151970D01*
X158311571Y-83160235D01*
X158287773Y-83166196D01*
X158263504Y-83169796D01*
X158239000Y-83171000D01*
X157489000Y-83171000D01*
X157464496Y-83169796D01*
X157440227Y-83166196D01*
X157416429Y-83160235D01*
X157393329Y-83151970D01*
X157371151Y-83141480D01*
X157350107Y-83128867D01*
X157330402Y-83114253D01*
X157312223Y-83097777D01*
X157295747Y-83079598D01*
X157281133Y-83059893D01*
X157268520Y-83038849D01*
X157258030Y-83016671D01*
X157249765Y-82993571D01*
X157243804Y-82969773D01*
X157240204Y-82945504D01*
X157239000Y-82921000D01*
X157239000Y-81671000D01*
X157240204Y-81646496D01*
X157243804Y-81622227D01*
X157249765Y-81598429D01*
X157258030Y-81575329D01*
X157268520Y-81553151D01*
X157281133Y-81532107D01*
X157295747Y-81512402D01*
X157312223Y-81494223D01*
X157330402Y-81477747D01*
X157350107Y-81463133D01*
X157371151Y-81450520D01*
X157393329Y-81440030D01*
X157416429Y-81431765D01*
X157440227Y-81425804D01*
X157464496Y-81422204D01*
X157489000Y-81421000D01*
X158239000Y-81421000D01*
X158263504Y-81422204D01*
G37*
G36*
X155590504Y-68087204D02*
G01*
X155614773Y-68090804D01*
X155638571Y-68096765D01*
X155661671Y-68105030D01*
X155683849Y-68115520D01*
X155704893Y-68128133D01*
X155724598Y-68142747D01*
X155742777Y-68159223D01*
X155759253Y-68177402D01*
X155773867Y-68197107D01*
X155786480Y-68218151D01*
X155796970Y-68240329D01*
X155805235Y-68263429D01*
X155811196Y-68287227D01*
X155814796Y-68311496D01*
X155816000Y-68336000D01*
X155816000Y-69586000D01*
X155814796Y-69610504D01*
X155811196Y-69634773D01*
X155805235Y-69658571D01*
X155796970Y-69681671D01*
X155786480Y-69703849D01*
X155773867Y-69724893D01*
X155759253Y-69744598D01*
X155742777Y-69762777D01*
X155724598Y-69779253D01*
X155704893Y-69793867D01*
X155683849Y-69806480D01*
X155661671Y-69816970D01*
X155638571Y-69825235D01*
X155614773Y-69831196D01*
X155590504Y-69834796D01*
X155566000Y-69836000D01*
X154816000Y-69836000D01*
X154791496Y-69834796D01*
X154767227Y-69831196D01*
X154743429Y-69825235D01*
X154720329Y-69816970D01*
X154698151Y-69806480D01*
X154677107Y-69793867D01*
X154657402Y-69779253D01*
X154639223Y-69762777D01*
X154622747Y-69744598D01*
X154608133Y-69724893D01*
X154595520Y-69703849D01*
X154585030Y-69681671D01*
X154576765Y-69658571D01*
X154570804Y-69634773D01*
X154567204Y-69610504D01*
X154566000Y-69586000D01*
X154566000Y-68336000D01*
X154567204Y-68311496D01*
X154570804Y-68287227D01*
X154576765Y-68263429D01*
X154585030Y-68240329D01*
X154595520Y-68218151D01*
X154608133Y-68197107D01*
X154622747Y-68177402D01*
X154639223Y-68159223D01*
X154657402Y-68142747D01*
X154677107Y-68128133D01*
X154698151Y-68115520D01*
X154720329Y-68105030D01*
X154743429Y-68096765D01*
X154767227Y-68090804D01*
X154791496Y-68087204D01*
X154816000Y-68086000D01*
X155566000Y-68086000D01*
X155590504Y-68087204D01*
G37*
G36*
X158390504Y-68087204D02*
G01*
X158414773Y-68090804D01*
X158438571Y-68096765D01*
X158461671Y-68105030D01*
X158483849Y-68115520D01*
X158504893Y-68128133D01*
X158524598Y-68142747D01*
X158542777Y-68159223D01*
X158559253Y-68177402D01*
X158573867Y-68197107D01*
X158586480Y-68218151D01*
X158596970Y-68240329D01*
X158605235Y-68263429D01*
X158611196Y-68287227D01*
X158614796Y-68311496D01*
X158616000Y-68336000D01*
X158616000Y-69586000D01*
X158614796Y-69610504D01*
X158611196Y-69634773D01*
X158605235Y-69658571D01*
X158596970Y-69681671D01*
X158586480Y-69703849D01*
X158573867Y-69724893D01*
X158559253Y-69744598D01*
X158542777Y-69762777D01*
X158524598Y-69779253D01*
X158504893Y-69793867D01*
X158483849Y-69806480D01*
X158461671Y-69816970D01*
X158438571Y-69825235D01*
X158414773Y-69831196D01*
X158390504Y-69834796D01*
X158366000Y-69836000D01*
X157616000Y-69836000D01*
X157591496Y-69834796D01*
X157567227Y-69831196D01*
X157543429Y-69825235D01*
X157520329Y-69816970D01*
X157498151Y-69806480D01*
X157477107Y-69793867D01*
X157457402Y-69779253D01*
X157439223Y-69762777D01*
X157422747Y-69744598D01*
X157408133Y-69724893D01*
X157395520Y-69703849D01*
X157385030Y-69681671D01*
X157376765Y-69658571D01*
X157370804Y-69634773D01*
X157367204Y-69610504D01*
X157366000Y-69586000D01*
X157366000Y-68336000D01*
X157367204Y-68311496D01*
X157370804Y-68287227D01*
X157376765Y-68263429D01*
X157385030Y-68240329D01*
X157395520Y-68218151D01*
X157408133Y-68197107D01*
X157422747Y-68177402D01*
X157439223Y-68159223D01*
X157457402Y-68142747D01*
X157477107Y-68128133D01*
X157498151Y-68115520D01*
X157520329Y-68105030D01*
X157543429Y-68096765D01*
X157567227Y-68090804D01*
X157591496Y-68087204D01*
X157616000Y-68086000D01*
X158366000Y-68086000D01*
X158390504Y-68087204D01*
G37*
G36*
X158263504Y-79136204D02*
G01*
X158287773Y-79139804D01*
X158311571Y-79145765D01*
X158334671Y-79154030D01*
X158356849Y-79164520D01*
X158377893Y-79177133D01*
X158397598Y-79191747D01*
X158415777Y-79208223D01*
X158432253Y-79226402D01*
X158446867Y-79246107D01*
X158459480Y-79267151D01*
X158469970Y-79289329D01*
X158478235Y-79312429D01*
X158484196Y-79336227D01*
X158487796Y-79360496D01*
X158489000Y-79385000D01*
X158489000Y-80635000D01*
X158487796Y-80659504D01*
X158484196Y-80683773D01*
X158478235Y-80707571D01*
X158469970Y-80730671D01*
X158459480Y-80752849D01*
X158446867Y-80773893D01*
X158432253Y-80793598D01*
X158415777Y-80811777D01*
X158397598Y-80828253D01*
X158377893Y-80842867D01*
X158356849Y-80855480D01*
X158334671Y-80865970D01*
X158311571Y-80874235D01*
X158287773Y-80880196D01*
X158263504Y-80883796D01*
X158239000Y-80885000D01*
X157489000Y-80885000D01*
X157464496Y-80883796D01*
X157440227Y-80880196D01*
X157416429Y-80874235D01*
X157393329Y-80865970D01*
X157371151Y-80855480D01*
X157350107Y-80842867D01*
X157330402Y-80828253D01*
X157312223Y-80811777D01*
X157295747Y-80793598D01*
X157281133Y-80773893D01*
X157268520Y-80752849D01*
X157258030Y-80730671D01*
X157249765Y-80707571D01*
X157243804Y-80683773D01*
X157240204Y-80659504D01*
X157239000Y-80635000D01*
X157239000Y-79385000D01*
X157240204Y-79360496D01*
X157243804Y-79336227D01*
X157249765Y-79312429D01*
X157258030Y-79289329D01*
X157268520Y-79267151D01*
X157281133Y-79246107D01*
X157295747Y-79226402D01*
X157312223Y-79208223D01*
X157330402Y-79191747D01*
X157350107Y-79177133D01*
X157371151Y-79164520D01*
X157393329Y-79154030D01*
X157416429Y-79145765D01*
X157440227Y-79139804D01*
X157464496Y-79136204D01*
X157489000Y-79135000D01*
X158239000Y-79135000D01*
X158263504Y-79136204D01*
G37*
G36*
X155463504Y-79136204D02*
G01*
X155487773Y-79139804D01*
X155511571Y-79145765D01*
X155534671Y-79154030D01*
X155556849Y-79164520D01*
X155577893Y-79177133D01*
X155597598Y-79191747D01*
X155615777Y-79208223D01*
X155632253Y-79226402D01*
X155646867Y-79246107D01*
X155659480Y-79267151D01*
X155669970Y-79289329D01*
X155678235Y-79312429D01*
X155684196Y-79336227D01*
X155687796Y-79360496D01*
X155689000Y-79385000D01*
X155689000Y-80635000D01*
X155687796Y-80659504D01*
X155684196Y-80683773D01*
X155678235Y-80707571D01*
X155669970Y-80730671D01*
X155659480Y-80752849D01*
X155646867Y-80773893D01*
X155632253Y-80793598D01*
X155615777Y-80811777D01*
X155597598Y-80828253D01*
X155577893Y-80842867D01*
X155556849Y-80855480D01*
X155534671Y-80865970D01*
X155511571Y-80874235D01*
X155487773Y-80880196D01*
X155463504Y-80883796D01*
X155439000Y-80885000D01*
X154689000Y-80885000D01*
X154664496Y-80883796D01*
X154640227Y-80880196D01*
X154616429Y-80874235D01*
X154593329Y-80865970D01*
X154571151Y-80855480D01*
X154550107Y-80842867D01*
X154530402Y-80828253D01*
X154512223Y-80811777D01*
X154495747Y-80793598D01*
X154481133Y-80773893D01*
X154468520Y-80752849D01*
X154458030Y-80730671D01*
X154449765Y-80707571D01*
X154443804Y-80683773D01*
X154440204Y-80659504D01*
X154439000Y-80635000D01*
X154439000Y-79385000D01*
X154440204Y-79360496D01*
X154443804Y-79336227D01*
X154449765Y-79312429D01*
X154458030Y-79289329D01*
X154468520Y-79267151D01*
X154481133Y-79246107D01*
X154495747Y-79226402D01*
X154512223Y-79208223D01*
X154530402Y-79191747D01*
X154550107Y-79177133D01*
X154571151Y-79164520D01*
X154593329Y-79154030D01*
X154616429Y-79145765D01*
X154640227Y-79139804D01*
X154664496Y-79136204D01*
X154689000Y-79135000D01*
X155439000Y-79135000D01*
X155463504Y-79136204D01*
G37*
D13*
X142875000Y-75565000D03*
D14*
X142875000Y-80645000D03*
D13*
X167767000Y-65913000D03*
D14*
X167767000Y-60833000D03*
X167894000Y-80645000D03*
D13*
X167894000Y-75565000D03*
D11*
G36*
X132560142Y-64336674D02*
G01*
X132583803Y-64340184D01*
X132607007Y-64345996D01*
X132629529Y-64354054D01*
X132651153Y-64364282D01*
X132671670Y-64376579D01*
X132690883Y-64390829D01*
X132708607Y-64406893D01*
X132724671Y-64424617D01*
X132738921Y-64443830D01*
X132751218Y-64464347D01*
X132761446Y-64485971D01*
X132769504Y-64508493D01*
X132775316Y-64531697D01*
X132778826Y-64555358D01*
X132780000Y-64579250D01*
X132780000Y-65066750D01*
X132778826Y-65090642D01*
X132775316Y-65114303D01*
X132769504Y-65137507D01*
X132761446Y-65160029D01*
X132751218Y-65181653D01*
X132738921Y-65202170D01*
X132724671Y-65221383D01*
X132708607Y-65239107D01*
X132690883Y-65255171D01*
X132671670Y-65269421D01*
X132651153Y-65281718D01*
X132629529Y-65291946D01*
X132607007Y-65300004D01*
X132583803Y-65305816D01*
X132560142Y-65309326D01*
X132536250Y-65310500D01*
X131623750Y-65310500D01*
X131599858Y-65309326D01*
X131576197Y-65305816D01*
X131552993Y-65300004D01*
X131530471Y-65291946D01*
X131508847Y-65281718D01*
X131488330Y-65269421D01*
X131469117Y-65255171D01*
X131451393Y-65239107D01*
X131435329Y-65221383D01*
X131421079Y-65202170D01*
X131408782Y-65181653D01*
X131398554Y-65160029D01*
X131390496Y-65137507D01*
X131384684Y-65114303D01*
X131381174Y-65090642D01*
X131380000Y-65066750D01*
X131380000Y-64579250D01*
X131381174Y-64555358D01*
X131384684Y-64531697D01*
X131390496Y-64508493D01*
X131398554Y-64485971D01*
X131408782Y-64464347D01*
X131421079Y-64443830D01*
X131435329Y-64424617D01*
X131451393Y-64406893D01*
X131469117Y-64390829D01*
X131488330Y-64376579D01*
X131508847Y-64364282D01*
X131530471Y-64354054D01*
X131552993Y-64345996D01*
X131576197Y-64340184D01*
X131599858Y-64336674D01*
X131623750Y-64335500D01*
X132536250Y-64335500D01*
X132560142Y-64336674D01*
G37*
G36*
X132560142Y-66211674D02*
G01*
X132583803Y-66215184D01*
X132607007Y-66220996D01*
X132629529Y-66229054D01*
X132651153Y-66239282D01*
X132671670Y-66251579D01*
X132690883Y-66265829D01*
X132708607Y-66281893D01*
X132724671Y-66299617D01*
X132738921Y-66318830D01*
X132751218Y-66339347D01*
X132761446Y-66360971D01*
X132769504Y-66383493D01*
X132775316Y-66406697D01*
X132778826Y-66430358D01*
X132780000Y-66454250D01*
X132780000Y-66941750D01*
X132778826Y-66965642D01*
X132775316Y-66989303D01*
X132769504Y-67012507D01*
X132761446Y-67035029D01*
X132751218Y-67056653D01*
X132738921Y-67077170D01*
X132724671Y-67096383D01*
X132708607Y-67114107D01*
X132690883Y-67130171D01*
X132671670Y-67144421D01*
X132651153Y-67156718D01*
X132629529Y-67166946D01*
X132607007Y-67175004D01*
X132583803Y-67180816D01*
X132560142Y-67184326D01*
X132536250Y-67185500D01*
X131623750Y-67185500D01*
X131599858Y-67184326D01*
X131576197Y-67180816D01*
X131552993Y-67175004D01*
X131530471Y-67166946D01*
X131508847Y-67156718D01*
X131488330Y-67144421D01*
X131469117Y-67130171D01*
X131451393Y-67114107D01*
X131435329Y-67096383D01*
X131421079Y-67077170D01*
X131408782Y-67056653D01*
X131398554Y-67035029D01*
X131390496Y-67012507D01*
X131384684Y-66989303D01*
X131381174Y-66965642D01*
X131380000Y-66941750D01*
X131380000Y-66454250D01*
X131381174Y-66430358D01*
X131384684Y-66406697D01*
X131390496Y-66383493D01*
X131398554Y-66360971D01*
X131408782Y-66339347D01*
X131421079Y-66318830D01*
X131435329Y-66299617D01*
X131451393Y-66281893D01*
X131469117Y-66265829D01*
X131488330Y-66251579D01*
X131508847Y-66239282D01*
X131530471Y-66229054D01*
X131552993Y-66220996D01*
X131576197Y-66215184D01*
X131599858Y-66211674D01*
X131623750Y-66210500D01*
X132536250Y-66210500D01*
X132560142Y-66211674D01*
G37*
G36*
X157161142Y-66103174D02*
G01*
X157184803Y-66106684D01*
X157208007Y-66112496D01*
X157230529Y-66120554D01*
X157252153Y-66130782D01*
X157272670Y-66143079D01*
X157291883Y-66157329D01*
X157309607Y-66173393D01*
X157325671Y-66191117D01*
X157339921Y-66210330D01*
X157352218Y-66230847D01*
X157362446Y-66252471D01*
X157370504Y-66274993D01*
X157376316Y-66298197D01*
X157379826Y-66321858D01*
X157381000Y-66345750D01*
X157381000Y-67258250D01*
X157379826Y-67282142D01*
X157376316Y-67305803D01*
X157370504Y-67329007D01*
X157362446Y-67351529D01*
X157352218Y-67373153D01*
X157339921Y-67393670D01*
X157325671Y-67412883D01*
X157309607Y-67430607D01*
X157291883Y-67446671D01*
X157272670Y-67460921D01*
X157252153Y-67473218D01*
X157230529Y-67483446D01*
X157208007Y-67491504D01*
X157184803Y-67497316D01*
X157161142Y-67500826D01*
X157137250Y-67502000D01*
X156649750Y-67502000D01*
X156625858Y-67500826D01*
X156602197Y-67497316D01*
X156578993Y-67491504D01*
X156556471Y-67483446D01*
X156534847Y-67473218D01*
X156514330Y-67460921D01*
X156495117Y-67446671D01*
X156477393Y-67430607D01*
X156461329Y-67412883D01*
X156447079Y-67393670D01*
X156434782Y-67373153D01*
X156424554Y-67351529D01*
X156416496Y-67329007D01*
X156410684Y-67305803D01*
X156407174Y-67282142D01*
X156406000Y-67258250D01*
X156406000Y-66345750D01*
X156407174Y-66321858D01*
X156410684Y-66298197D01*
X156416496Y-66274993D01*
X156424554Y-66252471D01*
X156434782Y-66230847D01*
X156447079Y-66210330D01*
X156461329Y-66191117D01*
X156477393Y-66173393D01*
X156495117Y-66157329D01*
X156514330Y-66143079D01*
X156534847Y-66130782D01*
X156556471Y-66120554D01*
X156578993Y-66112496D01*
X156602197Y-66106684D01*
X156625858Y-66103174D01*
X156649750Y-66102000D01*
X157137250Y-66102000D01*
X157161142Y-66103174D01*
G37*
G36*
X155286142Y-66103174D02*
G01*
X155309803Y-66106684D01*
X155333007Y-66112496D01*
X155355529Y-66120554D01*
X155377153Y-66130782D01*
X155397670Y-66143079D01*
X155416883Y-66157329D01*
X155434607Y-66173393D01*
X155450671Y-66191117D01*
X155464921Y-66210330D01*
X155477218Y-66230847D01*
X155487446Y-66252471D01*
X155495504Y-66274993D01*
X155501316Y-66298197D01*
X155504826Y-66321858D01*
X155506000Y-66345750D01*
X155506000Y-67258250D01*
X155504826Y-67282142D01*
X155501316Y-67305803D01*
X155495504Y-67329007D01*
X155487446Y-67351529D01*
X155477218Y-67373153D01*
X155464921Y-67393670D01*
X155450671Y-67412883D01*
X155434607Y-67430607D01*
X155416883Y-67446671D01*
X155397670Y-67460921D01*
X155377153Y-67473218D01*
X155355529Y-67483446D01*
X155333007Y-67491504D01*
X155309803Y-67497316D01*
X155286142Y-67500826D01*
X155262250Y-67502000D01*
X154774750Y-67502000D01*
X154750858Y-67500826D01*
X154727197Y-67497316D01*
X154703993Y-67491504D01*
X154681471Y-67483446D01*
X154659847Y-67473218D01*
X154639330Y-67460921D01*
X154620117Y-67446671D01*
X154602393Y-67430607D01*
X154586329Y-67412883D01*
X154572079Y-67393670D01*
X154559782Y-67373153D01*
X154549554Y-67351529D01*
X154541496Y-67329007D01*
X154535684Y-67305803D01*
X154532174Y-67282142D01*
X154531000Y-67258250D01*
X154531000Y-66345750D01*
X154532174Y-66321858D01*
X154535684Y-66298197D01*
X154541496Y-66274993D01*
X154549554Y-66252471D01*
X154559782Y-66230847D01*
X154572079Y-66210330D01*
X154586329Y-66191117D01*
X154602393Y-66173393D01*
X154620117Y-66157329D01*
X154639330Y-66143079D01*
X154659847Y-66130782D01*
X154681471Y-66120554D01*
X154703993Y-66112496D01*
X154727197Y-66106684D01*
X154750858Y-66103174D01*
X154774750Y-66102000D01*
X155262250Y-66102000D01*
X155286142Y-66103174D01*
G37*
G36*
X155159142Y-77152174D02*
G01*
X155182803Y-77155684D01*
X155206007Y-77161496D01*
X155228529Y-77169554D01*
X155250153Y-77179782D01*
X155270670Y-77192079D01*
X155289883Y-77206329D01*
X155307607Y-77222393D01*
X155323671Y-77240117D01*
X155337921Y-77259330D01*
X155350218Y-77279847D01*
X155360446Y-77301471D01*
X155368504Y-77323993D01*
X155374316Y-77347197D01*
X155377826Y-77370858D01*
X155379000Y-77394750D01*
X155379000Y-78307250D01*
X155377826Y-78331142D01*
X155374316Y-78354803D01*
X155368504Y-78378007D01*
X155360446Y-78400529D01*
X155350218Y-78422153D01*
X155337921Y-78442670D01*
X155323671Y-78461883D01*
X155307607Y-78479607D01*
X155289883Y-78495671D01*
X155270670Y-78509921D01*
X155250153Y-78522218D01*
X155228529Y-78532446D01*
X155206007Y-78540504D01*
X155182803Y-78546316D01*
X155159142Y-78549826D01*
X155135250Y-78551000D01*
X154647750Y-78551000D01*
X154623858Y-78549826D01*
X154600197Y-78546316D01*
X154576993Y-78540504D01*
X154554471Y-78532446D01*
X154532847Y-78522218D01*
X154512330Y-78509921D01*
X154493117Y-78495671D01*
X154475393Y-78479607D01*
X154459329Y-78461883D01*
X154445079Y-78442670D01*
X154432782Y-78422153D01*
X154422554Y-78400529D01*
X154414496Y-78378007D01*
X154408684Y-78354803D01*
X154405174Y-78331142D01*
X154404000Y-78307250D01*
X154404000Y-77394750D01*
X154405174Y-77370858D01*
X154408684Y-77347197D01*
X154414496Y-77323993D01*
X154422554Y-77301471D01*
X154432782Y-77279847D01*
X154445079Y-77259330D01*
X154459329Y-77240117D01*
X154475393Y-77222393D01*
X154493117Y-77206329D01*
X154512330Y-77192079D01*
X154532847Y-77179782D01*
X154554471Y-77169554D01*
X154576993Y-77161496D01*
X154600197Y-77155684D01*
X154623858Y-77152174D01*
X154647750Y-77151000D01*
X155135250Y-77151000D01*
X155159142Y-77152174D01*
G37*
G36*
X157034142Y-77152174D02*
G01*
X157057803Y-77155684D01*
X157081007Y-77161496D01*
X157103529Y-77169554D01*
X157125153Y-77179782D01*
X157145670Y-77192079D01*
X157164883Y-77206329D01*
X157182607Y-77222393D01*
X157198671Y-77240117D01*
X157212921Y-77259330D01*
X157225218Y-77279847D01*
X157235446Y-77301471D01*
X157243504Y-77323993D01*
X157249316Y-77347197D01*
X157252826Y-77370858D01*
X157254000Y-77394750D01*
X157254000Y-78307250D01*
X157252826Y-78331142D01*
X157249316Y-78354803D01*
X157243504Y-78378007D01*
X157235446Y-78400529D01*
X157225218Y-78422153D01*
X157212921Y-78442670D01*
X157198671Y-78461883D01*
X157182607Y-78479607D01*
X157164883Y-78495671D01*
X157145670Y-78509921D01*
X157125153Y-78522218D01*
X157103529Y-78532446D01*
X157081007Y-78540504D01*
X157057803Y-78546316D01*
X157034142Y-78549826D01*
X157010250Y-78551000D01*
X156522750Y-78551000D01*
X156498858Y-78549826D01*
X156475197Y-78546316D01*
X156451993Y-78540504D01*
X156429471Y-78532446D01*
X156407847Y-78522218D01*
X156387330Y-78509921D01*
X156368117Y-78495671D01*
X156350393Y-78479607D01*
X156334329Y-78461883D01*
X156320079Y-78442670D01*
X156307782Y-78422153D01*
X156297554Y-78400529D01*
X156289496Y-78378007D01*
X156283684Y-78354803D01*
X156280174Y-78331142D01*
X156279000Y-78307250D01*
X156279000Y-77394750D01*
X156280174Y-77370858D01*
X156283684Y-77347197D01*
X156289496Y-77323993D01*
X156297554Y-77301471D01*
X156307782Y-77279847D01*
X156320079Y-77259330D01*
X156334329Y-77240117D01*
X156350393Y-77222393D01*
X156368117Y-77206329D01*
X156387330Y-77192079D01*
X156407847Y-77179782D01*
X156429471Y-77169554D01*
X156451993Y-77161496D01*
X156475197Y-77155684D01*
X156498858Y-77152174D01*
X156522750Y-77151000D01*
X157010250Y-77151000D01*
X157034142Y-77152174D01*
G37*
G36*
X134592142Y-66211674D02*
G01*
X134615803Y-66215184D01*
X134639007Y-66220996D01*
X134661529Y-66229054D01*
X134683153Y-66239282D01*
X134703670Y-66251579D01*
X134722883Y-66265829D01*
X134740607Y-66281893D01*
X134756671Y-66299617D01*
X134770921Y-66318830D01*
X134783218Y-66339347D01*
X134793446Y-66360971D01*
X134801504Y-66383493D01*
X134807316Y-66406697D01*
X134810826Y-66430358D01*
X134812000Y-66454250D01*
X134812000Y-66941750D01*
X134810826Y-66965642D01*
X134807316Y-66989303D01*
X134801504Y-67012507D01*
X134793446Y-67035029D01*
X134783218Y-67056653D01*
X134770921Y-67077170D01*
X134756671Y-67096383D01*
X134740607Y-67114107D01*
X134722883Y-67130171D01*
X134703670Y-67144421D01*
X134683153Y-67156718D01*
X134661529Y-67166946D01*
X134639007Y-67175004D01*
X134615803Y-67180816D01*
X134592142Y-67184326D01*
X134568250Y-67185500D01*
X133655750Y-67185500D01*
X133631858Y-67184326D01*
X133608197Y-67180816D01*
X133584993Y-67175004D01*
X133562471Y-67166946D01*
X133540847Y-67156718D01*
X133520330Y-67144421D01*
X133501117Y-67130171D01*
X133483393Y-67114107D01*
X133467329Y-67096383D01*
X133453079Y-67077170D01*
X133440782Y-67056653D01*
X133430554Y-67035029D01*
X133422496Y-67012507D01*
X133416684Y-66989303D01*
X133413174Y-66965642D01*
X133412000Y-66941750D01*
X133412000Y-66454250D01*
X133413174Y-66430358D01*
X133416684Y-66406697D01*
X133422496Y-66383493D01*
X133430554Y-66360971D01*
X133440782Y-66339347D01*
X133453079Y-66318830D01*
X133467329Y-66299617D01*
X133483393Y-66281893D01*
X133501117Y-66265829D01*
X133520330Y-66251579D01*
X133540847Y-66239282D01*
X133562471Y-66229054D01*
X133584993Y-66220996D01*
X133608197Y-66215184D01*
X133631858Y-66211674D01*
X133655750Y-66210500D01*
X134568250Y-66210500D01*
X134592142Y-66211674D01*
G37*
G36*
X134592142Y-64336674D02*
G01*
X134615803Y-64340184D01*
X134639007Y-64345996D01*
X134661529Y-64354054D01*
X134683153Y-64364282D01*
X134703670Y-64376579D01*
X134722883Y-64390829D01*
X134740607Y-64406893D01*
X134756671Y-64424617D01*
X134770921Y-64443830D01*
X134783218Y-64464347D01*
X134793446Y-64485971D01*
X134801504Y-64508493D01*
X134807316Y-64531697D01*
X134810826Y-64555358D01*
X134812000Y-64579250D01*
X134812000Y-65066750D01*
X134810826Y-65090642D01*
X134807316Y-65114303D01*
X134801504Y-65137507D01*
X134793446Y-65160029D01*
X134783218Y-65181653D01*
X134770921Y-65202170D01*
X134756671Y-65221383D01*
X134740607Y-65239107D01*
X134722883Y-65255171D01*
X134703670Y-65269421D01*
X134683153Y-65281718D01*
X134661529Y-65291946D01*
X134639007Y-65300004D01*
X134615803Y-65305816D01*
X134592142Y-65309326D01*
X134568250Y-65310500D01*
X133655750Y-65310500D01*
X133631858Y-65309326D01*
X133608197Y-65305816D01*
X133584993Y-65300004D01*
X133562471Y-65291946D01*
X133540847Y-65281718D01*
X133520330Y-65269421D01*
X133501117Y-65255171D01*
X133483393Y-65239107D01*
X133467329Y-65221383D01*
X133453079Y-65202170D01*
X133440782Y-65181653D01*
X133430554Y-65160029D01*
X133422496Y-65137507D01*
X133416684Y-65114303D01*
X133413174Y-65090642D01*
X133412000Y-65066750D01*
X133412000Y-64579250D01*
X133413174Y-64555358D01*
X133416684Y-64531697D01*
X133422496Y-64508493D01*
X133430554Y-64485971D01*
X133440782Y-64464347D01*
X133453079Y-64443830D01*
X133467329Y-64424617D01*
X133483393Y-64406893D01*
X133501117Y-64390829D01*
X133520330Y-64376579D01*
X133540847Y-64364282D01*
X133562471Y-64354054D01*
X133584993Y-64345996D01*
X133608197Y-64340184D01*
X133631858Y-64336674D01*
X133655750Y-64335500D01*
X134568250Y-64335500D01*
X134592142Y-64336674D01*
G37*
D15*
X109474000Y-70612000D03*
X109474000Y-71462000D03*
X109474000Y-72312000D03*
X109474000Y-73162000D03*
X109474000Y-74012000D03*
X109474000Y-74862000D03*
X109474000Y-75712000D03*
X109474000Y-76562000D03*
X108124000Y-71462000D03*
X108124000Y-73162000D03*
X108124000Y-72312000D03*
X108124000Y-70612000D03*
X108124000Y-74862000D03*
X108124000Y-75712000D03*
X108124000Y-76562000D03*
X108124000Y-74012000D03*
D16*
X108494000Y-69262000D03*
X108494000Y-77912000D03*
D17*
X105114000Y-69262000D03*
X105114000Y-77912000D03*
D14*
X104140000Y-62103000D03*
D13*
X109220000Y-62103000D03*
D10*
X153416000Y-81153000D03*
X152400000Y-81153000D03*
X152400000Y-79121000D03*
X152400000Y-80137000D03*
X151384000Y-81153000D03*
X151384000Y-79121000D03*
X153416000Y-79121000D03*
X151384000Y-80137000D03*
X153416000Y-80137000D03*
D11*
G36*
X209818504Y-75198204D02*
G01*
X209842773Y-75201804D01*
X209866571Y-75207765D01*
X209889671Y-75216030D01*
X209911849Y-75226520D01*
X209932893Y-75239133D01*
X209952598Y-75253747D01*
X209970777Y-75270223D01*
X209987253Y-75288402D01*
X210001867Y-75308107D01*
X210014480Y-75329151D01*
X210024970Y-75351329D01*
X210033235Y-75374429D01*
X210039196Y-75398227D01*
X210042796Y-75422496D01*
X210044000Y-75447000D01*
X210044000Y-76197000D01*
X210042796Y-76221504D01*
X210039196Y-76245773D01*
X210033235Y-76269571D01*
X210024970Y-76292671D01*
X210014480Y-76314849D01*
X210001867Y-76335893D01*
X209987253Y-76355598D01*
X209970777Y-76373777D01*
X209952598Y-76390253D01*
X209932893Y-76404867D01*
X209911849Y-76417480D01*
X209889671Y-76427970D01*
X209866571Y-76436235D01*
X209842773Y-76442196D01*
X209818504Y-76445796D01*
X209794000Y-76447000D01*
X208544000Y-76447000D01*
X208519496Y-76445796D01*
X208495227Y-76442196D01*
X208471429Y-76436235D01*
X208448329Y-76427970D01*
X208426151Y-76417480D01*
X208405107Y-76404867D01*
X208385402Y-76390253D01*
X208367223Y-76373777D01*
X208350747Y-76355598D01*
X208336133Y-76335893D01*
X208323520Y-76314849D01*
X208313030Y-76292671D01*
X208304765Y-76269571D01*
X208298804Y-76245773D01*
X208295204Y-76221504D01*
X208294000Y-76197000D01*
X208294000Y-75447000D01*
X208295204Y-75422496D01*
X208298804Y-75398227D01*
X208304765Y-75374429D01*
X208313030Y-75351329D01*
X208323520Y-75329151D01*
X208336133Y-75308107D01*
X208350747Y-75288402D01*
X208367223Y-75270223D01*
X208385402Y-75253747D01*
X208405107Y-75239133D01*
X208426151Y-75226520D01*
X208448329Y-75216030D01*
X208471429Y-75207765D01*
X208495227Y-75201804D01*
X208519496Y-75198204D01*
X208544000Y-75197000D01*
X209794000Y-75197000D01*
X209818504Y-75198204D01*
G37*
G36*
X209818504Y-72398204D02*
G01*
X209842773Y-72401804D01*
X209866571Y-72407765D01*
X209889671Y-72416030D01*
X209911849Y-72426520D01*
X209932893Y-72439133D01*
X209952598Y-72453747D01*
X209970777Y-72470223D01*
X209987253Y-72488402D01*
X210001867Y-72508107D01*
X210014480Y-72529151D01*
X210024970Y-72551329D01*
X210033235Y-72574429D01*
X210039196Y-72598227D01*
X210042796Y-72622496D01*
X210044000Y-72647000D01*
X210044000Y-73397000D01*
X210042796Y-73421504D01*
X210039196Y-73445773D01*
X210033235Y-73469571D01*
X210024970Y-73492671D01*
X210014480Y-73514849D01*
X210001867Y-73535893D01*
X209987253Y-73555598D01*
X209970777Y-73573777D01*
X209952598Y-73590253D01*
X209932893Y-73604867D01*
X209911849Y-73617480D01*
X209889671Y-73627970D01*
X209866571Y-73636235D01*
X209842773Y-73642196D01*
X209818504Y-73645796D01*
X209794000Y-73647000D01*
X208544000Y-73647000D01*
X208519496Y-73645796D01*
X208495227Y-73642196D01*
X208471429Y-73636235D01*
X208448329Y-73627970D01*
X208426151Y-73617480D01*
X208405107Y-73604867D01*
X208385402Y-73590253D01*
X208367223Y-73573777D01*
X208350747Y-73555598D01*
X208336133Y-73535893D01*
X208323520Y-73514849D01*
X208313030Y-73492671D01*
X208304765Y-73469571D01*
X208298804Y-73445773D01*
X208295204Y-73421504D01*
X208294000Y-73397000D01*
X208294000Y-72647000D01*
X208295204Y-72622496D01*
X208298804Y-72598227D01*
X208304765Y-72574429D01*
X208313030Y-72551329D01*
X208323520Y-72529151D01*
X208336133Y-72508107D01*
X208350747Y-72488402D01*
X208367223Y-72470223D01*
X208385402Y-72453747D01*
X208405107Y-72439133D01*
X208426151Y-72426520D01*
X208448329Y-72416030D01*
X208471429Y-72407765D01*
X208495227Y-72401804D01*
X208519496Y-72398204D01*
X208544000Y-72397000D01*
X209794000Y-72397000D01*
X209818504Y-72398204D01*
G37*
G36*
X212104504Y-72398204D02*
G01*
X212128773Y-72401804D01*
X212152571Y-72407765D01*
X212175671Y-72416030D01*
X212197849Y-72426520D01*
X212218893Y-72439133D01*
X212238598Y-72453747D01*
X212256777Y-72470223D01*
X212273253Y-72488402D01*
X212287867Y-72508107D01*
X212300480Y-72529151D01*
X212310970Y-72551329D01*
X212319235Y-72574429D01*
X212325196Y-72598227D01*
X212328796Y-72622496D01*
X212330000Y-72647000D01*
X212330000Y-73397000D01*
X212328796Y-73421504D01*
X212325196Y-73445773D01*
X212319235Y-73469571D01*
X212310970Y-73492671D01*
X212300480Y-73514849D01*
X212287867Y-73535893D01*
X212273253Y-73555598D01*
X212256777Y-73573777D01*
X212238598Y-73590253D01*
X212218893Y-73604867D01*
X212197849Y-73617480D01*
X212175671Y-73627970D01*
X212152571Y-73636235D01*
X212128773Y-73642196D01*
X212104504Y-73645796D01*
X212080000Y-73647000D01*
X210830000Y-73647000D01*
X210805496Y-73645796D01*
X210781227Y-73642196D01*
X210757429Y-73636235D01*
X210734329Y-73627970D01*
X210712151Y-73617480D01*
X210691107Y-73604867D01*
X210671402Y-73590253D01*
X210653223Y-73573777D01*
X210636747Y-73555598D01*
X210622133Y-73535893D01*
X210609520Y-73514849D01*
X210599030Y-73492671D01*
X210590765Y-73469571D01*
X210584804Y-73445773D01*
X210581204Y-73421504D01*
X210580000Y-73397000D01*
X210580000Y-72647000D01*
X210581204Y-72622496D01*
X210584804Y-72598227D01*
X210590765Y-72574429D01*
X210599030Y-72551329D01*
X210609520Y-72529151D01*
X210622133Y-72508107D01*
X210636747Y-72488402D01*
X210653223Y-72470223D01*
X210671402Y-72453747D01*
X210691107Y-72439133D01*
X210712151Y-72426520D01*
X210734329Y-72416030D01*
X210757429Y-72407765D01*
X210781227Y-72401804D01*
X210805496Y-72398204D01*
X210830000Y-72397000D01*
X212080000Y-72397000D01*
X212104504Y-72398204D01*
G37*
G36*
X212104504Y-75198204D02*
G01*
X212128773Y-75201804D01*
X212152571Y-75207765D01*
X212175671Y-75216030D01*
X212197849Y-75226520D01*
X212218893Y-75239133D01*
X212238598Y-75253747D01*
X212256777Y-75270223D01*
X212273253Y-75288402D01*
X212287867Y-75308107D01*
X212300480Y-75329151D01*
X212310970Y-75351329D01*
X212319235Y-75374429D01*
X212325196Y-75398227D01*
X212328796Y-75422496D01*
X212330000Y-75447000D01*
X212330000Y-76197000D01*
X212328796Y-76221504D01*
X212325196Y-76245773D01*
X212319235Y-76269571D01*
X212310970Y-76292671D01*
X212300480Y-76314849D01*
X212287867Y-76335893D01*
X212273253Y-76355598D01*
X212256777Y-76373777D01*
X212238598Y-76390253D01*
X212218893Y-76404867D01*
X212197849Y-76417480D01*
X212175671Y-76427970D01*
X212152571Y-76436235D01*
X212128773Y-76442196D01*
X212104504Y-76445796D01*
X212080000Y-76447000D01*
X210830000Y-76447000D01*
X210805496Y-76445796D01*
X210781227Y-76442196D01*
X210757429Y-76436235D01*
X210734329Y-76427970D01*
X210712151Y-76417480D01*
X210691107Y-76404867D01*
X210671402Y-76390253D01*
X210653223Y-76373777D01*
X210636747Y-76355598D01*
X210622133Y-76335893D01*
X210609520Y-76314849D01*
X210599030Y-76292671D01*
X210590765Y-76269571D01*
X210584804Y-76245773D01*
X210581204Y-76221504D01*
X210580000Y-76197000D01*
X210580000Y-75447000D01*
X210581204Y-75422496D01*
X210584804Y-75398227D01*
X210590765Y-75374429D01*
X210599030Y-75351329D01*
X210609520Y-75329151D01*
X210622133Y-75308107D01*
X210636747Y-75288402D01*
X210653223Y-75270223D01*
X210671402Y-75253747D01*
X210691107Y-75239133D01*
X210712151Y-75226520D01*
X210734329Y-75216030D01*
X210757429Y-75207765D01*
X210781227Y-75201804D01*
X210805496Y-75198204D01*
X210830000Y-75197000D01*
X212080000Y-75197000D01*
X212104504Y-75198204D01*
G37*
D18*
X186563000Y-61874000D03*
D19*
X186563000Y-68174000D03*
X184263000Y-68174000D03*
X188863000Y-68174000D03*
D20*
X227170500Y-71612000D03*
D21*
X224470500Y-69962000D03*
X224470500Y-69312000D03*
X224470500Y-71912000D03*
X224470500Y-71262000D03*
X224470500Y-70612000D03*
D22*
X224470500Y-73112000D03*
D20*
X227170500Y-69612000D03*
D23*
X227170500Y-67112000D03*
X227170500Y-74112000D03*
D24*
X227170500Y-73512000D03*
X227170500Y-67712000D03*
D11*
G36*
X211215504Y-63889204D02*
G01*
X211239773Y-63892804D01*
X211263571Y-63898765D01*
X211286671Y-63907030D01*
X211308849Y-63917520D01*
X211329893Y-63930133D01*
X211349598Y-63944747D01*
X211367777Y-63961223D01*
X211384253Y-63979402D01*
X211398867Y-63999107D01*
X211411480Y-64020151D01*
X211421970Y-64042329D01*
X211430235Y-64065429D01*
X211436196Y-64089227D01*
X211439796Y-64113496D01*
X211441000Y-64138000D01*
X211441000Y-64888000D01*
X211439796Y-64912504D01*
X211436196Y-64936773D01*
X211430235Y-64960571D01*
X211421970Y-64983671D01*
X211411480Y-65005849D01*
X211398867Y-65026893D01*
X211384253Y-65046598D01*
X211367777Y-65064777D01*
X211349598Y-65081253D01*
X211329893Y-65095867D01*
X211308849Y-65108480D01*
X211286671Y-65118970D01*
X211263571Y-65127235D01*
X211239773Y-65133196D01*
X211215504Y-65136796D01*
X211191000Y-65138000D01*
X209941000Y-65138000D01*
X209916496Y-65136796D01*
X209892227Y-65133196D01*
X209868429Y-65127235D01*
X209845329Y-65118970D01*
X209823151Y-65108480D01*
X209802107Y-65095867D01*
X209782402Y-65081253D01*
X209764223Y-65064777D01*
X209747747Y-65046598D01*
X209733133Y-65026893D01*
X209720520Y-65005849D01*
X209710030Y-64983671D01*
X209701765Y-64960571D01*
X209695804Y-64936773D01*
X209692204Y-64912504D01*
X209691000Y-64888000D01*
X209691000Y-64138000D01*
X209692204Y-64113496D01*
X209695804Y-64089227D01*
X209701765Y-64065429D01*
X209710030Y-64042329D01*
X209720520Y-64020151D01*
X209733133Y-63999107D01*
X209747747Y-63979402D01*
X209764223Y-63961223D01*
X209782402Y-63944747D01*
X209802107Y-63930133D01*
X209823151Y-63917520D01*
X209845329Y-63907030D01*
X209868429Y-63898765D01*
X209892227Y-63892804D01*
X209916496Y-63889204D01*
X209941000Y-63888000D01*
X211191000Y-63888000D01*
X211215504Y-63889204D01*
G37*
G36*
X211215504Y-66689204D02*
G01*
X211239773Y-66692804D01*
X211263571Y-66698765D01*
X211286671Y-66707030D01*
X211308849Y-66717520D01*
X211329893Y-66730133D01*
X211349598Y-66744747D01*
X211367777Y-66761223D01*
X211384253Y-66779402D01*
X211398867Y-66799107D01*
X211411480Y-66820151D01*
X211421970Y-66842329D01*
X211430235Y-66865429D01*
X211436196Y-66889227D01*
X211439796Y-66913496D01*
X211441000Y-66938000D01*
X211441000Y-67688000D01*
X211439796Y-67712504D01*
X211436196Y-67736773D01*
X211430235Y-67760571D01*
X211421970Y-67783671D01*
X211411480Y-67805849D01*
X211398867Y-67826893D01*
X211384253Y-67846598D01*
X211367777Y-67864777D01*
X211349598Y-67881253D01*
X211329893Y-67895867D01*
X211308849Y-67908480D01*
X211286671Y-67918970D01*
X211263571Y-67927235D01*
X211239773Y-67933196D01*
X211215504Y-67936796D01*
X211191000Y-67938000D01*
X209941000Y-67938000D01*
X209916496Y-67936796D01*
X209892227Y-67933196D01*
X209868429Y-67927235D01*
X209845329Y-67918970D01*
X209823151Y-67908480D01*
X209802107Y-67895867D01*
X209782402Y-67881253D01*
X209764223Y-67864777D01*
X209747747Y-67846598D01*
X209733133Y-67826893D01*
X209720520Y-67805849D01*
X209710030Y-67783671D01*
X209701765Y-67760571D01*
X209695804Y-67736773D01*
X209692204Y-67712504D01*
X209691000Y-67688000D01*
X209691000Y-66938000D01*
X209692204Y-66913496D01*
X209695804Y-66889227D01*
X209701765Y-66865429D01*
X209710030Y-66842329D01*
X209720520Y-66820151D01*
X209733133Y-66799107D01*
X209747747Y-66779402D01*
X209764223Y-66761223D01*
X209782402Y-66744747D01*
X209802107Y-66730133D01*
X209823151Y-66717520D01*
X209845329Y-66707030D01*
X209868429Y-66698765D01*
X209892227Y-66692804D01*
X209916496Y-66689204D01*
X209941000Y-66688000D01*
X211191000Y-66688000D01*
X211215504Y-66689204D01*
G37*
G36*
X106784505Y-73596204D02*
G01*
X106808773Y-73599804D01*
X106832572Y-73605765D01*
X106855671Y-73614030D01*
X106877850Y-73624520D01*
X106898893Y-73637132D01*
X106918599Y-73651747D01*
X106936777Y-73668223D01*
X106953253Y-73686401D01*
X106967868Y-73706107D01*
X106980480Y-73727150D01*
X106990970Y-73749329D01*
X106999235Y-73772428D01*
X107005196Y-73796227D01*
X107008796Y-73820495D01*
X107010000Y-73844999D01*
X107010000Y-74745001D01*
X107008796Y-74769505D01*
X107005196Y-74793773D01*
X106999235Y-74817572D01*
X106990970Y-74840671D01*
X106980480Y-74862850D01*
X106967868Y-74883893D01*
X106953253Y-74903599D01*
X106936777Y-74921777D01*
X106918599Y-74938253D01*
X106898893Y-74952868D01*
X106877850Y-74965480D01*
X106855671Y-74975970D01*
X106832572Y-74984235D01*
X106808773Y-74990196D01*
X106784505Y-74993796D01*
X106760001Y-74995000D01*
X106109999Y-74995000D01*
X106085495Y-74993796D01*
X106061227Y-74990196D01*
X106037428Y-74984235D01*
X106014329Y-74975970D01*
X105992150Y-74965480D01*
X105971107Y-74952868D01*
X105951401Y-74938253D01*
X105933223Y-74921777D01*
X105916747Y-74903599D01*
X105902132Y-74883893D01*
X105889520Y-74862850D01*
X105879030Y-74840671D01*
X105870765Y-74817572D01*
X105864804Y-74793773D01*
X105861204Y-74769505D01*
X105860000Y-74745001D01*
X105860000Y-73844999D01*
X105861204Y-73820495D01*
X105864804Y-73796227D01*
X105870765Y-73772428D01*
X105879030Y-73749329D01*
X105889520Y-73727150D01*
X105902132Y-73706107D01*
X105916747Y-73686401D01*
X105933223Y-73668223D01*
X105951401Y-73651747D01*
X105971107Y-73637132D01*
X105992150Y-73624520D01*
X106014329Y-73614030D01*
X106037428Y-73605765D01*
X106061227Y-73599804D01*
X106085495Y-73596204D01*
X106109999Y-73595000D01*
X106760001Y-73595000D01*
X106784505Y-73596204D01*
G37*
G36*
X104734505Y-73596204D02*
G01*
X104758773Y-73599804D01*
X104782572Y-73605765D01*
X104805671Y-73614030D01*
X104827850Y-73624520D01*
X104848893Y-73637132D01*
X104868599Y-73651747D01*
X104886777Y-73668223D01*
X104903253Y-73686401D01*
X104917868Y-73706107D01*
X104930480Y-73727150D01*
X104940970Y-73749329D01*
X104949235Y-73772428D01*
X104955196Y-73796227D01*
X104958796Y-73820495D01*
X104960000Y-73844999D01*
X104960000Y-74745001D01*
X104958796Y-74769505D01*
X104955196Y-74793773D01*
X104949235Y-74817572D01*
X104940970Y-74840671D01*
X104930480Y-74862850D01*
X104917868Y-74883893D01*
X104903253Y-74903599D01*
X104886777Y-74921777D01*
X104868599Y-74938253D01*
X104848893Y-74952868D01*
X104827850Y-74965480D01*
X104805671Y-74975970D01*
X104782572Y-74984235D01*
X104758773Y-74990196D01*
X104734505Y-74993796D01*
X104710001Y-74995000D01*
X104059999Y-74995000D01*
X104035495Y-74993796D01*
X104011227Y-74990196D01*
X103987428Y-74984235D01*
X103964329Y-74975970D01*
X103942150Y-74965480D01*
X103921107Y-74952868D01*
X103901401Y-74938253D01*
X103883223Y-74921777D01*
X103866747Y-74903599D01*
X103852132Y-74883893D01*
X103839520Y-74862850D01*
X103829030Y-74840671D01*
X103820765Y-74817572D01*
X103814804Y-74793773D01*
X103811204Y-74769505D01*
X103810000Y-74745001D01*
X103810000Y-73844999D01*
X103811204Y-73820495D01*
X103814804Y-73796227D01*
X103820765Y-73772428D01*
X103829030Y-73749329D01*
X103839520Y-73727150D01*
X103852132Y-73706107D01*
X103866747Y-73686401D01*
X103883223Y-73668223D01*
X103901401Y-73651747D01*
X103921107Y-73637132D01*
X103942150Y-73624520D01*
X103964329Y-73614030D01*
X103987428Y-73605765D01*
X104011227Y-73599804D01*
X104035495Y-73596204D01*
X104059999Y-73595000D01*
X104710001Y-73595000D01*
X104734505Y-73596204D01*
G37*
G36*
X104734505Y-75501204D02*
G01*
X104758773Y-75504804D01*
X104782572Y-75510765D01*
X104805671Y-75519030D01*
X104827850Y-75529520D01*
X104848893Y-75542132D01*
X104868599Y-75556747D01*
X104886777Y-75573223D01*
X104903253Y-75591401D01*
X104917868Y-75611107D01*
X104930480Y-75632150D01*
X104940970Y-75654329D01*
X104949235Y-75677428D01*
X104955196Y-75701227D01*
X104958796Y-75725495D01*
X104960000Y-75749999D01*
X104960000Y-76650001D01*
X104958796Y-76674505D01*
X104955196Y-76698773D01*
X104949235Y-76722572D01*
X104940970Y-76745671D01*
X104930480Y-76767850D01*
X104917868Y-76788893D01*
X104903253Y-76808599D01*
X104886777Y-76826777D01*
X104868599Y-76843253D01*
X104848893Y-76857868D01*
X104827850Y-76870480D01*
X104805671Y-76880970D01*
X104782572Y-76889235D01*
X104758773Y-76895196D01*
X104734505Y-76898796D01*
X104710001Y-76900000D01*
X104059999Y-76900000D01*
X104035495Y-76898796D01*
X104011227Y-76895196D01*
X103987428Y-76889235D01*
X103964329Y-76880970D01*
X103942150Y-76870480D01*
X103921107Y-76857868D01*
X103901401Y-76843253D01*
X103883223Y-76826777D01*
X103866747Y-76808599D01*
X103852132Y-76788893D01*
X103839520Y-76767850D01*
X103829030Y-76745671D01*
X103820765Y-76722572D01*
X103814804Y-76698773D01*
X103811204Y-76674505D01*
X103810000Y-76650001D01*
X103810000Y-75749999D01*
X103811204Y-75725495D01*
X103814804Y-75701227D01*
X103820765Y-75677428D01*
X103829030Y-75654329D01*
X103839520Y-75632150D01*
X103852132Y-75611107D01*
X103866747Y-75591401D01*
X103883223Y-75573223D01*
X103901401Y-75556747D01*
X103921107Y-75542132D01*
X103942150Y-75529520D01*
X103964329Y-75519030D01*
X103987428Y-75510765D01*
X104011227Y-75504804D01*
X104035495Y-75501204D01*
X104059999Y-75500000D01*
X104710001Y-75500000D01*
X104734505Y-75501204D01*
G37*
G36*
X106784505Y-75501204D02*
G01*
X106808773Y-75504804D01*
X106832572Y-75510765D01*
X106855671Y-75519030D01*
X106877850Y-75529520D01*
X106898893Y-75542132D01*
X106918599Y-75556747D01*
X106936777Y-75573223D01*
X106953253Y-75591401D01*
X106967868Y-75611107D01*
X106980480Y-75632150D01*
X106990970Y-75654329D01*
X106999235Y-75677428D01*
X107005196Y-75701227D01*
X107008796Y-75725495D01*
X107010000Y-75749999D01*
X107010000Y-76650001D01*
X107008796Y-76674505D01*
X107005196Y-76698773D01*
X106999235Y-76722572D01*
X106990970Y-76745671D01*
X106980480Y-76767850D01*
X106967868Y-76788893D01*
X106953253Y-76808599D01*
X106936777Y-76826777D01*
X106918599Y-76843253D01*
X106898893Y-76857868D01*
X106877850Y-76870480D01*
X106855671Y-76880970D01*
X106832572Y-76889235D01*
X106808773Y-76895196D01*
X106784505Y-76898796D01*
X106760001Y-76900000D01*
X106109999Y-76900000D01*
X106085495Y-76898796D01*
X106061227Y-76895196D01*
X106037428Y-76889235D01*
X106014329Y-76880970D01*
X105992150Y-76870480D01*
X105971107Y-76857868D01*
X105951401Y-76843253D01*
X105933223Y-76826777D01*
X105916747Y-76808599D01*
X105902132Y-76788893D01*
X105889520Y-76767850D01*
X105879030Y-76745671D01*
X105870765Y-76722572D01*
X105864804Y-76698773D01*
X105861204Y-76674505D01*
X105860000Y-76650001D01*
X105860000Y-75749999D01*
X105861204Y-75725495D01*
X105864804Y-75701227D01*
X105870765Y-75677428D01*
X105879030Y-75654329D01*
X105889520Y-75632150D01*
X105902132Y-75611107D01*
X105916747Y-75591401D01*
X105933223Y-75573223D01*
X105951401Y-75556747D01*
X105971107Y-75542132D01*
X105992150Y-75529520D01*
X106014329Y-75519030D01*
X106037428Y-75510765D01*
X106061227Y-75504804D01*
X106085495Y-75501204D01*
X106109999Y-75500000D01*
X106760001Y-75500000D01*
X106784505Y-75501204D01*
G37*
D25*
X221234000Y-67564000D03*
D26*
X221234000Y-69564000D03*
X221234000Y-71564000D03*
X221234000Y-73564000D03*
D25*
X210820000Y-80518000D03*
D26*
X212820000Y-80518000D03*
X214820000Y-80518000D03*
X216820000Y-80518000D03*
X225837000Y-80518000D03*
X223837000Y-80518000D03*
X221837000Y-80518000D03*
D25*
X219837000Y-80518000D03*
X225806000Y-61214000D03*
D26*
X223806000Y-61214000D03*
X221806000Y-61214000D03*
X219806000Y-61214000D03*
X210789000Y-61214000D03*
X212789000Y-61214000D03*
X214789000Y-61214000D03*
D25*
X216789000Y-61214000D03*
D27*
X175260000Y-60833000D03*
D28*
X177800000Y-60833000D03*
X180340000Y-60833000D03*
X182880000Y-60833000D03*
D25*
X121158000Y-80518000D03*
D26*
X123158000Y-80518000D03*
X125158000Y-80518000D03*
X127158000Y-80518000D03*
X129158000Y-80518000D03*
D25*
X179197000Y-80518000D03*
D26*
X177197000Y-80518000D03*
X175197000Y-80518000D03*
X173197000Y-80518000D03*
D11*
G36*
X215667504Y-81676204D02*
G01*
X215691773Y-81679804D01*
X215715571Y-81685765D01*
X215738671Y-81694030D01*
X215760849Y-81704520D01*
X215781893Y-81717133D01*
X215801598Y-81731747D01*
X215819777Y-81748223D01*
X215836253Y-81766402D01*
X215850867Y-81786107D01*
X215863480Y-81807151D01*
X215873970Y-81829329D01*
X215882235Y-81852429D01*
X215888196Y-81876227D01*
X215891796Y-81900496D01*
X215893000Y-81925000D01*
X215893000Y-83175000D01*
X215891796Y-83199504D01*
X215888196Y-83223773D01*
X215882235Y-83247571D01*
X215873970Y-83270671D01*
X215863480Y-83292849D01*
X215850867Y-83313893D01*
X215836253Y-83333598D01*
X215819777Y-83351777D01*
X215801598Y-83368253D01*
X215781893Y-83382867D01*
X215760849Y-83395480D01*
X215738671Y-83405970D01*
X215715571Y-83414235D01*
X215691773Y-83420196D01*
X215667504Y-83423796D01*
X215643000Y-83425000D01*
X214893000Y-83425000D01*
X214868496Y-83423796D01*
X214844227Y-83420196D01*
X214820429Y-83414235D01*
X214797329Y-83405970D01*
X214775151Y-83395480D01*
X214754107Y-83382867D01*
X214734402Y-83368253D01*
X214716223Y-83351777D01*
X214699747Y-83333598D01*
X214685133Y-83313893D01*
X214672520Y-83292849D01*
X214662030Y-83270671D01*
X214653765Y-83247571D01*
X214647804Y-83223773D01*
X214644204Y-83199504D01*
X214643000Y-83175000D01*
X214643000Y-81925000D01*
X214644204Y-81900496D01*
X214647804Y-81876227D01*
X214653765Y-81852429D01*
X214662030Y-81829329D01*
X214672520Y-81807151D01*
X214685133Y-81786107D01*
X214699747Y-81766402D01*
X214716223Y-81748223D01*
X214734402Y-81731747D01*
X214754107Y-81717133D01*
X214775151Y-81704520D01*
X214797329Y-81694030D01*
X214820429Y-81685765D01*
X214844227Y-81679804D01*
X214868496Y-81676204D01*
X214893000Y-81675000D01*
X215643000Y-81675000D01*
X215667504Y-81676204D01*
G37*
G36*
X212867504Y-81676204D02*
G01*
X212891773Y-81679804D01*
X212915571Y-81685765D01*
X212938671Y-81694030D01*
X212960849Y-81704520D01*
X212981893Y-81717133D01*
X213001598Y-81731747D01*
X213019777Y-81748223D01*
X213036253Y-81766402D01*
X213050867Y-81786107D01*
X213063480Y-81807151D01*
X213073970Y-81829329D01*
X213082235Y-81852429D01*
X213088196Y-81876227D01*
X213091796Y-81900496D01*
X213093000Y-81925000D01*
X213093000Y-83175000D01*
X213091796Y-83199504D01*
X213088196Y-83223773D01*
X213082235Y-83247571D01*
X213073970Y-83270671D01*
X213063480Y-83292849D01*
X213050867Y-83313893D01*
X213036253Y-83333598D01*
X213019777Y-83351777D01*
X213001598Y-83368253D01*
X212981893Y-83382867D01*
X212960849Y-83395480D01*
X212938671Y-83405970D01*
X212915571Y-83414235D01*
X212891773Y-83420196D01*
X212867504Y-83423796D01*
X212843000Y-83425000D01*
X212093000Y-83425000D01*
X212068496Y-83423796D01*
X212044227Y-83420196D01*
X212020429Y-83414235D01*
X211997329Y-83405970D01*
X211975151Y-83395480D01*
X211954107Y-83382867D01*
X211934402Y-83368253D01*
X211916223Y-83351777D01*
X211899747Y-83333598D01*
X211885133Y-83313893D01*
X211872520Y-83292849D01*
X211862030Y-83270671D01*
X211853765Y-83247571D01*
X211847804Y-83223773D01*
X211844204Y-83199504D01*
X211843000Y-83175000D01*
X211843000Y-81925000D01*
X211844204Y-81900496D01*
X211847804Y-81876227D01*
X211853765Y-81852429D01*
X211862030Y-81829329D01*
X211872520Y-81807151D01*
X211885133Y-81786107D01*
X211899747Y-81766402D01*
X211916223Y-81748223D01*
X211934402Y-81731747D01*
X211954107Y-81717133D01*
X211975151Y-81704520D01*
X211997329Y-81694030D01*
X212020429Y-81685765D01*
X212044227Y-81679804D01*
X212068496Y-81676204D01*
X212093000Y-81675000D01*
X212843000Y-81675000D01*
X212867504Y-81676204D01*
G37*
G36*
X215413504Y-58308204D02*
G01*
X215437773Y-58311804D01*
X215461571Y-58317765D01*
X215484671Y-58326030D01*
X215506849Y-58336520D01*
X215527893Y-58349133D01*
X215547598Y-58363747D01*
X215565777Y-58380223D01*
X215582253Y-58398402D01*
X215596867Y-58418107D01*
X215609480Y-58439151D01*
X215619970Y-58461329D01*
X215628235Y-58484429D01*
X215634196Y-58508227D01*
X215637796Y-58532496D01*
X215639000Y-58557000D01*
X215639000Y-59807000D01*
X215637796Y-59831504D01*
X215634196Y-59855773D01*
X215628235Y-59879571D01*
X215619970Y-59902671D01*
X215609480Y-59924849D01*
X215596867Y-59945893D01*
X215582253Y-59965598D01*
X215565777Y-59983777D01*
X215547598Y-60000253D01*
X215527893Y-60014867D01*
X215506849Y-60027480D01*
X215484671Y-60037970D01*
X215461571Y-60046235D01*
X215437773Y-60052196D01*
X215413504Y-60055796D01*
X215389000Y-60057000D01*
X214639000Y-60057000D01*
X214614496Y-60055796D01*
X214590227Y-60052196D01*
X214566429Y-60046235D01*
X214543329Y-60037970D01*
X214521151Y-60027480D01*
X214500107Y-60014867D01*
X214480402Y-60000253D01*
X214462223Y-59983777D01*
X214445747Y-59965598D01*
X214431133Y-59945893D01*
X214418520Y-59924849D01*
X214408030Y-59902671D01*
X214399765Y-59879571D01*
X214393804Y-59855773D01*
X214390204Y-59831504D01*
X214389000Y-59807000D01*
X214389000Y-58557000D01*
X214390204Y-58532496D01*
X214393804Y-58508227D01*
X214399765Y-58484429D01*
X214408030Y-58461329D01*
X214418520Y-58439151D01*
X214431133Y-58418107D01*
X214445747Y-58398402D01*
X214462223Y-58380223D01*
X214480402Y-58363747D01*
X214500107Y-58349133D01*
X214521151Y-58336520D01*
X214543329Y-58326030D01*
X214566429Y-58317765D01*
X214590227Y-58311804D01*
X214614496Y-58308204D01*
X214639000Y-58307000D01*
X215389000Y-58307000D01*
X215413504Y-58308204D01*
G37*
G36*
X212613504Y-58308204D02*
G01*
X212637773Y-58311804D01*
X212661571Y-58317765D01*
X212684671Y-58326030D01*
X212706849Y-58336520D01*
X212727893Y-58349133D01*
X212747598Y-58363747D01*
X212765777Y-58380223D01*
X212782253Y-58398402D01*
X212796867Y-58418107D01*
X212809480Y-58439151D01*
X212819970Y-58461329D01*
X212828235Y-58484429D01*
X212834196Y-58508227D01*
X212837796Y-58532496D01*
X212839000Y-58557000D01*
X212839000Y-59807000D01*
X212837796Y-59831504D01*
X212834196Y-59855773D01*
X212828235Y-59879571D01*
X212819970Y-59902671D01*
X212809480Y-59924849D01*
X212796867Y-59945893D01*
X212782253Y-59965598D01*
X212765777Y-59983777D01*
X212747598Y-60000253D01*
X212727893Y-60014867D01*
X212706849Y-60027480D01*
X212684671Y-60037970D01*
X212661571Y-60046235D01*
X212637773Y-60052196D01*
X212613504Y-60055796D01*
X212589000Y-60057000D01*
X211839000Y-60057000D01*
X211814496Y-60055796D01*
X211790227Y-60052196D01*
X211766429Y-60046235D01*
X211743329Y-60037970D01*
X211721151Y-60027480D01*
X211700107Y-60014867D01*
X211680402Y-60000253D01*
X211662223Y-59983777D01*
X211645747Y-59965598D01*
X211631133Y-59945893D01*
X211618520Y-59924849D01*
X211608030Y-59902671D01*
X211599765Y-59879571D01*
X211593804Y-59855773D01*
X211590204Y-59831504D01*
X211589000Y-59807000D01*
X211589000Y-58557000D01*
X211590204Y-58532496D01*
X211593804Y-58508227D01*
X211599765Y-58484429D01*
X211608030Y-58461329D01*
X211618520Y-58439151D01*
X211631133Y-58418107D01*
X211645747Y-58398402D01*
X211662223Y-58380223D01*
X211680402Y-58363747D01*
X211700107Y-58349133D01*
X211721151Y-58336520D01*
X211743329Y-58326030D01*
X211766429Y-58317765D01*
X211790227Y-58311804D01*
X211814496Y-58308204D01*
X211839000Y-58307000D01*
X212589000Y-58307000D01*
X212613504Y-58308204D01*
G37*
G36*
X221884504Y-81676204D02*
G01*
X221908773Y-81679804D01*
X221932571Y-81685765D01*
X221955671Y-81694030D01*
X221977849Y-81704520D01*
X221998893Y-81717133D01*
X222018598Y-81731747D01*
X222036777Y-81748223D01*
X222053253Y-81766402D01*
X222067867Y-81786107D01*
X222080480Y-81807151D01*
X222090970Y-81829329D01*
X222099235Y-81852429D01*
X222105196Y-81876227D01*
X222108796Y-81900496D01*
X222110000Y-81925000D01*
X222110000Y-83175000D01*
X222108796Y-83199504D01*
X222105196Y-83223773D01*
X222099235Y-83247571D01*
X222090970Y-83270671D01*
X222080480Y-83292849D01*
X222067867Y-83313893D01*
X222053253Y-83333598D01*
X222036777Y-83351777D01*
X222018598Y-83368253D01*
X221998893Y-83382867D01*
X221977849Y-83395480D01*
X221955671Y-83405970D01*
X221932571Y-83414235D01*
X221908773Y-83420196D01*
X221884504Y-83423796D01*
X221860000Y-83425000D01*
X221110000Y-83425000D01*
X221085496Y-83423796D01*
X221061227Y-83420196D01*
X221037429Y-83414235D01*
X221014329Y-83405970D01*
X220992151Y-83395480D01*
X220971107Y-83382867D01*
X220951402Y-83368253D01*
X220933223Y-83351777D01*
X220916747Y-83333598D01*
X220902133Y-83313893D01*
X220889520Y-83292849D01*
X220879030Y-83270671D01*
X220870765Y-83247571D01*
X220864804Y-83223773D01*
X220861204Y-83199504D01*
X220860000Y-83175000D01*
X220860000Y-81925000D01*
X220861204Y-81900496D01*
X220864804Y-81876227D01*
X220870765Y-81852429D01*
X220879030Y-81829329D01*
X220889520Y-81807151D01*
X220902133Y-81786107D01*
X220916747Y-81766402D01*
X220933223Y-81748223D01*
X220951402Y-81731747D01*
X220971107Y-81717133D01*
X220992151Y-81704520D01*
X221014329Y-81694030D01*
X221037429Y-81685765D01*
X221061227Y-81679804D01*
X221085496Y-81676204D01*
X221110000Y-81675000D01*
X221860000Y-81675000D01*
X221884504Y-81676204D01*
G37*
G36*
X224684504Y-81676204D02*
G01*
X224708773Y-81679804D01*
X224732571Y-81685765D01*
X224755671Y-81694030D01*
X224777849Y-81704520D01*
X224798893Y-81717133D01*
X224818598Y-81731747D01*
X224836777Y-81748223D01*
X224853253Y-81766402D01*
X224867867Y-81786107D01*
X224880480Y-81807151D01*
X224890970Y-81829329D01*
X224899235Y-81852429D01*
X224905196Y-81876227D01*
X224908796Y-81900496D01*
X224910000Y-81925000D01*
X224910000Y-83175000D01*
X224908796Y-83199504D01*
X224905196Y-83223773D01*
X224899235Y-83247571D01*
X224890970Y-83270671D01*
X224880480Y-83292849D01*
X224867867Y-83313893D01*
X224853253Y-83333598D01*
X224836777Y-83351777D01*
X224818598Y-83368253D01*
X224798893Y-83382867D01*
X224777849Y-83395480D01*
X224755671Y-83405970D01*
X224732571Y-83414235D01*
X224708773Y-83420196D01*
X224684504Y-83423796D01*
X224660000Y-83425000D01*
X223910000Y-83425000D01*
X223885496Y-83423796D01*
X223861227Y-83420196D01*
X223837429Y-83414235D01*
X223814329Y-83405970D01*
X223792151Y-83395480D01*
X223771107Y-83382867D01*
X223751402Y-83368253D01*
X223733223Y-83351777D01*
X223716747Y-83333598D01*
X223702133Y-83313893D01*
X223689520Y-83292849D01*
X223679030Y-83270671D01*
X223670765Y-83247571D01*
X223664804Y-83223773D01*
X223661204Y-83199504D01*
X223660000Y-83175000D01*
X223660000Y-81925000D01*
X223661204Y-81900496D01*
X223664804Y-81876227D01*
X223670765Y-81852429D01*
X223679030Y-81829329D01*
X223689520Y-81807151D01*
X223702133Y-81786107D01*
X223716747Y-81766402D01*
X223733223Y-81748223D01*
X223751402Y-81731747D01*
X223771107Y-81717133D01*
X223792151Y-81704520D01*
X223814329Y-81694030D01*
X223837429Y-81685765D01*
X223861227Y-81679804D01*
X223885496Y-81676204D01*
X223910000Y-81675000D01*
X224660000Y-81675000D01*
X224684504Y-81676204D01*
G37*
G36*
X221757504Y-58308204D02*
G01*
X221781773Y-58311804D01*
X221805571Y-58317765D01*
X221828671Y-58326030D01*
X221850849Y-58336520D01*
X221871893Y-58349133D01*
X221891598Y-58363747D01*
X221909777Y-58380223D01*
X221926253Y-58398402D01*
X221940867Y-58418107D01*
X221953480Y-58439151D01*
X221963970Y-58461329D01*
X221972235Y-58484429D01*
X221978196Y-58508227D01*
X221981796Y-58532496D01*
X221983000Y-58557000D01*
X221983000Y-59807000D01*
X221981796Y-59831504D01*
X221978196Y-59855773D01*
X221972235Y-59879571D01*
X221963970Y-59902671D01*
X221953480Y-59924849D01*
X221940867Y-59945893D01*
X221926253Y-59965598D01*
X221909777Y-59983777D01*
X221891598Y-60000253D01*
X221871893Y-60014867D01*
X221850849Y-60027480D01*
X221828671Y-60037970D01*
X221805571Y-60046235D01*
X221781773Y-60052196D01*
X221757504Y-60055796D01*
X221733000Y-60057000D01*
X220983000Y-60057000D01*
X220958496Y-60055796D01*
X220934227Y-60052196D01*
X220910429Y-60046235D01*
X220887329Y-60037970D01*
X220865151Y-60027480D01*
X220844107Y-60014867D01*
X220824402Y-60000253D01*
X220806223Y-59983777D01*
X220789747Y-59965598D01*
X220775133Y-59945893D01*
X220762520Y-59924849D01*
X220752030Y-59902671D01*
X220743765Y-59879571D01*
X220737804Y-59855773D01*
X220734204Y-59831504D01*
X220733000Y-59807000D01*
X220733000Y-58557000D01*
X220734204Y-58532496D01*
X220737804Y-58508227D01*
X220743765Y-58484429D01*
X220752030Y-58461329D01*
X220762520Y-58439151D01*
X220775133Y-58418107D01*
X220789747Y-58398402D01*
X220806223Y-58380223D01*
X220824402Y-58363747D01*
X220844107Y-58349133D01*
X220865151Y-58336520D01*
X220887329Y-58326030D01*
X220910429Y-58317765D01*
X220934227Y-58311804D01*
X220958496Y-58308204D01*
X220983000Y-58307000D01*
X221733000Y-58307000D01*
X221757504Y-58308204D01*
G37*
G36*
X224557504Y-58308204D02*
G01*
X224581773Y-58311804D01*
X224605571Y-58317765D01*
X224628671Y-58326030D01*
X224650849Y-58336520D01*
X224671893Y-58349133D01*
X224691598Y-58363747D01*
X224709777Y-58380223D01*
X224726253Y-58398402D01*
X224740867Y-58418107D01*
X224753480Y-58439151D01*
X224763970Y-58461329D01*
X224772235Y-58484429D01*
X224778196Y-58508227D01*
X224781796Y-58532496D01*
X224783000Y-58557000D01*
X224783000Y-59807000D01*
X224781796Y-59831504D01*
X224778196Y-59855773D01*
X224772235Y-59879571D01*
X224763970Y-59902671D01*
X224753480Y-59924849D01*
X224740867Y-59945893D01*
X224726253Y-59965598D01*
X224709777Y-59983777D01*
X224691598Y-60000253D01*
X224671893Y-60014867D01*
X224650849Y-60027480D01*
X224628671Y-60037970D01*
X224605571Y-60046235D01*
X224581773Y-60052196D01*
X224557504Y-60055796D01*
X224533000Y-60057000D01*
X223783000Y-60057000D01*
X223758496Y-60055796D01*
X223734227Y-60052196D01*
X223710429Y-60046235D01*
X223687329Y-60037970D01*
X223665151Y-60027480D01*
X223644107Y-60014867D01*
X223624402Y-60000253D01*
X223606223Y-59983777D01*
X223589747Y-59965598D01*
X223575133Y-59945893D01*
X223562520Y-59924849D01*
X223552030Y-59902671D01*
X223543765Y-59879571D01*
X223537804Y-59855773D01*
X223534204Y-59831504D01*
X223533000Y-59807000D01*
X223533000Y-58557000D01*
X223534204Y-58532496D01*
X223537804Y-58508227D01*
X223543765Y-58484429D01*
X223552030Y-58461329D01*
X223562520Y-58439151D01*
X223575133Y-58418107D01*
X223589747Y-58398402D01*
X223606223Y-58380223D01*
X223624402Y-58363747D01*
X223644107Y-58349133D01*
X223665151Y-58336520D01*
X223687329Y-58326030D01*
X223710429Y-58317765D01*
X223734227Y-58311804D01*
X223758496Y-58308204D01*
X223783000Y-58307000D01*
X224533000Y-58307000D01*
X224557504Y-58308204D01*
G37*
G36*
X219597504Y-66816204D02*
G01*
X219621773Y-66819804D01*
X219645571Y-66825765D01*
X219668671Y-66834030D01*
X219690849Y-66844520D01*
X219711893Y-66857133D01*
X219731598Y-66871747D01*
X219749777Y-66888223D01*
X219766253Y-66906402D01*
X219780867Y-66926107D01*
X219793480Y-66947151D01*
X219803970Y-66969329D01*
X219812235Y-66992429D01*
X219818196Y-67016227D01*
X219821796Y-67040496D01*
X219823000Y-67065000D01*
X219823000Y-67990000D01*
X219821796Y-68014504D01*
X219818196Y-68038773D01*
X219812235Y-68062571D01*
X219803970Y-68085671D01*
X219793480Y-68107849D01*
X219780867Y-68128893D01*
X219766253Y-68148598D01*
X219749777Y-68166777D01*
X219731598Y-68183253D01*
X219711893Y-68197867D01*
X219690849Y-68210480D01*
X219668671Y-68220970D01*
X219645571Y-68229235D01*
X219621773Y-68235196D01*
X219597504Y-68238796D01*
X219573000Y-68240000D01*
X218323000Y-68240000D01*
X218298496Y-68238796D01*
X218274227Y-68235196D01*
X218250429Y-68229235D01*
X218227329Y-68220970D01*
X218205151Y-68210480D01*
X218184107Y-68197867D01*
X218164402Y-68183253D01*
X218146223Y-68166777D01*
X218129747Y-68148598D01*
X218115133Y-68128893D01*
X218102520Y-68107849D01*
X218092030Y-68085671D01*
X218083765Y-68062571D01*
X218077804Y-68038773D01*
X218074204Y-68014504D01*
X218073000Y-67990000D01*
X218073000Y-67065000D01*
X218074204Y-67040496D01*
X218077804Y-67016227D01*
X218083765Y-66992429D01*
X218092030Y-66969329D01*
X218102520Y-66947151D01*
X218115133Y-66926107D01*
X218129747Y-66906402D01*
X218146223Y-66888223D01*
X218164402Y-66871747D01*
X218184107Y-66857133D01*
X218205151Y-66844520D01*
X218227329Y-66834030D01*
X218250429Y-66825765D01*
X218274227Y-66819804D01*
X218298496Y-66816204D01*
X218323000Y-66815000D01*
X219573000Y-66815000D01*
X219597504Y-66816204D01*
G37*
G36*
X219597504Y-63841204D02*
G01*
X219621773Y-63844804D01*
X219645571Y-63850765D01*
X219668671Y-63859030D01*
X219690849Y-63869520D01*
X219711893Y-63882133D01*
X219731598Y-63896747D01*
X219749777Y-63913223D01*
X219766253Y-63931402D01*
X219780867Y-63951107D01*
X219793480Y-63972151D01*
X219803970Y-63994329D01*
X219812235Y-64017429D01*
X219818196Y-64041227D01*
X219821796Y-64065496D01*
X219823000Y-64090000D01*
X219823000Y-65015000D01*
X219821796Y-65039504D01*
X219818196Y-65063773D01*
X219812235Y-65087571D01*
X219803970Y-65110671D01*
X219793480Y-65132849D01*
X219780867Y-65153893D01*
X219766253Y-65173598D01*
X219749777Y-65191777D01*
X219731598Y-65208253D01*
X219711893Y-65222867D01*
X219690849Y-65235480D01*
X219668671Y-65245970D01*
X219645571Y-65254235D01*
X219621773Y-65260196D01*
X219597504Y-65263796D01*
X219573000Y-65265000D01*
X218323000Y-65265000D01*
X218298496Y-65263796D01*
X218274227Y-65260196D01*
X218250429Y-65254235D01*
X218227329Y-65245970D01*
X218205151Y-65235480D01*
X218184107Y-65222867D01*
X218164402Y-65208253D01*
X218146223Y-65191777D01*
X218129747Y-65173598D01*
X218115133Y-65153893D01*
X218102520Y-65132849D01*
X218092030Y-65110671D01*
X218083765Y-65087571D01*
X218077804Y-65063773D01*
X218074204Y-65039504D01*
X218073000Y-65015000D01*
X218073000Y-64090000D01*
X218074204Y-64065496D01*
X218077804Y-64041227D01*
X218083765Y-64017429D01*
X218092030Y-63994329D01*
X218102520Y-63972151D01*
X218115133Y-63951107D01*
X218129747Y-63931402D01*
X218146223Y-63913223D01*
X218164402Y-63896747D01*
X218184107Y-63882133D01*
X218205151Y-63869520D01*
X218227329Y-63859030D01*
X218250429Y-63850765D01*
X218274227Y-63844804D01*
X218298496Y-63841204D01*
X218323000Y-63840000D01*
X219573000Y-63840000D01*
X219597504Y-63841204D01*
G37*
D25*
X188087000Y-75692000D03*
D26*
X188087000Y-73692000D03*
X188087000Y-71692000D03*
D27*
X171577000Y-64770000D03*
D28*
X171577000Y-67310000D03*
X171577000Y-69850000D03*
D11*
G36*
X205627504Y-63387204D02*
G01*
X205651773Y-63390804D01*
X205675571Y-63396765D01*
X205698671Y-63405030D01*
X205720849Y-63415520D01*
X205741893Y-63428133D01*
X205761598Y-63442747D01*
X205779777Y-63459223D01*
X205796253Y-63477402D01*
X205810867Y-63497107D01*
X205823480Y-63518151D01*
X205833970Y-63540329D01*
X205842235Y-63563429D01*
X205848196Y-63587227D01*
X205851796Y-63611496D01*
X205853000Y-63636000D01*
X205853000Y-64386000D01*
X205851796Y-64410504D01*
X205848196Y-64434773D01*
X205842235Y-64458571D01*
X205833970Y-64481671D01*
X205823480Y-64503849D01*
X205810867Y-64524893D01*
X205796253Y-64544598D01*
X205779777Y-64562777D01*
X205761598Y-64579253D01*
X205741893Y-64593867D01*
X205720849Y-64606480D01*
X205698671Y-64616970D01*
X205675571Y-64625235D01*
X205651773Y-64631196D01*
X205627504Y-64634796D01*
X205603000Y-64636000D01*
X204353000Y-64636000D01*
X204328496Y-64634796D01*
X204304227Y-64631196D01*
X204280429Y-64625235D01*
X204257329Y-64616970D01*
X204235151Y-64606480D01*
X204214107Y-64593867D01*
X204194402Y-64579253D01*
X204176223Y-64562777D01*
X204159747Y-64544598D01*
X204145133Y-64524893D01*
X204132520Y-64503849D01*
X204122030Y-64481671D01*
X204113765Y-64458571D01*
X204107804Y-64434773D01*
X204104204Y-64410504D01*
X204103000Y-64386000D01*
X204103000Y-63636000D01*
X204104204Y-63611496D01*
X204107804Y-63587227D01*
X204113765Y-63563429D01*
X204122030Y-63540329D01*
X204132520Y-63518151D01*
X204145133Y-63497107D01*
X204159747Y-63477402D01*
X204176223Y-63459223D01*
X204194402Y-63442747D01*
X204214107Y-63428133D01*
X204235151Y-63415520D01*
X204257329Y-63405030D01*
X204280429Y-63396765D01*
X204304227Y-63390804D01*
X204328496Y-63387204D01*
X204353000Y-63386000D01*
X205603000Y-63386000D01*
X205627504Y-63387204D01*
G37*
G36*
X205627504Y-60587204D02*
G01*
X205651773Y-60590804D01*
X205675571Y-60596765D01*
X205698671Y-60605030D01*
X205720849Y-60615520D01*
X205741893Y-60628133D01*
X205761598Y-60642747D01*
X205779777Y-60659223D01*
X205796253Y-60677402D01*
X205810867Y-60697107D01*
X205823480Y-60718151D01*
X205833970Y-60740329D01*
X205842235Y-60763429D01*
X205848196Y-60787227D01*
X205851796Y-60811496D01*
X205853000Y-60836000D01*
X205853000Y-61586000D01*
X205851796Y-61610504D01*
X205848196Y-61634773D01*
X205842235Y-61658571D01*
X205833970Y-61681671D01*
X205823480Y-61703849D01*
X205810867Y-61724893D01*
X205796253Y-61744598D01*
X205779777Y-61762777D01*
X205761598Y-61779253D01*
X205741893Y-61793867D01*
X205720849Y-61806480D01*
X205698671Y-61816970D01*
X205675571Y-61825235D01*
X205651773Y-61831196D01*
X205627504Y-61834796D01*
X205603000Y-61836000D01*
X204353000Y-61836000D01*
X204328496Y-61834796D01*
X204304227Y-61831196D01*
X204280429Y-61825235D01*
X204257329Y-61816970D01*
X204235151Y-61806480D01*
X204214107Y-61793867D01*
X204194402Y-61779253D01*
X204176223Y-61762777D01*
X204159747Y-61744598D01*
X204145133Y-61724893D01*
X204132520Y-61703849D01*
X204122030Y-61681671D01*
X204113765Y-61658571D01*
X204107804Y-61634773D01*
X204104204Y-61610504D01*
X204103000Y-61586000D01*
X204103000Y-60836000D01*
X204104204Y-60811496D01*
X204107804Y-60787227D01*
X204113765Y-60763429D01*
X204122030Y-60740329D01*
X204132520Y-60718151D01*
X204145133Y-60697107D01*
X204159747Y-60677402D01*
X204176223Y-60659223D01*
X204194402Y-60642747D01*
X204214107Y-60628133D01*
X204235151Y-60615520D01*
X204257329Y-60605030D01*
X204280429Y-60596765D01*
X204304227Y-60590804D01*
X204328496Y-60587204D01*
X204353000Y-60586000D01*
X205603000Y-60586000D01*
X205627504Y-60587204D01*
G37*
G36*
X203341504Y-60590204D02*
G01*
X203365773Y-60593804D01*
X203389571Y-60599765D01*
X203412671Y-60608030D01*
X203434849Y-60618520D01*
X203455893Y-60631133D01*
X203475598Y-60645747D01*
X203493777Y-60662223D01*
X203510253Y-60680402D01*
X203524867Y-60700107D01*
X203537480Y-60721151D01*
X203547970Y-60743329D01*
X203556235Y-60766429D01*
X203562196Y-60790227D01*
X203565796Y-60814496D01*
X203567000Y-60839000D01*
X203567000Y-61589000D01*
X203565796Y-61613504D01*
X203562196Y-61637773D01*
X203556235Y-61661571D01*
X203547970Y-61684671D01*
X203537480Y-61706849D01*
X203524867Y-61727893D01*
X203510253Y-61747598D01*
X203493777Y-61765777D01*
X203475598Y-61782253D01*
X203455893Y-61796867D01*
X203434849Y-61809480D01*
X203412671Y-61819970D01*
X203389571Y-61828235D01*
X203365773Y-61834196D01*
X203341504Y-61837796D01*
X203317000Y-61839000D01*
X202067000Y-61839000D01*
X202042496Y-61837796D01*
X202018227Y-61834196D01*
X201994429Y-61828235D01*
X201971329Y-61819970D01*
X201949151Y-61809480D01*
X201928107Y-61796867D01*
X201908402Y-61782253D01*
X201890223Y-61765777D01*
X201873747Y-61747598D01*
X201859133Y-61727893D01*
X201846520Y-61706849D01*
X201836030Y-61684671D01*
X201827765Y-61661571D01*
X201821804Y-61637773D01*
X201818204Y-61613504D01*
X201817000Y-61589000D01*
X201817000Y-60839000D01*
X201818204Y-60814496D01*
X201821804Y-60790227D01*
X201827765Y-60766429D01*
X201836030Y-60743329D01*
X201846520Y-60721151D01*
X201859133Y-60700107D01*
X201873747Y-60680402D01*
X201890223Y-60662223D01*
X201908402Y-60645747D01*
X201928107Y-60631133D01*
X201949151Y-60618520D01*
X201971329Y-60608030D01*
X201994429Y-60599765D01*
X202018227Y-60593804D01*
X202042496Y-60590204D01*
X202067000Y-60589000D01*
X203317000Y-60589000D01*
X203341504Y-60590204D01*
G37*
G36*
X203341504Y-63390204D02*
G01*
X203365773Y-63393804D01*
X203389571Y-63399765D01*
X203412671Y-63408030D01*
X203434849Y-63418520D01*
X203455893Y-63431133D01*
X203475598Y-63445747D01*
X203493777Y-63462223D01*
X203510253Y-63480402D01*
X203524867Y-63500107D01*
X203537480Y-63521151D01*
X203547970Y-63543329D01*
X203556235Y-63566429D01*
X203562196Y-63590227D01*
X203565796Y-63614496D01*
X203567000Y-63639000D01*
X203567000Y-64389000D01*
X203565796Y-64413504D01*
X203562196Y-64437773D01*
X203556235Y-64461571D01*
X203547970Y-64484671D01*
X203537480Y-64506849D01*
X203524867Y-64527893D01*
X203510253Y-64547598D01*
X203493777Y-64565777D01*
X203475598Y-64582253D01*
X203455893Y-64596867D01*
X203434849Y-64609480D01*
X203412671Y-64619970D01*
X203389571Y-64628235D01*
X203365773Y-64634196D01*
X203341504Y-64637796D01*
X203317000Y-64639000D01*
X202067000Y-64639000D01*
X202042496Y-64637796D01*
X202018227Y-64634196D01*
X201994429Y-64628235D01*
X201971329Y-64619970D01*
X201949151Y-64609480D01*
X201928107Y-64596867D01*
X201908402Y-64582253D01*
X201890223Y-64565777D01*
X201873747Y-64547598D01*
X201859133Y-64527893D01*
X201846520Y-64506849D01*
X201836030Y-64484671D01*
X201827765Y-64461571D01*
X201821804Y-64437773D01*
X201818204Y-64413504D01*
X201817000Y-64389000D01*
X201817000Y-63639000D01*
X201818204Y-63614496D01*
X201821804Y-63590227D01*
X201827765Y-63566429D01*
X201836030Y-63543329D01*
X201846520Y-63521151D01*
X201859133Y-63500107D01*
X201873747Y-63480402D01*
X201890223Y-63462223D01*
X201908402Y-63445747D01*
X201928107Y-63431133D01*
X201949151Y-63418520D01*
X201971329Y-63408030D01*
X201994429Y-63399765D01*
X202018227Y-63393804D01*
X202042496Y-63390204D01*
X202067000Y-63389000D01*
X203317000Y-63389000D01*
X203341504Y-63390204D01*
G37*
G36*
X201055504Y-63384204D02*
G01*
X201079773Y-63387804D01*
X201103571Y-63393765D01*
X201126671Y-63402030D01*
X201148849Y-63412520D01*
X201169893Y-63425133D01*
X201189598Y-63439747D01*
X201207777Y-63456223D01*
X201224253Y-63474402D01*
X201238867Y-63494107D01*
X201251480Y-63515151D01*
X201261970Y-63537329D01*
X201270235Y-63560429D01*
X201276196Y-63584227D01*
X201279796Y-63608496D01*
X201281000Y-63633000D01*
X201281000Y-64383000D01*
X201279796Y-64407504D01*
X201276196Y-64431773D01*
X201270235Y-64455571D01*
X201261970Y-64478671D01*
X201251480Y-64500849D01*
X201238867Y-64521893D01*
X201224253Y-64541598D01*
X201207777Y-64559777D01*
X201189598Y-64576253D01*
X201169893Y-64590867D01*
X201148849Y-64603480D01*
X201126671Y-64613970D01*
X201103571Y-64622235D01*
X201079773Y-64628196D01*
X201055504Y-64631796D01*
X201031000Y-64633000D01*
X199781000Y-64633000D01*
X199756496Y-64631796D01*
X199732227Y-64628196D01*
X199708429Y-64622235D01*
X199685329Y-64613970D01*
X199663151Y-64603480D01*
X199642107Y-64590867D01*
X199622402Y-64576253D01*
X199604223Y-64559777D01*
X199587747Y-64541598D01*
X199573133Y-64521893D01*
X199560520Y-64500849D01*
X199550030Y-64478671D01*
X199541765Y-64455571D01*
X199535804Y-64431773D01*
X199532204Y-64407504D01*
X199531000Y-64383000D01*
X199531000Y-63633000D01*
X199532204Y-63608496D01*
X199535804Y-63584227D01*
X199541765Y-63560429D01*
X199550030Y-63537329D01*
X199560520Y-63515151D01*
X199573133Y-63494107D01*
X199587747Y-63474402D01*
X199604223Y-63456223D01*
X199622402Y-63439747D01*
X199642107Y-63425133D01*
X199663151Y-63412520D01*
X199685329Y-63402030D01*
X199708429Y-63393765D01*
X199732227Y-63387804D01*
X199756496Y-63384204D01*
X199781000Y-63383000D01*
X201031000Y-63383000D01*
X201055504Y-63384204D01*
G37*
G36*
X201055504Y-60584204D02*
G01*
X201079773Y-60587804D01*
X201103571Y-60593765D01*
X201126671Y-60602030D01*
X201148849Y-60612520D01*
X201169893Y-60625133D01*
X201189598Y-60639747D01*
X201207777Y-60656223D01*
X201224253Y-60674402D01*
X201238867Y-60694107D01*
X201251480Y-60715151D01*
X201261970Y-60737329D01*
X201270235Y-60760429D01*
X201276196Y-60784227D01*
X201279796Y-60808496D01*
X201281000Y-60833000D01*
X201281000Y-61583000D01*
X201279796Y-61607504D01*
X201276196Y-61631773D01*
X201270235Y-61655571D01*
X201261970Y-61678671D01*
X201251480Y-61700849D01*
X201238867Y-61721893D01*
X201224253Y-61741598D01*
X201207777Y-61759777D01*
X201189598Y-61776253D01*
X201169893Y-61790867D01*
X201148849Y-61803480D01*
X201126671Y-61813970D01*
X201103571Y-61822235D01*
X201079773Y-61828196D01*
X201055504Y-61831796D01*
X201031000Y-61833000D01*
X199781000Y-61833000D01*
X199756496Y-61831796D01*
X199732227Y-61828196D01*
X199708429Y-61822235D01*
X199685329Y-61813970D01*
X199663151Y-61803480D01*
X199642107Y-61790867D01*
X199622402Y-61776253D01*
X199604223Y-61759777D01*
X199587747Y-61741598D01*
X199573133Y-61721893D01*
X199560520Y-61700849D01*
X199550030Y-61678671D01*
X199541765Y-61655571D01*
X199535804Y-61631773D01*
X199532204Y-61607504D01*
X199531000Y-61583000D01*
X199531000Y-60833000D01*
X199532204Y-60808496D01*
X199535804Y-60784227D01*
X199541765Y-60760429D01*
X199550030Y-60737329D01*
X199560520Y-60715151D01*
X199573133Y-60694107D01*
X199587747Y-60674402D01*
X199604223Y-60656223D01*
X199622402Y-60639747D01*
X199642107Y-60625133D01*
X199663151Y-60612520D01*
X199685329Y-60602030D01*
X199708429Y-60593765D01*
X199732227Y-60587804D01*
X199756496Y-60584204D01*
X199781000Y-60583000D01*
X201031000Y-60583000D01*
X201055504Y-60584204D01*
G37*
G36*
X198769504Y-60587204D02*
G01*
X198793773Y-60590804D01*
X198817571Y-60596765D01*
X198840671Y-60605030D01*
X198862849Y-60615520D01*
X198883893Y-60628133D01*
X198903598Y-60642747D01*
X198921777Y-60659223D01*
X198938253Y-60677402D01*
X198952867Y-60697107D01*
X198965480Y-60718151D01*
X198975970Y-60740329D01*
X198984235Y-60763429D01*
X198990196Y-60787227D01*
X198993796Y-60811496D01*
X198995000Y-60836000D01*
X198995000Y-61586000D01*
X198993796Y-61610504D01*
X198990196Y-61634773D01*
X198984235Y-61658571D01*
X198975970Y-61681671D01*
X198965480Y-61703849D01*
X198952867Y-61724893D01*
X198938253Y-61744598D01*
X198921777Y-61762777D01*
X198903598Y-61779253D01*
X198883893Y-61793867D01*
X198862849Y-61806480D01*
X198840671Y-61816970D01*
X198817571Y-61825235D01*
X198793773Y-61831196D01*
X198769504Y-61834796D01*
X198745000Y-61836000D01*
X197495000Y-61836000D01*
X197470496Y-61834796D01*
X197446227Y-61831196D01*
X197422429Y-61825235D01*
X197399329Y-61816970D01*
X197377151Y-61806480D01*
X197356107Y-61793867D01*
X197336402Y-61779253D01*
X197318223Y-61762777D01*
X197301747Y-61744598D01*
X197287133Y-61724893D01*
X197274520Y-61703849D01*
X197264030Y-61681671D01*
X197255765Y-61658571D01*
X197249804Y-61634773D01*
X197246204Y-61610504D01*
X197245000Y-61586000D01*
X197245000Y-60836000D01*
X197246204Y-60811496D01*
X197249804Y-60787227D01*
X197255765Y-60763429D01*
X197264030Y-60740329D01*
X197274520Y-60718151D01*
X197287133Y-60697107D01*
X197301747Y-60677402D01*
X197318223Y-60659223D01*
X197336402Y-60642747D01*
X197356107Y-60628133D01*
X197377151Y-60615520D01*
X197399329Y-60605030D01*
X197422429Y-60596765D01*
X197446227Y-60590804D01*
X197470496Y-60587204D01*
X197495000Y-60586000D01*
X198745000Y-60586000D01*
X198769504Y-60587204D01*
G37*
G36*
X198769504Y-63387204D02*
G01*
X198793773Y-63390804D01*
X198817571Y-63396765D01*
X198840671Y-63405030D01*
X198862849Y-63415520D01*
X198883893Y-63428133D01*
X198903598Y-63442747D01*
X198921777Y-63459223D01*
X198938253Y-63477402D01*
X198952867Y-63497107D01*
X198965480Y-63518151D01*
X198975970Y-63540329D01*
X198984235Y-63563429D01*
X198990196Y-63587227D01*
X198993796Y-63611496D01*
X198995000Y-63636000D01*
X198995000Y-64386000D01*
X198993796Y-64410504D01*
X198990196Y-64434773D01*
X198984235Y-64458571D01*
X198975970Y-64481671D01*
X198965480Y-64503849D01*
X198952867Y-64524893D01*
X198938253Y-64544598D01*
X198921777Y-64562777D01*
X198903598Y-64579253D01*
X198883893Y-64593867D01*
X198862849Y-64606480D01*
X198840671Y-64616970D01*
X198817571Y-64625235D01*
X198793773Y-64631196D01*
X198769504Y-64634796D01*
X198745000Y-64636000D01*
X197495000Y-64636000D01*
X197470496Y-64634796D01*
X197446227Y-64631196D01*
X197422429Y-64625235D01*
X197399329Y-64616970D01*
X197377151Y-64606480D01*
X197356107Y-64593867D01*
X197336402Y-64579253D01*
X197318223Y-64562777D01*
X197301747Y-64544598D01*
X197287133Y-64524893D01*
X197274520Y-64503849D01*
X197264030Y-64481671D01*
X197255765Y-64458571D01*
X197249804Y-64434773D01*
X197246204Y-64410504D01*
X197245000Y-64386000D01*
X197245000Y-63636000D01*
X197246204Y-63611496D01*
X197249804Y-63587227D01*
X197255765Y-63563429D01*
X197264030Y-63540329D01*
X197274520Y-63518151D01*
X197287133Y-63497107D01*
X197301747Y-63477402D01*
X197318223Y-63459223D01*
X197336402Y-63442747D01*
X197356107Y-63428133D01*
X197377151Y-63415520D01*
X197399329Y-63405030D01*
X197422429Y-63396765D01*
X197446227Y-63390804D01*
X197470496Y-63387204D01*
X197495000Y-63386000D01*
X198745000Y-63386000D01*
X198769504Y-63387204D01*
G37*
D29*
X105029000Y-66421000D03*
X218313000Y-73914000D03*
X105029000Y-80772000D03*
X183515000Y-80645000D03*
M02*
