%FSLAX45Y45*%
G04 Gerber Fmt 4.5, Leading zero omitted, Abs format (unit mm)*
G04 Created by KiCad (PCBNEW (6.99.0-1603-g82820d4b1c)) date 2022-06-17 10:59:55*
%MOMM*%
%LPD*%
G01*
G04 APERTURE LIST*
%TA.AperFunction,Profile*%
%ADD10C,0.100000*%
%TD*%
%ADD11C,0.200000*%
G04 APERTURE END LIST*
D10*
X18669000Y-5803900D02*
X10083800Y-5803900D01*
X10083800Y-8343900D02*
X18669000Y-8343900D01*
X18669000Y-8343900D02*
X18669000Y-5803900D01*
X10083800Y-5803900D02*
X10083800Y-8343900D01*
D11*
X10326419Y-8642376D02*
X10326419Y-8442376D01*
X10326419Y-8442376D02*
X10374038Y-8442376D01*
X10374038Y-8442376D02*
X10402610Y-8451900D01*
X10402610Y-8451900D02*
X10421657Y-8470948D01*
X10421657Y-8470948D02*
X10431181Y-8489995D01*
X10431181Y-8489995D02*
X10440705Y-8528090D01*
X10440705Y-8528090D02*
X10440705Y-8556662D01*
X10440705Y-8556662D02*
X10431181Y-8594757D01*
X10431181Y-8594757D02*
X10421657Y-8613805D01*
X10421657Y-8613805D02*
X10402610Y-8632852D01*
X10402610Y-8632852D02*
X10374038Y-8642376D01*
X10374038Y-8642376D02*
X10326419Y-8642376D01*
X10526419Y-8642376D02*
X10526419Y-8509043D01*
X10526419Y-8547138D02*
X10535943Y-8528090D01*
X10535943Y-8528090D02*
X10545467Y-8518567D01*
X10545467Y-8518567D02*
X10564514Y-8509043D01*
X10564514Y-8509043D02*
X10583562Y-8509043D01*
X10650229Y-8642376D02*
X10650229Y-8509043D01*
X10650229Y-8442376D02*
X10640705Y-8451900D01*
X10640705Y-8451900D02*
X10650229Y-8461424D01*
X10650229Y-8461424D02*
X10659752Y-8451900D01*
X10659752Y-8451900D02*
X10650229Y-8442376D01*
X10650229Y-8442376D02*
X10650229Y-8461424D01*
X10774038Y-8642376D02*
X10754990Y-8632852D01*
X10754990Y-8632852D02*
X10745467Y-8613805D01*
X10745467Y-8613805D02*
X10745467Y-8442376D01*
X10878800Y-8642376D02*
X10859752Y-8632852D01*
X10859752Y-8632852D02*
X10850229Y-8613805D01*
X10850229Y-8613805D02*
X10850229Y-8442376D01*
X11074990Y-8642376D02*
X11074990Y-8442376D01*
X11074990Y-8442376D02*
X11141657Y-8585233D01*
X11141657Y-8585233D02*
X11208324Y-8442376D01*
X11208324Y-8442376D02*
X11208324Y-8642376D01*
X11389276Y-8642376D02*
X11389276Y-8537614D01*
X11389276Y-8537614D02*
X11379752Y-8518567D01*
X11379752Y-8518567D02*
X11360705Y-8509043D01*
X11360705Y-8509043D02*
X11322609Y-8509043D01*
X11322609Y-8509043D02*
X11303562Y-8518567D01*
X11389276Y-8632852D02*
X11370228Y-8642376D01*
X11370228Y-8642376D02*
X11322609Y-8642376D01*
X11322609Y-8642376D02*
X11303562Y-8632852D01*
X11303562Y-8632852D02*
X11294038Y-8613805D01*
X11294038Y-8613805D02*
X11294038Y-8594757D01*
X11294038Y-8594757D02*
X11303562Y-8575710D01*
X11303562Y-8575710D02*
X11322609Y-8566186D01*
X11322609Y-8566186D02*
X11370228Y-8566186D01*
X11370228Y-8566186D02*
X11389276Y-8556662D01*
X11484514Y-8509043D02*
X11484514Y-8709043D01*
X11484514Y-8518567D02*
X11503562Y-8509043D01*
X11503562Y-8509043D02*
X11541657Y-8509043D01*
X11541657Y-8509043D02*
X11560705Y-8518567D01*
X11560705Y-8518567D02*
X11570228Y-8528090D01*
X11570228Y-8528090D02*
X11579752Y-8547138D01*
X11579752Y-8547138D02*
X11579752Y-8604281D01*
X11579752Y-8604281D02*
X11570228Y-8623329D01*
X11570228Y-8623329D02*
X11560705Y-8632852D01*
X11560705Y-8632852D02*
X11541657Y-8642376D01*
X11541657Y-8642376D02*
X11503562Y-8642376D01*
X11503562Y-8642376D02*
X11484514Y-8632852D01*
X11665467Y-8623329D02*
X11674990Y-8632852D01*
X11674990Y-8632852D02*
X11665467Y-8642376D01*
X11665467Y-8642376D02*
X11655943Y-8632852D01*
X11655943Y-8632852D02*
X11665467Y-8623329D01*
X11665467Y-8623329D02*
X11665467Y-8642376D01*
X11665467Y-8518567D02*
X11674990Y-8528090D01*
X11674990Y-8528090D02*
X11665467Y-8537614D01*
X11665467Y-8537614D02*
X11655943Y-8528090D01*
X11655943Y-8528090D02*
X11665467Y-8518567D01*
X11665467Y-8518567D02*
X11665467Y-8537614D01*
M02*
