G04 #@! TF.GenerationSoftware,KiCad,Pcbnew,(6.99.0-3780-g6ddc5c1a6e)*
G04 #@! TF.CreationDate,2022-10-12T10:17:30+02:00*
G04 #@! TF.ProjectId,BalthazarPSU3,42616c74-6861-47a6-9172-505355332e6b,v02*
G04 #@! TF.SameCoordinates,Original*
G04 #@! TF.FileFunction,Legend,Bot*
G04 #@! TF.FilePolarity,Positive*
%FSLAX46Y46*%
G04 Gerber Fmt 4.6, Leading zero omitted, Abs format (unit mm)*
G04 Created by KiCad (PCBNEW (6.99.0-3780-g6ddc5c1a6e)) date 2022-10-12 10:17:30*
%MOMM*%
%LPD*%
G01*
G04 APERTURE LIST*
%ADD10C,0.100000*%
%ADD11C,0.120000*%
G04 APERTURE END LIST*
D10*
X165149047Y-69543690D02*
X165149047Y-69043690D01*
X165149047Y-69043690D02*
X165029999Y-69043690D01*
X165029999Y-69043690D02*
X164958571Y-69067500D01*
X164958571Y-69067500D02*
X164910952Y-69115119D01*
X164910952Y-69115119D02*
X164887142Y-69162738D01*
X164887142Y-69162738D02*
X164863333Y-69257976D01*
X164863333Y-69257976D02*
X164863333Y-69329404D01*
X164863333Y-69329404D02*
X164887142Y-69424642D01*
X164887142Y-69424642D02*
X164910952Y-69472261D01*
X164910952Y-69472261D02*
X164958571Y-69519880D01*
X164958571Y-69519880D02*
X165029999Y-69543690D01*
X165029999Y-69543690D02*
X165149047Y-69543690D01*
X164434761Y-69210357D02*
X164434761Y-69543690D01*
X164553809Y-69019880D02*
X164672856Y-69377023D01*
X164672856Y-69377023D02*
X164363333Y-69377023D01*
X157091428Y-72543690D02*
X157258094Y-72305595D01*
X157377142Y-72543690D02*
X157377142Y-72043690D01*
X157377142Y-72043690D02*
X157186666Y-72043690D01*
X157186666Y-72043690D02*
X157139047Y-72067500D01*
X157139047Y-72067500D02*
X157115237Y-72091309D01*
X157115237Y-72091309D02*
X157091428Y-72138928D01*
X157091428Y-72138928D02*
X157091428Y-72210357D01*
X157091428Y-72210357D02*
X157115237Y-72257976D01*
X157115237Y-72257976D02*
X157139047Y-72281785D01*
X157139047Y-72281785D02*
X157186666Y-72305595D01*
X157186666Y-72305595D02*
X157377142Y-72305595D01*
X156900951Y-72091309D02*
X156877142Y-72067500D01*
X156877142Y-72067500D02*
X156829523Y-72043690D01*
X156829523Y-72043690D02*
X156710475Y-72043690D01*
X156710475Y-72043690D02*
X156662856Y-72067500D01*
X156662856Y-72067500D02*
X156639047Y-72091309D01*
X156639047Y-72091309D02*
X156615237Y-72138928D01*
X156615237Y-72138928D02*
X156615237Y-72186547D01*
X156615237Y-72186547D02*
X156639047Y-72257976D01*
X156639047Y-72257976D02*
X156924761Y-72543690D01*
X156924761Y-72543690D02*
X156615237Y-72543690D01*
X156139047Y-72543690D02*
X156424761Y-72543690D01*
X156281904Y-72543690D02*
X156281904Y-72043690D01*
X156281904Y-72043690D02*
X156329523Y-72115119D01*
X156329523Y-72115119D02*
X156377142Y-72162738D01*
X156377142Y-72162738D02*
X156424761Y-72186547D01*
X158893690Y-68708571D02*
X158655595Y-68541905D01*
X158893690Y-68422857D02*
X158393690Y-68422857D01*
X158393690Y-68422857D02*
X158393690Y-68613333D01*
X158393690Y-68613333D02*
X158417500Y-68660952D01*
X158417500Y-68660952D02*
X158441309Y-68684762D01*
X158441309Y-68684762D02*
X158488928Y-68708571D01*
X158488928Y-68708571D02*
X158560357Y-68708571D01*
X158560357Y-68708571D02*
X158607976Y-68684762D01*
X158607976Y-68684762D02*
X158631785Y-68660952D01*
X158631785Y-68660952D02*
X158655595Y-68613333D01*
X158655595Y-68613333D02*
X158655595Y-68422857D01*
X158441309Y-68899048D02*
X158417500Y-68922857D01*
X158417500Y-68922857D02*
X158393690Y-68970476D01*
X158393690Y-68970476D02*
X158393690Y-69089524D01*
X158393690Y-69089524D02*
X158417500Y-69137143D01*
X158417500Y-69137143D02*
X158441309Y-69160952D01*
X158441309Y-69160952D02*
X158488928Y-69184762D01*
X158488928Y-69184762D02*
X158536547Y-69184762D01*
X158536547Y-69184762D02*
X158607976Y-69160952D01*
X158607976Y-69160952D02*
X158893690Y-68875238D01*
X158893690Y-68875238D02*
X158893690Y-69184762D01*
X158393690Y-69351428D02*
X158393690Y-69660952D01*
X158393690Y-69660952D02*
X158584166Y-69494285D01*
X158584166Y-69494285D02*
X158584166Y-69565714D01*
X158584166Y-69565714D02*
X158607976Y-69613333D01*
X158607976Y-69613333D02*
X158631785Y-69637142D01*
X158631785Y-69637142D02*
X158679404Y-69660952D01*
X158679404Y-69660952D02*
X158798452Y-69660952D01*
X158798452Y-69660952D02*
X158846071Y-69637142D01*
X158846071Y-69637142D02*
X158869880Y-69613333D01*
X158869880Y-69613333D02*
X158893690Y-69565714D01*
X158893690Y-69565714D02*
X158893690Y-69422857D01*
X158893690Y-69422857D02*
X158869880Y-69375238D01*
X158869880Y-69375238D02*
X158846071Y-69351428D01*
X135082380Y-63553690D02*
X135249046Y-63315595D01*
X135368094Y-63553690D02*
X135368094Y-63053690D01*
X135368094Y-63053690D02*
X135177618Y-63053690D01*
X135177618Y-63053690D02*
X135129999Y-63077500D01*
X135129999Y-63077500D02*
X135106189Y-63101309D01*
X135106189Y-63101309D02*
X135082380Y-63148928D01*
X135082380Y-63148928D02*
X135082380Y-63220357D01*
X135082380Y-63220357D02*
X135106189Y-63267976D01*
X135106189Y-63267976D02*
X135129999Y-63291785D01*
X135129999Y-63291785D02*
X135177618Y-63315595D01*
X135177618Y-63315595D02*
X135368094Y-63315595D01*
X134701427Y-63291785D02*
X134629999Y-63315595D01*
X134629999Y-63315595D02*
X134606189Y-63339404D01*
X134606189Y-63339404D02*
X134582380Y-63387023D01*
X134582380Y-63387023D02*
X134582380Y-63458452D01*
X134582380Y-63458452D02*
X134606189Y-63506071D01*
X134606189Y-63506071D02*
X134629999Y-63529880D01*
X134629999Y-63529880D02*
X134677618Y-63553690D01*
X134677618Y-63553690D02*
X134868094Y-63553690D01*
X134868094Y-63553690D02*
X134868094Y-63053690D01*
X134868094Y-63053690D02*
X134701427Y-63053690D01*
X134701427Y-63053690D02*
X134653808Y-63077500D01*
X134653808Y-63077500D02*
X134629999Y-63101309D01*
X134629999Y-63101309D02*
X134606189Y-63148928D01*
X134606189Y-63148928D02*
X134606189Y-63196547D01*
X134606189Y-63196547D02*
X134629999Y-63244166D01*
X134629999Y-63244166D02*
X134653808Y-63267976D01*
X134653808Y-63267976D02*
X134701427Y-63291785D01*
X134701427Y-63291785D02*
X134868094Y-63291785D01*
X134439522Y-63053690D02*
X134153808Y-63053690D01*
X134296665Y-63553690D02*
X134296665Y-63053690D01*
X134010951Y-63529880D02*
X133939523Y-63553690D01*
X133939523Y-63553690D02*
X133820475Y-63553690D01*
X133820475Y-63553690D02*
X133772856Y-63529880D01*
X133772856Y-63529880D02*
X133749047Y-63506071D01*
X133749047Y-63506071D02*
X133725237Y-63458452D01*
X133725237Y-63458452D02*
X133725237Y-63410833D01*
X133725237Y-63410833D02*
X133749047Y-63363214D01*
X133749047Y-63363214D02*
X133772856Y-63339404D01*
X133772856Y-63339404D02*
X133820475Y-63315595D01*
X133820475Y-63315595D02*
X133915713Y-63291785D01*
X133915713Y-63291785D02*
X133963332Y-63267976D01*
X133963332Y-63267976D02*
X133987142Y-63244166D01*
X133987142Y-63244166D02*
X134010951Y-63196547D01*
X134010951Y-63196547D02*
X134010951Y-63148928D01*
X134010951Y-63148928D02*
X133987142Y-63101309D01*
X133987142Y-63101309D02*
X133963332Y-63077500D01*
X133963332Y-63077500D02*
X133915713Y-63053690D01*
X133915713Y-63053690D02*
X133796666Y-63053690D01*
X133796666Y-63053690D02*
X133725237Y-63077500D01*
X133582380Y-63053690D02*
X133296666Y-63053690D01*
X133439523Y-63553690D02*
X133439523Y-63053690D01*
X132868095Y-63553690D02*
X133153809Y-63553690D01*
X133010952Y-63553690D02*
X133010952Y-63053690D01*
X133010952Y-63053690D02*
X133058571Y-63125119D01*
X133058571Y-63125119D02*
X133106190Y-63172738D01*
X133106190Y-63172738D02*
X133153809Y-63196547D01*
X130856071Y-64522381D02*
X130879880Y-64498572D01*
X130879880Y-64498572D02*
X130903690Y-64427143D01*
X130903690Y-64427143D02*
X130903690Y-64379524D01*
X130903690Y-64379524D02*
X130879880Y-64308096D01*
X130879880Y-64308096D02*
X130832261Y-64260477D01*
X130832261Y-64260477D02*
X130784642Y-64236667D01*
X130784642Y-64236667D02*
X130689404Y-64212858D01*
X130689404Y-64212858D02*
X130617976Y-64212858D01*
X130617976Y-64212858D02*
X130522738Y-64236667D01*
X130522738Y-64236667D02*
X130475119Y-64260477D01*
X130475119Y-64260477D02*
X130427500Y-64308096D01*
X130427500Y-64308096D02*
X130403690Y-64379524D01*
X130403690Y-64379524D02*
X130403690Y-64427143D01*
X130403690Y-64427143D02*
X130427500Y-64498572D01*
X130427500Y-64498572D02*
X130451309Y-64522381D01*
X130641785Y-64903334D02*
X130665595Y-64974762D01*
X130665595Y-64974762D02*
X130689404Y-64998572D01*
X130689404Y-64998572D02*
X130737023Y-65022381D01*
X130737023Y-65022381D02*
X130808452Y-65022381D01*
X130808452Y-65022381D02*
X130856071Y-64998572D01*
X130856071Y-64998572D02*
X130879880Y-64974762D01*
X130879880Y-64974762D02*
X130903690Y-64927143D01*
X130903690Y-64927143D02*
X130903690Y-64736667D01*
X130903690Y-64736667D02*
X130403690Y-64736667D01*
X130403690Y-64736667D02*
X130403690Y-64903334D01*
X130403690Y-64903334D02*
X130427500Y-64950953D01*
X130427500Y-64950953D02*
X130451309Y-64974762D01*
X130451309Y-64974762D02*
X130498928Y-64998572D01*
X130498928Y-64998572D02*
X130546547Y-64998572D01*
X130546547Y-64998572D02*
X130594166Y-64974762D01*
X130594166Y-64974762D02*
X130617976Y-64950953D01*
X130617976Y-64950953D02*
X130641785Y-64903334D01*
X130641785Y-64903334D02*
X130641785Y-64736667D01*
X130403690Y-65236667D02*
X130808452Y-65236667D01*
X130808452Y-65236667D02*
X130856071Y-65260477D01*
X130856071Y-65260477D02*
X130879880Y-65284286D01*
X130879880Y-65284286D02*
X130903690Y-65331905D01*
X130903690Y-65331905D02*
X130903690Y-65427143D01*
X130903690Y-65427143D02*
X130879880Y-65474762D01*
X130879880Y-65474762D02*
X130856071Y-65498572D01*
X130856071Y-65498572D02*
X130808452Y-65522381D01*
X130808452Y-65522381D02*
X130403690Y-65522381D01*
X130879880Y-65736668D02*
X130903690Y-65808096D01*
X130903690Y-65808096D02*
X130903690Y-65927144D01*
X130903690Y-65927144D02*
X130879880Y-65974763D01*
X130879880Y-65974763D02*
X130856071Y-65998572D01*
X130856071Y-65998572D02*
X130808452Y-66022382D01*
X130808452Y-66022382D02*
X130760833Y-66022382D01*
X130760833Y-66022382D02*
X130713214Y-65998572D01*
X130713214Y-65998572D02*
X130689404Y-65974763D01*
X130689404Y-65974763D02*
X130665595Y-65927144D01*
X130665595Y-65927144D02*
X130641785Y-65831906D01*
X130641785Y-65831906D02*
X130617976Y-65784287D01*
X130617976Y-65784287D02*
X130594166Y-65760477D01*
X130594166Y-65760477D02*
X130546547Y-65736668D01*
X130546547Y-65736668D02*
X130498928Y-65736668D01*
X130498928Y-65736668D02*
X130451309Y-65760477D01*
X130451309Y-65760477D02*
X130427500Y-65784287D01*
X130427500Y-65784287D02*
X130403690Y-65831906D01*
X130403690Y-65831906D02*
X130403690Y-65950953D01*
X130403690Y-65950953D02*
X130427500Y-66022382D01*
X130403690Y-66189048D02*
X130403690Y-66498572D01*
X130403690Y-66498572D02*
X130594166Y-66331905D01*
X130594166Y-66331905D02*
X130594166Y-66403334D01*
X130594166Y-66403334D02*
X130617976Y-66450953D01*
X130617976Y-66450953D02*
X130641785Y-66474762D01*
X130641785Y-66474762D02*
X130689404Y-66498572D01*
X130689404Y-66498572D02*
X130808452Y-66498572D01*
X130808452Y-66498572D02*
X130856071Y-66474762D01*
X130856071Y-66474762D02*
X130879880Y-66450953D01*
X130879880Y-66450953D02*
X130903690Y-66403334D01*
X130903690Y-66403334D02*
X130903690Y-66260477D01*
X130903690Y-66260477D02*
X130879880Y-66212858D01*
X130879880Y-66212858D02*
X130856071Y-66189048D01*
X130903690Y-66927143D02*
X130641785Y-66927143D01*
X130641785Y-66927143D02*
X130594166Y-66903333D01*
X130594166Y-66903333D02*
X130570357Y-66855714D01*
X130570357Y-66855714D02*
X130570357Y-66760476D01*
X130570357Y-66760476D02*
X130594166Y-66712857D01*
X130879880Y-66927143D02*
X130903690Y-66879524D01*
X130903690Y-66879524D02*
X130903690Y-66760476D01*
X130903690Y-66760476D02*
X130879880Y-66712857D01*
X130879880Y-66712857D02*
X130832261Y-66689048D01*
X130832261Y-66689048D02*
X130784642Y-66689048D01*
X130784642Y-66689048D02*
X130737023Y-66712857D01*
X130737023Y-66712857D02*
X130713214Y-66760476D01*
X130713214Y-66760476D02*
X130713214Y-66879524D01*
X130713214Y-66879524D02*
X130689404Y-66927143D01*
X130903690Y-67427143D02*
X130903690Y-67141429D01*
X130903690Y-67284286D02*
X130403690Y-67284286D01*
X130403690Y-67284286D02*
X130475119Y-67236667D01*
X130475119Y-67236667D02*
X130522738Y-67189048D01*
X130522738Y-67189048D02*
X130546547Y-67141429D01*
X158957618Y-65746071D02*
X158981427Y-65769880D01*
X158981427Y-65769880D02*
X159052856Y-65793690D01*
X159052856Y-65793690D02*
X159100475Y-65793690D01*
X159100475Y-65793690D02*
X159171903Y-65769880D01*
X159171903Y-65769880D02*
X159219522Y-65722261D01*
X159219522Y-65722261D02*
X159243332Y-65674642D01*
X159243332Y-65674642D02*
X159267141Y-65579404D01*
X159267141Y-65579404D02*
X159267141Y-65507976D01*
X159267141Y-65507976D02*
X159243332Y-65412738D01*
X159243332Y-65412738D02*
X159219522Y-65365119D01*
X159219522Y-65365119D02*
X159171903Y-65317500D01*
X159171903Y-65317500D02*
X159100475Y-65293690D01*
X159100475Y-65293690D02*
X159052856Y-65293690D01*
X159052856Y-65293690D02*
X158981427Y-65317500D01*
X158981427Y-65317500D02*
X158957618Y-65341309D01*
X158576665Y-65531785D02*
X158505237Y-65555595D01*
X158505237Y-65555595D02*
X158481427Y-65579404D01*
X158481427Y-65579404D02*
X158457618Y-65627023D01*
X158457618Y-65627023D02*
X158457618Y-65698452D01*
X158457618Y-65698452D02*
X158481427Y-65746071D01*
X158481427Y-65746071D02*
X158505237Y-65769880D01*
X158505237Y-65769880D02*
X158552856Y-65793690D01*
X158552856Y-65793690D02*
X158743332Y-65793690D01*
X158743332Y-65793690D02*
X158743332Y-65293690D01*
X158743332Y-65293690D02*
X158576665Y-65293690D01*
X158576665Y-65293690D02*
X158529046Y-65317500D01*
X158529046Y-65317500D02*
X158505237Y-65341309D01*
X158505237Y-65341309D02*
X158481427Y-65388928D01*
X158481427Y-65388928D02*
X158481427Y-65436547D01*
X158481427Y-65436547D02*
X158505237Y-65484166D01*
X158505237Y-65484166D02*
X158529046Y-65507976D01*
X158529046Y-65507976D02*
X158576665Y-65531785D01*
X158576665Y-65531785D02*
X158743332Y-65531785D01*
X158243332Y-65293690D02*
X158243332Y-65698452D01*
X158243332Y-65698452D02*
X158219522Y-65746071D01*
X158219522Y-65746071D02*
X158195713Y-65769880D01*
X158195713Y-65769880D02*
X158148094Y-65793690D01*
X158148094Y-65793690D02*
X158052856Y-65793690D01*
X158052856Y-65793690D02*
X158005237Y-65769880D01*
X158005237Y-65769880D02*
X157981427Y-65746071D01*
X157981427Y-65746071D02*
X157957618Y-65698452D01*
X157957618Y-65698452D02*
X157957618Y-65293690D01*
X157743331Y-65769880D02*
X157671903Y-65793690D01*
X157671903Y-65793690D02*
X157552855Y-65793690D01*
X157552855Y-65793690D02*
X157505236Y-65769880D01*
X157505236Y-65769880D02*
X157481427Y-65746071D01*
X157481427Y-65746071D02*
X157457617Y-65698452D01*
X157457617Y-65698452D02*
X157457617Y-65650833D01*
X157457617Y-65650833D02*
X157481427Y-65603214D01*
X157481427Y-65603214D02*
X157505236Y-65579404D01*
X157505236Y-65579404D02*
X157552855Y-65555595D01*
X157552855Y-65555595D02*
X157648093Y-65531785D01*
X157648093Y-65531785D02*
X157695712Y-65507976D01*
X157695712Y-65507976D02*
X157719522Y-65484166D01*
X157719522Y-65484166D02*
X157743331Y-65436547D01*
X157743331Y-65436547D02*
X157743331Y-65388928D01*
X157743331Y-65388928D02*
X157719522Y-65341309D01*
X157719522Y-65341309D02*
X157695712Y-65317500D01*
X157695712Y-65317500D02*
X157648093Y-65293690D01*
X157648093Y-65293690D02*
X157529046Y-65293690D01*
X157529046Y-65293690D02*
X157457617Y-65317500D01*
X157290951Y-65293690D02*
X156981427Y-65293690D01*
X156981427Y-65293690D02*
X157148094Y-65484166D01*
X157148094Y-65484166D02*
X157076665Y-65484166D01*
X157076665Y-65484166D02*
X157029046Y-65507976D01*
X157029046Y-65507976D02*
X157005237Y-65531785D01*
X157005237Y-65531785D02*
X156981427Y-65579404D01*
X156981427Y-65579404D02*
X156981427Y-65698452D01*
X156981427Y-65698452D02*
X157005237Y-65746071D01*
X157005237Y-65746071D02*
X157029046Y-65769880D01*
X157029046Y-65769880D02*
X157076665Y-65793690D01*
X157076665Y-65793690D02*
X157219522Y-65793690D01*
X157219522Y-65793690D02*
X157267141Y-65769880D01*
X157267141Y-65769880D02*
X157290951Y-65746071D01*
X156552856Y-65793690D02*
X156552856Y-65531785D01*
X156552856Y-65531785D02*
X156576666Y-65484166D01*
X156576666Y-65484166D02*
X156624285Y-65460357D01*
X156624285Y-65460357D02*
X156719523Y-65460357D01*
X156719523Y-65460357D02*
X156767142Y-65484166D01*
X156552856Y-65769880D02*
X156600475Y-65793690D01*
X156600475Y-65793690D02*
X156719523Y-65793690D01*
X156719523Y-65793690D02*
X156767142Y-65769880D01*
X156767142Y-65769880D02*
X156790951Y-65722261D01*
X156790951Y-65722261D02*
X156790951Y-65674642D01*
X156790951Y-65674642D02*
X156767142Y-65627023D01*
X156767142Y-65627023D02*
X156719523Y-65603214D01*
X156719523Y-65603214D02*
X156600475Y-65603214D01*
X156600475Y-65603214D02*
X156552856Y-65579404D01*
X156338570Y-65341309D02*
X156314761Y-65317500D01*
X156314761Y-65317500D02*
X156267142Y-65293690D01*
X156267142Y-65293690D02*
X156148094Y-65293690D01*
X156148094Y-65293690D02*
X156100475Y-65317500D01*
X156100475Y-65317500D02*
X156076666Y-65341309D01*
X156076666Y-65341309D02*
X156052856Y-65388928D01*
X156052856Y-65388928D02*
X156052856Y-65436547D01*
X156052856Y-65436547D02*
X156076666Y-65507976D01*
X156076666Y-65507976D02*
X156362380Y-65793690D01*
X156362380Y-65793690D02*
X156052856Y-65793690D01*
X135726071Y-64407619D02*
X135749880Y-64383810D01*
X135749880Y-64383810D02*
X135773690Y-64312381D01*
X135773690Y-64312381D02*
X135773690Y-64264762D01*
X135773690Y-64264762D02*
X135749880Y-64193334D01*
X135749880Y-64193334D02*
X135702261Y-64145715D01*
X135702261Y-64145715D02*
X135654642Y-64121905D01*
X135654642Y-64121905D02*
X135559404Y-64098096D01*
X135559404Y-64098096D02*
X135487976Y-64098096D01*
X135487976Y-64098096D02*
X135392738Y-64121905D01*
X135392738Y-64121905D02*
X135345119Y-64145715D01*
X135345119Y-64145715D02*
X135297500Y-64193334D01*
X135297500Y-64193334D02*
X135273690Y-64264762D01*
X135273690Y-64264762D02*
X135273690Y-64312381D01*
X135273690Y-64312381D02*
X135297500Y-64383810D01*
X135297500Y-64383810D02*
X135321309Y-64407619D01*
X135773690Y-64621905D02*
X135273690Y-64621905D01*
X135273690Y-64621905D02*
X135273690Y-64812381D01*
X135273690Y-64812381D02*
X135297500Y-64860000D01*
X135297500Y-64860000D02*
X135321309Y-64883810D01*
X135321309Y-64883810D02*
X135368928Y-64907619D01*
X135368928Y-64907619D02*
X135440357Y-64907619D01*
X135440357Y-64907619D02*
X135487976Y-64883810D01*
X135487976Y-64883810D02*
X135511785Y-64860000D01*
X135511785Y-64860000D02*
X135535595Y-64812381D01*
X135535595Y-64812381D02*
X135535595Y-64621905D01*
X135773690Y-65121905D02*
X135273690Y-65121905D01*
X135273690Y-65121905D02*
X135630833Y-65288572D01*
X135630833Y-65288572D02*
X135273690Y-65455238D01*
X135273690Y-65455238D02*
X135773690Y-65455238D01*
X135773690Y-65693334D02*
X135273690Y-65693334D01*
X135773690Y-65931429D02*
X135273690Y-65931429D01*
X135273690Y-65931429D02*
X135273690Y-66050477D01*
X135273690Y-66050477D02*
X135297500Y-66121905D01*
X135297500Y-66121905D02*
X135345119Y-66169524D01*
X135345119Y-66169524D02*
X135392738Y-66193334D01*
X135392738Y-66193334D02*
X135487976Y-66217143D01*
X135487976Y-66217143D02*
X135559404Y-66217143D01*
X135559404Y-66217143D02*
X135654642Y-66193334D01*
X135654642Y-66193334D02*
X135702261Y-66169524D01*
X135702261Y-66169524D02*
X135749880Y-66121905D01*
X135749880Y-66121905D02*
X135773690Y-66050477D01*
X135773690Y-66050477D02*
X135773690Y-65931429D01*
X135773690Y-66693334D02*
X135773690Y-66407620D01*
X135773690Y-66550477D02*
X135273690Y-66550477D01*
X135273690Y-66550477D02*
X135345119Y-66502858D01*
X135345119Y-66502858D02*
X135392738Y-66455239D01*
X135392738Y-66455239D02*
X135416547Y-66407620D01*
X135773690Y-67121905D02*
X135511785Y-67121905D01*
X135511785Y-67121905D02*
X135464166Y-67098095D01*
X135464166Y-67098095D02*
X135440357Y-67050476D01*
X135440357Y-67050476D02*
X135440357Y-66955238D01*
X135440357Y-66955238D02*
X135464166Y-66907619D01*
X135749880Y-67121905D02*
X135773690Y-67074286D01*
X135773690Y-67074286D02*
X135773690Y-66955238D01*
X135773690Y-66955238D02*
X135749880Y-66907619D01*
X135749880Y-66907619D02*
X135702261Y-66883810D01*
X135702261Y-66883810D02*
X135654642Y-66883810D01*
X135654642Y-66883810D02*
X135607023Y-66907619D01*
X135607023Y-66907619D02*
X135583214Y-66955238D01*
X135583214Y-66955238D02*
X135583214Y-67074286D01*
X135583214Y-67074286D02*
X135559404Y-67121905D01*
X135773690Y-67621905D02*
X135773690Y-67336191D01*
X135773690Y-67479048D02*
X135273690Y-67479048D01*
X135273690Y-67479048D02*
X135345119Y-67431429D01*
X135345119Y-67431429D02*
X135392738Y-67383810D01*
X135392738Y-67383810D02*
X135416547Y-67336191D01*
X103801428Y-72563690D02*
X103968094Y-72325595D01*
X104087142Y-72563690D02*
X104087142Y-72063690D01*
X104087142Y-72063690D02*
X103896666Y-72063690D01*
X103896666Y-72063690D02*
X103849047Y-72087500D01*
X103849047Y-72087500D02*
X103825237Y-72111309D01*
X103825237Y-72111309D02*
X103801428Y-72158928D01*
X103801428Y-72158928D02*
X103801428Y-72230357D01*
X103801428Y-72230357D02*
X103825237Y-72277976D01*
X103825237Y-72277976D02*
X103849047Y-72301785D01*
X103849047Y-72301785D02*
X103896666Y-72325595D01*
X103896666Y-72325595D02*
X104087142Y-72325595D01*
X103325237Y-72563690D02*
X103610951Y-72563690D01*
X103468094Y-72563690D02*
X103468094Y-72063690D01*
X103468094Y-72063690D02*
X103515713Y-72135119D01*
X103515713Y-72135119D02*
X103563332Y-72182738D01*
X103563332Y-72182738D02*
X103610951Y-72206547D01*
X103087142Y-72563690D02*
X102991904Y-72563690D01*
X102991904Y-72563690D02*
X102944285Y-72539880D01*
X102944285Y-72539880D02*
X102920476Y-72516071D01*
X102920476Y-72516071D02*
X102872857Y-72444642D01*
X102872857Y-72444642D02*
X102849047Y-72349404D01*
X102849047Y-72349404D02*
X102849047Y-72158928D01*
X102849047Y-72158928D02*
X102872857Y-72111309D01*
X102872857Y-72111309D02*
X102896666Y-72087500D01*
X102896666Y-72087500D02*
X102944285Y-72063690D01*
X102944285Y-72063690D02*
X103039523Y-72063690D01*
X103039523Y-72063690D02*
X103087142Y-72087500D01*
X103087142Y-72087500D02*
X103110952Y-72111309D01*
X103110952Y-72111309D02*
X103134761Y-72158928D01*
X103134761Y-72158928D02*
X103134761Y-72277976D01*
X103134761Y-72277976D02*
X103110952Y-72325595D01*
X103110952Y-72325595D02*
X103087142Y-72349404D01*
X103087142Y-72349404D02*
X103039523Y-72373214D01*
X103039523Y-72373214D02*
X102944285Y-72373214D01*
X102944285Y-72373214D02*
X102896666Y-72349404D01*
X102896666Y-72349404D02*
X102872857Y-72325595D01*
X102872857Y-72325595D02*
X102849047Y-72277976D01*
X103821428Y-73233690D02*
X103988094Y-72995595D01*
X104107142Y-73233690D02*
X104107142Y-72733690D01*
X104107142Y-72733690D02*
X103916666Y-72733690D01*
X103916666Y-72733690D02*
X103869047Y-72757500D01*
X103869047Y-72757500D02*
X103845237Y-72781309D01*
X103845237Y-72781309D02*
X103821428Y-72828928D01*
X103821428Y-72828928D02*
X103821428Y-72900357D01*
X103821428Y-72900357D02*
X103845237Y-72947976D01*
X103845237Y-72947976D02*
X103869047Y-72971785D01*
X103869047Y-72971785D02*
X103916666Y-72995595D01*
X103916666Y-72995595D02*
X104107142Y-72995595D01*
X103630951Y-72781309D02*
X103607142Y-72757500D01*
X103607142Y-72757500D02*
X103559523Y-72733690D01*
X103559523Y-72733690D02*
X103440475Y-72733690D01*
X103440475Y-72733690D02*
X103392856Y-72757500D01*
X103392856Y-72757500D02*
X103369047Y-72781309D01*
X103369047Y-72781309D02*
X103345237Y-72828928D01*
X103345237Y-72828928D02*
X103345237Y-72876547D01*
X103345237Y-72876547D02*
X103369047Y-72947976D01*
X103369047Y-72947976D02*
X103654761Y-73233690D01*
X103654761Y-73233690D02*
X103345237Y-73233690D01*
X103059523Y-72947976D02*
X103107142Y-72924166D01*
X103107142Y-72924166D02*
X103130952Y-72900357D01*
X103130952Y-72900357D02*
X103154761Y-72852738D01*
X103154761Y-72852738D02*
X103154761Y-72828928D01*
X103154761Y-72828928D02*
X103130952Y-72781309D01*
X103130952Y-72781309D02*
X103107142Y-72757500D01*
X103107142Y-72757500D02*
X103059523Y-72733690D01*
X103059523Y-72733690D02*
X102964285Y-72733690D01*
X102964285Y-72733690D02*
X102916666Y-72757500D01*
X102916666Y-72757500D02*
X102892857Y-72781309D01*
X102892857Y-72781309D02*
X102869047Y-72828928D01*
X102869047Y-72828928D02*
X102869047Y-72852738D01*
X102869047Y-72852738D02*
X102892857Y-72900357D01*
X102892857Y-72900357D02*
X102916666Y-72924166D01*
X102916666Y-72924166D02*
X102964285Y-72947976D01*
X102964285Y-72947976D02*
X103059523Y-72947976D01*
X103059523Y-72947976D02*
X103107142Y-72971785D01*
X103107142Y-72971785D02*
X103130952Y-72995595D01*
X103130952Y-72995595D02*
X103154761Y-73043214D01*
X103154761Y-73043214D02*
X103154761Y-73138452D01*
X103154761Y-73138452D02*
X103130952Y-73186071D01*
X103130952Y-73186071D02*
X103107142Y-73209880D01*
X103107142Y-73209880D02*
X103059523Y-73233690D01*
X103059523Y-73233690D02*
X102964285Y-73233690D01*
X102964285Y-73233690D02*
X102916666Y-73209880D01*
X102916666Y-73209880D02*
X102892857Y-73186071D01*
X102892857Y-73186071D02*
X102869047Y-73138452D01*
X102869047Y-73138452D02*
X102869047Y-73043214D01*
X102869047Y-73043214D02*
X102892857Y-72995595D01*
X102892857Y-72995595D02*
X102916666Y-72971785D01*
X102916666Y-72971785D02*
X102964285Y-72947976D01*
X154341428Y-79406071D02*
X154365237Y-79429880D01*
X154365237Y-79429880D02*
X154436666Y-79453690D01*
X154436666Y-79453690D02*
X154484285Y-79453690D01*
X154484285Y-79453690D02*
X154555713Y-79429880D01*
X154555713Y-79429880D02*
X154603332Y-79382261D01*
X154603332Y-79382261D02*
X154627142Y-79334642D01*
X154627142Y-79334642D02*
X154650951Y-79239404D01*
X154650951Y-79239404D02*
X154650951Y-79167976D01*
X154650951Y-79167976D02*
X154627142Y-79072738D01*
X154627142Y-79072738D02*
X154603332Y-79025119D01*
X154603332Y-79025119D02*
X154555713Y-78977500D01*
X154555713Y-78977500D02*
X154484285Y-78953690D01*
X154484285Y-78953690D02*
X154436666Y-78953690D01*
X154436666Y-78953690D02*
X154365237Y-78977500D01*
X154365237Y-78977500D02*
X154341428Y-79001309D01*
X153865237Y-79453690D02*
X154150951Y-79453690D01*
X154008094Y-79453690D02*
X154008094Y-78953690D01*
X154008094Y-78953690D02*
X154055713Y-79025119D01*
X154055713Y-79025119D02*
X154103332Y-79072738D01*
X154103332Y-79072738D02*
X154150951Y-79096547D01*
X153674761Y-79001309D02*
X153650952Y-78977500D01*
X153650952Y-78977500D02*
X153603333Y-78953690D01*
X153603333Y-78953690D02*
X153484285Y-78953690D01*
X153484285Y-78953690D02*
X153436666Y-78977500D01*
X153436666Y-78977500D02*
X153412857Y-79001309D01*
X153412857Y-79001309D02*
X153389047Y-79048928D01*
X153389047Y-79048928D02*
X153389047Y-79096547D01*
X153389047Y-79096547D02*
X153412857Y-79167976D01*
X153412857Y-79167976D02*
X153698571Y-79453690D01*
X153698571Y-79453690D02*
X153389047Y-79453690D01*
D11*
X165226000Y-72001000D02*
X161341000Y-72001000D01*
X165226000Y-69731000D02*
X165226000Y-72001000D01*
X161341000Y-69731000D02*
X165226000Y-69731000D01*
X156363936Y-70258000D02*
X156818064Y-70258000D01*
X156363936Y-71728000D02*
X156818064Y-71728000D01*
X156363936Y-68226000D02*
X156818064Y-68226000D01*
X156363936Y-69696000D02*
X156818064Y-69696000D01*
X133527436Y-61241000D02*
X133981564Y-61241000D01*
X133527436Y-62711000D02*
X133981564Y-62711000D01*
X132815000Y-65499248D02*
X132815000Y-66021752D01*
X131345000Y-65499248D02*
X131345000Y-66021752D01*
X156390748Y-66194000D02*
X156913252Y-66194000D01*
X156390748Y-67664000D02*
X156913252Y-67664000D01*
X134847000Y-65499248D02*
X134847000Y-66021752D01*
X133377000Y-65499248D02*
X133377000Y-66021752D01*
X102896936Y-73560000D02*
X103351064Y-73560000D01*
X102896936Y-75030000D02*
X103351064Y-75030000D01*
X102896936Y-75465000D02*
X103351064Y-75465000D01*
X102896936Y-76935000D02*
X103351064Y-76935000D01*
X152773748Y-77116000D02*
X153296252Y-77116000D01*
X152773748Y-78586000D02*
X153296252Y-78586000D01*
M02*
