  0
SECTION
  2
HEADER
  9
$ANGBASE
  50
0.0
  9
$ANGDIR
  70
1
  9
$MEASUREMENT
  70
1
  0
ENDSEC
  0
SECTION
  2
TABLES
  0
TABLE
  2
LTYPE
  70
4
  0
LTYPE
  5
40F
  2
CONTINUOUS
  70
0
  3
Solid line
  72
65
  73
0
  40
0.0
  0
LTYPE
  5
410
  2
DASHDOT
 70
0
  3
Dash Dot ____ _ ____ _
 72
65
 73
4
 40
2.0
 49
1.25
 49
-0.25
 49
0.25
 49
-0.25
  0
LTYPE
  5
411
  2
DASHED
 70
0
  3
Dashed __ __ __ __ __
 72
65
 73
2
 40
0.75
 49
0.5
 49
-0.25
  0
LTYPE
  5
43B
  2
DOTTED
 70
0
  3
Dotted .  .  .  .
 72
65
 73
2
 40
0.2
 49
0.0
 49
-0.2
  0
ENDTAB
  0
TABLE
  2
STYLE
  70
4
  0
STYLE
  2
KICAD
  70
0
  40
0
  41
1
  42
1
  50
0
  71
0
  3
isocp.shx
  0
STYLE
  2
KICADB
  70
0
  40
0
  41
1
  42
1
  50
0
  71
0
  3
isocp.shx
  0
STYLE
  2
KICADI
  70
0
  40
0
  41
1
  42
1
  50
15
  71
0
  3
isocp.shx
  0
STYLE
  2
KICADBI
  70
0
  40
0
  41
1
  42
1
  50
15
  71
0
  3
isocp.shx
  0
ENDTAB
  0
TABLE
  2
LAYER
  70
1
  0
LAYER
  2
BLACK
  70
0
  62
7
  6
CONTINUOUS
  0
ENDTAB
  0
ENDSEC
  0
SECTION
  2
ENTITIES
0
LINE
8
BLACK
6
CONTINUOUS
10
186.69
20
-58.039
11
100.838
21
-58.039
0
LINE
8
BLACK
6
CONTINUOUS
10
100.838
20
-83.439
11
186.69
21
-83.439
0
LINE
8
BLACK
6
CONTINUOUS
10
186.69
20
-83.439
11
186.69
21
-58.039
0
LINE
8
BLACK
6
CONTINUOUS
10
100.838
20
-58.039
11
100.838
21
-83.439
0
LINE
8
BLACK
6
CONTINUOUS
10
103.264
20
-86.4238
11
103.264
21
-84.4238
0
LINE
8
BLACK
6
CONTINUOUS
10
103.264
20
-84.4238
11
103.74
21
-84.4238
0
LINE
8
BLACK
6
CONTINUOUS
10
103.74
20
-84.4238
11
104.026
21
-84.519
0
LINE
8
BLACK
6
CONTINUOUS
10
104.026
20
-84.519
11
104.217
21
-84.7095
0
LINE
8
BLACK
6
CONTINUOUS
10
104.217
20
-84.7095
11
104.312
21
-84.9
0
LINE
8
BLACK
6
CONTINUOUS
10
104.312
20
-84.9
11
104.407
21
-85.2809
0
LINE
8
BLACK
6
CONTINUOUS
10
104.407
20
-85.2809
11
104.407
21
-85.5666
0
LINE
8
BLACK
6
CONTINUOUS
10
104.407
20
-85.5666
11
104.312
21
-85.9476
0
LINE
8
BLACK
6
CONTINUOUS
10
104.312
20
-85.9476
11
104.217
21
-86.138
0
LINE
8
BLACK
6
CONTINUOUS
10
104.217
20
-86.138
11
104.026
21
-86.3285
0
LINE
8
BLACK
6
CONTINUOUS
10
104.026
20
-86.3285
11
103.74
21
-86.4238
0
LINE
8
BLACK
6
CONTINUOUS
10
103.74
20
-86.4238
11
103.264
21
-86.4238
0
LINE
8
BLACK
6
CONTINUOUS
10
105.264
20
-86.4238
11
105.264
21
-85.0904
0
LINE
8
BLACK
6
CONTINUOUS
10
105.264
20
-85.4714
11
105.359
21
-85.2809
0
LINE
8
BLACK
6
CONTINUOUS
10
105.359
20
-85.2809
11
105.455
21
-85.1857
0
LINE
8
BLACK
6
CONTINUOUS
10
105.455
20
-85.1857
11
105.645
21
-85.0904
0
LINE
8
BLACK
6
CONTINUOUS
10
105.645
20
-85.0904
11
105.836
21
-85.0904
0
LINE
8
BLACK
6
CONTINUOUS
10
106.502
20
-86.4238
11
106.502
21
-85.0904
0
LINE
8
BLACK
6
CONTINUOUS
10
106.502
20
-84.4238
11
106.407
21
-84.519
0
LINE
8
BLACK
6
CONTINUOUS
10
106.407
20
-84.519
11
106.502
21
-84.6142
0
LINE
8
BLACK
6
CONTINUOUS
10
106.502
20
-84.6142
11
106.598
21
-84.519
0
LINE
8
BLACK
6
CONTINUOUS
10
106.598
20
-84.519
11
106.502
21
-84.4238
0
LINE
8
BLACK
6
CONTINUOUS
10
106.502
20
-84.4238
11
106.502
21
-84.6142
0
LINE
8
BLACK
6
CONTINUOUS
10
107.74
20
-86.4238
11
107.55
21
-86.3285
0
LINE
8
BLACK
6
CONTINUOUS
10
107.55
20
-86.3285
11
107.455
21
-86.138
0
LINE
8
BLACK
6
CONTINUOUS
10
107.455
20
-86.138
11
107.455
21
-84.4238
0
LINE
8
BLACK
6
CONTINUOUS
10
108.788
20
-86.4238
11
108.598
21
-86.3285
0
LINE
8
BLACK
6
CONTINUOUS
10
108.598
20
-86.3285
11
108.502
21
-86.138
0
LINE
8
BLACK
6
CONTINUOUS
10
108.502
20
-86.138
11
108.502
21
-84.4238
0
LINE
8
BLACK
6
CONTINUOUS
10
110.75
20
-86.4238
11
110.75
21
-84.4238
0
LINE
8
BLACK
6
CONTINUOUS
10
110.75
20
-84.4238
11
111.417
21
-85.8523
0
LINE
8
BLACK
6
CONTINUOUS
10
111.417
20
-85.8523
11
112.083
21
-84.4238
0
LINE
8
BLACK
6
CONTINUOUS
10
112.083
20
-84.4238
11
112.083
21
-86.4238
0
LINE
8
BLACK
6
CONTINUOUS
10
113.893
20
-86.4238
11
113.893
21
-85.3761
0
LINE
8
BLACK
6
CONTINUOUS
10
113.893
20
-85.3761
11
113.798
21
-85.1857
0
LINE
8
BLACK
6
CONTINUOUS
10
113.798
20
-85.1857
11
113.607
21
-85.0904
0
LINE
8
BLACK
6
CONTINUOUS
10
113.607
20
-85.0904
11
113.226
21
-85.0904
0
LINE
8
BLACK
6
CONTINUOUS
10
113.226
20
-85.0904
11
113.036
21
-85.1857
0
LINE
8
BLACK
6
CONTINUOUS
10
113.893
20
-86.3285
11
113.702
21
-86.4238
0
LINE
8
BLACK
6
CONTINUOUS
10
113.702
20
-86.4238
11
113.226
21
-86.4238
0
LINE
8
BLACK
6
CONTINUOUS
10
113.226
20
-86.4238
11
113.036
21
-86.3285
0
LINE
8
BLACK
6
CONTINUOUS
10
113.036
20
-86.3285
11
112.94
21
-86.138
0
LINE
8
BLACK
6
CONTINUOUS
10
112.94
20
-86.138
11
112.94
21
-85.9476
0
LINE
8
BLACK
6
CONTINUOUS
10
112.94
20
-85.9476
11
113.036
21
-85.7571
0
LINE
8
BLACK
6
CONTINUOUS
10
113.036
20
-85.7571
11
113.226
21
-85.6619
0
LINE
8
BLACK
6
CONTINUOUS
10
113.226
20
-85.6619
11
113.702
21
-85.6619
0
LINE
8
BLACK
6
CONTINUOUS
10
113.702
20
-85.6619
11
113.893
21
-85.5666
0
LINE
8
BLACK
6
CONTINUOUS
10
114.845
20
-85.0904
11
114.845
21
-87.0904
0
LINE
8
BLACK
6
CONTINUOUS
10
114.845
20
-85.1857
11
115.036
21
-85.0904
0
LINE
8
BLACK
6
CONTINUOUS
10
115.036
20
-85.0904
11
115.417
21
-85.0904
0
LINE
8
BLACK
6
CONTINUOUS
10
115.417
20
-85.0904
11
115.607
21
-85.1857
0
LINE
8
BLACK
6
CONTINUOUS
10
115.607
20
-85.1857
11
115.702
21
-85.2809
0
LINE
8
BLACK
6
CONTINUOUS
10
115.702
20
-85.2809
11
115.798
21
-85.4714
0
LINE
8
BLACK
6
CONTINUOUS
10
115.798
20
-85.4714
11
115.798
21
-86.0428
0
LINE
8
BLACK
6
CONTINUOUS
10
115.798
20
-86.0428
11
115.702
21
-86.2333
0
LINE
8
BLACK
6
CONTINUOUS
10
115.702
20
-86.2333
11
115.607
21
-86.3285
0
LINE
8
BLACK
6
CONTINUOUS
10
115.607
20
-86.3285
11
115.417
21
-86.4238
0
LINE
8
BLACK
6
CONTINUOUS
10
115.417
20
-86.4238
11
115.036
21
-86.4238
0
LINE
8
BLACK
6
CONTINUOUS
10
115.036
20
-86.4238
11
114.845
21
-86.3285
0
LINE
8
BLACK
6
CONTINUOUS
10
116.655
20
-86.2333
11
116.75
21
-86.3285
0
LINE
8
BLACK
6
CONTINUOUS
10
116.75
20
-86.3285
11
116.655
21
-86.4238
0
LINE
8
BLACK
6
CONTINUOUS
10
116.655
20
-86.4238
11
116.559
21
-86.3285
0
LINE
8
BLACK
6
CONTINUOUS
10
116.559
20
-86.3285
11
116.655
21
-86.2333
0
LINE
8
BLACK
6
CONTINUOUS
10
116.655
20
-86.2333
11
116.655
21
-86.4238
0
LINE
8
BLACK
6
CONTINUOUS
10
116.655
20
-85.1857
11
116.75
21
-85.2809
0
LINE
8
BLACK
6
CONTINUOUS
10
116.75
20
-85.2809
11
116.655
21
-85.3761
0
LINE
8
BLACK
6
CONTINUOUS
10
116.655
20
-85.3761
11
116.559
21
-85.2809
0
LINE
8
BLACK
6
CONTINUOUS
10
116.559
20
-85.2809
11
116.655
21
-85.1857
0
LINE
8
BLACK
6
CONTINUOUS
10
116.655
20
-85.1857
11
116.655
21
-85.3761
  0
ENDSEC
  0
EOF
