G04 #@! TF.GenerationSoftware,KiCad,Pcbnew,(6.99.0-1603-g82820d4b1c)*
G04 #@! TF.CreationDate,2022-06-17T10:59:49+02:00*
G04 #@! TF.ProjectId,BalthazarPSU3,42616c74-6861-47a6-9172-505355332e6b,rev?*
G04 #@! TF.SameCoordinates,Original*
G04 #@! TF.FileFunction,Legend,Bot*
G04 #@! TF.FilePolarity,Positive*
%FSLAX46Y46*%
G04 Gerber Fmt 4.6, Leading zero omitted, Abs format (unit mm)*
G04 Created by KiCad (PCBNEW (6.99.0-1603-g82820d4b1c)) date 2022-06-17 10:59:49*
%MOMM*%
%LPD*%
G01*
G04 APERTURE LIST*
%ADD10C,0.150000*%
%ADD11C,0.120000*%
G04 APERTURE END LIST*
D10*
X163679094Y-69413380D02*
X163679094Y-68413380D01*
X163679094Y-68413380D02*
X163440999Y-68413380D01*
X163440999Y-68413380D02*
X163298142Y-68461000D01*
X163298142Y-68461000D02*
X163202904Y-68556238D01*
X163202904Y-68556238D02*
X163155285Y-68651476D01*
X163155285Y-68651476D02*
X163107666Y-68841952D01*
X163107666Y-68841952D02*
X163107666Y-68984809D01*
X163107666Y-68984809D02*
X163155285Y-69175285D01*
X163155285Y-69175285D02*
X163202904Y-69270523D01*
X163202904Y-69270523D02*
X163298142Y-69365761D01*
X163298142Y-69365761D02*
X163440999Y-69413380D01*
X163440999Y-69413380D02*
X163679094Y-69413380D01*
X162250523Y-68746714D02*
X162250523Y-69413380D01*
X162488618Y-68365761D02*
X162726713Y-69080047D01*
X162726713Y-69080047D02*
X162107666Y-69080047D01*
X157233857Y-73010380D02*
X157567190Y-72534190D01*
X157805285Y-73010380D02*
X157805285Y-72010380D01*
X157805285Y-72010380D02*
X157424333Y-72010380D01*
X157424333Y-72010380D02*
X157329095Y-72058000D01*
X157329095Y-72058000D02*
X157281476Y-72105619D01*
X157281476Y-72105619D02*
X157233857Y-72200857D01*
X157233857Y-72200857D02*
X157233857Y-72343714D01*
X157233857Y-72343714D02*
X157281476Y-72438952D01*
X157281476Y-72438952D02*
X157329095Y-72486571D01*
X157329095Y-72486571D02*
X157424333Y-72534190D01*
X157424333Y-72534190D02*
X157805285Y-72534190D01*
X156852904Y-72105619D02*
X156805285Y-72058000D01*
X156805285Y-72058000D02*
X156710047Y-72010380D01*
X156710047Y-72010380D02*
X156471952Y-72010380D01*
X156471952Y-72010380D02*
X156376714Y-72058000D01*
X156376714Y-72058000D02*
X156329095Y-72105619D01*
X156329095Y-72105619D02*
X156281476Y-72200857D01*
X156281476Y-72200857D02*
X156281476Y-72296095D01*
X156281476Y-72296095D02*
X156329095Y-72438952D01*
X156329095Y-72438952D02*
X156900523Y-73010380D01*
X156900523Y-73010380D02*
X156281476Y-73010380D01*
X155329095Y-73010380D02*
X155900523Y-73010380D01*
X155614809Y-73010380D02*
X155614809Y-72010380D01*
X155614809Y-72010380D02*
X155710047Y-72153238D01*
X155710047Y-72153238D02*
X155805285Y-72248476D01*
X155805285Y-72248476D02*
X155900523Y-72296095D01*
X157233857Y-70978380D02*
X157567190Y-70502190D01*
X157805285Y-70978380D02*
X157805285Y-69978380D01*
X157805285Y-69978380D02*
X157424333Y-69978380D01*
X157424333Y-69978380D02*
X157329095Y-70026000D01*
X157329095Y-70026000D02*
X157281476Y-70073619D01*
X157281476Y-70073619D02*
X157233857Y-70168857D01*
X157233857Y-70168857D02*
X157233857Y-70311714D01*
X157233857Y-70311714D02*
X157281476Y-70406952D01*
X157281476Y-70406952D02*
X157329095Y-70454571D01*
X157329095Y-70454571D02*
X157424333Y-70502190D01*
X157424333Y-70502190D02*
X157805285Y-70502190D01*
X156852904Y-70073619D02*
X156805285Y-70026000D01*
X156805285Y-70026000D02*
X156710047Y-69978380D01*
X156710047Y-69978380D02*
X156471952Y-69978380D01*
X156471952Y-69978380D02*
X156376714Y-70026000D01*
X156376714Y-70026000D02*
X156329095Y-70073619D01*
X156329095Y-70073619D02*
X156281476Y-70168857D01*
X156281476Y-70168857D02*
X156281476Y-70264095D01*
X156281476Y-70264095D02*
X156329095Y-70406952D01*
X156329095Y-70406952D02*
X156900523Y-70978380D01*
X156900523Y-70978380D02*
X156281476Y-70978380D01*
X155948142Y-69978380D02*
X155329095Y-69978380D01*
X155329095Y-69978380D02*
X155662428Y-70359333D01*
X155662428Y-70359333D02*
X155519571Y-70359333D01*
X155519571Y-70359333D02*
X155424333Y-70406952D01*
X155424333Y-70406952D02*
X155376714Y-70454571D01*
X155376714Y-70454571D02*
X155329095Y-70549809D01*
X155329095Y-70549809D02*
X155329095Y-70787904D01*
X155329095Y-70787904D02*
X155376714Y-70883142D01*
X155376714Y-70883142D02*
X155424333Y-70930761D01*
X155424333Y-70930761D02*
X155519571Y-70978380D01*
X155519571Y-70978380D02*
X155805285Y-70978380D01*
X155805285Y-70978380D02*
X155900523Y-70930761D01*
X155900523Y-70930761D02*
X155948142Y-70883142D01*
X135659262Y-63993380D02*
X135992595Y-63517190D01*
X136230690Y-63993380D02*
X136230690Y-62993380D01*
X136230690Y-62993380D02*
X135849738Y-62993380D01*
X135849738Y-62993380D02*
X135754500Y-63041000D01*
X135754500Y-63041000D02*
X135706881Y-63088619D01*
X135706881Y-63088619D02*
X135659262Y-63183857D01*
X135659262Y-63183857D02*
X135659262Y-63326714D01*
X135659262Y-63326714D02*
X135706881Y-63421952D01*
X135706881Y-63421952D02*
X135754500Y-63469571D01*
X135754500Y-63469571D02*
X135849738Y-63517190D01*
X135849738Y-63517190D02*
X136230690Y-63517190D01*
X134897357Y-63469571D02*
X134754500Y-63517190D01*
X134754500Y-63517190D02*
X134706881Y-63564809D01*
X134706881Y-63564809D02*
X134659262Y-63660047D01*
X134659262Y-63660047D02*
X134659262Y-63802904D01*
X134659262Y-63802904D02*
X134706881Y-63898142D01*
X134706881Y-63898142D02*
X134754500Y-63945761D01*
X134754500Y-63945761D02*
X134849738Y-63993380D01*
X134849738Y-63993380D02*
X135230690Y-63993380D01*
X135230690Y-63993380D02*
X135230690Y-62993380D01*
X135230690Y-62993380D02*
X134897357Y-62993380D01*
X134897357Y-62993380D02*
X134802119Y-63041000D01*
X134802119Y-63041000D02*
X134754500Y-63088619D01*
X134754500Y-63088619D02*
X134706881Y-63183857D01*
X134706881Y-63183857D02*
X134706881Y-63279095D01*
X134706881Y-63279095D02*
X134754500Y-63374333D01*
X134754500Y-63374333D02*
X134802119Y-63421952D01*
X134802119Y-63421952D02*
X134897357Y-63469571D01*
X134897357Y-63469571D02*
X135230690Y-63469571D01*
X134373547Y-62993380D02*
X133802119Y-62993380D01*
X134087833Y-63993380D02*
X134087833Y-62993380D01*
X133516404Y-63945761D02*
X133373547Y-63993380D01*
X133373547Y-63993380D02*
X133135452Y-63993380D01*
X133135452Y-63993380D02*
X133040214Y-63945761D01*
X133040214Y-63945761D02*
X132992595Y-63898142D01*
X132992595Y-63898142D02*
X132944976Y-63802904D01*
X132944976Y-63802904D02*
X132944976Y-63707666D01*
X132944976Y-63707666D02*
X132992595Y-63612428D01*
X132992595Y-63612428D02*
X133040214Y-63564809D01*
X133040214Y-63564809D02*
X133135452Y-63517190D01*
X133135452Y-63517190D02*
X133325928Y-63469571D01*
X133325928Y-63469571D02*
X133421166Y-63421952D01*
X133421166Y-63421952D02*
X133468785Y-63374333D01*
X133468785Y-63374333D02*
X133516404Y-63279095D01*
X133516404Y-63279095D02*
X133516404Y-63183857D01*
X133516404Y-63183857D02*
X133468785Y-63088619D01*
X133468785Y-63088619D02*
X133421166Y-63041000D01*
X133421166Y-63041000D02*
X133325928Y-62993380D01*
X133325928Y-62993380D02*
X133087833Y-62993380D01*
X133087833Y-62993380D02*
X132944976Y-63041000D01*
X132659261Y-62993380D02*
X132087833Y-62993380D01*
X132373547Y-63993380D02*
X132373547Y-62993380D01*
X131230690Y-63993380D02*
X131802118Y-63993380D01*
X131516404Y-63993380D02*
X131516404Y-62993380D01*
X131516404Y-62993380D02*
X131611642Y-63136238D01*
X131611642Y-63136238D02*
X131706880Y-63231476D01*
X131706880Y-63231476D02*
X131802118Y-63279095D01*
X130672142Y-63165261D02*
X130719761Y-63117642D01*
X130719761Y-63117642D02*
X130767380Y-62974785D01*
X130767380Y-62974785D02*
X130767380Y-62879547D01*
X130767380Y-62879547D02*
X130719761Y-62736690D01*
X130719761Y-62736690D02*
X130624523Y-62641452D01*
X130624523Y-62641452D02*
X130529285Y-62593833D01*
X130529285Y-62593833D02*
X130338809Y-62546214D01*
X130338809Y-62546214D02*
X130195952Y-62546214D01*
X130195952Y-62546214D02*
X130005476Y-62593833D01*
X130005476Y-62593833D02*
X129910238Y-62641452D01*
X129910238Y-62641452D02*
X129815000Y-62736690D01*
X129815000Y-62736690D02*
X129767380Y-62879547D01*
X129767380Y-62879547D02*
X129767380Y-62974785D01*
X129767380Y-62974785D02*
X129815000Y-63117642D01*
X129815000Y-63117642D02*
X129862619Y-63165261D01*
X130243571Y-63927166D02*
X130291190Y-64070023D01*
X130291190Y-64070023D02*
X130338809Y-64117642D01*
X130338809Y-64117642D02*
X130434047Y-64165261D01*
X130434047Y-64165261D02*
X130576904Y-64165261D01*
X130576904Y-64165261D02*
X130672142Y-64117642D01*
X130672142Y-64117642D02*
X130719761Y-64070023D01*
X130719761Y-64070023D02*
X130767380Y-63974785D01*
X130767380Y-63974785D02*
X130767380Y-63593833D01*
X130767380Y-63593833D02*
X129767380Y-63593833D01*
X129767380Y-63593833D02*
X129767380Y-63927166D01*
X129767380Y-63927166D02*
X129815000Y-64022404D01*
X129815000Y-64022404D02*
X129862619Y-64070023D01*
X129862619Y-64070023D02*
X129957857Y-64117642D01*
X129957857Y-64117642D02*
X130053095Y-64117642D01*
X130053095Y-64117642D02*
X130148333Y-64070023D01*
X130148333Y-64070023D02*
X130195952Y-64022404D01*
X130195952Y-64022404D02*
X130243571Y-63927166D01*
X130243571Y-63927166D02*
X130243571Y-63593833D01*
X129767380Y-64593833D02*
X130576904Y-64593833D01*
X130576904Y-64593833D02*
X130672142Y-64641452D01*
X130672142Y-64641452D02*
X130719761Y-64689071D01*
X130719761Y-64689071D02*
X130767380Y-64784309D01*
X130767380Y-64784309D02*
X130767380Y-64974785D01*
X130767380Y-64974785D02*
X130719761Y-65070023D01*
X130719761Y-65070023D02*
X130672142Y-65117642D01*
X130672142Y-65117642D02*
X130576904Y-65165261D01*
X130576904Y-65165261D02*
X129767380Y-65165261D01*
X130719761Y-65593833D02*
X130767380Y-65736690D01*
X130767380Y-65736690D02*
X130767380Y-65974785D01*
X130767380Y-65974785D02*
X130719761Y-66070023D01*
X130719761Y-66070023D02*
X130672142Y-66117642D01*
X130672142Y-66117642D02*
X130576904Y-66165261D01*
X130576904Y-66165261D02*
X130481666Y-66165261D01*
X130481666Y-66165261D02*
X130386428Y-66117642D01*
X130386428Y-66117642D02*
X130338809Y-66070023D01*
X130338809Y-66070023D02*
X130291190Y-65974785D01*
X130291190Y-65974785D02*
X130243571Y-65784309D01*
X130243571Y-65784309D02*
X130195952Y-65689071D01*
X130195952Y-65689071D02*
X130148333Y-65641452D01*
X130148333Y-65641452D02*
X130053095Y-65593833D01*
X130053095Y-65593833D02*
X129957857Y-65593833D01*
X129957857Y-65593833D02*
X129862619Y-65641452D01*
X129862619Y-65641452D02*
X129815000Y-65689071D01*
X129815000Y-65689071D02*
X129767380Y-65784309D01*
X129767380Y-65784309D02*
X129767380Y-66022404D01*
X129767380Y-66022404D02*
X129815000Y-66165261D01*
X129767380Y-66498595D02*
X129767380Y-67117642D01*
X129767380Y-67117642D02*
X130148333Y-66784309D01*
X130148333Y-66784309D02*
X130148333Y-66927166D01*
X130148333Y-66927166D02*
X130195952Y-67022404D01*
X130195952Y-67022404D02*
X130243571Y-67070023D01*
X130243571Y-67070023D02*
X130338809Y-67117642D01*
X130338809Y-67117642D02*
X130576904Y-67117642D01*
X130576904Y-67117642D02*
X130672142Y-67070023D01*
X130672142Y-67070023D02*
X130719761Y-67022404D01*
X130719761Y-67022404D02*
X130767380Y-66927166D01*
X130767380Y-66927166D02*
X130767380Y-66641452D01*
X130767380Y-66641452D02*
X130719761Y-66546214D01*
X130719761Y-66546214D02*
X130672142Y-66498595D01*
X130767380Y-67974785D02*
X130243571Y-67974785D01*
X130243571Y-67974785D02*
X130148333Y-67927166D01*
X130148333Y-67927166D02*
X130100714Y-67831928D01*
X130100714Y-67831928D02*
X130100714Y-67641452D01*
X130100714Y-67641452D02*
X130148333Y-67546214D01*
X130719761Y-67974785D02*
X130767380Y-67879547D01*
X130767380Y-67879547D02*
X130767380Y-67641452D01*
X130767380Y-67641452D02*
X130719761Y-67546214D01*
X130719761Y-67546214D02*
X130624523Y-67498595D01*
X130624523Y-67498595D02*
X130529285Y-67498595D01*
X130529285Y-67498595D02*
X130434047Y-67546214D01*
X130434047Y-67546214D02*
X130386428Y-67641452D01*
X130386428Y-67641452D02*
X130386428Y-67879547D01*
X130386428Y-67879547D02*
X130338809Y-67974785D01*
X130767380Y-68974785D02*
X130767380Y-68403357D01*
X130767380Y-68689071D02*
X129767380Y-68689071D01*
X129767380Y-68689071D02*
X129910238Y-68593833D01*
X129910238Y-68593833D02*
X130005476Y-68498595D01*
X130005476Y-68498595D02*
X130053095Y-68403357D01*
X159247238Y-68881142D02*
X159294857Y-68928761D01*
X159294857Y-68928761D02*
X159437714Y-68976380D01*
X159437714Y-68976380D02*
X159532952Y-68976380D01*
X159532952Y-68976380D02*
X159675809Y-68928761D01*
X159675809Y-68928761D02*
X159771047Y-68833523D01*
X159771047Y-68833523D02*
X159818666Y-68738285D01*
X159818666Y-68738285D02*
X159866285Y-68547809D01*
X159866285Y-68547809D02*
X159866285Y-68404952D01*
X159866285Y-68404952D02*
X159818666Y-68214476D01*
X159818666Y-68214476D02*
X159771047Y-68119238D01*
X159771047Y-68119238D02*
X159675809Y-68024000D01*
X159675809Y-68024000D02*
X159532952Y-67976380D01*
X159532952Y-67976380D02*
X159437714Y-67976380D01*
X159437714Y-67976380D02*
X159294857Y-68024000D01*
X159294857Y-68024000D02*
X159247238Y-68071619D01*
X158485333Y-68452571D02*
X158342476Y-68500190D01*
X158342476Y-68500190D02*
X158294857Y-68547809D01*
X158294857Y-68547809D02*
X158247238Y-68643047D01*
X158247238Y-68643047D02*
X158247238Y-68785904D01*
X158247238Y-68785904D02*
X158294857Y-68881142D01*
X158294857Y-68881142D02*
X158342476Y-68928761D01*
X158342476Y-68928761D02*
X158437714Y-68976380D01*
X158437714Y-68976380D02*
X158818666Y-68976380D01*
X158818666Y-68976380D02*
X158818666Y-67976380D01*
X158818666Y-67976380D02*
X158485333Y-67976380D01*
X158485333Y-67976380D02*
X158390095Y-68024000D01*
X158390095Y-68024000D02*
X158342476Y-68071619D01*
X158342476Y-68071619D02*
X158294857Y-68166857D01*
X158294857Y-68166857D02*
X158294857Y-68262095D01*
X158294857Y-68262095D02*
X158342476Y-68357333D01*
X158342476Y-68357333D02*
X158390095Y-68404952D01*
X158390095Y-68404952D02*
X158485333Y-68452571D01*
X158485333Y-68452571D02*
X158818666Y-68452571D01*
X157818666Y-67976380D02*
X157818666Y-68785904D01*
X157818666Y-68785904D02*
X157771047Y-68881142D01*
X157771047Y-68881142D02*
X157723428Y-68928761D01*
X157723428Y-68928761D02*
X157628190Y-68976380D01*
X157628190Y-68976380D02*
X157437714Y-68976380D01*
X157437714Y-68976380D02*
X157342476Y-68928761D01*
X157342476Y-68928761D02*
X157294857Y-68881142D01*
X157294857Y-68881142D02*
X157247238Y-68785904D01*
X157247238Y-68785904D02*
X157247238Y-67976380D01*
X156818666Y-68928761D02*
X156675809Y-68976380D01*
X156675809Y-68976380D02*
X156437714Y-68976380D01*
X156437714Y-68976380D02*
X156342476Y-68928761D01*
X156342476Y-68928761D02*
X156294857Y-68881142D01*
X156294857Y-68881142D02*
X156247238Y-68785904D01*
X156247238Y-68785904D02*
X156247238Y-68690666D01*
X156247238Y-68690666D02*
X156294857Y-68595428D01*
X156294857Y-68595428D02*
X156342476Y-68547809D01*
X156342476Y-68547809D02*
X156437714Y-68500190D01*
X156437714Y-68500190D02*
X156628190Y-68452571D01*
X156628190Y-68452571D02*
X156723428Y-68404952D01*
X156723428Y-68404952D02*
X156771047Y-68357333D01*
X156771047Y-68357333D02*
X156818666Y-68262095D01*
X156818666Y-68262095D02*
X156818666Y-68166857D01*
X156818666Y-68166857D02*
X156771047Y-68071619D01*
X156771047Y-68071619D02*
X156723428Y-68024000D01*
X156723428Y-68024000D02*
X156628190Y-67976380D01*
X156628190Y-67976380D02*
X156390095Y-67976380D01*
X156390095Y-67976380D02*
X156247238Y-68024000D01*
X155913904Y-67976380D02*
X155294857Y-67976380D01*
X155294857Y-67976380D02*
X155628190Y-68357333D01*
X155628190Y-68357333D02*
X155485333Y-68357333D01*
X155485333Y-68357333D02*
X155390095Y-68404952D01*
X155390095Y-68404952D02*
X155342476Y-68452571D01*
X155342476Y-68452571D02*
X155294857Y-68547809D01*
X155294857Y-68547809D02*
X155294857Y-68785904D01*
X155294857Y-68785904D02*
X155342476Y-68881142D01*
X155342476Y-68881142D02*
X155390095Y-68928761D01*
X155390095Y-68928761D02*
X155485333Y-68976380D01*
X155485333Y-68976380D02*
X155771047Y-68976380D01*
X155771047Y-68976380D02*
X155866285Y-68928761D01*
X155866285Y-68928761D02*
X155913904Y-68881142D01*
X154437714Y-68976380D02*
X154437714Y-68452571D01*
X154437714Y-68452571D02*
X154485333Y-68357333D01*
X154485333Y-68357333D02*
X154580571Y-68309714D01*
X154580571Y-68309714D02*
X154771047Y-68309714D01*
X154771047Y-68309714D02*
X154866285Y-68357333D01*
X154437714Y-68928761D02*
X154532952Y-68976380D01*
X154532952Y-68976380D02*
X154771047Y-68976380D01*
X154771047Y-68976380D02*
X154866285Y-68928761D01*
X154866285Y-68928761D02*
X154913904Y-68833523D01*
X154913904Y-68833523D02*
X154913904Y-68738285D01*
X154913904Y-68738285D02*
X154866285Y-68643047D01*
X154866285Y-68643047D02*
X154771047Y-68595428D01*
X154771047Y-68595428D02*
X154532952Y-68595428D01*
X154532952Y-68595428D02*
X154437714Y-68547809D01*
X154009142Y-68071619D02*
X153961523Y-68024000D01*
X153961523Y-68024000D02*
X153866285Y-67976380D01*
X153866285Y-67976380D02*
X153628190Y-67976380D01*
X153628190Y-67976380D02*
X153532952Y-68024000D01*
X153532952Y-68024000D02*
X153485333Y-68071619D01*
X153485333Y-68071619D02*
X153437714Y-68166857D01*
X153437714Y-68166857D02*
X153437714Y-68262095D01*
X153437714Y-68262095D02*
X153485333Y-68404952D01*
X153485333Y-68404952D02*
X154056761Y-68976380D01*
X154056761Y-68976380D02*
X153437714Y-68976380D01*
X132704142Y-62855738D02*
X132751761Y-62808119D01*
X132751761Y-62808119D02*
X132799380Y-62665262D01*
X132799380Y-62665262D02*
X132799380Y-62570024D01*
X132799380Y-62570024D02*
X132751761Y-62427167D01*
X132751761Y-62427167D02*
X132656523Y-62331929D01*
X132656523Y-62331929D02*
X132561285Y-62284310D01*
X132561285Y-62284310D02*
X132370809Y-62236691D01*
X132370809Y-62236691D02*
X132227952Y-62236691D01*
X132227952Y-62236691D02*
X132037476Y-62284310D01*
X132037476Y-62284310D02*
X131942238Y-62331929D01*
X131942238Y-62331929D02*
X131847000Y-62427167D01*
X131847000Y-62427167D02*
X131799380Y-62570024D01*
X131799380Y-62570024D02*
X131799380Y-62665262D01*
X131799380Y-62665262D02*
X131847000Y-62808119D01*
X131847000Y-62808119D02*
X131894619Y-62855738D01*
X132799380Y-63284310D02*
X131799380Y-63284310D01*
X131799380Y-63284310D02*
X131799380Y-63665262D01*
X131799380Y-63665262D02*
X131847000Y-63760500D01*
X131847000Y-63760500D02*
X131894619Y-63808119D01*
X131894619Y-63808119D02*
X131989857Y-63855738D01*
X131989857Y-63855738D02*
X132132714Y-63855738D01*
X132132714Y-63855738D02*
X132227952Y-63808119D01*
X132227952Y-63808119D02*
X132275571Y-63760500D01*
X132275571Y-63760500D02*
X132323190Y-63665262D01*
X132323190Y-63665262D02*
X132323190Y-63284310D01*
X132799380Y-64284310D02*
X131799380Y-64284310D01*
X131799380Y-64284310D02*
X132513666Y-64617643D01*
X132513666Y-64617643D02*
X131799380Y-64950976D01*
X131799380Y-64950976D02*
X132799380Y-64950976D01*
X132799380Y-65427167D02*
X131799380Y-65427167D01*
X132799380Y-65903357D02*
X131799380Y-65903357D01*
X131799380Y-65903357D02*
X131799380Y-66141452D01*
X131799380Y-66141452D02*
X131847000Y-66284309D01*
X131847000Y-66284309D02*
X131942238Y-66379547D01*
X131942238Y-66379547D02*
X132037476Y-66427166D01*
X132037476Y-66427166D02*
X132227952Y-66474785D01*
X132227952Y-66474785D02*
X132370809Y-66474785D01*
X132370809Y-66474785D02*
X132561285Y-66427166D01*
X132561285Y-66427166D02*
X132656523Y-66379547D01*
X132656523Y-66379547D02*
X132751761Y-66284309D01*
X132751761Y-66284309D02*
X132799380Y-66141452D01*
X132799380Y-66141452D02*
X132799380Y-65903357D01*
X132799380Y-67427166D02*
X132799380Y-66855738D01*
X132799380Y-67141452D02*
X131799380Y-67141452D01*
X131799380Y-67141452D02*
X131942238Y-67046214D01*
X131942238Y-67046214D02*
X132037476Y-66950976D01*
X132037476Y-66950976D02*
X132085095Y-66855738D01*
X132799380Y-68284309D02*
X132275571Y-68284309D01*
X132275571Y-68284309D02*
X132180333Y-68236690D01*
X132180333Y-68236690D02*
X132132714Y-68141452D01*
X132132714Y-68141452D02*
X132132714Y-67950976D01*
X132132714Y-67950976D02*
X132180333Y-67855738D01*
X132751761Y-68284309D02*
X132799380Y-68189071D01*
X132799380Y-68189071D02*
X132799380Y-67950976D01*
X132799380Y-67950976D02*
X132751761Y-67855738D01*
X132751761Y-67855738D02*
X132656523Y-67808119D01*
X132656523Y-67808119D02*
X132561285Y-67808119D01*
X132561285Y-67808119D02*
X132466047Y-67855738D01*
X132466047Y-67855738D02*
X132418428Y-67950976D01*
X132418428Y-67950976D02*
X132418428Y-68189071D01*
X132418428Y-68189071D02*
X132370809Y-68284309D01*
X132799380Y-69284309D02*
X132799380Y-68712881D01*
X132799380Y-68998595D02*
X131799380Y-68998595D01*
X131799380Y-68998595D02*
X131942238Y-68903357D01*
X131942238Y-68903357D02*
X132037476Y-68808119D01*
X132037476Y-68808119D02*
X132085095Y-68712881D01*
X103766857Y-76312380D02*
X104100190Y-75836190D01*
X104338285Y-76312380D02*
X104338285Y-75312380D01*
X104338285Y-75312380D02*
X103957333Y-75312380D01*
X103957333Y-75312380D02*
X103862095Y-75360000D01*
X103862095Y-75360000D02*
X103814476Y-75407619D01*
X103814476Y-75407619D02*
X103766857Y-75502857D01*
X103766857Y-75502857D02*
X103766857Y-75645714D01*
X103766857Y-75645714D02*
X103814476Y-75740952D01*
X103814476Y-75740952D02*
X103862095Y-75788571D01*
X103862095Y-75788571D02*
X103957333Y-75836190D01*
X103957333Y-75836190D02*
X104338285Y-75836190D01*
X102814476Y-76312380D02*
X103385904Y-76312380D01*
X103100190Y-76312380D02*
X103100190Y-75312380D01*
X103100190Y-75312380D02*
X103195428Y-75455238D01*
X103195428Y-75455238D02*
X103290666Y-75550476D01*
X103290666Y-75550476D02*
X103385904Y-75598095D01*
X102338285Y-76312380D02*
X102147809Y-76312380D01*
X102147809Y-76312380D02*
X102052571Y-76264761D01*
X102052571Y-76264761D02*
X102004952Y-76217142D01*
X102004952Y-76217142D02*
X101909714Y-76074285D01*
X101909714Y-76074285D02*
X101862095Y-75883809D01*
X101862095Y-75883809D02*
X101862095Y-75502857D01*
X101862095Y-75502857D02*
X101909714Y-75407619D01*
X101909714Y-75407619D02*
X101957333Y-75360000D01*
X101957333Y-75360000D02*
X102052571Y-75312380D01*
X102052571Y-75312380D02*
X102243047Y-75312380D01*
X102243047Y-75312380D02*
X102338285Y-75360000D01*
X102338285Y-75360000D02*
X102385904Y-75407619D01*
X102385904Y-75407619D02*
X102433523Y-75502857D01*
X102433523Y-75502857D02*
X102433523Y-75740952D01*
X102433523Y-75740952D02*
X102385904Y-75836190D01*
X102385904Y-75836190D02*
X102338285Y-75883809D01*
X102338285Y-75883809D02*
X102243047Y-75931428D01*
X102243047Y-75931428D02*
X102052571Y-75931428D01*
X102052571Y-75931428D02*
X101957333Y-75883809D01*
X101957333Y-75883809D02*
X101909714Y-75836190D01*
X101909714Y-75836190D02*
X101862095Y-75740952D01*
X103766857Y-78217380D02*
X104100190Y-77741190D01*
X104338285Y-78217380D02*
X104338285Y-77217380D01*
X104338285Y-77217380D02*
X103957333Y-77217380D01*
X103957333Y-77217380D02*
X103862095Y-77265000D01*
X103862095Y-77265000D02*
X103814476Y-77312619D01*
X103814476Y-77312619D02*
X103766857Y-77407857D01*
X103766857Y-77407857D02*
X103766857Y-77550714D01*
X103766857Y-77550714D02*
X103814476Y-77645952D01*
X103814476Y-77645952D02*
X103862095Y-77693571D01*
X103862095Y-77693571D02*
X103957333Y-77741190D01*
X103957333Y-77741190D02*
X104338285Y-77741190D01*
X103385904Y-77312619D02*
X103338285Y-77265000D01*
X103338285Y-77265000D02*
X103243047Y-77217380D01*
X103243047Y-77217380D02*
X103004952Y-77217380D01*
X103004952Y-77217380D02*
X102909714Y-77265000D01*
X102909714Y-77265000D02*
X102862095Y-77312619D01*
X102862095Y-77312619D02*
X102814476Y-77407857D01*
X102814476Y-77407857D02*
X102814476Y-77503095D01*
X102814476Y-77503095D02*
X102862095Y-77645952D01*
X102862095Y-77645952D02*
X103433523Y-78217380D01*
X103433523Y-78217380D02*
X102814476Y-78217380D01*
X102243047Y-77645952D02*
X102338285Y-77598333D01*
X102338285Y-77598333D02*
X102385904Y-77550714D01*
X102385904Y-77550714D02*
X102433523Y-77455476D01*
X102433523Y-77455476D02*
X102433523Y-77407857D01*
X102433523Y-77407857D02*
X102385904Y-77312619D01*
X102385904Y-77312619D02*
X102338285Y-77265000D01*
X102338285Y-77265000D02*
X102243047Y-77217380D01*
X102243047Y-77217380D02*
X102052571Y-77217380D01*
X102052571Y-77217380D02*
X101957333Y-77265000D01*
X101957333Y-77265000D02*
X101909714Y-77312619D01*
X101909714Y-77312619D02*
X101862095Y-77407857D01*
X101862095Y-77407857D02*
X101862095Y-77455476D01*
X101862095Y-77455476D02*
X101909714Y-77550714D01*
X101909714Y-77550714D02*
X101957333Y-77598333D01*
X101957333Y-77598333D02*
X102052571Y-77645952D01*
X102052571Y-77645952D02*
X102243047Y-77645952D01*
X102243047Y-77645952D02*
X102338285Y-77693571D01*
X102338285Y-77693571D02*
X102385904Y-77741190D01*
X102385904Y-77741190D02*
X102433523Y-77836428D01*
X102433523Y-77836428D02*
X102433523Y-78026904D01*
X102433523Y-78026904D02*
X102385904Y-78122142D01*
X102385904Y-78122142D02*
X102338285Y-78169761D01*
X102338285Y-78169761D02*
X102243047Y-78217380D01*
X102243047Y-78217380D02*
X102052571Y-78217380D01*
X102052571Y-78217380D02*
X101957333Y-78169761D01*
X101957333Y-78169761D02*
X101909714Y-78122142D01*
X101909714Y-78122142D02*
X101862095Y-78026904D01*
X101862095Y-78026904D02*
X101862095Y-77836428D01*
X101862095Y-77836428D02*
X101909714Y-77741190D01*
X101909714Y-77741190D02*
X101957333Y-77693571D01*
X101957333Y-77693571D02*
X102052571Y-77645952D01*
X153677857Y-79803142D02*
X153725476Y-79850761D01*
X153725476Y-79850761D02*
X153868333Y-79898380D01*
X153868333Y-79898380D02*
X153963571Y-79898380D01*
X153963571Y-79898380D02*
X154106428Y-79850761D01*
X154106428Y-79850761D02*
X154201666Y-79755523D01*
X154201666Y-79755523D02*
X154249285Y-79660285D01*
X154249285Y-79660285D02*
X154296904Y-79469809D01*
X154296904Y-79469809D02*
X154296904Y-79326952D01*
X154296904Y-79326952D02*
X154249285Y-79136476D01*
X154249285Y-79136476D02*
X154201666Y-79041238D01*
X154201666Y-79041238D02*
X154106428Y-78946000D01*
X154106428Y-78946000D02*
X153963571Y-78898380D01*
X153963571Y-78898380D02*
X153868333Y-78898380D01*
X153868333Y-78898380D02*
X153725476Y-78946000D01*
X153725476Y-78946000D02*
X153677857Y-78993619D01*
X152725476Y-79898380D02*
X153296904Y-79898380D01*
X153011190Y-79898380D02*
X153011190Y-78898380D01*
X153011190Y-78898380D02*
X153106428Y-79041238D01*
X153106428Y-79041238D02*
X153201666Y-79136476D01*
X153201666Y-79136476D02*
X153296904Y-79184095D01*
X152344523Y-78993619D02*
X152296904Y-78946000D01*
X152296904Y-78946000D02*
X152201666Y-78898380D01*
X152201666Y-78898380D02*
X151963571Y-78898380D01*
X151963571Y-78898380D02*
X151868333Y-78946000D01*
X151868333Y-78946000D02*
X151820714Y-78993619D01*
X151820714Y-78993619D02*
X151773095Y-79088857D01*
X151773095Y-79088857D02*
X151773095Y-79184095D01*
X151773095Y-79184095D02*
X151820714Y-79326952D01*
X151820714Y-79326952D02*
X152392142Y-79898380D01*
X152392142Y-79898380D02*
X151773095Y-79898380D01*
D11*
X165226000Y-72001000D02*
X161341000Y-72001000D01*
X165226000Y-69731000D02*
X165226000Y-72001000D01*
X161341000Y-69731000D02*
X165226000Y-69731000D01*
X156363936Y-70258000D02*
X156818064Y-70258000D01*
X156363936Y-71728000D02*
X156818064Y-71728000D01*
X156363936Y-68226000D02*
X156818064Y-68226000D01*
X156363936Y-69696000D02*
X156818064Y-69696000D01*
X133527436Y-61241000D02*
X133981564Y-61241000D01*
X133527436Y-62711000D02*
X133981564Y-62711000D01*
X132815000Y-65499248D02*
X132815000Y-66021752D01*
X131345000Y-65499248D02*
X131345000Y-66021752D01*
X156390748Y-66194000D02*
X156913252Y-66194000D01*
X156390748Y-67664000D02*
X156913252Y-67664000D01*
X134847000Y-65499248D02*
X134847000Y-66021752D01*
X133377000Y-65499248D02*
X133377000Y-66021752D01*
X102896936Y-73560000D02*
X103351064Y-73560000D01*
X102896936Y-75030000D02*
X103351064Y-75030000D01*
X102896936Y-75465000D02*
X103351064Y-75465000D01*
X102896936Y-76935000D02*
X103351064Y-76935000D01*
X152773748Y-77116000D02*
X153296252Y-77116000D01*
X152773748Y-78586000D02*
X153296252Y-78586000D01*
M02*
