G04 #@! TF.GenerationSoftware,KiCad,Pcbnew,(6.99.0-3780-g6ddc5c1a6e)*
G04 #@! TF.CreationDate,2022-10-12T10:17:30+02:00*
G04 #@! TF.ProjectId,BalthazarPSU3,42616c74-6861-47a6-9172-505355332e6b,v02*
G04 #@! TF.SameCoordinates,Original*
G04 #@! TF.FileFunction,Legend,Top*
G04 #@! TF.FilePolarity,Positive*
%FSLAX46Y46*%
G04 Gerber Fmt 4.6, Leading zero omitted, Abs format (unit mm)*
G04 Created by KiCad (PCBNEW (6.99.0-3780-g6ddc5c1a6e)) date 2022-10-12 10:17:30*
%MOMM*%
%LPD*%
G01*
G04 APERTURE LIST*
%ADD10C,0.150000*%
%ADD11C,0.100000*%
%ADD12C,0.152400*%
%ADD13C,0.120000*%
G04 APERTURE END LIST*
D10*
X151382976Y-69865472D02*
X151382976Y-70675244D01*
X151382976Y-70675244D02*
X151430610Y-70770512D01*
X151430610Y-70770512D02*
X151478243Y-70818145D01*
X151478243Y-70818145D02*
X151573511Y-70865779D01*
X151573511Y-70865779D02*
X151764045Y-70865779D01*
X151764045Y-70865779D02*
X151859313Y-70818145D01*
X151859313Y-70818145D02*
X151906946Y-70770512D01*
X151906946Y-70770512D02*
X151954580Y-70675244D01*
X151954580Y-70675244D02*
X151954580Y-69865472D01*
X152335650Y-69865472D02*
X152954887Y-69865472D01*
X152954887Y-69865472D02*
X152621452Y-70246541D01*
X152621452Y-70246541D02*
X152764353Y-70246541D01*
X152764353Y-70246541D02*
X152859620Y-70294175D01*
X152859620Y-70294175D02*
X152907254Y-70341809D01*
X152907254Y-70341809D02*
X152954887Y-70437076D01*
X152954887Y-70437076D02*
X152954887Y-70675244D01*
X152954887Y-70675244D02*
X152907254Y-70770512D01*
X152907254Y-70770512D02*
X152859620Y-70818145D01*
X152859620Y-70818145D02*
X152764353Y-70865779D01*
X152764353Y-70865779D02*
X152478551Y-70865779D01*
X152478551Y-70865779D02*
X152383283Y-70818145D01*
X152383283Y-70818145D02*
X152335650Y-70770512D01*
D11*
X140351905Y-71566071D02*
X140328096Y-71589880D01*
X140328096Y-71589880D02*
X140256667Y-71613690D01*
X140256667Y-71613690D02*
X140209048Y-71613690D01*
X140209048Y-71613690D02*
X140137620Y-71589880D01*
X140137620Y-71589880D02*
X140090001Y-71542261D01*
X140090001Y-71542261D02*
X140066191Y-71494642D01*
X140066191Y-71494642D02*
X140042382Y-71399404D01*
X140042382Y-71399404D02*
X140042382Y-71327976D01*
X140042382Y-71327976D02*
X140066191Y-71232738D01*
X140066191Y-71232738D02*
X140090001Y-71185119D01*
X140090001Y-71185119D02*
X140137620Y-71137500D01*
X140137620Y-71137500D02*
X140209048Y-71113690D01*
X140209048Y-71113690D02*
X140256667Y-71113690D01*
X140256667Y-71113690D02*
X140328096Y-71137500D01*
X140328096Y-71137500D02*
X140351905Y-71161309D01*
X140732858Y-71351785D02*
X140804286Y-71375595D01*
X140804286Y-71375595D02*
X140828096Y-71399404D01*
X140828096Y-71399404D02*
X140851905Y-71447023D01*
X140851905Y-71447023D02*
X140851905Y-71518452D01*
X140851905Y-71518452D02*
X140828096Y-71566071D01*
X140828096Y-71566071D02*
X140804286Y-71589880D01*
X140804286Y-71589880D02*
X140756667Y-71613690D01*
X140756667Y-71613690D02*
X140566191Y-71613690D01*
X140566191Y-71613690D02*
X140566191Y-71113690D01*
X140566191Y-71113690D02*
X140732858Y-71113690D01*
X140732858Y-71113690D02*
X140780477Y-71137500D01*
X140780477Y-71137500D02*
X140804286Y-71161309D01*
X140804286Y-71161309D02*
X140828096Y-71208928D01*
X140828096Y-71208928D02*
X140828096Y-71256547D01*
X140828096Y-71256547D02*
X140804286Y-71304166D01*
X140804286Y-71304166D02*
X140780477Y-71327976D01*
X140780477Y-71327976D02*
X140732858Y-71351785D01*
X140732858Y-71351785D02*
X140566191Y-71351785D01*
X141042382Y-71470833D02*
X141280477Y-71470833D01*
X140994763Y-71613690D02*
X141161429Y-71113690D01*
X141161429Y-71113690D02*
X141328096Y-71613690D01*
X141423334Y-71113690D02*
X141709048Y-71113690D01*
X141566191Y-71613690D02*
X141566191Y-71113690D01*
X142137619Y-71613690D02*
X141851905Y-71613690D01*
X141994762Y-71613690D02*
X141994762Y-71113690D01*
X141994762Y-71113690D02*
X141947143Y-71185119D01*
X141947143Y-71185119D02*
X141899524Y-71232738D01*
X141899524Y-71232738D02*
X141851905Y-71256547D01*
X131587619Y-60256071D02*
X131563810Y-60279880D01*
X131563810Y-60279880D02*
X131492381Y-60303690D01*
X131492381Y-60303690D02*
X131444762Y-60303690D01*
X131444762Y-60303690D02*
X131373334Y-60279880D01*
X131373334Y-60279880D02*
X131325715Y-60232261D01*
X131325715Y-60232261D02*
X131301905Y-60184642D01*
X131301905Y-60184642D02*
X131278096Y-60089404D01*
X131278096Y-60089404D02*
X131278096Y-60017976D01*
X131278096Y-60017976D02*
X131301905Y-59922738D01*
X131301905Y-59922738D02*
X131325715Y-59875119D01*
X131325715Y-59875119D02*
X131373334Y-59827500D01*
X131373334Y-59827500D02*
X131444762Y-59803690D01*
X131444762Y-59803690D02*
X131492381Y-59803690D01*
X131492381Y-59803690D02*
X131563810Y-59827500D01*
X131563810Y-59827500D02*
X131587619Y-59851309D01*
X131968572Y-60041785D02*
X132040000Y-60065595D01*
X132040000Y-60065595D02*
X132063810Y-60089404D01*
X132063810Y-60089404D02*
X132087619Y-60137023D01*
X132087619Y-60137023D02*
X132087619Y-60208452D01*
X132087619Y-60208452D02*
X132063810Y-60256071D01*
X132063810Y-60256071D02*
X132040000Y-60279880D01*
X132040000Y-60279880D02*
X131992381Y-60303690D01*
X131992381Y-60303690D02*
X131801905Y-60303690D01*
X131801905Y-60303690D02*
X131801905Y-59803690D01*
X131801905Y-59803690D02*
X131968572Y-59803690D01*
X131968572Y-59803690D02*
X132016191Y-59827500D01*
X132016191Y-59827500D02*
X132040000Y-59851309D01*
X132040000Y-59851309D02*
X132063810Y-59898928D01*
X132063810Y-59898928D02*
X132063810Y-59946547D01*
X132063810Y-59946547D02*
X132040000Y-59994166D01*
X132040000Y-59994166D02*
X132016191Y-60017976D01*
X132016191Y-60017976D02*
X131968572Y-60041785D01*
X131968572Y-60041785D02*
X131801905Y-60041785D01*
X132230477Y-59803690D02*
X132516191Y-59803690D01*
X132373334Y-60303690D02*
X132373334Y-59803690D01*
X132659048Y-60279880D02*
X132730476Y-60303690D01*
X132730476Y-60303690D02*
X132849524Y-60303690D01*
X132849524Y-60303690D02*
X132897143Y-60279880D01*
X132897143Y-60279880D02*
X132920952Y-60256071D01*
X132920952Y-60256071D02*
X132944762Y-60208452D01*
X132944762Y-60208452D02*
X132944762Y-60160833D01*
X132944762Y-60160833D02*
X132920952Y-60113214D01*
X132920952Y-60113214D02*
X132897143Y-60089404D01*
X132897143Y-60089404D02*
X132849524Y-60065595D01*
X132849524Y-60065595D02*
X132754286Y-60041785D01*
X132754286Y-60041785D02*
X132706667Y-60017976D01*
X132706667Y-60017976D02*
X132682857Y-59994166D01*
X132682857Y-59994166D02*
X132659048Y-59946547D01*
X132659048Y-59946547D02*
X132659048Y-59898928D01*
X132659048Y-59898928D02*
X132682857Y-59851309D01*
X132682857Y-59851309D02*
X132706667Y-59827500D01*
X132706667Y-59827500D02*
X132754286Y-59803690D01*
X132754286Y-59803690D02*
X132873333Y-59803690D01*
X132873333Y-59803690D02*
X132944762Y-59827500D01*
X133087619Y-59803690D02*
X133373333Y-59803690D01*
X133230476Y-60303690D02*
X133230476Y-59803690D01*
X133801904Y-60303690D02*
X133516190Y-60303690D01*
X133659047Y-60303690D02*
X133659047Y-59803690D01*
X133659047Y-59803690D02*
X133611428Y-59875119D01*
X133611428Y-59875119D02*
X133563809Y-59922738D01*
X133563809Y-59922738D02*
X133516190Y-59946547D01*
X186066071Y-68593333D02*
X186089880Y-68617142D01*
X186089880Y-68617142D02*
X186113690Y-68688571D01*
X186113690Y-68688571D02*
X186113690Y-68736190D01*
X186113690Y-68736190D02*
X186089880Y-68807618D01*
X186089880Y-68807618D02*
X186042261Y-68855237D01*
X186042261Y-68855237D02*
X185994642Y-68879047D01*
X185994642Y-68879047D02*
X185899404Y-68902856D01*
X185899404Y-68902856D02*
X185827976Y-68902856D01*
X185827976Y-68902856D02*
X185732738Y-68879047D01*
X185732738Y-68879047D02*
X185685119Y-68855237D01*
X185685119Y-68855237D02*
X185637500Y-68807618D01*
X185637500Y-68807618D02*
X185613690Y-68736190D01*
X185613690Y-68736190D02*
X185613690Y-68688571D01*
X185613690Y-68688571D02*
X185637500Y-68617142D01*
X185637500Y-68617142D02*
X185661309Y-68593333D01*
X185851785Y-68212380D02*
X185875595Y-68140952D01*
X185875595Y-68140952D02*
X185899404Y-68117142D01*
X185899404Y-68117142D02*
X185947023Y-68093333D01*
X185947023Y-68093333D02*
X186018452Y-68093333D01*
X186018452Y-68093333D02*
X186066071Y-68117142D01*
X186066071Y-68117142D02*
X186089880Y-68140952D01*
X186089880Y-68140952D02*
X186113690Y-68188571D01*
X186113690Y-68188571D02*
X186113690Y-68379047D01*
X186113690Y-68379047D02*
X185613690Y-68379047D01*
X185613690Y-68379047D02*
X185613690Y-68212380D01*
X185613690Y-68212380D02*
X185637500Y-68164761D01*
X185637500Y-68164761D02*
X185661309Y-68140952D01*
X185661309Y-68140952D02*
X185708928Y-68117142D01*
X185708928Y-68117142D02*
X185756547Y-68117142D01*
X185756547Y-68117142D02*
X185804166Y-68140952D01*
X185804166Y-68140952D02*
X185827976Y-68164761D01*
X185827976Y-68164761D02*
X185851785Y-68212380D01*
X185851785Y-68212380D02*
X185851785Y-68379047D01*
X185613690Y-67879047D02*
X186018452Y-67879047D01*
X186018452Y-67879047D02*
X186066071Y-67855237D01*
X186066071Y-67855237D02*
X186089880Y-67831428D01*
X186089880Y-67831428D02*
X186113690Y-67783809D01*
X186113690Y-67783809D02*
X186113690Y-67688571D01*
X186113690Y-67688571D02*
X186089880Y-67640952D01*
X186089880Y-67640952D02*
X186066071Y-67617142D01*
X186066071Y-67617142D02*
X186018452Y-67593333D01*
X186018452Y-67593333D02*
X185613690Y-67593333D01*
X186089880Y-67379046D02*
X186113690Y-67307618D01*
X186113690Y-67307618D02*
X186113690Y-67188570D01*
X186113690Y-67188570D02*
X186089880Y-67140951D01*
X186089880Y-67140951D02*
X186066071Y-67117142D01*
X186066071Y-67117142D02*
X186018452Y-67093332D01*
X186018452Y-67093332D02*
X185970833Y-67093332D01*
X185970833Y-67093332D02*
X185923214Y-67117142D01*
X185923214Y-67117142D02*
X185899404Y-67140951D01*
X185899404Y-67140951D02*
X185875595Y-67188570D01*
X185875595Y-67188570D02*
X185851785Y-67283808D01*
X185851785Y-67283808D02*
X185827976Y-67331427D01*
X185827976Y-67331427D02*
X185804166Y-67355237D01*
X185804166Y-67355237D02*
X185756547Y-67379046D01*
X185756547Y-67379046D02*
X185708928Y-67379046D01*
X185708928Y-67379046D02*
X185661309Y-67355237D01*
X185661309Y-67355237D02*
X185637500Y-67331427D01*
X185637500Y-67331427D02*
X185613690Y-67283808D01*
X185613690Y-67283808D02*
X185613690Y-67164761D01*
X185613690Y-67164761D02*
X185637500Y-67093332D01*
X186113690Y-66617142D02*
X186113690Y-66902856D01*
X186113690Y-66759999D02*
X185613690Y-66759999D01*
X185613690Y-66759999D02*
X185685119Y-66807618D01*
X185685119Y-66807618D02*
X185732738Y-66855237D01*
X185732738Y-66855237D02*
X185756547Y-66902856D01*
X120586071Y-79013333D02*
X120609880Y-79037142D01*
X120609880Y-79037142D02*
X120633690Y-79108571D01*
X120633690Y-79108571D02*
X120633690Y-79156190D01*
X120633690Y-79156190D02*
X120609880Y-79227618D01*
X120609880Y-79227618D02*
X120562261Y-79275237D01*
X120562261Y-79275237D02*
X120514642Y-79299047D01*
X120514642Y-79299047D02*
X120419404Y-79322856D01*
X120419404Y-79322856D02*
X120347976Y-79322856D01*
X120347976Y-79322856D02*
X120252738Y-79299047D01*
X120252738Y-79299047D02*
X120205119Y-79275237D01*
X120205119Y-79275237D02*
X120157500Y-79227618D01*
X120157500Y-79227618D02*
X120133690Y-79156190D01*
X120133690Y-79156190D02*
X120133690Y-79108571D01*
X120133690Y-79108571D02*
X120157500Y-79037142D01*
X120157500Y-79037142D02*
X120181309Y-79013333D01*
X120371785Y-78632380D02*
X120395595Y-78560952D01*
X120395595Y-78560952D02*
X120419404Y-78537142D01*
X120419404Y-78537142D02*
X120467023Y-78513333D01*
X120467023Y-78513333D02*
X120538452Y-78513333D01*
X120538452Y-78513333D02*
X120586071Y-78537142D01*
X120586071Y-78537142D02*
X120609880Y-78560952D01*
X120609880Y-78560952D02*
X120633690Y-78608571D01*
X120633690Y-78608571D02*
X120633690Y-78799047D01*
X120633690Y-78799047D02*
X120133690Y-78799047D01*
X120133690Y-78799047D02*
X120133690Y-78632380D01*
X120133690Y-78632380D02*
X120157500Y-78584761D01*
X120157500Y-78584761D02*
X120181309Y-78560952D01*
X120181309Y-78560952D02*
X120228928Y-78537142D01*
X120228928Y-78537142D02*
X120276547Y-78537142D01*
X120276547Y-78537142D02*
X120324166Y-78560952D01*
X120324166Y-78560952D02*
X120347976Y-78584761D01*
X120347976Y-78584761D02*
X120371785Y-78632380D01*
X120371785Y-78632380D02*
X120371785Y-78799047D01*
X120133690Y-78299047D02*
X120538452Y-78299047D01*
X120538452Y-78299047D02*
X120586071Y-78275237D01*
X120586071Y-78275237D02*
X120609880Y-78251428D01*
X120609880Y-78251428D02*
X120633690Y-78203809D01*
X120633690Y-78203809D02*
X120633690Y-78108571D01*
X120633690Y-78108571D02*
X120609880Y-78060952D01*
X120609880Y-78060952D02*
X120586071Y-78037142D01*
X120586071Y-78037142D02*
X120538452Y-78013333D01*
X120538452Y-78013333D02*
X120133690Y-78013333D01*
X120609880Y-77799046D02*
X120633690Y-77727618D01*
X120633690Y-77727618D02*
X120633690Y-77608570D01*
X120633690Y-77608570D02*
X120609880Y-77560951D01*
X120609880Y-77560951D02*
X120586071Y-77537142D01*
X120586071Y-77537142D02*
X120538452Y-77513332D01*
X120538452Y-77513332D02*
X120490833Y-77513332D01*
X120490833Y-77513332D02*
X120443214Y-77537142D01*
X120443214Y-77537142D02*
X120419404Y-77560951D01*
X120419404Y-77560951D02*
X120395595Y-77608570D01*
X120395595Y-77608570D02*
X120371785Y-77703808D01*
X120371785Y-77703808D02*
X120347976Y-77751427D01*
X120347976Y-77751427D02*
X120324166Y-77775237D01*
X120324166Y-77775237D02*
X120276547Y-77799046D01*
X120276547Y-77799046D02*
X120228928Y-77799046D01*
X120228928Y-77799046D02*
X120181309Y-77775237D01*
X120181309Y-77775237D02*
X120157500Y-77751427D01*
X120157500Y-77751427D02*
X120133690Y-77703808D01*
X120133690Y-77703808D02*
X120133690Y-77584761D01*
X120133690Y-77584761D02*
X120157500Y-77513332D01*
X120181309Y-77322856D02*
X120157500Y-77299047D01*
X120157500Y-77299047D02*
X120133690Y-77251428D01*
X120133690Y-77251428D02*
X120133690Y-77132380D01*
X120133690Y-77132380D02*
X120157500Y-77084761D01*
X120157500Y-77084761D02*
X120181309Y-77060952D01*
X120181309Y-77060952D02*
X120228928Y-77037142D01*
X120228928Y-77037142D02*
X120276547Y-77037142D01*
X120276547Y-77037142D02*
X120347976Y-77060952D01*
X120347976Y-77060952D02*
X120633690Y-77346666D01*
X120633690Y-77346666D02*
X120633690Y-77037142D01*
X126606071Y-67273333D02*
X126629880Y-67297142D01*
X126629880Y-67297142D02*
X126653690Y-67368571D01*
X126653690Y-67368571D02*
X126653690Y-67416190D01*
X126653690Y-67416190D02*
X126629880Y-67487618D01*
X126629880Y-67487618D02*
X126582261Y-67535237D01*
X126582261Y-67535237D02*
X126534642Y-67559047D01*
X126534642Y-67559047D02*
X126439404Y-67582856D01*
X126439404Y-67582856D02*
X126367976Y-67582856D01*
X126367976Y-67582856D02*
X126272738Y-67559047D01*
X126272738Y-67559047D02*
X126225119Y-67535237D01*
X126225119Y-67535237D02*
X126177500Y-67487618D01*
X126177500Y-67487618D02*
X126153690Y-67416190D01*
X126153690Y-67416190D02*
X126153690Y-67368571D01*
X126153690Y-67368571D02*
X126177500Y-67297142D01*
X126177500Y-67297142D02*
X126201309Y-67273333D01*
X126391785Y-66892380D02*
X126415595Y-66820952D01*
X126415595Y-66820952D02*
X126439404Y-66797142D01*
X126439404Y-66797142D02*
X126487023Y-66773333D01*
X126487023Y-66773333D02*
X126558452Y-66773333D01*
X126558452Y-66773333D02*
X126606071Y-66797142D01*
X126606071Y-66797142D02*
X126629880Y-66820952D01*
X126629880Y-66820952D02*
X126653690Y-66868571D01*
X126653690Y-66868571D02*
X126653690Y-67059047D01*
X126653690Y-67059047D02*
X126153690Y-67059047D01*
X126153690Y-67059047D02*
X126153690Y-66892380D01*
X126153690Y-66892380D02*
X126177500Y-66844761D01*
X126177500Y-66844761D02*
X126201309Y-66820952D01*
X126201309Y-66820952D02*
X126248928Y-66797142D01*
X126248928Y-66797142D02*
X126296547Y-66797142D01*
X126296547Y-66797142D02*
X126344166Y-66820952D01*
X126344166Y-66820952D02*
X126367976Y-66844761D01*
X126367976Y-66844761D02*
X126391785Y-66892380D01*
X126391785Y-66892380D02*
X126391785Y-67059047D01*
X126153690Y-66559047D02*
X126558452Y-66559047D01*
X126558452Y-66559047D02*
X126606071Y-66535237D01*
X126606071Y-66535237D02*
X126629880Y-66511428D01*
X126629880Y-66511428D02*
X126653690Y-66463809D01*
X126653690Y-66463809D02*
X126653690Y-66368571D01*
X126653690Y-66368571D02*
X126629880Y-66320952D01*
X126629880Y-66320952D02*
X126606071Y-66297142D01*
X126606071Y-66297142D02*
X126558452Y-66273333D01*
X126558452Y-66273333D02*
X126153690Y-66273333D01*
X126629880Y-66059046D02*
X126653690Y-65987618D01*
X126653690Y-65987618D02*
X126653690Y-65868570D01*
X126653690Y-65868570D02*
X126629880Y-65820951D01*
X126629880Y-65820951D02*
X126606071Y-65797142D01*
X126606071Y-65797142D02*
X126558452Y-65773332D01*
X126558452Y-65773332D02*
X126510833Y-65773332D01*
X126510833Y-65773332D02*
X126463214Y-65797142D01*
X126463214Y-65797142D02*
X126439404Y-65820951D01*
X126439404Y-65820951D02*
X126415595Y-65868570D01*
X126415595Y-65868570D02*
X126391785Y-65963808D01*
X126391785Y-65963808D02*
X126367976Y-66011427D01*
X126367976Y-66011427D02*
X126344166Y-66035237D01*
X126344166Y-66035237D02*
X126296547Y-66059046D01*
X126296547Y-66059046D02*
X126248928Y-66059046D01*
X126248928Y-66059046D02*
X126201309Y-66035237D01*
X126201309Y-66035237D02*
X126177500Y-66011427D01*
X126177500Y-66011427D02*
X126153690Y-65963808D01*
X126153690Y-65963808D02*
X126153690Y-65844761D01*
X126153690Y-65844761D02*
X126177500Y-65773332D01*
X126153690Y-65606666D02*
X126153690Y-65297142D01*
X126153690Y-65297142D02*
X126344166Y-65463809D01*
X126344166Y-65463809D02*
X126344166Y-65392380D01*
X126344166Y-65392380D02*
X126367976Y-65344761D01*
X126367976Y-65344761D02*
X126391785Y-65320952D01*
X126391785Y-65320952D02*
X126439404Y-65297142D01*
X126439404Y-65297142D02*
X126558452Y-65297142D01*
X126558452Y-65297142D02*
X126606071Y-65320952D01*
X126606071Y-65320952D02*
X126629880Y-65344761D01*
X126629880Y-65344761D02*
X126653690Y-65392380D01*
X126653690Y-65392380D02*
X126653690Y-65535237D01*
X126653690Y-65535237D02*
X126629880Y-65582856D01*
X126629880Y-65582856D02*
X126606071Y-65606666D01*
X167026071Y-71543333D02*
X167049880Y-71567142D01*
X167049880Y-71567142D02*
X167073690Y-71638571D01*
X167073690Y-71638571D02*
X167073690Y-71686190D01*
X167073690Y-71686190D02*
X167049880Y-71757618D01*
X167049880Y-71757618D02*
X167002261Y-71805237D01*
X167002261Y-71805237D02*
X166954642Y-71829047D01*
X166954642Y-71829047D02*
X166859404Y-71852856D01*
X166859404Y-71852856D02*
X166787976Y-71852856D01*
X166787976Y-71852856D02*
X166692738Y-71829047D01*
X166692738Y-71829047D02*
X166645119Y-71805237D01*
X166645119Y-71805237D02*
X166597500Y-71757618D01*
X166597500Y-71757618D02*
X166573690Y-71686190D01*
X166573690Y-71686190D02*
X166573690Y-71638571D01*
X166573690Y-71638571D02*
X166597500Y-71567142D01*
X166597500Y-71567142D02*
X166621309Y-71543333D01*
X166811785Y-71162380D02*
X166835595Y-71090952D01*
X166835595Y-71090952D02*
X166859404Y-71067142D01*
X166859404Y-71067142D02*
X166907023Y-71043333D01*
X166907023Y-71043333D02*
X166978452Y-71043333D01*
X166978452Y-71043333D02*
X167026071Y-71067142D01*
X167026071Y-71067142D02*
X167049880Y-71090952D01*
X167049880Y-71090952D02*
X167073690Y-71138571D01*
X167073690Y-71138571D02*
X167073690Y-71329047D01*
X167073690Y-71329047D02*
X166573690Y-71329047D01*
X166573690Y-71329047D02*
X166573690Y-71162380D01*
X166573690Y-71162380D02*
X166597500Y-71114761D01*
X166597500Y-71114761D02*
X166621309Y-71090952D01*
X166621309Y-71090952D02*
X166668928Y-71067142D01*
X166668928Y-71067142D02*
X166716547Y-71067142D01*
X166716547Y-71067142D02*
X166764166Y-71090952D01*
X166764166Y-71090952D02*
X166787976Y-71114761D01*
X166787976Y-71114761D02*
X166811785Y-71162380D01*
X166811785Y-71162380D02*
X166811785Y-71329047D01*
X166573690Y-70829047D02*
X166978452Y-70829047D01*
X166978452Y-70829047D02*
X167026071Y-70805237D01*
X167026071Y-70805237D02*
X167049880Y-70781428D01*
X167049880Y-70781428D02*
X167073690Y-70733809D01*
X167073690Y-70733809D02*
X167073690Y-70638571D01*
X167073690Y-70638571D02*
X167049880Y-70590952D01*
X167049880Y-70590952D02*
X167026071Y-70567142D01*
X167026071Y-70567142D02*
X166978452Y-70543333D01*
X166978452Y-70543333D02*
X166573690Y-70543333D01*
X167049880Y-70329046D02*
X167073690Y-70257618D01*
X167073690Y-70257618D02*
X167073690Y-70138570D01*
X167073690Y-70138570D02*
X167049880Y-70090951D01*
X167049880Y-70090951D02*
X167026071Y-70067142D01*
X167026071Y-70067142D02*
X166978452Y-70043332D01*
X166978452Y-70043332D02*
X166930833Y-70043332D01*
X166930833Y-70043332D02*
X166883214Y-70067142D01*
X166883214Y-70067142D02*
X166859404Y-70090951D01*
X166859404Y-70090951D02*
X166835595Y-70138570D01*
X166835595Y-70138570D02*
X166811785Y-70233808D01*
X166811785Y-70233808D02*
X166787976Y-70281427D01*
X166787976Y-70281427D02*
X166764166Y-70305237D01*
X166764166Y-70305237D02*
X166716547Y-70329046D01*
X166716547Y-70329046D02*
X166668928Y-70329046D01*
X166668928Y-70329046D02*
X166621309Y-70305237D01*
X166621309Y-70305237D02*
X166597500Y-70281427D01*
X166597500Y-70281427D02*
X166573690Y-70233808D01*
X166573690Y-70233808D02*
X166573690Y-70114761D01*
X166573690Y-70114761D02*
X166597500Y-70043332D01*
X166740357Y-69614761D02*
X167073690Y-69614761D01*
X166549880Y-69733809D02*
X166907023Y-69852856D01*
X166907023Y-69852856D02*
X166907023Y-69543333D01*
X186036071Y-74063333D02*
X186059880Y-74087142D01*
X186059880Y-74087142D02*
X186083690Y-74158571D01*
X186083690Y-74158571D02*
X186083690Y-74206190D01*
X186083690Y-74206190D02*
X186059880Y-74277618D01*
X186059880Y-74277618D02*
X186012261Y-74325237D01*
X186012261Y-74325237D02*
X185964642Y-74349047D01*
X185964642Y-74349047D02*
X185869404Y-74372856D01*
X185869404Y-74372856D02*
X185797976Y-74372856D01*
X185797976Y-74372856D02*
X185702738Y-74349047D01*
X185702738Y-74349047D02*
X185655119Y-74325237D01*
X185655119Y-74325237D02*
X185607500Y-74277618D01*
X185607500Y-74277618D02*
X185583690Y-74206190D01*
X185583690Y-74206190D02*
X185583690Y-74158571D01*
X185583690Y-74158571D02*
X185607500Y-74087142D01*
X185607500Y-74087142D02*
X185631309Y-74063333D01*
X185821785Y-73682380D02*
X185845595Y-73610952D01*
X185845595Y-73610952D02*
X185869404Y-73587142D01*
X185869404Y-73587142D02*
X185917023Y-73563333D01*
X185917023Y-73563333D02*
X185988452Y-73563333D01*
X185988452Y-73563333D02*
X186036071Y-73587142D01*
X186036071Y-73587142D02*
X186059880Y-73610952D01*
X186059880Y-73610952D02*
X186083690Y-73658571D01*
X186083690Y-73658571D02*
X186083690Y-73849047D01*
X186083690Y-73849047D02*
X185583690Y-73849047D01*
X185583690Y-73849047D02*
X185583690Y-73682380D01*
X185583690Y-73682380D02*
X185607500Y-73634761D01*
X185607500Y-73634761D02*
X185631309Y-73610952D01*
X185631309Y-73610952D02*
X185678928Y-73587142D01*
X185678928Y-73587142D02*
X185726547Y-73587142D01*
X185726547Y-73587142D02*
X185774166Y-73610952D01*
X185774166Y-73610952D02*
X185797976Y-73634761D01*
X185797976Y-73634761D02*
X185821785Y-73682380D01*
X185821785Y-73682380D02*
X185821785Y-73849047D01*
X185583690Y-73349047D02*
X185988452Y-73349047D01*
X185988452Y-73349047D02*
X186036071Y-73325237D01*
X186036071Y-73325237D02*
X186059880Y-73301428D01*
X186059880Y-73301428D02*
X186083690Y-73253809D01*
X186083690Y-73253809D02*
X186083690Y-73158571D01*
X186083690Y-73158571D02*
X186059880Y-73110952D01*
X186059880Y-73110952D02*
X186036071Y-73087142D01*
X186036071Y-73087142D02*
X185988452Y-73063333D01*
X185988452Y-73063333D02*
X185583690Y-73063333D01*
X186059880Y-72849046D02*
X186083690Y-72777618D01*
X186083690Y-72777618D02*
X186083690Y-72658570D01*
X186083690Y-72658570D02*
X186059880Y-72610951D01*
X186059880Y-72610951D02*
X186036071Y-72587142D01*
X186036071Y-72587142D02*
X185988452Y-72563332D01*
X185988452Y-72563332D02*
X185940833Y-72563332D01*
X185940833Y-72563332D02*
X185893214Y-72587142D01*
X185893214Y-72587142D02*
X185869404Y-72610951D01*
X185869404Y-72610951D02*
X185845595Y-72658570D01*
X185845595Y-72658570D02*
X185821785Y-72753808D01*
X185821785Y-72753808D02*
X185797976Y-72801427D01*
X185797976Y-72801427D02*
X185774166Y-72825237D01*
X185774166Y-72825237D02*
X185726547Y-72849046D01*
X185726547Y-72849046D02*
X185678928Y-72849046D01*
X185678928Y-72849046D02*
X185631309Y-72825237D01*
X185631309Y-72825237D02*
X185607500Y-72801427D01*
X185607500Y-72801427D02*
X185583690Y-72753808D01*
X185583690Y-72753808D02*
X185583690Y-72634761D01*
X185583690Y-72634761D02*
X185607500Y-72563332D01*
X185583690Y-72110952D02*
X185583690Y-72349047D01*
X185583690Y-72349047D02*
X185821785Y-72372856D01*
X185821785Y-72372856D02*
X185797976Y-72349047D01*
X185797976Y-72349047D02*
X185774166Y-72301428D01*
X185774166Y-72301428D02*
X185774166Y-72182380D01*
X185774166Y-72182380D02*
X185797976Y-72134761D01*
X185797976Y-72134761D02*
X185821785Y-72110952D01*
X185821785Y-72110952D02*
X185869404Y-72087142D01*
X185869404Y-72087142D02*
X185988452Y-72087142D01*
X185988452Y-72087142D02*
X186036071Y-72110952D01*
X186036071Y-72110952D02*
X186059880Y-72134761D01*
X186059880Y-72134761D02*
X186083690Y-72182380D01*
X186083690Y-72182380D02*
X186083690Y-72301428D01*
X186083690Y-72301428D02*
X186059880Y-72349047D01*
X186059880Y-72349047D02*
X186036071Y-72372856D01*
X175456666Y-76736071D02*
X175432857Y-76759880D01*
X175432857Y-76759880D02*
X175361428Y-76783690D01*
X175361428Y-76783690D02*
X175313809Y-76783690D01*
X175313809Y-76783690D02*
X175242381Y-76759880D01*
X175242381Y-76759880D02*
X175194762Y-76712261D01*
X175194762Y-76712261D02*
X175170952Y-76664642D01*
X175170952Y-76664642D02*
X175147143Y-76569404D01*
X175147143Y-76569404D02*
X175147143Y-76497976D01*
X175147143Y-76497976D02*
X175170952Y-76402738D01*
X175170952Y-76402738D02*
X175194762Y-76355119D01*
X175194762Y-76355119D02*
X175242381Y-76307500D01*
X175242381Y-76307500D02*
X175313809Y-76283690D01*
X175313809Y-76283690D02*
X175361428Y-76283690D01*
X175361428Y-76283690D02*
X175432857Y-76307500D01*
X175432857Y-76307500D02*
X175456666Y-76331309D01*
X175837619Y-76521785D02*
X175909047Y-76545595D01*
X175909047Y-76545595D02*
X175932857Y-76569404D01*
X175932857Y-76569404D02*
X175956666Y-76617023D01*
X175956666Y-76617023D02*
X175956666Y-76688452D01*
X175956666Y-76688452D02*
X175932857Y-76736071D01*
X175932857Y-76736071D02*
X175909047Y-76759880D01*
X175909047Y-76759880D02*
X175861428Y-76783690D01*
X175861428Y-76783690D02*
X175670952Y-76783690D01*
X175670952Y-76783690D02*
X175670952Y-76283690D01*
X175670952Y-76283690D02*
X175837619Y-76283690D01*
X175837619Y-76283690D02*
X175885238Y-76307500D01*
X175885238Y-76307500D02*
X175909047Y-76331309D01*
X175909047Y-76331309D02*
X175932857Y-76378928D01*
X175932857Y-76378928D02*
X175932857Y-76426547D01*
X175932857Y-76426547D02*
X175909047Y-76474166D01*
X175909047Y-76474166D02*
X175885238Y-76497976D01*
X175885238Y-76497976D02*
X175837619Y-76521785D01*
X175837619Y-76521785D02*
X175670952Y-76521785D01*
X176170952Y-76283690D02*
X176170952Y-76688452D01*
X176170952Y-76688452D02*
X176194762Y-76736071D01*
X176194762Y-76736071D02*
X176218571Y-76759880D01*
X176218571Y-76759880D02*
X176266190Y-76783690D01*
X176266190Y-76783690D02*
X176361428Y-76783690D01*
X176361428Y-76783690D02*
X176409047Y-76759880D01*
X176409047Y-76759880D02*
X176432857Y-76736071D01*
X176432857Y-76736071D02*
X176456666Y-76688452D01*
X176456666Y-76688452D02*
X176456666Y-76283690D01*
X176670953Y-76759880D02*
X176742381Y-76783690D01*
X176742381Y-76783690D02*
X176861429Y-76783690D01*
X176861429Y-76783690D02*
X176909048Y-76759880D01*
X176909048Y-76759880D02*
X176932857Y-76736071D01*
X176932857Y-76736071D02*
X176956667Y-76688452D01*
X176956667Y-76688452D02*
X176956667Y-76640833D01*
X176956667Y-76640833D02*
X176932857Y-76593214D01*
X176932857Y-76593214D02*
X176909048Y-76569404D01*
X176909048Y-76569404D02*
X176861429Y-76545595D01*
X176861429Y-76545595D02*
X176766191Y-76521785D01*
X176766191Y-76521785D02*
X176718572Y-76497976D01*
X176718572Y-76497976D02*
X176694762Y-76474166D01*
X176694762Y-76474166D02*
X176670953Y-76426547D01*
X176670953Y-76426547D02*
X176670953Y-76378928D01*
X176670953Y-76378928D02*
X176694762Y-76331309D01*
X176694762Y-76331309D02*
X176718572Y-76307500D01*
X176718572Y-76307500D02*
X176766191Y-76283690D01*
X176766191Y-76283690D02*
X176885238Y-76283690D01*
X176885238Y-76283690D02*
X176956667Y-76307500D01*
X177123333Y-76283690D02*
X177456666Y-76283690D01*
X177456666Y-76283690D02*
X177242381Y-76783690D01*
X174236071Y-73283333D02*
X174259880Y-73307142D01*
X174259880Y-73307142D02*
X174283690Y-73378571D01*
X174283690Y-73378571D02*
X174283690Y-73426190D01*
X174283690Y-73426190D02*
X174259880Y-73497618D01*
X174259880Y-73497618D02*
X174212261Y-73545237D01*
X174212261Y-73545237D02*
X174164642Y-73569047D01*
X174164642Y-73569047D02*
X174069404Y-73592856D01*
X174069404Y-73592856D02*
X173997976Y-73592856D01*
X173997976Y-73592856D02*
X173902738Y-73569047D01*
X173902738Y-73569047D02*
X173855119Y-73545237D01*
X173855119Y-73545237D02*
X173807500Y-73497618D01*
X173807500Y-73497618D02*
X173783690Y-73426190D01*
X173783690Y-73426190D02*
X173783690Y-73378571D01*
X173783690Y-73378571D02*
X173807500Y-73307142D01*
X173807500Y-73307142D02*
X173831309Y-73283333D01*
X174021785Y-72902380D02*
X174045595Y-72830952D01*
X174045595Y-72830952D02*
X174069404Y-72807142D01*
X174069404Y-72807142D02*
X174117023Y-72783333D01*
X174117023Y-72783333D02*
X174188452Y-72783333D01*
X174188452Y-72783333D02*
X174236071Y-72807142D01*
X174236071Y-72807142D02*
X174259880Y-72830952D01*
X174259880Y-72830952D02*
X174283690Y-72878571D01*
X174283690Y-72878571D02*
X174283690Y-73069047D01*
X174283690Y-73069047D02*
X173783690Y-73069047D01*
X173783690Y-73069047D02*
X173783690Y-72902380D01*
X173783690Y-72902380D02*
X173807500Y-72854761D01*
X173807500Y-72854761D02*
X173831309Y-72830952D01*
X173831309Y-72830952D02*
X173878928Y-72807142D01*
X173878928Y-72807142D02*
X173926547Y-72807142D01*
X173926547Y-72807142D02*
X173974166Y-72830952D01*
X173974166Y-72830952D02*
X173997976Y-72854761D01*
X173997976Y-72854761D02*
X174021785Y-72902380D01*
X174021785Y-72902380D02*
X174021785Y-73069047D01*
X173783690Y-72569047D02*
X174188452Y-72569047D01*
X174188452Y-72569047D02*
X174236071Y-72545237D01*
X174236071Y-72545237D02*
X174259880Y-72521428D01*
X174259880Y-72521428D02*
X174283690Y-72473809D01*
X174283690Y-72473809D02*
X174283690Y-72378571D01*
X174283690Y-72378571D02*
X174259880Y-72330952D01*
X174259880Y-72330952D02*
X174236071Y-72307142D01*
X174236071Y-72307142D02*
X174188452Y-72283333D01*
X174188452Y-72283333D02*
X173783690Y-72283333D01*
X174259880Y-72069046D02*
X174283690Y-71997618D01*
X174283690Y-71997618D02*
X174283690Y-71878570D01*
X174283690Y-71878570D02*
X174259880Y-71830951D01*
X174259880Y-71830951D02*
X174236071Y-71807142D01*
X174236071Y-71807142D02*
X174188452Y-71783332D01*
X174188452Y-71783332D02*
X174140833Y-71783332D01*
X174140833Y-71783332D02*
X174093214Y-71807142D01*
X174093214Y-71807142D02*
X174069404Y-71830951D01*
X174069404Y-71830951D02*
X174045595Y-71878570D01*
X174045595Y-71878570D02*
X174021785Y-71973808D01*
X174021785Y-71973808D02*
X173997976Y-72021427D01*
X173997976Y-72021427D02*
X173974166Y-72045237D01*
X173974166Y-72045237D02*
X173926547Y-72069046D01*
X173926547Y-72069046D02*
X173878928Y-72069046D01*
X173878928Y-72069046D02*
X173831309Y-72045237D01*
X173831309Y-72045237D02*
X173807500Y-72021427D01*
X173807500Y-72021427D02*
X173783690Y-71973808D01*
X173783690Y-71973808D02*
X173783690Y-71854761D01*
X173783690Y-71854761D02*
X173807500Y-71783332D01*
X173997976Y-71497618D02*
X173974166Y-71545237D01*
X173974166Y-71545237D02*
X173950357Y-71569047D01*
X173950357Y-71569047D02*
X173902738Y-71592856D01*
X173902738Y-71592856D02*
X173878928Y-71592856D01*
X173878928Y-71592856D02*
X173831309Y-71569047D01*
X173831309Y-71569047D02*
X173807500Y-71545237D01*
X173807500Y-71545237D02*
X173783690Y-71497618D01*
X173783690Y-71497618D02*
X173783690Y-71402380D01*
X173783690Y-71402380D02*
X173807500Y-71354761D01*
X173807500Y-71354761D02*
X173831309Y-71330952D01*
X173831309Y-71330952D02*
X173878928Y-71307142D01*
X173878928Y-71307142D02*
X173902738Y-71307142D01*
X173902738Y-71307142D02*
X173950357Y-71330952D01*
X173950357Y-71330952D02*
X173974166Y-71354761D01*
X173974166Y-71354761D02*
X173997976Y-71402380D01*
X173997976Y-71402380D02*
X173997976Y-71497618D01*
X173997976Y-71497618D02*
X174021785Y-71545237D01*
X174021785Y-71545237D02*
X174045595Y-71569047D01*
X174045595Y-71569047D02*
X174093214Y-71592856D01*
X174093214Y-71592856D02*
X174188452Y-71592856D01*
X174188452Y-71592856D02*
X174236071Y-71569047D01*
X174236071Y-71569047D02*
X174259880Y-71545237D01*
X174259880Y-71545237D02*
X174283690Y-71497618D01*
X174283690Y-71497618D02*
X174283690Y-71402380D01*
X174283690Y-71402380D02*
X174259880Y-71354761D01*
X174259880Y-71354761D02*
X174236071Y-71330952D01*
X174236071Y-71330952D02*
X174188452Y-71307142D01*
X174188452Y-71307142D02*
X174093214Y-71307142D01*
X174093214Y-71307142D02*
X174045595Y-71330952D01*
X174045595Y-71330952D02*
X174021785Y-71354761D01*
X174021785Y-71354761D02*
X173997976Y-71402380D01*
X128916071Y-67528095D02*
X128939880Y-67551904D01*
X128939880Y-67551904D02*
X128963690Y-67623333D01*
X128963690Y-67623333D02*
X128963690Y-67670952D01*
X128963690Y-67670952D02*
X128939880Y-67742380D01*
X128939880Y-67742380D02*
X128892261Y-67789999D01*
X128892261Y-67789999D02*
X128844642Y-67813809D01*
X128844642Y-67813809D02*
X128749404Y-67837618D01*
X128749404Y-67837618D02*
X128677976Y-67837618D01*
X128677976Y-67837618D02*
X128582738Y-67813809D01*
X128582738Y-67813809D02*
X128535119Y-67789999D01*
X128535119Y-67789999D02*
X128487500Y-67742380D01*
X128487500Y-67742380D02*
X128463690Y-67670952D01*
X128463690Y-67670952D02*
X128463690Y-67623333D01*
X128463690Y-67623333D02*
X128487500Y-67551904D01*
X128487500Y-67551904D02*
X128511309Y-67528095D01*
X128963690Y-67313809D02*
X128463690Y-67313809D01*
X128463690Y-67313809D02*
X128463690Y-67123333D01*
X128463690Y-67123333D02*
X128487500Y-67075714D01*
X128487500Y-67075714D02*
X128511309Y-67051904D01*
X128511309Y-67051904D02*
X128558928Y-67028095D01*
X128558928Y-67028095D02*
X128630357Y-67028095D01*
X128630357Y-67028095D02*
X128677976Y-67051904D01*
X128677976Y-67051904D02*
X128701785Y-67075714D01*
X128701785Y-67075714D02*
X128725595Y-67123333D01*
X128725595Y-67123333D02*
X128725595Y-67313809D01*
X128963690Y-66813809D02*
X128463690Y-66813809D01*
X128463690Y-66813809D02*
X128820833Y-66647142D01*
X128820833Y-66647142D02*
X128463690Y-66480476D01*
X128463690Y-66480476D02*
X128963690Y-66480476D01*
X128963690Y-66242380D02*
X128463690Y-66242380D01*
X128963690Y-66004285D02*
X128463690Y-66004285D01*
X128463690Y-66004285D02*
X128463690Y-65885237D01*
X128463690Y-65885237D02*
X128487500Y-65813809D01*
X128487500Y-65813809D02*
X128535119Y-65766190D01*
X128535119Y-65766190D02*
X128582738Y-65742380D01*
X128582738Y-65742380D02*
X128677976Y-65718571D01*
X128677976Y-65718571D02*
X128749404Y-65718571D01*
X128749404Y-65718571D02*
X128844642Y-65742380D01*
X128844642Y-65742380D02*
X128892261Y-65766190D01*
X128892261Y-65766190D02*
X128939880Y-65813809D01*
X128939880Y-65813809D02*
X128963690Y-65885237D01*
X128963690Y-65885237D02*
X128963690Y-66004285D01*
X128963690Y-65242380D02*
X128963690Y-65528094D01*
X128963690Y-65385237D02*
X128463690Y-65385237D01*
X128463690Y-65385237D02*
X128535119Y-65432856D01*
X128535119Y-65432856D02*
X128582738Y-65480475D01*
X128582738Y-65480475D02*
X128606547Y-65528094D01*
X138396191Y-68386071D02*
X138372382Y-68409880D01*
X138372382Y-68409880D02*
X138300953Y-68433690D01*
X138300953Y-68433690D02*
X138253334Y-68433690D01*
X138253334Y-68433690D02*
X138181906Y-68409880D01*
X138181906Y-68409880D02*
X138134287Y-68362261D01*
X138134287Y-68362261D02*
X138110477Y-68314642D01*
X138110477Y-68314642D02*
X138086668Y-68219404D01*
X138086668Y-68219404D02*
X138086668Y-68147976D01*
X138086668Y-68147976D02*
X138110477Y-68052738D01*
X138110477Y-68052738D02*
X138134287Y-68005119D01*
X138134287Y-68005119D02*
X138181906Y-67957500D01*
X138181906Y-67957500D02*
X138253334Y-67933690D01*
X138253334Y-67933690D02*
X138300953Y-67933690D01*
X138300953Y-67933690D02*
X138372382Y-67957500D01*
X138372382Y-67957500D02*
X138396191Y-67981309D01*
X138586668Y-68409880D02*
X138658096Y-68433690D01*
X138658096Y-68433690D02*
X138777144Y-68433690D01*
X138777144Y-68433690D02*
X138824763Y-68409880D01*
X138824763Y-68409880D02*
X138848572Y-68386071D01*
X138848572Y-68386071D02*
X138872382Y-68338452D01*
X138872382Y-68338452D02*
X138872382Y-68290833D01*
X138872382Y-68290833D02*
X138848572Y-68243214D01*
X138848572Y-68243214D02*
X138824763Y-68219404D01*
X138824763Y-68219404D02*
X138777144Y-68195595D01*
X138777144Y-68195595D02*
X138681906Y-68171785D01*
X138681906Y-68171785D02*
X138634287Y-68147976D01*
X138634287Y-68147976D02*
X138610477Y-68124166D01*
X138610477Y-68124166D02*
X138586668Y-68076547D01*
X138586668Y-68076547D02*
X138586668Y-68028928D01*
X138586668Y-68028928D02*
X138610477Y-67981309D01*
X138610477Y-67981309D02*
X138634287Y-67957500D01*
X138634287Y-67957500D02*
X138681906Y-67933690D01*
X138681906Y-67933690D02*
X138800953Y-67933690D01*
X138800953Y-67933690D02*
X138872382Y-67957500D01*
X139181905Y-68195595D02*
X139181905Y-68433690D01*
X139015239Y-67933690D02*
X139181905Y-68195595D01*
X139181905Y-68195595D02*
X139348572Y-67933690D01*
X139491429Y-68409880D02*
X139562857Y-68433690D01*
X139562857Y-68433690D02*
X139681905Y-68433690D01*
X139681905Y-68433690D02*
X139729524Y-68409880D01*
X139729524Y-68409880D02*
X139753333Y-68386071D01*
X139753333Y-68386071D02*
X139777143Y-68338452D01*
X139777143Y-68338452D02*
X139777143Y-68290833D01*
X139777143Y-68290833D02*
X139753333Y-68243214D01*
X139753333Y-68243214D02*
X139729524Y-68219404D01*
X139729524Y-68219404D02*
X139681905Y-68195595D01*
X139681905Y-68195595D02*
X139586667Y-68171785D01*
X139586667Y-68171785D02*
X139539048Y-68147976D01*
X139539048Y-68147976D02*
X139515238Y-68124166D01*
X139515238Y-68124166D02*
X139491429Y-68076547D01*
X139491429Y-68076547D02*
X139491429Y-68028928D01*
X139491429Y-68028928D02*
X139515238Y-67981309D01*
X139515238Y-67981309D02*
X139539048Y-67957500D01*
X139539048Y-67957500D02*
X139586667Y-67933690D01*
X139586667Y-67933690D02*
X139705714Y-67933690D01*
X139705714Y-67933690D02*
X139777143Y-67957500D01*
X140253333Y-68433690D02*
X139967619Y-68433690D01*
X140110476Y-68433690D02*
X140110476Y-67933690D01*
X140110476Y-67933690D02*
X140062857Y-68005119D01*
X140062857Y-68005119D02*
X140015238Y-68052738D01*
X140015238Y-68052738D02*
X139967619Y-68076547D01*
X117483690Y-75439047D02*
X116983690Y-75439047D01*
X116983690Y-75439047D02*
X116983690Y-75319999D01*
X116983690Y-75319999D02*
X117007500Y-75248571D01*
X117007500Y-75248571D02*
X117055119Y-75200952D01*
X117055119Y-75200952D02*
X117102738Y-75177142D01*
X117102738Y-75177142D02*
X117197976Y-75153333D01*
X117197976Y-75153333D02*
X117269404Y-75153333D01*
X117269404Y-75153333D02*
X117364642Y-75177142D01*
X117364642Y-75177142D02*
X117412261Y-75200952D01*
X117412261Y-75200952D02*
X117459880Y-75248571D01*
X117459880Y-75248571D02*
X117483690Y-75319999D01*
X117483690Y-75319999D02*
X117483690Y-75439047D01*
X117483690Y-74677142D02*
X117483690Y-74962856D01*
X117483690Y-74819999D02*
X116983690Y-74819999D01*
X116983690Y-74819999D02*
X117055119Y-74867618D01*
X117055119Y-74867618D02*
X117102738Y-74915237D01*
X117102738Y-74915237D02*
X117126547Y-74962856D01*
X123330952Y-78033690D02*
X123330952Y-77533690D01*
X123330952Y-77533690D02*
X123450000Y-77533690D01*
X123450000Y-77533690D02*
X123521428Y-77557500D01*
X123521428Y-77557500D02*
X123569047Y-77605119D01*
X123569047Y-77605119D02*
X123592857Y-77652738D01*
X123592857Y-77652738D02*
X123616666Y-77747976D01*
X123616666Y-77747976D02*
X123616666Y-77819404D01*
X123616666Y-77819404D02*
X123592857Y-77914642D01*
X123592857Y-77914642D02*
X123569047Y-77962261D01*
X123569047Y-77962261D02*
X123521428Y-78009880D01*
X123521428Y-78009880D02*
X123450000Y-78033690D01*
X123450000Y-78033690D02*
X123330952Y-78033690D01*
X123807143Y-77581309D02*
X123830952Y-77557500D01*
X123830952Y-77557500D02*
X123878571Y-77533690D01*
X123878571Y-77533690D02*
X123997619Y-77533690D01*
X123997619Y-77533690D02*
X124045238Y-77557500D01*
X124045238Y-77557500D02*
X124069047Y-77581309D01*
X124069047Y-77581309D02*
X124092857Y-77628928D01*
X124092857Y-77628928D02*
X124092857Y-77676547D01*
X124092857Y-77676547D02*
X124069047Y-77747976D01*
X124069047Y-77747976D02*
X123783333Y-78033690D01*
X123783333Y-78033690D02*
X124092857Y-78033690D01*
X121216666Y-76753690D02*
X121050000Y-76515595D01*
X120930952Y-76753690D02*
X120930952Y-76253690D01*
X120930952Y-76253690D02*
X121121428Y-76253690D01*
X121121428Y-76253690D02*
X121169047Y-76277500D01*
X121169047Y-76277500D02*
X121192857Y-76301309D01*
X121192857Y-76301309D02*
X121216666Y-76348928D01*
X121216666Y-76348928D02*
X121216666Y-76420357D01*
X121216666Y-76420357D02*
X121192857Y-76467976D01*
X121192857Y-76467976D02*
X121169047Y-76491785D01*
X121169047Y-76491785D02*
X121121428Y-76515595D01*
X121121428Y-76515595D02*
X120930952Y-76515595D01*
X121645238Y-76420357D02*
X121645238Y-76753690D01*
X121526190Y-76229880D02*
X121407143Y-76587023D01*
X121407143Y-76587023D02*
X121716666Y-76587023D01*
X126789666Y-73588690D02*
X126623000Y-73350595D01*
X126503952Y-73588690D02*
X126503952Y-73088690D01*
X126503952Y-73088690D02*
X126694428Y-73088690D01*
X126694428Y-73088690D02*
X126742047Y-73112500D01*
X126742047Y-73112500D02*
X126765857Y-73136309D01*
X126765857Y-73136309D02*
X126789666Y-73183928D01*
X126789666Y-73183928D02*
X126789666Y-73255357D01*
X126789666Y-73255357D02*
X126765857Y-73302976D01*
X126765857Y-73302976D02*
X126742047Y-73326785D01*
X126742047Y-73326785D02*
X126694428Y-73350595D01*
X126694428Y-73350595D02*
X126503952Y-73350595D01*
X127242047Y-73088690D02*
X127003952Y-73088690D01*
X127003952Y-73088690D02*
X126980143Y-73326785D01*
X126980143Y-73326785D02*
X127003952Y-73302976D01*
X127003952Y-73302976D02*
X127051571Y-73279166D01*
X127051571Y-73279166D02*
X127170619Y-73279166D01*
X127170619Y-73279166D02*
X127218238Y-73302976D01*
X127218238Y-73302976D02*
X127242047Y-73326785D01*
X127242047Y-73326785D02*
X127265857Y-73374404D01*
X127265857Y-73374404D02*
X127265857Y-73493452D01*
X127265857Y-73493452D02*
X127242047Y-73541071D01*
X127242047Y-73541071D02*
X127218238Y-73564880D01*
X127218238Y-73564880D02*
X127170619Y-73588690D01*
X127170619Y-73588690D02*
X127051571Y-73588690D01*
X127051571Y-73588690D02*
X127003952Y-73564880D01*
X127003952Y-73564880D02*
X126980143Y-73541071D01*
X132123666Y-82605690D02*
X131957000Y-82367595D01*
X131837952Y-82605690D02*
X131837952Y-82105690D01*
X131837952Y-82105690D02*
X132028428Y-82105690D01*
X132028428Y-82105690D02*
X132076047Y-82129500D01*
X132076047Y-82129500D02*
X132099857Y-82153309D01*
X132099857Y-82153309D02*
X132123666Y-82200928D01*
X132123666Y-82200928D02*
X132123666Y-82272357D01*
X132123666Y-82272357D02*
X132099857Y-82319976D01*
X132099857Y-82319976D02*
X132076047Y-82343785D01*
X132076047Y-82343785D02*
X132028428Y-82367595D01*
X132028428Y-82367595D02*
X131837952Y-82367595D01*
X132290333Y-82105690D02*
X132623666Y-82105690D01*
X132623666Y-82105690D02*
X132409381Y-82605690D01*
X135626666Y-73213690D02*
X135460000Y-72975595D01*
X135340952Y-73213690D02*
X135340952Y-72713690D01*
X135340952Y-72713690D02*
X135531428Y-72713690D01*
X135531428Y-72713690D02*
X135579047Y-72737500D01*
X135579047Y-72737500D02*
X135602857Y-72761309D01*
X135602857Y-72761309D02*
X135626666Y-72808928D01*
X135626666Y-72808928D02*
X135626666Y-72880357D01*
X135626666Y-72880357D02*
X135602857Y-72927976D01*
X135602857Y-72927976D02*
X135579047Y-72951785D01*
X135579047Y-72951785D02*
X135531428Y-72975595D01*
X135531428Y-72975595D02*
X135340952Y-72975595D01*
X135912381Y-72927976D02*
X135864762Y-72904166D01*
X135864762Y-72904166D02*
X135840952Y-72880357D01*
X135840952Y-72880357D02*
X135817143Y-72832738D01*
X135817143Y-72832738D02*
X135817143Y-72808928D01*
X135817143Y-72808928D02*
X135840952Y-72761309D01*
X135840952Y-72761309D02*
X135864762Y-72737500D01*
X135864762Y-72737500D02*
X135912381Y-72713690D01*
X135912381Y-72713690D02*
X136007619Y-72713690D01*
X136007619Y-72713690D02*
X136055238Y-72737500D01*
X136055238Y-72737500D02*
X136079047Y-72761309D01*
X136079047Y-72761309D02*
X136102857Y-72808928D01*
X136102857Y-72808928D02*
X136102857Y-72832738D01*
X136102857Y-72832738D02*
X136079047Y-72880357D01*
X136079047Y-72880357D02*
X136055238Y-72904166D01*
X136055238Y-72904166D02*
X136007619Y-72927976D01*
X136007619Y-72927976D02*
X135912381Y-72927976D01*
X135912381Y-72927976D02*
X135864762Y-72951785D01*
X135864762Y-72951785D02*
X135840952Y-72975595D01*
X135840952Y-72975595D02*
X135817143Y-73023214D01*
X135817143Y-73023214D02*
X135817143Y-73118452D01*
X135817143Y-73118452D02*
X135840952Y-73166071D01*
X135840952Y-73166071D02*
X135864762Y-73189880D01*
X135864762Y-73189880D02*
X135912381Y-73213690D01*
X135912381Y-73213690D02*
X136007619Y-73213690D01*
X136007619Y-73213690D02*
X136055238Y-73189880D01*
X136055238Y-73189880D02*
X136079047Y-73166071D01*
X136079047Y-73166071D02*
X136102857Y-73118452D01*
X136102857Y-73118452D02*
X136102857Y-73023214D01*
X136102857Y-73023214D02*
X136079047Y-72975595D01*
X136079047Y-72975595D02*
X136055238Y-72951785D01*
X136055238Y-72951785D02*
X136007619Y-72927976D01*
X181919690Y-75775333D02*
X181681595Y-75941999D01*
X181919690Y-76061047D02*
X181419690Y-76061047D01*
X181419690Y-76061047D02*
X181419690Y-75870571D01*
X181419690Y-75870571D02*
X181443500Y-75822952D01*
X181443500Y-75822952D02*
X181467309Y-75799142D01*
X181467309Y-75799142D02*
X181514928Y-75775333D01*
X181514928Y-75775333D02*
X181586357Y-75775333D01*
X181586357Y-75775333D02*
X181633976Y-75799142D01*
X181633976Y-75799142D02*
X181657785Y-75822952D01*
X181657785Y-75822952D02*
X181681595Y-75870571D01*
X181681595Y-75870571D02*
X181681595Y-76061047D01*
X181919690Y-75537237D02*
X181919690Y-75441999D01*
X181919690Y-75441999D02*
X181895880Y-75394380D01*
X181895880Y-75394380D02*
X181872071Y-75370571D01*
X181872071Y-75370571D02*
X181800642Y-75322952D01*
X181800642Y-75322952D02*
X181705404Y-75299142D01*
X181705404Y-75299142D02*
X181514928Y-75299142D01*
X181514928Y-75299142D02*
X181467309Y-75322952D01*
X181467309Y-75322952D02*
X181443500Y-75346761D01*
X181443500Y-75346761D02*
X181419690Y-75394380D01*
X181419690Y-75394380D02*
X181419690Y-75489618D01*
X181419690Y-75489618D02*
X181443500Y-75537237D01*
X181443500Y-75537237D02*
X181467309Y-75561047D01*
X181467309Y-75561047D02*
X181514928Y-75584856D01*
X181514928Y-75584856D02*
X181633976Y-75584856D01*
X181633976Y-75584856D02*
X181681595Y-75561047D01*
X181681595Y-75561047D02*
X181705404Y-75537237D01*
X181705404Y-75537237D02*
X181729214Y-75489618D01*
X181729214Y-75489618D02*
X181729214Y-75394380D01*
X181729214Y-75394380D02*
X181705404Y-75346761D01*
X181705404Y-75346761D02*
X181681595Y-75322952D01*
X181681595Y-75322952D02*
X181633976Y-75299142D01*
X135188571Y-75543690D02*
X135021905Y-75305595D01*
X134902857Y-75543690D02*
X134902857Y-75043690D01*
X134902857Y-75043690D02*
X135093333Y-75043690D01*
X135093333Y-75043690D02*
X135140952Y-75067500D01*
X135140952Y-75067500D02*
X135164762Y-75091309D01*
X135164762Y-75091309D02*
X135188571Y-75138928D01*
X135188571Y-75138928D02*
X135188571Y-75210357D01*
X135188571Y-75210357D02*
X135164762Y-75257976D01*
X135164762Y-75257976D02*
X135140952Y-75281785D01*
X135140952Y-75281785D02*
X135093333Y-75305595D01*
X135093333Y-75305595D02*
X134902857Y-75305595D01*
X135664762Y-75543690D02*
X135379048Y-75543690D01*
X135521905Y-75543690D02*
X135521905Y-75043690D01*
X135521905Y-75043690D02*
X135474286Y-75115119D01*
X135474286Y-75115119D02*
X135426667Y-75162738D01*
X135426667Y-75162738D02*
X135379048Y-75186547D01*
X135974285Y-75043690D02*
X136021904Y-75043690D01*
X136021904Y-75043690D02*
X136069523Y-75067500D01*
X136069523Y-75067500D02*
X136093333Y-75091309D01*
X136093333Y-75091309D02*
X136117142Y-75138928D01*
X136117142Y-75138928D02*
X136140952Y-75234166D01*
X136140952Y-75234166D02*
X136140952Y-75353214D01*
X136140952Y-75353214D02*
X136117142Y-75448452D01*
X136117142Y-75448452D02*
X136093333Y-75496071D01*
X136093333Y-75496071D02*
X136069523Y-75519880D01*
X136069523Y-75519880D02*
X136021904Y-75543690D01*
X136021904Y-75543690D02*
X135974285Y-75543690D01*
X135974285Y-75543690D02*
X135926666Y-75519880D01*
X135926666Y-75519880D02*
X135902857Y-75496071D01*
X135902857Y-75496071D02*
X135879047Y-75448452D01*
X135879047Y-75448452D02*
X135855238Y-75353214D01*
X135855238Y-75353214D02*
X135855238Y-75234166D01*
X135855238Y-75234166D02*
X135879047Y-75138928D01*
X135879047Y-75138928D02*
X135902857Y-75091309D01*
X135902857Y-75091309D02*
X135926666Y-75067500D01*
X135926666Y-75067500D02*
X135974285Y-75043690D01*
X146806071Y-69253333D02*
X146829880Y-69277142D01*
X146829880Y-69277142D02*
X146853690Y-69348571D01*
X146853690Y-69348571D02*
X146853690Y-69396190D01*
X146853690Y-69396190D02*
X146829880Y-69467618D01*
X146829880Y-69467618D02*
X146782261Y-69515237D01*
X146782261Y-69515237D02*
X146734642Y-69539047D01*
X146734642Y-69539047D02*
X146639404Y-69562856D01*
X146639404Y-69562856D02*
X146567976Y-69562856D01*
X146567976Y-69562856D02*
X146472738Y-69539047D01*
X146472738Y-69539047D02*
X146425119Y-69515237D01*
X146425119Y-69515237D02*
X146377500Y-69467618D01*
X146377500Y-69467618D02*
X146353690Y-69396190D01*
X146353690Y-69396190D02*
X146353690Y-69348571D01*
X146353690Y-69348571D02*
X146377500Y-69277142D01*
X146377500Y-69277142D02*
X146401309Y-69253333D01*
X146853690Y-68777142D02*
X146853690Y-69062856D01*
X146853690Y-68919999D02*
X146353690Y-68919999D01*
X146353690Y-68919999D02*
X146425119Y-68967618D01*
X146425119Y-68967618D02*
X146472738Y-69015237D01*
X146472738Y-69015237D02*
X146496547Y-69062856D01*
X157326071Y-59633333D02*
X157349880Y-59657142D01*
X157349880Y-59657142D02*
X157373690Y-59728571D01*
X157373690Y-59728571D02*
X157373690Y-59776190D01*
X157373690Y-59776190D02*
X157349880Y-59847618D01*
X157349880Y-59847618D02*
X157302261Y-59895237D01*
X157302261Y-59895237D02*
X157254642Y-59919047D01*
X157254642Y-59919047D02*
X157159404Y-59942856D01*
X157159404Y-59942856D02*
X157087976Y-59942856D01*
X157087976Y-59942856D02*
X156992738Y-59919047D01*
X156992738Y-59919047D02*
X156945119Y-59895237D01*
X156945119Y-59895237D02*
X156897500Y-59847618D01*
X156897500Y-59847618D02*
X156873690Y-59776190D01*
X156873690Y-59776190D02*
X156873690Y-59728571D01*
X156873690Y-59728571D02*
X156897500Y-59657142D01*
X156897500Y-59657142D02*
X156921309Y-59633333D01*
X156873690Y-59466666D02*
X156873690Y-59157142D01*
X156873690Y-59157142D02*
X157064166Y-59323809D01*
X157064166Y-59323809D02*
X157064166Y-59252380D01*
X157064166Y-59252380D02*
X157087976Y-59204761D01*
X157087976Y-59204761D02*
X157111785Y-59180952D01*
X157111785Y-59180952D02*
X157159404Y-59157142D01*
X157159404Y-59157142D02*
X157278452Y-59157142D01*
X157278452Y-59157142D02*
X157326071Y-59180952D01*
X157326071Y-59180952D02*
X157349880Y-59204761D01*
X157349880Y-59204761D02*
X157373690Y-59252380D01*
X157373690Y-59252380D02*
X157373690Y-59395237D01*
X157373690Y-59395237D02*
X157349880Y-59442856D01*
X157349880Y-59442856D02*
X157326071Y-59466666D01*
X164306071Y-59613333D02*
X164329880Y-59637142D01*
X164329880Y-59637142D02*
X164353690Y-59708571D01*
X164353690Y-59708571D02*
X164353690Y-59756190D01*
X164353690Y-59756190D02*
X164329880Y-59827618D01*
X164329880Y-59827618D02*
X164282261Y-59875237D01*
X164282261Y-59875237D02*
X164234642Y-59899047D01*
X164234642Y-59899047D02*
X164139404Y-59922856D01*
X164139404Y-59922856D02*
X164067976Y-59922856D01*
X164067976Y-59922856D02*
X163972738Y-59899047D01*
X163972738Y-59899047D02*
X163925119Y-59875237D01*
X163925119Y-59875237D02*
X163877500Y-59827618D01*
X163877500Y-59827618D02*
X163853690Y-59756190D01*
X163853690Y-59756190D02*
X163853690Y-59708571D01*
X163853690Y-59708571D02*
X163877500Y-59637142D01*
X163877500Y-59637142D02*
X163901309Y-59613333D01*
X163853690Y-59160952D02*
X163853690Y-59399047D01*
X163853690Y-59399047D02*
X164091785Y-59422856D01*
X164091785Y-59422856D02*
X164067976Y-59399047D01*
X164067976Y-59399047D02*
X164044166Y-59351428D01*
X164044166Y-59351428D02*
X164044166Y-59232380D01*
X164044166Y-59232380D02*
X164067976Y-59184761D01*
X164067976Y-59184761D02*
X164091785Y-59160952D01*
X164091785Y-59160952D02*
X164139404Y-59137142D01*
X164139404Y-59137142D02*
X164258452Y-59137142D01*
X164258452Y-59137142D02*
X164306071Y-59160952D01*
X164306071Y-59160952D02*
X164329880Y-59184761D01*
X164329880Y-59184761D02*
X164353690Y-59232380D01*
X164353690Y-59232380D02*
X164353690Y-59351428D01*
X164353690Y-59351428D02*
X164329880Y-59399047D01*
X164329880Y-59399047D02*
X164306071Y-59422856D01*
X159526071Y-59493333D02*
X159549880Y-59517142D01*
X159549880Y-59517142D02*
X159573690Y-59588571D01*
X159573690Y-59588571D02*
X159573690Y-59636190D01*
X159573690Y-59636190D02*
X159549880Y-59707618D01*
X159549880Y-59707618D02*
X159502261Y-59755237D01*
X159502261Y-59755237D02*
X159454642Y-59779047D01*
X159454642Y-59779047D02*
X159359404Y-59802856D01*
X159359404Y-59802856D02*
X159287976Y-59802856D01*
X159287976Y-59802856D02*
X159192738Y-59779047D01*
X159192738Y-59779047D02*
X159145119Y-59755237D01*
X159145119Y-59755237D02*
X159097500Y-59707618D01*
X159097500Y-59707618D02*
X159073690Y-59636190D01*
X159073690Y-59636190D02*
X159073690Y-59588571D01*
X159073690Y-59588571D02*
X159097500Y-59517142D01*
X159097500Y-59517142D02*
X159121309Y-59493333D01*
X159073690Y-59326666D02*
X159073690Y-58993333D01*
X159073690Y-58993333D02*
X159573690Y-59207618D01*
X161926071Y-59573333D02*
X161949880Y-59597142D01*
X161949880Y-59597142D02*
X161973690Y-59668571D01*
X161973690Y-59668571D02*
X161973690Y-59716190D01*
X161973690Y-59716190D02*
X161949880Y-59787618D01*
X161949880Y-59787618D02*
X161902261Y-59835237D01*
X161902261Y-59835237D02*
X161854642Y-59859047D01*
X161854642Y-59859047D02*
X161759404Y-59882856D01*
X161759404Y-59882856D02*
X161687976Y-59882856D01*
X161687976Y-59882856D02*
X161592738Y-59859047D01*
X161592738Y-59859047D02*
X161545119Y-59835237D01*
X161545119Y-59835237D02*
X161497500Y-59787618D01*
X161497500Y-59787618D02*
X161473690Y-59716190D01*
X161473690Y-59716190D02*
X161473690Y-59668571D01*
X161473690Y-59668571D02*
X161497500Y-59597142D01*
X161497500Y-59597142D02*
X161521309Y-59573333D01*
X161973690Y-59335237D02*
X161973690Y-59239999D01*
X161973690Y-59239999D02*
X161949880Y-59192380D01*
X161949880Y-59192380D02*
X161926071Y-59168571D01*
X161926071Y-59168571D02*
X161854642Y-59120952D01*
X161854642Y-59120952D02*
X161759404Y-59097142D01*
X161759404Y-59097142D02*
X161568928Y-59097142D01*
X161568928Y-59097142D02*
X161521309Y-59120952D01*
X161521309Y-59120952D02*
X161497500Y-59144761D01*
X161497500Y-59144761D02*
X161473690Y-59192380D01*
X161473690Y-59192380D02*
X161473690Y-59287618D01*
X161473690Y-59287618D02*
X161497500Y-59335237D01*
X161497500Y-59335237D02*
X161521309Y-59359047D01*
X161521309Y-59359047D02*
X161568928Y-59382856D01*
X161568928Y-59382856D02*
X161687976Y-59382856D01*
X161687976Y-59382856D02*
X161735595Y-59359047D01*
X161735595Y-59359047D02*
X161759404Y-59335237D01*
X161759404Y-59335237D02*
X161783214Y-59287618D01*
X161783214Y-59287618D02*
X161783214Y-59192380D01*
X161783214Y-59192380D02*
X161759404Y-59144761D01*
X161759404Y-59144761D02*
X161735595Y-59120952D01*
X161735595Y-59120952D02*
X161687976Y-59097142D01*
X124076071Y-67273333D02*
X124099880Y-67297142D01*
X124099880Y-67297142D02*
X124123690Y-67368571D01*
X124123690Y-67368571D02*
X124123690Y-67416190D01*
X124123690Y-67416190D02*
X124099880Y-67487618D01*
X124099880Y-67487618D02*
X124052261Y-67535237D01*
X124052261Y-67535237D02*
X124004642Y-67559047D01*
X124004642Y-67559047D02*
X123909404Y-67582856D01*
X123909404Y-67582856D02*
X123837976Y-67582856D01*
X123837976Y-67582856D02*
X123742738Y-67559047D01*
X123742738Y-67559047D02*
X123695119Y-67535237D01*
X123695119Y-67535237D02*
X123647500Y-67487618D01*
X123647500Y-67487618D02*
X123623690Y-67416190D01*
X123623690Y-67416190D02*
X123623690Y-67368571D01*
X123623690Y-67368571D02*
X123647500Y-67297142D01*
X123647500Y-67297142D02*
X123671309Y-67273333D01*
X124123690Y-67059047D02*
X123623690Y-67059047D01*
X123623690Y-67059047D02*
X123623690Y-66868571D01*
X123623690Y-66868571D02*
X123647500Y-66820952D01*
X123647500Y-66820952D02*
X123671309Y-66797142D01*
X123671309Y-66797142D02*
X123718928Y-66773333D01*
X123718928Y-66773333D02*
X123790357Y-66773333D01*
X123790357Y-66773333D02*
X123837976Y-66797142D01*
X123837976Y-66797142D02*
X123861785Y-66820952D01*
X123861785Y-66820952D02*
X123885595Y-66868571D01*
X123885595Y-66868571D02*
X123885595Y-67059047D01*
X124099880Y-66582856D02*
X124123690Y-66511428D01*
X124123690Y-66511428D02*
X124123690Y-66392380D01*
X124123690Y-66392380D02*
X124099880Y-66344761D01*
X124099880Y-66344761D02*
X124076071Y-66320952D01*
X124076071Y-66320952D02*
X124028452Y-66297142D01*
X124028452Y-66297142D02*
X123980833Y-66297142D01*
X123980833Y-66297142D02*
X123933214Y-66320952D01*
X123933214Y-66320952D02*
X123909404Y-66344761D01*
X123909404Y-66344761D02*
X123885595Y-66392380D01*
X123885595Y-66392380D02*
X123861785Y-66487618D01*
X123861785Y-66487618D02*
X123837976Y-66535237D01*
X123837976Y-66535237D02*
X123814166Y-66559047D01*
X123814166Y-66559047D02*
X123766547Y-66582856D01*
X123766547Y-66582856D02*
X123718928Y-66582856D01*
X123718928Y-66582856D02*
X123671309Y-66559047D01*
X123671309Y-66559047D02*
X123647500Y-66535237D01*
X123647500Y-66535237D02*
X123623690Y-66487618D01*
X123623690Y-66487618D02*
X123623690Y-66368571D01*
X123623690Y-66368571D02*
X123647500Y-66297142D01*
X123623690Y-66082857D02*
X124028452Y-66082857D01*
X124028452Y-66082857D02*
X124076071Y-66059047D01*
X124076071Y-66059047D02*
X124099880Y-66035238D01*
X124099880Y-66035238D02*
X124123690Y-65987619D01*
X124123690Y-65987619D02*
X124123690Y-65892381D01*
X124123690Y-65892381D02*
X124099880Y-65844762D01*
X124099880Y-65844762D02*
X124076071Y-65820952D01*
X124076071Y-65820952D02*
X124028452Y-65797143D01*
X124028452Y-65797143D02*
X123623690Y-65797143D01*
X123671309Y-65582856D02*
X123647500Y-65559047D01*
X123647500Y-65559047D02*
X123623690Y-65511428D01*
X123623690Y-65511428D02*
X123623690Y-65392380D01*
X123623690Y-65392380D02*
X123647500Y-65344761D01*
X123647500Y-65344761D02*
X123671309Y-65320952D01*
X123671309Y-65320952D02*
X123718928Y-65297142D01*
X123718928Y-65297142D02*
X123766547Y-65297142D01*
X123766547Y-65297142D02*
X123837976Y-65320952D01*
X123837976Y-65320952D02*
X124123690Y-65606666D01*
X124123690Y-65606666D02*
X124123690Y-65297142D01*
X144016191Y-65846071D02*
X143992382Y-65869880D01*
X143992382Y-65869880D02*
X143920953Y-65893690D01*
X143920953Y-65893690D02*
X143873334Y-65893690D01*
X143873334Y-65893690D02*
X143801906Y-65869880D01*
X143801906Y-65869880D02*
X143754287Y-65822261D01*
X143754287Y-65822261D02*
X143730477Y-65774642D01*
X143730477Y-65774642D02*
X143706668Y-65679404D01*
X143706668Y-65679404D02*
X143706668Y-65607976D01*
X143706668Y-65607976D02*
X143730477Y-65512738D01*
X143730477Y-65512738D02*
X143754287Y-65465119D01*
X143754287Y-65465119D02*
X143801906Y-65417500D01*
X143801906Y-65417500D02*
X143873334Y-65393690D01*
X143873334Y-65393690D02*
X143920953Y-65393690D01*
X143920953Y-65393690D02*
X143992382Y-65417500D01*
X143992382Y-65417500D02*
X144016191Y-65441309D01*
X144206668Y-65869880D02*
X144278096Y-65893690D01*
X144278096Y-65893690D02*
X144397144Y-65893690D01*
X144397144Y-65893690D02*
X144444763Y-65869880D01*
X144444763Y-65869880D02*
X144468572Y-65846071D01*
X144468572Y-65846071D02*
X144492382Y-65798452D01*
X144492382Y-65798452D02*
X144492382Y-65750833D01*
X144492382Y-65750833D02*
X144468572Y-65703214D01*
X144468572Y-65703214D02*
X144444763Y-65679404D01*
X144444763Y-65679404D02*
X144397144Y-65655595D01*
X144397144Y-65655595D02*
X144301906Y-65631785D01*
X144301906Y-65631785D02*
X144254287Y-65607976D01*
X144254287Y-65607976D02*
X144230477Y-65584166D01*
X144230477Y-65584166D02*
X144206668Y-65536547D01*
X144206668Y-65536547D02*
X144206668Y-65488928D01*
X144206668Y-65488928D02*
X144230477Y-65441309D01*
X144230477Y-65441309D02*
X144254287Y-65417500D01*
X144254287Y-65417500D02*
X144301906Y-65393690D01*
X144301906Y-65393690D02*
X144420953Y-65393690D01*
X144420953Y-65393690D02*
X144492382Y-65417500D01*
X144801905Y-65655595D02*
X144801905Y-65893690D01*
X144635239Y-65393690D02*
X144801905Y-65655595D01*
X144801905Y-65655595D02*
X144968572Y-65393690D01*
X145111429Y-65869880D02*
X145182857Y-65893690D01*
X145182857Y-65893690D02*
X145301905Y-65893690D01*
X145301905Y-65893690D02*
X145349524Y-65869880D01*
X145349524Y-65869880D02*
X145373333Y-65846071D01*
X145373333Y-65846071D02*
X145397143Y-65798452D01*
X145397143Y-65798452D02*
X145397143Y-65750833D01*
X145397143Y-65750833D02*
X145373333Y-65703214D01*
X145373333Y-65703214D02*
X145349524Y-65679404D01*
X145349524Y-65679404D02*
X145301905Y-65655595D01*
X145301905Y-65655595D02*
X145206667Y-65631785D01*
X145206667Y-65631785D02*
X145159048Y-65607976D01*
X145159048Y-65607976D02*
X145135238Y-65584166D01*
X145135238Y-65584166D02*
X145111429Y-65536547D01*
X145111429Y-65536547D02*
X145111429Y-65488928D01*
X145111429Y-65488928D02*
X145135238Y-65441309D01*
X145135238Y-65441309D02*
X145159048Y-65417500D01*
X145159048Y-65417500D02*
X145206667Y-65393690D01*
X145206667Y-65393690D02*
X145325714Y-65393690D01*
X145325714Y-65393690D02*
X145397143Y-65417500D01*
X145563809Y-65393690D02*
X145873333Y-65393690D01*
X145873333Y-65393690D02*
X145706666Y-65584166D01*
X145706666Y-65584166D02*
X145778095Y-65584166D01*
X145778095Y-65584166D02*
X145825714Y-65607976D01*
X145825714Y-65607976D02*
X145849523Y-65631785D01*
X145849523Y-65631785D02*
X145873333Y-65679404D01*
X145873333Y-65679404D02*
X145873333Y-65798452D01*
X145873333Y-65798452D02*
X145849523Y-65846071D01*
X145849523Y-65846071D02*
X145825714Y-65869880D01*
X145825714Y-65869880D02*
X145778095Y-65893690D01*
X145778095Y-65893690D02*
X145635238Y-65893690D01*
X145635238Y-65893690D02*
X145587619Y-65869880D01*
X145587619Y-65869880D02*
X145563809Y-65846071D01*
X160093690Y-66381428D02*
X159855595Y-66548094D01*
X160093690Y-66667142D02*
X159593690Y-66667142D01*
X159593690Y-66667142D02*
X159593690Y-66476666D01*
X159593690Y-66476666D02*
X159617500Y-66429047D01*
X159617500Y-66429047D02*
X159641309Y-66405237D01*
X159641309Y-66405237D02*
X159688928Y-66381428D01*
X159688928Y-66381428D02*
X159760357Y-66381428D01*
X159760357Y-66381428D02*
X159807976Y-66405237D01*
X159807976Y-66405237D02*
X159831785Y-66429047D01*
X159831785Y-66429047D02*
X159855595Y-66476666D01*
X159855595Y-66476666D02*
X159855595Y-66667142D01*
X160093690Y-65905237D02*
X160093690Y-66190951D01*
X160093690Y-66048094D02*
X159593690Y-66048094D01*
X159593690Y-66048094D02*
X159665119Y-66095713D01*
X159665119Y-66095713D02*
X159712738Y-66143332D01*
X159712738Y-66143332D02*
X159736547Y-66190951D01*
X159641309Y-65714761D02*
X159617500Y-65690952D01*
X159617500Y-65690952D02*
X159593690Y-65643333D01*
X159593690Y-65643333D02*
X159593690Y-65524285D01*
X159593690Y-65524285D02*
X159617500Y-65476666D01*
X159617500Y-65476666D02*
X159641309Y-65452857D01*
X159641309Y-65452857D02*
X159688928Y-65429047D01*
X159688928Y-65429047D02*
X159736547Y-65429047D01*
X159736547Y-65429047D02*
X159807976Y-65452857D01*
X159807976Y-65452857D02*
X160093690Y-65738571D01*
X160093690Y-65738571D02*
X160093690Y-65429047D01*
X158338571Y-72373690D02*
X158171905Y-72135595D01*
X158052857Y-72373690D02*
X158052857Y-71873690D01*
X158052857Y-71873690D02*
X158243333Y-71873690D01*
X158243333Y-71873690D02*
X158290952Y-71897500D01*
X158290952Y-71897500D02*
X158314762Y-71921309D01*
X158314762Y-71921309D02*
X158338571Y-71968928D01*
X158338571Y-71968928D02*
X158338571Y-72040357D01*
X158338571Y-72040357D02*
X158314762Y-72087976D01*
X158314762Y-72087976D02*
X158290952Y-72111785D01*
X158290952Y-72111785D02*
X158243333Y-72135595D01*
X158243333Y-72135595D02*
X158052857Y-72135595D01*
X158814762Y-72373690D02*
X158529048Y-72373690D01*
X158671905Y-72373690D02*
X158671905Y-71873690D01*
X158671905Y-71873690D02*
X158624286Y-71945119D01*
X158624286Y-71945119D02*
X158576667Y-71992738D01*
X158576667Y-71992738D02*
X158529048Y-72016547D01*
X158981428Y-71873690D02*
X159290952Y-71873690D01*
X159290952Y-71873690D02*
X159124285Y-72064166D01*
X159124285Y-72064166D02*
X159195714Y-72064166D01*
X159195714Y-72064166D02*
X159243333Y-72087976D01*
X159243333Y-72087976D02*
X159267142Y-72111785D01*
X159267142Y-72111785D02*
X159290952Y-72159404D01*
X159290952Y-72159404D02*
X159290952Y-72278452D01*
X159290952Y-72278452D02*
X159267142Y-72326071D01*
X159267142Y-72326071D02*
X159243333Y-72349880D01*
X159243333Y-72349880D02*
X159195714Y-72373690D01*
X159195714Y-72373690D02*
X159052857Y-72373690D01*
X159052857Y-72373690D02*
X159005238Y-72349880D01*
X159005238Y-72349880D02*
X158981428Y-72326071D01*
X130906071Y-67651428D02*
X130929880Y-67675237D01*
X130929880Y-67675237D02*
X130953690Y-67746666D01*
X130953690Y-67746666D02*
X130953690Y-67794285D01*
X130953690Y-67794285D02*
X130929880Y-67865713D01*
X130929880Y-67865713D02*
X130882261Y-67913332D01*
X130882261Y-67913332D02*
X130834642Y-67937142D01*
X130834642Y-67937142D02*
X130739404Y-67960951D01*
X130739404Y-67960951D02*
X130667976Y-67960951D01*
X130667976Y-67960951D02*
X130572738Y-67937142D01*
X130572738Y-67937142D02*
X130525119Y-67913332D01*
X130525119Y-67913332D02*
X130477500Y-67865713D01*
X130477500Y-67865713D02*
X130453690Y-67794285D01*
X130453690Y-67794285D02*
X130453690Y-67746666D01*
X130453690Y-67746666D02*
X130477500Y-67675237D01*
X130477500Y-67675237D02*
X130501309Y-67651428D01*
X130953690Y-67151428D02*
X130715595Y-67318094D01*
X130953690Y-67437142D02*
X130453690Y-67437142D01*
X130453690Y-67437142D02*
X130453690Y-67246666D01*
X130453690Y-67246666D02*
X130477500Y-67199047D01*
X130477500Y-67199047D02*
X130501309Y-67175237D01*
X130501309Y-67175237D02*
X130548928Y-67151428D01*
X130548928Y-67151428D02*
X130620357Y-67151428D01*
X130620357Y-67151428D02*
X130667976Y-67175237D01*
X130667976Y-67175237D02*
X130691785Y-67199047D01*
X130691785Y-67199047D02*
X130715595Y-67246666D01*
X130715595Y-67246666D02*
X130715595Y-67437142D01*
X130691785Y-66937142D02*
X130691785Y-66770475D01*
X130953690Y-66699047D02*
X130953690Y-66937142D01*
X130953690Y-66937142D02*
X130453690Y-66937142D01*
X130453690Y-66937142D02*
X130453690Y-66699047D01*
X130477500Y-66222856D02*
X130453690Y-66270475D01*
X130453690Y-66270475D02*
X130453690Y-66341904D01*
X130453690Y-66341904D02*
X130477500Y-66413332D01*
X130477500Y-66413332D02*
X130525119Y-66460951D01*
X130525119Y-66460951D02*
X130572738Y-66484761D01*
X130572738Y-66484761D02*
X130667976Y-66508570D01*
X130667976Y-66508570D02*
X130739404Y-66508570D01*
X130739404Y-66508570D02*
X130834642Y-66484761D01*
X130834642Y-66484761D02*
X130882261Y-66460951D01*
X130882261Y-66460951D02*
X130929880Y-66413332D01*
X130929880Y-66413332D02*
X130953690Y-66341904D01*
X130953690Y-66341904D02*
X130953690Y-66294285D01*
X130953690Y-66294285D02*
X130929880Y-66222856D01*
X130929880Y-66222856D02*
X130906071Y-66199047D01*
X130906071Y-66199047D02*
X130739404Y-66199047D01*
X130739404Y-66199047D02*
X130739404Y-66294285D01*
X130953690Y-65984761D02*
X130453690Y-65984761D01*
X130453690Y-65984761D02*
X130953690Y-65699047D01*
X130953690Y-65699047D02*
X130453690Y-65699047D01*
X130953690Y-65199046D02*
X130953690Y-65484760D01*
X130953690Y-65341903D02*
X130453690Y-65341903D01*
X130453690Y-65341903D02*
X130525119Y-65389522D01*
X130525119Y-65389522D02*
X130572738Y-65437141D01*
X130572738Y-65437141D02*
X130596547Y-65484760D01*
X183043690Y-64000952D02*
X183448452Y-64000952D01*
X183448452Y-64000952D02*
X183496071Y-63977142D01*
X183496071Y-63977142D02*
X183519880Y-63953333D01*
X183519880Y-63953333D02*
X183543690Y-63905714D01*
X183543690Y-63905714D02*
X183543690Y-63810476D01*
X183543690Y-63810476D02*
X183519880Y-63762857D01*
X183519880Y-63762857D02*
X183496071Y-63739047D01*
X183496071Y-63739047D02*
X183448452Y-63715238D01*
X183448452Y-63715238D02*
X183043690Y-63715238D01*
X183543690Y-63215237D02*
X183543690Y-63500951D01*
X183543690Y-63358094D02*
X183043690Y-63358094D01*
X183043690Y-63358094D02*
X183115119Y-63405713D01*
X183115119Y-63405713D02*
X183162738Y-63453332D01*
X183162738Y-63453332D02*
X183186547Y-63500951D01*
X172133690Y-70141428D02*
X171895595Y-70308094D01*
X172133690Y-70427142D02*
X171633690Y-70427142D01*
X171633690Y-70427142D02*
X171633690Y-70236666D01*
X171633690Y-70236666D02*
X171657500Y-70189047D01*
X171657500Y-70189047D02*
X171681309Y-70165237D01*
X171681309Y-70165237D02*
X171728928Y-70141428D01*
X171728928Y-70141428D02*
X171800357Y-70141428D01*
X171800357Y-70141428D02*
X171847976Y-70165237D01*
X171847976Y-70165237D02*
X171871785Y-70189047D01*
X171871785Y-70189047D02*
X171895595Y-70236666D01*
X171895595Y-70236666D02*
X171895595Y-70427142D01*
X172133690Y-69665237D02*
X172133690Y-69950951D01*
X172133690Y-69808094D02*
X171633690Y-69808094D01*
X171633690Y-69808094D02*
X171705119Y-69855713D01*
X171705119Y-69855713D02*
X171752738Y-69903332D01*
X171752738Y-69903332D02*
X171776547Y-69950951D01*
X171847976Y-69379523D02*
X171824166Y-69427142D01*
X171824166Y-69427142D02*
X171800357Y-69450952D01*
X171800357Y-69450952D02*
X171752738Y-69474761D01*
X171752738Y-69474761D02*
X171728928Y-69474761D01*
X171728928Y-69474761D02*
X171681309Y-69450952D01*
X171681309Y-69450952D02*
X171657500Y-69427142D01*
X171657500Y-69427142D02*
X171633690Y-69379523D01*
X171633690Y-69379523D02*
X171633690Y-69284285D01*
X171633690Y-69284285D02*
X171657500Y-69236666D01*
X171657500Y-69236666D02*
X171681309Y-69212857D01*
X171681309Y-69212857D02*
X171728928Y-69189047D01*
X171728928Y-69189047D02*
X171752738Y-69189047D01*
X171752738Y-69189047D02*
X171800357Y-69212857D01*
X171800357Y-69212857D02*
X171824166Y-69236666D01*
X171824166Y-69236666D02*
X171847976Y-69284285D01*
X171847976Y-69284285D02*
X171847976Y-69379523D01*
X171847976Y-69379523D02*
X171871785Y-69427142D01*
X171871785Y-69427142D02*
X171895595Y-69450952D01*
X171895595Y-69450952D02*
X171943214Y-69474761D01*
X171943214Y-69474761D02*
X172038452Y-69474761D01*
X172038452Y-69474761D02*
X172086071Y-69450952D01*
X172086071Y-69450952D02*
X172109880Y-69427142D01*
X172109880Y-69427142D02*
X172133690Y-69379523D01*
X172133690Y-69379523D02*
X172133690Y-69284285D01*
X172133690Y-69284285D02*
X172109880Y-69236666D01*
X172109880Y-69236666D02*
X172086071Y-69212857D01*
X172086071Y-69212857D02*
X172038452Y-69189047D01*
X172038452Y-69189047D02*
X171943214Y-69189047D01*
X171943214Y-69189047D02*
X171895595Y-69212857D01*
X171895595Y-69212857D02*
X171871785Y-69236666D01*
X171871785Y-69236666D02*
X171847976Y-69284285D01*
X131813690Y-68798094D02*
X131313690Y-68798094D01*
X131766071Y-68274285D02*
X131789880Y-68298094D01*
X131789880Y-68298094D02*
X131813690Y-68369523D01*
X131813690Y-68369523D02*
X131813690Y-68417142D01*
X131813690Y-68417142D02*
X131789880Y-68488570D01*
X131789880Y-68488570D02*
X131742261Y-68536189D01*
X131742261Y-68536189D02*
X131694642Y-68559999D01*
X131694642Y-68559999D02*
X131599404Y-68583808D01*
X131599404Y-68583808D02*
X131527976Y-68583808D01*
X131527976Y-68583808D02*
X131432738Y-68559999D01*
X131432738Y-68559999D02*
X131385119Y-68536189D01*
X131385119Y-68536189D02*
X131337500Y-68488570D01*
X131337500Y-68488570D02*
X131313690Y-68417142D01*
X131313690Y-68417142D02*
X131313690Y-68369523D01*
X131313690Y-68369523D02*
X131337500Y-68298094D01*
X131337500Y-68298094D02*
X131361309Y-68274285D01*
X131813690Y-67798094D02*
X131813690Y-68083808D01*
X131813690Y-67940951D02*
X131313690Y-67940951D01*
X131313690Y-67940951D02*
X131385119Y-67988570D01*
X131385119Y-67988570D02*
X131432738Y-68036189D01*
X131432738Y-68036189D02*
X131456547Y-68083808D01*
X135225238Y-82103690D02*
X135510952Y-82103690D01*
X135368095Y-82603690D02*
X135368095Y-82103690D01*
X135677618Y-82603690D02*
X135677618Y-82103690D01*
X135677618Y-82341785D02*
X135963332Y-82341785D01*
X135963332Y-82603690D02*
X135963332Y-82103690D01*
X136201428Y-82341785D02*
X136368095Y-82341785D01*
X136439523Y-82603690D02*
X136201428Y-82603690D01*
X136201428Y-82603690D02*
X136201428Y-82103690D01*
X136201428Y-82103690D02*
X136439523Y-82103690D01*
X136939523Y-82603690D02*
X136772857Y-82365595D01*
X136653809Y-82603690D02*
X136653809Y-82103690D01*
X136653809Y-82103690D02*
X136844285Y-82103690D01*
X136844285Y-82103690D02*
X136891904Y-82127500D01*
X136891904Y-82127500D02*
X136915714Y-82151309D01*
X136915714Y-82151309D02*
X136939523Y-82198928D01*
X136939523Y-82198928D02*
X136939523Y-82270357D01*
X136939523Y-82270357D02*
X136915714Y-82317976D01*
X136915714Y-82317976D02*
X136891904Y-82341785D01*
X136891904Y-82341785D02*
X136844285Y-82365595D01*
X136844285Y-82365595D02*
X136653809Y-82365595D01*
X137153809Y-82603690D02*
X137153809Y-82103690D01*
X137153809Y-82103690D02*
X137320476Y-82460833D01*
X137320476Y-82460833D02*
X137487142Y-82103690D01*
X137487142Y-82103690D02*
X137487142Y-82603690D01*
X137987143Y-82603690D02*
X137701429Y-82603690D01*
X137844286Y-82603690D02*
X137844286Y-82103690D01*
X137844286Y-82103690D02*
X137796667Y-82175119D01*
X137796667Y-82175119D02*
X137749048Y-82222738D01*
X137749048Y-82222738D02*
X137701429Y-82246547D01*
X147743690Y-79091428D02*
X147505595Y-79258094D01*
X147743690Y-79377142D02*
X147243690Y-79377142D01*
X147243690Y-79377142D02*
X147243690Y-79186666D01*
X147243690Y-79186666D02*
X147267500Y-79139047D01*
X147267500Y-79139047D02*
X147291309Y-79115237D01*
X147291309Y-79115237D02*
X147338928Y-79091428D01*
X147338928Y-79091428D02*
X147410357Y-79091428D01*
X147410357Y-79091428D02*
X147457976Y-79115237D01*
X147457976Y-79115237D02*
X147481785Y-79139047D01*
X147481785Y-79139047D02*
X147505595Y-79186666D01*
X147505595Y-79186666D02*
X147505595Y-79377142D01*
X147291309Y-78900951D02*
X147267500Y-78877142D01*
X147267500Y-78877142D02*
X147243690Y-78829523D01*
X147243690Y-78829523D02*
X147243690Y-78710475D01*
X147243690Y-78710475D02*
X147267500Y-78662856D01*
X147267500Y-78662856D02*
X147291309Y-78639047D01*
X147291309Y-78639047D02*
X147338928Y-78615237D01*
X147338928Y-78615237D02*
X147386547Y-78615237D01*
X147386547Y-78615237D02*
X147457976Y-78639047D01*
X147457976Y-78639047D02*
X147743690Y-78924761D01*
X147743690Y-78924761D02*
X147743690Y-78615237D01*
X147243690Y-78162857D02*
X147243690Y-78400952D01*
X147243690Y-78400952D02*
X147481785Y-78424761D01*
X147481785Y-78424761D02*
X147457976Y-78400952D01*
X147457976Y-78400952D02*
X147434166Y-78353333D01*
X147434166Y-78353333D02*
X147434166Y-78234285D01*
X147434166Y-78234285D02*
X147457976Y-78186666D01*
X147457976Y-78186666D02*
X147481785Y-78162857D01*
X147481785Y-78162857D02*
X147529404Y-78139047D01*
X147529404Y-78139047D02*
X147648452Y-78139047D01*
X147648452Y-78139047D02*
X147696071Y-78162857D01*
X147696071Y-78162857D02*
X147719880Y-78186666D01*
X147719880Y-78186666D02*
X147743690Y-78234285D01*
X147743690Y-78234285D02*
X147743690Y-78353333D01*
X147743690Y-78353333D02*
X147719880Y-78400952D01*
X147719880Y-78400952D02*
X147696071Y-78424761D01*
X145991785Y-82687617D02*
X146015595Y-82616189D01*
X146015595Y-82616189D02*
X146039404Y-82592379D01*
X146039404Y-82592379D02*
X146087023Y-82568570D01*
X146087023Y-82568570D02*
X146158452Y-82568570D01*
X146158452Y-82568570D02*
X146206071Y-82592379D01*
X146206071Y-82592379D02*
X146229880Y-82616189D01*
X146229880Y-82616189D02*
X146253690Y-82663808D01*
X146253690Y-82663808D02*
X146253690Y-82854284D01*
X146253690Y-82854284D02*
X145753690Y-82854284D01*
X145753690Y-82854284D02*
X145753690Y-82687617D01*
X145753690Y-82687617D02*
X145777500Y-82639998D01*
X145777500Y-82639998D02*
X145801309Y-82616189D01*
X145801309Y-82616189D02*
X145848928Y-82592379D01*
X145848928Y-82592379D02*
X145896547Y-82592379D01*
X145896547Y-82592379D02*
X145944166Y-82616189D01*
X145944166Y-82616189D02*
X145967976Y-82639998D01*
X145967976Y-82639998D02*
X145991785Y-82687617D01*
X145991785Y-82687617D02*
X145991785Y-82854284D01*
X146110833Y-82378093D02*
X146110833Y-82139998D01*
X146253690Y-82425712D02*
X145753690Y-82259046D01*
X145753690Y-82259046D02*
X146253690Y-82092379D01*
X145753690Y-81997141D02*
X145753690Y-81711427D01*
X146253690Y-81854284D02*
X145753690Y-81854284D01*
X145753690Y-81616189D02*
X145753690Y-81330475D01*
X146253690Y-81473332D02*
X145753690Y-81473332D01*
X146253690Y-80901904D02*
X146253690Y-81187618D01*
X146253690Y-81044761D02*
X145753690Y-81044761D01*
X145753690Y-81044761D02*
X145825119Y-81092380D01*
X145825119Y-81092380D02*
X145872738Y-81139999D01*
X145872738Y-81139999D02*
X145896547Y-81187618D01*
X164613690Y-67756666D02*
X164970833Y-67756666D01*
X164970833Y-67756666D02*
X165042261Y-67780475D01*
X165042261Y-67780475D02*
X165089880Y-67828094D01*
X165089880Y-67828094D02*
X165113690Y-67899523D01*
X165113690Y-67899523D02*
X165113690Y-67947142D01*
X164827976Y-67447142D02*
X164804166Y-67494761D01*
X164804166Y-67494761D02*
X164780357Y-67518571D01*
X164780357Y-67518571D02*
X164732738Y-67542380D01*
X164732738Y-67542380D02*
X164708928Y-67542380D01*
X164708928Y-67542380D02*
X164661309Y-67518571D01*
X164661309Y-67518571D02*
X164637500Y-67494761D01*
X164637500Y-67494761D02*
X164613690Y-67447142D01*
X164613690Y-67447142D02*
X164613690Y-67351904D01*
X164613690Y-67351904D02*
X164637500Y-67304285D01*
X164637500Y-67304285D02*
X164661309Y-67280476D01*
X164661309Y-67280476D02*
X164708928Y-67256666D01*
X164708928Y-67256666D02*
X164732738Y-67256666D01*
X164732738Y-67256666D02*
X164780357Y-67280476D01*
X164780357Y-67280476D02*
X164804166Y-67304285D01*
X164804166Y-67304285D02*
X164827976Y-67351904D01*
X164827976Y-67351904D02*
X164827976Y-67447142D01*
X164827976Y-67447142D02*
X164851785Y-67494761D01*
X164851785Y-67494761D02*
X164875595Y-67518571D01*
X164875595Y-67518571D02*
X164923214Y-67542380D01*
X164923214Y-67542380D02*
X165018452Y-67542380D01*
X165018452Y-67542380D02*
X165066071Y-67518571D01*
X165066071Y-67518571D02*
X165089880Y-67494761D01*
X165089880Y-67494761D02*
X165113690Y-67447142D01*
X165113690Y-67447142D02*
X165113690Y-67351904D01*
X165113690Y-67351904D02*
X165089880Y-67304285D01*
X165089880Y-67304285D02*
X165066071Y-67280476D01*
X165066071Y-67280476D02*
X165018452Y-67256666D01*
X165018452Y-67256666D02*
X164923214Y-67256666D01*
X164923214Y-67256666D02*
X164875595Y-67280476D01*
X164875595Y-67280476D02*
X164851785Y-67304285D01*
X164851785Y-67304285D02*
X164827976Y-67351904D01*
D10*
X171847380Y-64355238D02*
X171847380Y-64831428D01*
X171847380Y-64831428D02*
X172323571Y-64879047D01*
X172323571Y-64879047D02*
X172275952Y-64831428D01*
X172275952Y-64831428D02*
X172228333Y-64736190D01*
X172228333Y-64736190D02*
X172228333Y-64498095D01*
X172228333Y-64498095D02*
X172275952Y-64402857D01*
X172275952Y-64402857D02*
X172323571Y-64355238D01*
X172323571Y-64355238D02*
X172418809Y-64307619D01*
X172418809Y-64307619D02*
X172656904Y-64307619D01*
X172656904Y-64307619D02*
X172752142Y-64355238D01*
X172752142Y-64355238D02*
X172799761Y-64402857D01*
X172799761Y-64402857D02*
X172847380Y-64498095D01*
X172847380Y-64498095D02*
X172847380Y-64736190D01*
X172847380Y-64736190D02*
X172799761Y-64831428D01*
X172799761Y-64831428D02*
X172752142Y-64879047D01*
X171847380Y-64021904D02*
X172847380Y-63688571D01*
X172847380Y-63688571D02*
X171847380Y-63355238D01*
X171847380Y-62517142D02*
X171847380Y-61898095D01*
X171847380Y-61898095D02*
X172228333Y-62231428D01*
X172228333Y-62231428D02*
X172228333Y-62088571D01*
X172228333Y-62088571D02*
X172275952Y-61993333D01*
X172275952Y-61993333D02*
X172323571Y-61945714D01*
X172323571Y-61945714D02*
X172418809Y-61898095D01*
X172418809Y-61898095D02*
X172656904Y-61898095D01*
X172656904Y-61898095D02*
X172752142Y-61945714D01*
X172752142Y-61945714D02*
X172799761Y-61993333D01*
X172799761Y-61993333D02*
X172847380Y-62088571D01*
X172847380Y-62088571D02*
X172847380Y-62374285D01*
X172847380Y-62374285D02*
X172799761Y-62469523D01*
X172799761Y-62469523D02*
X172752142Y-62517142D01*
X172561666Y-61517142D02*
X172561666Y-61040952D01*
X172847380Y-61612380D02*
X171847380Y-61279047D01*
X171847380Y-61279047D02*
X172847380Y-60945714D01*
D11*
X162723690Y-73966666D02*
X163080833Y-73966666D01*
X163080833Y-73966666D02*
X163152261Y-73990475D01*
X163152261Y-73990475D02*
X163199880Y-74038094D01*
X163199880Y-74038094D02*
X163223690Y-74109523D01*
X163223690Y-74109523D02*
X163223690Y-74157142D01*
X163223690Y-73704761D02*
X163223690Y-73609523D01*
X163223690Y-73609523D02*
X163199880Y-73561904D01*
X163199880Y-73561904D02*
X163176071Y-73538095D01*
X163176071Y-73538095D02*
X163104642Y-73490476D01*
X163104642Y-73490476D02*
X163009404Y-73466666D01*
X163009404Y-73466666D02*
X162818928Y-73466666D01*
X162818928Y-73466666D02*
X162771309Y-73490476D01*
X162771309Y-73490476D02*
X162747500Y-73514285D01*
X162747500Y-73514285D02*
X162723690Y-73561904D01*
X162723690Y-73561904D02*
X162723690Y-73657142D01*
X162723690Y-73657142D02*
X162747500Y-73704761D01*
X162747500Y-73704761D02*
X162771309Y-73728571D01*
X162771309Y-73728571D02*
X162818928Y-73752380D01*
X162818928Y-73752380D02*
X162937976Y-73752380D01*
X162937976Y-73752380D02*
X162985595Y-73728571D01*
X162985595Y-73728571D02*
X163009404Y-73704761D01*
X163009404Y-73704761D02*
X163033214Y-73657142D01*
X163033214Y-73657142D02*
X163033214Y-73561904D01*
X163033214Y-73561904D02*
X163009404Y-73514285D01*
X163009404Y-73514285D02*
X162985595Y-73490476D01*
X162985595Y-73490476D02*
X162937976Y-73466666D01*
X107793690Y-78046666D02*
X108150833Y-78046666D01*
X108150833Y-78046666D02*
X108222261Y-78070475D01*
X108222261Y-78070475D02*
X108269880Y-78118094D01*
X108269880Y-78118094D02*
X108293690Y-78189523D01*
X108293690Y-78189523D02*
X108293690Y-78237142D01*
X107841309Y-77832380D02*
X107817500Y-77808571D01*
X107817500Y-77808571D02*
X107793690Y-77760952D01*
X107793690Y-77760952D02*
X107793690Y-77641904D01*
X107793690Y-77641904D02*
X107817500Y-77594285D01*
X107817500Y-77594285D02*
X107841309Y-77570476D01*
X107841309Y-77570476D02*
X107888928Y-77546666D01*
X107888928Y-77546666D02*
X107936547Y-77546666D01*
X107936547Y-77546666D02*
X108007976Y-77570476D01*
X108007976Y-77570476D02*
X108293690Y-77856190D01*
X108293690Y-77856190D02*
X108293690Y-77546666D01*
X134613690Y-58813333D02*
X134613690Y-59051428D01*
X134613690Y-59051428D02*
X134113690Y-59051428D01*
X134613690Y-58384761D02*
X134613690Y-58670475D01*
X134613690Y-58527618D02*
X134113690Y-58527618D01*
X134113690Y-58527618D02*
X134185119Y-58575237D01*
X134185119Y-58575237D02*
X134232738Y-58622856D01*
X134232738Y-58622856D02*
X134256547Y-58670475D01*
X147303690Y-58923333D02*
X147303690Y-59161428D01*
X147303690Y-59161428D02*
X146803690Y-59161428D01*
X146851309Y-58780475D02*
X146827500Y-58756666D01*
X146827500Y-58756666D02*
X146803690Y-58709047D01*
X146803690Y-58709047D02*
X146803690Y-58589999D01*
X146803690Y-58589999D02*
X146827500Y-58542380D01*
X146827500Y-58542380D02*
X146851309Y-58518571D01*
X146851309Y-58518571D02*
X146898928Y-58494761D01*
X146898928Y-58494761D02*
X146946547Y-58494761D01*
X146946547Y-58494761D02*
X147017976Y-58518571D01*
X147017976Y-58518571D02*
X147303690Y-58804285D01*
X147303690Y-58804285D02*
X147303690Y-58494761D01*
X112253690Y-58916666D02*
X112610833Y-58916666D01*
X112610833Y-58916666D02*
X112682261Y-58940475D01*
X112682261Y-58940475D02*
X112729880Y-58988094D01*
X112729880Y-58988094D02*
X112753690Y-59059523D01*
X112753690Y-59059523D02*
X112753690Y-59107142D01*
X112253690Y-58726190D02*
X112253690Y-58416666D01*
X112253690Y-58416666D02*
X112444166Y-58583333D01*
X112444166Y-58583333D02*
X112444166Y-58511904D01*
X112444166Y-58511904D02*
X112467976Y-58464285D01*
X112467976Y-58464285D02*
X112491785Y-58440476D01*
X112491785Y-58440476D02*
X112539404Y-58416666D01*
X112539404Y-58416666D02*
X112658452Y-58416666D01*
X112658452Y-58416666D02*
X112706071Y-58440476D01*
X112706071Y-58440476D02*
X112729880Y-58464285D01*
X112729880Y-58464285D02*
X112753690Y-58511904D01*
X112753690Y-58511904D02*
X112753690Y-58654761D01*
X112753690Y-58654761D02*
X112729880Y-58702380D01*
X112729880Y-58702380D02*
X112706071Y-58726190D01*
X115276071Y-79151428D02*
X115299880Y-79175237D01*
X115299880Y-79175237D02*
X115323690Y-79246666D01*
X115323690Y-79246666D02*
X115323690Y-79294285D01*
X115323690Y-79294285D02*
X115299880Y-79365713D01*
X115299880Y-79365713D02*
X115252261Y-79413332D01*
X115252261Y-79413332D02*
X115204642Y-79437142D01*
X115204642Y-79437142D02*
X115109404Y-79460951D01*
X115109404Y-79460951D02*
X115037976Y-79460951D01*
X115037976Y-79460951D02*
X114942738Y-79437142D01*
X114942738Y-79437142D02*
X114895119Y-79413332D01*
X114895119Y-79413332D02*
X114847500Y-79365713D01*
X114847500Y-79365713D02*
X114823690Y-79294285D01*
X114823690Y-79294285D02*
X114823690Y-79246666D01*
X114823690Y-79246666D02*
X114847500Y-79175237D01*
X114847500Y-79175237D02*
X114871309Y-79151428D01*
X114871309Y-78960951D02*
X114847500Y-78937142D01*
X114847500Y-78937142D02*
X114823690Y-78889523D01*
X114823690Y-78889523D02*
X114823690Y-78770475D01*
X114823690Y-78770475D02*
X114847500Y-78722856D01*
X114847500Y-78722856D02*
X114871309Y-78699047D01*
X114871309Y-78699047D02*
X114918928Y-78675237D01*
X114918928Y-78675237D02*
X114966547Y-78675237D01*
X114966547Y-78675237D02*
X115037976Y-78699047D01*
X115037976Y-78699047D02*
X115323690Y-78984761D01*
X115323690Y-78984761D02*
X115323690Y-78675237D01*
X114990357Y-78246666D02*
X115323690Y-78246666D01*
X114799880Y-78365714D02*
X115157023Y-78484761D01*
X115157023Y-78484761D02*
X115157023Y-78175238D01*
X115848571Y-70756071D02*
X115824762Y-70779880D01*
X115824762Y-70779880D02*
X115753333Y-70803690D01*
X115753333Y-70803690D02*
X115705714Y-70803690D01*
X115705714Y-70803690D02*
X115634286Y-70779880D01*
X115634286Y-70779880D02*
X115586667Y-70732261D01*
X115586667Y-70732261D02*
X115562857Y-70684642D01*
X115562857Y-70684642D02*
X115539048Y-70589404D01*
X115539048Y-70589404D02*
X115539048Y-70517976D01*
X115539048Y-70517976D02*
X115562857Y-70422738D01*
X115562857Y-70422738D02*
X115586667Y-70375119D01*
X115586667Y-70375119D02*
X115634286Y-70327500D01*
X115634286Y-70327500D02*
X115705714Y-70303690D01*
X115705714Y-70303690D02*
X115753333Y-70303690D01*
X115753333Y-70303690D02*
X115824762Y-70327500D01*
X115824762Y-70327500D02*
X115848571Y-70351309D01*
X116039048Y-70351309D02*
X116062857Y-70327500D01*
X116062857Y-70327500D02*
X116110476Y-70303690D01*
X116110476Y-70303690D02*
X116229524Y-70303690D01*
X116229524Y-70303690D02*
X116277143Y-70327500D01*
X116277143Y-70327500D02*
X116300952Y-70351309D01*
X116300952Y-70351309D02*
X116324762Y-70398928D01*
X116324762Y-70398928D02*
X116324762Y-70446547D01*
X116324762Y-70446547D02*
X116300952Y-70517976D01*
X116300952Y-70517976D02*
X116015238Y-70803690D01*
X116015238Y-70803690D02*
X116324762Y-70803690D01*
X116777142Y-70303690D02*
X116539047Y-70303690D01*
X116539047Y-70303690D02*
X116515238Y-70541785D01*
X116515238Y-70541785D02*
X116539047Y-70517976D01*
X116539047Y-70517976D02*
X116586666Y-70494166D01*
X116586666Y-70494166D02*
X116705714Y-70494166D01*
X116705714Y-70494166D02*
X116753333Y-70517976D01*
X116753333Y-70517976D02*
X116777142Y-70541785D01*
X116777142Y-70541785D02*
X116800952Y-70589404D01*
X116800952Y-70589404D02*
X116800952Y-70708452D01*
X116800952Y-70708452D02*
X116777142Y-70756071D01*
X116777142Y-70756071D02*
X116753333Y-70779880D01*
X116753333Y-70779880D02*
X116705714Y-70803690D01*
X116705714Y-70803690D02*
X116586666Y-70803690D01*
X116586666Y-70803690D02*
X116539047Y-70779880D01*
X116539047Y-70779880D02*
X116515238Y-70756071D01*
X110651309Y-78367619D02*
X110627500Y-78415238D01*
X110627500Y-78415238D02*
X110579880Y-78462857D01*
X110579880Y-78462857D02*
X110508452Y-78534285D01*
X110508452Y-78534285D02*
X110484642Y-78581904D01*
X110484642Y-78581904D02*
X110484642Y-78629523D01*
X110603690Y-78605714D02*
X110579880Y-78653333D01*
X110579880Y-78653333D02*
X110532261Y-78700952D01*
X110532261Y-78700952D02*
X110437023Y-78724761D01*
X110437023Y-78724761D02*
X110270357Y-78724761D01*
X110270357Y-78724761D02*
X110175119Y-78700952D01*
X110175119Y-78700952D02*
X110127500Y-78653333D01*
X110127500Y-78653333D02*
X110103690Y-78605714D01*
X110103690Y-78605714D02*
X110103690Y-78510476D01*
X110103690Y-78510476D02*
X110127500Y-78462857D01*
X110127500Y-78462857D02*
X110175119Y-78415238D01*
X110175119Y-78415238D02*
X110270357Y-78391428D01*
X110270357Y-78391428D02*
X110437023Y-78391428D01*
X110437023Y-78391428D02*
X110532261Y-78415238D01*
X110532261Y-78415238D02*
X110579880Y-78462857D01*
X110579880Y-78462857D02*
X110603690Y-78510476D01*
X110603690Y-78510476D02*
X110603690Y-78605714D01*
X110151309Y-78200951D02*
X110127500Y-78177142D01*
X110127500Y-78177142D02*
X110103690Y-78129523D01*
X110103690Y-78129523D02*
X110103690Y-78010475D01*
X110103690Y-78010475D02*
X110127500Y-77962856D01*
X110127500Y-77962856D02*
X110151309Y-77939047D01*
X110151309Y-77939047D02*
X110198928Y-77915237D01*
X110198928Y-77915237D02*
X110246547Y-77915237D01*
X110246547Y-77915237D02*
X110317976Y-77939047D01*
X110317976Y-77939047D02*
X110603690Y-78224761D01*
X110603690Y-78224761D02*
X110603690Y-77915237D01*
X122191309Y-65807619D02*
X122167500Y-65855238D01*
X122167500Y-65855238D02*
X122119880Y-65902857D01*
X122119880Y-65902857D02*
X122048452Y-65974285D01*
X122048452Y-65974285D02*
X122024642Y-66021904D01*
X122024642Y-66021904D02*
X122024642Y-66069523D01*
X122143690Y-66045714D02*
X122119880Y-66093333D01*
X122119880Y-66093333D02*
X122072261Y-66140952D01*
X122072261Y-66140952D02*
X121977023Y-66164761D01*
X121977023Y-66164761D02*
X121810357Y-66164761D01*
X121810357Y-66164761D02*
X121715119Y-66140952D01*
X121715119Y-66140952D02*
X121667500Y-66093333D01*
X121667500Y-66093333D02*
X121643690Y-66045714D01*
X121643690Y-66045714D02*
X121643690Y-65950476D01*
X121643690Y-65950476D02*
X121667500Y-65902857D01*
X121667500Y-65902857D02*
X121715119Y-65855238D01*
X121715119Y-65855238D02*
X121810357Y-65831428D01*
X121810357Y-65831428D02*
X121977023Y-65831428D01*
X121977023Y-65831428D02*
X122072261Y-65855238D01*
X122072261Y-65855238D02*
X122119880Y-65902857D01*
X122119880Y-65902857D02*
X122143690Y-65950476D01*
X122143690Y-65950476D02*
X122143690Y-66045714D01*
X121643690Y-65664761D02*
X121643690Y-65355237D01*
X121643690Y-65355237D02*
X121834166Y-65521904D01*
X121834166Y-65521904D02*
X121834166Y-65450475D01*
X121834166Y-65450475D02*
X121857976Y-65402856D01*
X121857976Y-65402856D02*
X121881785Y-65379047D01*
X121881785Y-65379047D02*
X121929404Y-65355237D01*
X121929404Y-65355237D02*
X122048452Y-65355237D01*
X122048452Y-65355237D02*
X122096071Y-65379047D01*
X122096071Y-65379047D02*
X122119880Y-65402856D01*
X122119880Y-65402856D02*
X122143690Y-65450475D01*
X122143690Y-65450475D02*
X122143690Y-65593332D01*
X122143690Y-65593332D02*
X122119880Y-65640951D01*
X122119880Y-65640951D02*
X122096071Y-65664761D01*
X110553690Y-69621428D02*
X110315595Y-69788094D01*
X110553690Y-69907142D02*
X110053690Y-69907142D01*
X110053690Y-69907142D02*
X110053690Y-69716666D01*
X110053690Y-69716666D02*
X110077500Y-69669047D01*
X110077500Y-69669047D02*
X110101309Y-69645237D01*
X110101309Y-69645237D02*
X110148928Y-69621428D01*
X110148928Y-69621428D02*
X110220357Y-69621428D01*
X110220357Y-69621428D02*
X110267976Y-69645237D01*
X110267976Y-69645237D02*
X110291785Y-69669047D01*
X110291785Y-69669047D02*
X110315595Y-69716666D01*
X110315595Y-69716666D02*
X110315595Y-69907142D01*
X110101309Y-69430951D02*
X110077500Y-69407142D01*
X110077500Y-69407142D02*
X110053690Y-69359523D01*
X110053690Y-69359523D02*
X110053690Y-69240475D01*
X110053690Y-69240475D02*
X110077500Y-69192856D01*
X110077500Y-69192856D02*
X110101309Y-69169047D01*
X110101309Y-69169047D02*
X110148928Y-69145237D01*
X110148928Y-69145237D02*
X110196547Y-69145237D01*
X110196547Y-69145237D02*
X110267976Y-69169047D01*
X110267976Y-69169047D02*
X110553690Y-69454761D01*
X110553690Y-69454761D02*
X110553690Y-69145237D01*
X110053690Y-68835714D02*
X110053690Y-68788095D01*
X110053690Y-68788095D02*
X110077500Y-68740476D01*
X110077500Y-68740476D02*
X110101309Y-68716666D01*
X110101309Y-68716666D02*
X110148928Y-68692857D01*
X110148928Y-68692857D02*
X110244166Y-68669047D01*
X110244166Y-68669047D02*
X110363214Y-68669047D01*
X110363214Y-68669047D02*
X110458452Y-68692857D01*
X110458452Y-68692857D02*
X110506071Y-68716666D01*
X110506071Y-68716666D02*
X110529880Y-68740476D01*
X110529880Y-68740476D02*
X110553690Y-68788095D01*
X110553690Y-68788095D02*
X110553690Y-68835714D01*
X110553690Y-68835714D02*
X110529880Y-68883333D01*
X110529880Y-68883333D02*
X110506071Y-68907142D01*
X110506071Y-68907142D02*
X110458452Y-68930952D01*
X110458452Y-68930952D02*
X110363214Y-68954761D01*
X110363214Y-68954761D02*
X110244166Y-68954761D01*
X110244166Y-68954761D02*
X110148928Y-68930952D01*
X110148928Y-68930952D02*
X110101309Y-68907142D01*
X110101309Y-68907142D02*
X110077500Y-68883333D01*
X110077500Y-68883333D02*
X110053690Y-68835714D01*
X110503690Y-71371428D02*
X110265595Y-71538094D01*
X110503690Y-71657142D02*
X110003690Y-71657142D01*
X110003690Y-71657142D02*
X110003690Y-71466666D01*
X110003690Y-71466666D02*
X110027500Y-71419047D01*
X110027500Y-71419047D02*
X110051309Y-71395237D01*
X110051309Y-71395237D02*
X110098928Y-71371428D01*
X110098928Y-71371428D02*
X110170357Y-71371428D01*
X110170357Y-71371428D02*
X110217976Y-71395237D01*
X110217976Y-71395237D02*
X110241785Y-71419047D01*
X110241785Y-71419047D02*
X110265595Y-71466666D01*
X110265595Y-71466666D02*
X110265595Y-71657142D01*
X110051309Y-71180951D02*
X110027500Y-71157142D01*
X110027500Y-71157142D02*
X110003690Y-71109523D01*
X110003690Y-71109523D02*
X110003690Y-70990475D01*
X110003690Y-70990475D02*
X110027500Y-70942856D01*
X110027500Y-70942856D02*
X110051309Y-70919047D01*
X110051309Y-70919047D02*
X110098928Y-70895237D01*
X110098928Y-70895237D02*
X110146547Y-70895237D01*
X110146547Y-70895237D02*
X110217976Y-70919047D01*
X110217976Y-70919047D02*
X110503690Y-71204761D01*
X110503690Y-71204761D02*
X110503690Y-70895237D01*
X110003690Y-70728571D02*
X110003690Y-70395238D01*
X110003690Y-70395238D02*
X110503690Y-70609523D01*
X119633690Y-61141428D02*
X119395595Y-61308094D01*
X119633690Y-61427142D02*
X119133690Y-61427142D01*
X119133690Y-61427142D02*
X119133690Y-61236666D01*
X119133690Y-61236666D02*
X119157500Y-61189047D01*
X119157500Y-61189047D02*
X119181309Y-61165237D01*
X119181309Y-61165237D02*
X119228928Y-61141428D01*
X119228928Y-61141428D02*
X119300357Y-61141428D01*
X119300357Y-61141428D02*
X119347976Y-61165237D01*
X119347976Y-61165237D02*
X119371785Y-61189047D01*
X119371785Y-61189047D02*
X119395595Y-61236666D01*
X119395595Y-61236666D02*
X119395595Y-61427142D01*
X119300357Y-60712856D02*
X119633690Y-60712856D01*
X119109880Y-60831904D02*
X119467023Y-60950951D01*
X119467023Y-60950951D02*
X119467023Y-60641428D01*
X119133690Y-60355714D02*
X119133690Y-60308095D01*
X119133690Y-60308095D02*
X119157500Y-60260476D01*
X119157500Y-60260476D02*
X119181309Y-60236666D01*
X119181309Y-60236666D02*
X119228928Y-60212857D01*
X119228928Y-60212857D02*
X119324166Y-60189047D01*
X119324166Y-60189047D02*
X119443214Y-60189047D01*
X119443214Y-60189047D02*
X119538452Y-60212857D01*
X119538452Y-60212857D02*
X119586071Y-60236666D01*
X119586071Y-60236666D02*
X119609880Y-60260476D01*
X119609880Y-60260476D02*
X119633690Y-60308095D01*
X119633690Y-60308095D02*
X119633690Y-60355714D01*
X119633690Y-60355714D02*
X119609880Y-60403333D01*
X119609880Y-60403333D02*
X119586071Y-60427142D01*
X119586071Y-60427142D02*
X119538452Y-60450952D01*
X119538452Y-60450952D02*
X119443214Y-60474761D01*
X119443214Y-60474761D02*
X119324166Y-60474761D01*
X119324166Y-60474761D02*
X119228928Y-60450952D01*
X119228928Y-60450952D02*
X119181309Y-60427142D01*
X119181309Y-60427142D02*
X119157500Y-60403333D01*
X119157500Y-60403333D02*
X119133690Y-60355714D01*
X121733690Y-61161428D02*
X121495595Y-61328094D01*
X121733690Y-61447142D02*
X121233690Y-61447142D01*
X121233690Y-61447142D02*
X121233690Y-61256666D01*
X121233690Y-61256666D02*
X121257500Y-61209047D01*
X121257500Y-61209047D02*
X121281309Y-61185237D01*
X121281309Y-61185237D02*
X121328928Y-61161428D01*
X121328928Y-61161428D02*
X121400357Y-61161428D01*
X121400357Y-61161428D02*
X121447976Y-61185237D01*
X121447976Y-61185237D02*
X121471785Y-61209047D01*
X121471785Y-61209047D02*
X121495595Y-61256666D01*
X121495595Y-61256666D02*
X121495595Y-61447142D01*
X121400357Y-60732856D02*
X121733690Y-60732856D01*
X121209880Y-60851904D02*
X121567023Y-60970951D01*
X121567023Y-60970951D02*
X121567023Y-60661428D01*
X121733690Y-60209047D02*
X121733690Y-60494761D01*
X121733690Y-60351904D02*
X121233690Y-60351904D01*
X121233690Y-60351904D02*
X121305119Y-60399523D01*
X121305119Y-60399523D02*
X121352738Y-60447142D01*
X121352738Y-60447142D02*
X121376547Y-60494761D01*
X118623690Y-70191428D02*
X118385595Y-70358094D01*
X118623690Y-70477142D02*
X118123690Y-70477142D01*
X118123690Y-70477142D02*
X118123690Y-70286666D01*
X118123690Y-70286666D02*
X118147500Y-70239047D01*
X118147500Y-70239047D02*
X118171309Y-70215237D01*
X118171309Y-70215237D02*
X118218928Y-70191428D01*
X118218928Y-70191428D02*
X118290357Y-70191428D01*
X118290357Y-70191428D02*
X118337976Y-70215237D01*
X118337976Y-70215237D02*
X118361785Y-70239047D01*
X118361785Y-70239047D02*
X118385595Y-70286666D01*
X118385595Y-70286666D02*
X118385595Y-70477142D01*
X118290357Y-69762856D02*
X118623690Y-69762856D01*
X118099880Y-69881904D02*
X118457023Y-70000951D01*
X118457023Y-70000951D02*
X118457023Y-69691428D01*
X118171309Y-69524761D02*
X118147500Y-69500952D01*
X118147500Y-69500952D02*
X118123690Y-69453333D01*
X118123690Y-69453333D02*
X118123690Y-69334285D01*
X118123690Y-69334285D02*
X118147500Y-69286666D01*
X118147500Y-69286666D02*
X118171309Y-69262857D01*
X118171309Y-69262857D02*
X118218928Y-69239047D01*
X118218928Y-69239047D02*
X118266547Y-69239047D01*
X118266547Y-69239047D02*
X118337976Y-69262857D01*
X118337976Y-69262857D02*
X118623690Y-69548571D01*
X118623690Y-69548571D02*
X118623690Y-69239047D01*
X131196666Y-72553690D02*
X131030000Y-72315595D01*
X130910952Y-72553690D02*
X130910952Y-72053690D01*
X130910952Y-72053690D02*
X131101428Y-72053690D01*
X131101428Y-72053690D02*
X131149047Y-72077500D01*
X131149047Y-72077500D02*
X131172857Y-72101309D01*
X131172857Y-72101309D02*
X131196666Y-72148928D01*
X131196666Y-72148928D02*
X131196666Y-72220357D01*
X131196666Y-72220357D02*
X131172857Y-72267976D01*
X131172857Y-72267976D02*
X131149047Y-72291785D01*
X131149047Y-72291785D02*
X131101428Y-72315595D01*
X131101428Y-72315595D02*
X130910952Y-72315595D01*
X131672857Y-72553690D02*
X131387143Y-72553690D01*
X131530000Y-72553690D02*
X131530000Y-72053690D01*
X131530000Y-72053690D02*
X131482381Y-72125119D01*
X131482381Y-72125119D02*
X131434762Y-72172738D01*
X131434762Y-72172738D02*
X131387143Y-72196547D01*
X126789666Y-77398690D02*
X126623000Y-77160595D01*
X126503952Y-77398690D02*
X126503952Y-76898690D01*
X126503952Y-76898690D02*
X126694428Y-76898690D01*
X126694428Y-76898690D02*
X126742047Y-76922500D01*
X126742047Y-76922500D02*
X126765857Y-76946309D01*
X126765857Y-76946309D02*
X126789666Y-76993928D01*
X126789666Y-76993928D02*
X126789666Y-77065357D01*
X126789666Y-77065357D02*
X126765857Y-77112976D01*
X126765857Y-77112976D02*
X126742047Y-77136785D01*
X126742047Y-77136785D02*
X126694428Y-77160595D01*
X126694428Y-77160595D02*
X126503952Y-77160595D01*
X126980143Y-76946309D02*
X127003952Y-76922500D01*
X127003952Y-76922500D02*
X127051571Y-76898690D01*
X127051571Y-76898690D02*
X127170619Y-76898690D01*
X127170619Y-76898690D02*
X127218238Y-76922500D01*
X127218238Y-76922500D02*
X127242047Y-76946309D01*
X127242047Y-76946309D02*
X127265857Y-76993928D01*
X127265857Y-76993928D02*
X127265857Y-77041547D01*
X127265857Y-77041547D02*
X127242047Y-77112976D01*
X127242047Y-77112976D02*
X126956333Y-77398690D01*
X126956333Y-77398690D02*
X127265857Y-77398690D01*
X126789666Y-75493690D02*
X126623000Y-75255595D01*
X126503952Y-75493690D02*
X126503952Y-74993690D01*
X126503952Y-74993690D02*
X126694428Y-74993690D01*
X126694428Y-74993690D02*
X126742047Y-75017500D01*
X126742047Y-75017500D02*
X126765857Y-75041309D01*
X126765857Y-75041309D02*
X126789666Y-75088928D01*
X126789666Y-75088928D02*
X126789666Y-75160357D01*
X126789666Y-75160357D02*
X126765857Y-75207976D01*
X126765857Y-75207976D02*
X126742047Y-75231785D01*
X126742047Y-75231785D02*
X126694428Y-75255595D01*
X126694428Y-75255595D02*
X126503952Y-75255595D01*
X126956333Y-74993690D02*
X127265857Y-74993690D01*
X127265857Y-74993690D02*
X127099190Y-75184166D01*
X127099190Y-75184166D02*
X127170619Y-75184166D01*
X127170619Y-75184166D02*
X127218238Y-75207976D01*
X127218238Y-75207976D02*
X127242047Y-75231785D01*
X127242047Y-75231785D02*
X127265857Y-75279404D01*
X127265857Y-75279404D02*
X127265857Y-75398452D01*
X127265857Y-75398452D02*
X127242047Y-75446071D01*
X127242047Y-75446071D02*
X127218238Y-75469880D01*
X127218238Y-75469880D02*
X127170619Y-75493690D01*
X127170619Y-75493690D02*
X127027762Y-75493690D01*
X127027762Y-75493690D02*
X126980143Y-75469880D01*
X126980143Y-75469880D02*
X126956333Y-75446071D01*
X133771666Y-77273690D02*
X133605000Y-77035595D01*
X133485952Y-77273690D02*
X133485952Y-76773690D01*
X133485952Y-76773690D02*
X133676428Y-76773690D01*
X133676428Y-76773690D02*
X133724047Y-76797500D01*
X133724047Y-76797500D02*
X133747857Y-76821309D01*
X133747857Y-76821309D02*
X133771666Y-76868928D01*
X133771666Y-76868928D02*
X133771666Y-76940357D01*
X133771666Y-76940357D02*
X133747857Y-76987976D01*
X133747857Y-76987976D02*
X133724047Y-77011785D01*
X133724047Y-77011785D02*
X133676428Y-77035595D01*
X133676428Y-77035595D02*
X133485952Y-77035595D01*
X134200238Y-76773690D02*
X134105000Y-76773690D01*
X134105000Y-76773690D02*
X134057381Y-76797500D01*
X134057381Y-76797500D02*
X134033571Y-76821309D01*
X134033571Y-76821309D02*
X133985952Y-76892738D01*
X133985952Y-76892738D02*
X133962143Y-76987976D01*
X133962143Y-76987976D02*
X133962143Y-77178452D01*
X133962143Y-77178452D02*
X133985952Y-77226071D01*
X133985952Y-77226071D02*
X134009762Y-77249880D01*
X134009762Y-77249880D02*
X134057381Y-77273690D01*
X134057381Y-77273690D02*
X134152619Y-77273690D01*
X134152619Y-77273690D02*
X134200238Y-77249880D01*
X134200238Y-77249880D02*
X134224047Y-77226071D01*
X134224047Y-77226071D02*
X134247857Y-77178452D01*
X134247857Y-77178452D02*
X134247857Y-77059404D01*
X134247857Y-77059404D02*
X134224047Y-77011785D01*
X134224047Y-77011785D02*
X134200238Y-76987976D01*
X134200238Y-76987976D02*
X134152619Y-76964166D01*
X134152619Y-76964166D02*
X134057381Y-76964166D01*
X134057381Y-76964166D02*
X134009762Y-76987976D01*
X134009762Y-76987976D02*
X133985952Y-77011785D01*
X133985952Y-77011785D02*
X133962143Y-77059404D01*
X123118690Y-70679428D02*
X122880595Y-70846094D01*
X123118690Y-70965142D02*
X122618690Y-70965142D01*
X122618690Y-70965142D02*
X122618690Y-70774666D01*
X122618690Y-70774666D02*
X122642500Y-70727047D01*
X122642500Y-70727047D02*
X122666309Y-70703237D01*
X122666309Y-70703237D02*
X122713928Y-70679428D01*
X122713928Y-70679428D02*
X122785357Y-70679428D01*
X122785357Y-70679428D02*
X122832976Y-70703237D01*
X122832976Y-70703237D02*
X122856785Y-70727047D01*
X122856785Y-70727047D02*
X122880595Y-70774666D01*
X122880595Y-70774666D02*
X122880595Y-70965142D01*
X123118690Y-70203237D02*
X123118690Y-70488951D01*
X123118690Y-70346094D02*
X122618690Y-70346094D01*
X122618690Y-70346094D02*
X122690119Y-70393713D01*
X122690119Y-70393713D02*
X122737738Y-70441332D01*
X122737738Y-70441332D02*
X122761547Y-70488951D01*
X122618690Y-69774666D02*
X122618690Y-69869904D01*
X122618690Y-69869904D02*
X122642500Y-69917523D01*
X122642500Y-69917523D02*
X122666309Y-69941333D01*
X122666309Y-69941333D02*
X122737738Y-69988952D01*
X122737738Y-69988952D02*
X122832976Y-70012761D01*
X122832976Y-70012761D02*
X123023452Y-70012761D01*
X123023452Y-70012761D02*
X123071071Y-69988952D01*
X123071071Y-69988952D02*
X123094880Y-69965142D01*
X123094880Y-69965142D02*
X123118690Y-69917523D01*
X123118690Y-69917523D02*
X123118690Y-69822285D01*
X123118690Y-69822285D02*
X123094880Y-69774666D01*
X123094880Y-69774666D02*
X123071071Y-69750857D01*
X123071071Y-69750857D02*
X123023452Y-69727047D01*
X123023452Y-69727047D02*
X122904404Y-69727047D01*
X122904404Y-69727047D02*
X122856785Y-69750857D01*
X122856785Y-69750857D02*
X122832976Y-69774666D01*
X122832976Y-69774666D02*
X122809166Y-69822285D01*
X122809166Y-69822285D02*
X122809166Y-69917523D01*
X122809166Y-69917523D02*
X122832976Y-69965142D01*
X122832976Y-69965142D02*
X122856785Y-69988952D01*
X122856785Y-69988952D02*
X122904404Y-70012761D01*
X131008571Y-77793690D02*
X130841905Y-77555595D01*
X130722857Y-77793690D02*
X130722857Y-77293690D01*
X130722857Y-77293690D02*
X130913333Y-77293690D01*
X130913333Y-77293690D02*
X130960952Y-77317500D01*
X130960952Y-77317500D02*
X130984762Y-77341309D01*
X130984762Y-77341309D02*
X131008571Y-77388928D01*
X131008571Y-77388928D02*
X131008571Y-77460357D01*
X131008571Y-77460357D02*
X130984762Y-77507976D01*
X130984762Y-77507976D02*
X130960952Y-77531785D01*
X130960952Y-77531785D02*
X130913333Y-77555595D01*
X130913333Y-77555595D02*
X130722857Y-77555595D01*
X131484762Y-77793690D02*
X131199048Y-77793690D01*
X131341905Y-77793690D02*
X131341905Y-77293690D01*
X131341905Y-77293690D02*
X131294286Y-77365119D01*
X131294286Y-77365119D02*
X131246667Y-77412738D01*
X131246667Y-77412738D02*
X131199048Y-77436547D01*
X131651428Y-77293690D02*
X131984761Y-77293690D01*
X131984761Y-77293690D02*
X131770476Y-77793690D01*
X184973690Y-60606666D02*
X185330833Y-60606666D01*
X185330833Y-60606666D02*
X185402261Y-60630475D01*
X185402261Y-60630475D02*
X185449880Y-60678094D01*
X185449880Y-60678094D02*
X185473690Y-60749523D01*
X185473690Y-60749523D02*
X185473690Y-60797142D01*
X185140357Y-60154285D02*
X185473690Y-60154285D01*
X184949880Y-60273333D02*
X185307023Y-60392380D01*
X185307023Y-60392380D02*
X185307023Y-60082857D01*
X120963333Y-82213690D02*
X120963333Y-82570833D01*
X120963333Y-82570833D02*
X120939524Y-82642261D01*
X120939524Y-82642261D02*
X120891905Y-82689880D01*
X120891905Y-82689880D02*
X120820476Y-82713690D01*
X120820476Y-82713690D02*
X120772857Y-82713690D01*
X121153809Y-82213690D02*
X121487142Y-82213690D01*
X121487142Y-82213690D02*
X121272857Y-82713690D01*
X179493333Y-82243690D02*
X179493333Y-82600833D01*
X179493333Y-82600833D02*
X179469524Y-82672261D01*
X179469524Y-82672261D02*
X179421905Y-82719880D01*
X179421905Y-82719880D02*
X179350476Y-82743690D01*
X179350476Y-82743690D02*
X179302857Y-82743690D01*
X179993333Y-82743690D02*
X179707619Y-82743690D01*
X179850476Y-82743690D02*
X179850476Y-82243690D01*
X179850476Y-82243690D02*
X179802857Y-82315119D01*
X179802857Y-82315119D02*
X179755238Y-82362738D01*
X179755238Y-82362738D02*
X179707619Y-82386547D01*
X110683690Y-74761428D02*
X110445595Y-74928094D01*
X110683690Y-75047142D02*
X110183690Y-75047142D01*
X110183690Y-75047142D02*
X110183690Y-74856666D01*
X110183690Y-74856666D02*
X110207500Y-74809047D01*
X110207500Y-74809047D02*
X110231309Y-74785237D01*
X110231309Y-74785237D02*
X110278928Y-74761428D01*
X110278928Y-74761428D02*
X110350357Y-74761428D01*
X110350357Y-74761428D02*
X110397976Y-74785237D01*
X110397976Y-74785237D02*
X110421785Y-74809047D01*
X110421785Y-74809047D02*
X110445595Y-74856666D01*
X110445595Y-74856666D02*
X110445595Y-75047142D01*
X110183690Y-74594761D02*
X110183690Y-74285237D01*
X110183690Y-74285237D02*
X110374166Y-74451904D01*
X110374166Y-74451904D02*
X110374166Y-74380475D01*
X110374166Y-74380475D02*
X110397976Y-74332856D01*
X110397976Y-74332856D02*
X110421785Y-74309047D01*
X110421785Y-74309047D02*
X110469404Y-74285237D01*
X110469404Y-74285237D02*
X110588452Y-74285237D01*
X110588452Y-74285237D02*
X110636071Y-74309047D01*
X110636071Y-74309047D02*
X110659880Y-74332856D01*
X110659880Y-74332856D02*
X110683690Y-74380475D01*
X110683690Y-74380475D02*
X110683690Y-74523332D01*
X110683690Y-74523332D02*
X110659880Y-74570951D01*
X110659880Y-74570951D02*
X110636071Y-74594761D01*
X110397976Y-73999523D02*
X110374166Y-74047142D01*
X110374166Y-74047142D02*
X110350357Y-74070952D01*
X110350357Y-74070952D02*
X110302738Y-74094761D01*
X110302738Y-74094761D02*
X110278928Y-74094761D01*
X110278928Y-74094761D02*
X110231309Y-74070952D01*
X110231309Y-74070952D02*
X110207500Y-74047142D01*
X110207500Y-74047142D02*
X110183690Y-73999523D01*
X110183690Y-73999523D02*
X110183690Y-73904285D01*
X110183690Y-73904285D02*
X110207500Y-73856666D01*
X110207500Y-73856666D02*
X110231309Y-73832857D01*
X110231309Y-73832857D02*
X110278928Y-73809047D01*
X110278928Y-73809047D02*
X110302738Y-73809047D01*
X110302738Y-73809047D02*
X110350357Y-73832857D01*
X110350357Y-73832857D02*
X110374166Y-73856666D01*
X110374166Y-73856666D02*
X110397976Y-73904285D01*
X110397976Y-73904285D02*
X110397976Y-73999523D01*
X110397976Y-73999523D02*
X110421785Y-74047142D01*
X110421785Y-74047142D02*
X110445595Y-74070952D01*
X110445595Y-74070952D02*
X110493214Y-74094761D01*
X110493214Y-74094761D02*
X110588452Y-74094761D01*
X110588452Y-74094761D02*
X110636071Y-74070952D01*
X110636071Y-74070952D02*
X110659880Y-74047142D01*
X110659880Y-74047142D02*
X110683690Y-73999523D01*
X110683690Y-73999523D02*
X110683690Y-73904285D01*
X110683690Y-73904285D02*
X110659880Y-73856666D01*
X110659880Y-73856666D02*
X110636071Y-73832857D01*
X110636071Y-73832857D02*
X110588452Y-73809047D01*
X110588452Y-73809047D02*
X110493214Y-73809047D01*
X110493214Y-73809047D02*
X110445595Y-73832857D01*
X110445595Y-73832857D02*
X110421785Y-73856666D01*
X110421785Y-73856666D02*
X110397976Y-73904285D01*
X115903690Y-74711428D02*
X115665595Y-74878094D01*
X115903690Y-74997142D02*
X115403690Y-74997142D01*
X115403690Y-74997142D02*
X115403690Y-74806666D01*
X115403690Y-74806666D02*
X115427500Y-74759047D01*
X115427500Y-74759047D02*
X115451309Y-74735237D01*
X115451309Y-74735237D02*
X115498928Y-74711428D01*
X115498928Y-74711428D02*
X115570357Y-74711428D01*
X115570357Y-74711428D02*
X115617976Y-74735237D01*
X115617976Y-74735237D02*
X115641785Y-74759047D01*
X115641785Y-74759047D02*
X115665595Y-74806666D01*
X115665595Y-74806666D02*
X115665595Y-74997142D01*
X115403690Y-74544761D02*
X115403690Y-74235237D01*
X115403690Y-74235237D02*
X115594166Y-74401904D01*
X115594166Y-74401904D02*
X115594166Y-74330475D01*
X115594166Y-74330475D02*
X115617976Y-74282856D01*
X115617976Y-74282856D02*
X115641785Y-74259047D01*
X115641785Y-74259047D02*
X115689404Y-74235237D01*
X115689404Y-74235237D02*
X115808452Y-74235237D01*
X115808452Y-74235237D02*
X115856071Y-74259047D01*
X115856071Y-74259047D02*
X115879880Y-74282856D01*
X115879880Y-74282856D02*
X115903690Y-74330475D01*
X115903690Y-74330475D02*
X115903690Y-74473332D01*
X115903690Y-74473332D02*
X115879880Y-74520951D01*
X115879880Y-74520951D02*
X115856071Y-74544761D01*
X115903690Y-73997142D02*
X115903690Y-73901904D01*
X115903690Y-73901904D02*
X115879880Y-73854285D01*
X115879880Y-73854285D02*
X115856071Y-73830476D01*
X115856071Y-73830476D02*
X115784642Y-73782857D01*
X115784642Y-73782857D02*
X115689404Y-73759047D01*
X115689404Y-73759047D02*
X115498928Y-73759047D01*
X115498928Y-73759047D02*
X115451309Y-73782857D01*
X115451309Y-73782857D02*
X115427500Y-73806666D01*
X115427500Y-73806666D02*
X115403690Y-73854285D01*
X115403690Y-73854285D02*
X115403690Y-73949523D01*
X115403690Y-73949523D02*
X115427500Y-73997142D01*
X115427500Y-73997142D02*
X115451309Y-74020952D01*
X115451309Y-74020952D02*
X115498928Y-74044761D01*
X115498928Y-74044761D02*
X115617976Y-74044761D01*
X115617976Y-74044761D02*
X115665595Y-74020952D01*
X115665595Y-74020952D02*
X115689404Y-73997142D01*
X115689404Y-73997142D02*
X115713214Y-73949523D01*
X115713214Y-73949523D02*
X115713214Y-73854285D01*
X115713214Y-73854285D02*
X115689404Y-73806666D01*
X115689404Y-73806666D02*
X115665595Y-73782857D01*
X115665595Y-73782857D02*
X115617976Y-73759047D01*
X117092380Y-59301309D02*
X117044761Y-59277500D01*
X117044761Y-59277500D02*
X116997142Y-59229880D01*
X116997142Y-59229880D02*
X116925714Y-59158452D01*
X116925714Y-59158452D02*
X116878095Y-59134642D01*
X116878095Y-59134642D02*
X116830476Y-59134642D01*
X116854285Y-59253690D02*
X116806666Y-59229880D01*
X116806666Y-59229880D02*
X116759047Y-59182261D01*
X116759047Y-59182261D02*
X116735238Y-59087023D01*
X116735238Y-59087023D02*
X116735238Y-58920357D01*
X116735238Y-58920357D02*
X116759047Y-58825119D01*
X116759047Y-58825119D02*
X116806666Y-58777500D01*
X116806666Y-58777500D02*
X116854285Y-58753690D01*
X116854285Y-58753690D02*
X116949523Y-58753690D01*
X116949523Y-58753690D02*
X116997142Y-58777500D01*
X116997142Y-58777500D02*
X117044761Y-58825119D01*
X117044761Y-58825119D02*
X117068571Y-58920357D01*
X117068571Y-58920357D02*
X117068571Y-59087023D01*
X117068571Y-59087023D02*
X117044761Y-59182261D01*
X117044761Y-59182261D02*
X116997142Y-59229880D01*
X116997142Y-59229880D02*
X116949523Y-59253690D01*
X116949523Y-59253690D02*
X116854285Y-59253690D01*
X117544762Y-59253690D02*
X117259048Y-59253690D01*
X117401905Y-59253690D02*
X117401905Y-58753690D01*
X117401905Y-58753690D02*
X117354286Y-58825119D01*
X117354286Y-58825119D02*
X117306667Y-58872738D01*
X117306667Y-58872738D02*
X117259048Y-58896547D01*
X160806071Y-79041428D02*
X160829880Y-79065237D01*
X160829880Y-79065237D02*
X160853690Y-79136666D01*
X160853690Y-79136666D02*
X160853690Y-79184285D01*
X160853690Y-79184285D02*
X160829880Y-79255713D01*
X160829880Y-79255713D02*
X160782261Y-79303332D01*
X160782261Y-79303332D02*
X160734642Y-79327142D01*
X160734642Y-79327142D02*
X160639404Y-79350951D01*
X160639404Y-79350951D02*
X160567976Y-79350951D01*
X160567976Y-79350951D02*
X160472738Y-79327142D01*
X160472738Y-79327142D02*
X160425119Y-79303332D01*
X160425119Y-79303332D02*
X160377500Y-79255713D01*
X160377500Y-79255713D02*
X160353690Y-79184285D01*
X160353690Y-79184285D02*
X160353690Y-79136666D01*
X160353690Y-79136666D02*
X160377500Y-79065237D01*
X160377500Y-79065237D02*
X160401309Y-79041428D01*
X160853690Y-78565237D02*
X160853690Y-78850951D01*
X160853690Y-78708094D02*
X160353690Y-78708094D01*
X160353690Y-78708094D02*
X160425119Y-78755713D01*
X160425119Y-78755713D02*
X160472738Y-78803332D01*
X160472738Y-78803332D02*
X160496547Y-78850951D01*
X160520357Y-78136666D02*
X160853690Y-78136666D01*
X160329880Y-78255714D02*
X160687023Y-78374761D01*
X160687023Y-78374761D02*
X160687023Y-78065238D01*
X158562381Y-83073690D02*
X158395715Y-82835595D01*
X158276667Y-83073690D02*
X158276667Y-82573690D01*
X158276667Y-82573690D02*
X158467143Y-82573690D01*
X158467143Y-82573690D02*
X158514762Y-82597500D01*
X158514762Y-82597500D02*
X158538572Y-82621309D01*
X158538572Y-82621309D02*
X158562381Y-82668928D01*
X158562381Y-82668928D02*
X158562381Y-82740357D01*
X158562381Y-82740357D02*
X158538572Y-82787976D01*
X158538572Y-82787976D02*
X158514762Y-82811785D01*
X158514762Y-82811785D02*
X158467143Y-82835595D01*
X158467143Y-82835595D02*
X158276667Y-82835595D01*
X158943334Y-82811785D02*
X158776667Y-82811785D01*
X158776667Y-83073690D02*
X158776667Y-82573690D01*
X158776667Y-82573690D02*
X159014762Y-82573690D01*
X159181429Y-82621309D02*
X159205238Y-82597500D01*
X159205238Y-82597500D02*
X159252857Y-82573690D01*
X159252857Y-82573690D02*
X159371905Y-82573690D01*
X159371905Y-82573690D02*
X159419524Y-82597500D01*
X159419524Y-82597500D02*
X159443333Y-82621309D01*
X159443333Y-82621309D02*
X159467143Y-82668928D01*
X159467143Y-82668928D02*
X159467143Y-82716547D01*
X159467143Y-82716547D02*
X159443333Y-82787976D01*
X159443333Y-82787976D02*
X159157619Y-83073690D01*
X159157619Y-83073690D02*
X159467143Y-83073690D01*
X155653690Y-82097618D02*
X155415595Y-82264284D01*
X155653690Y-82383332D02*
X155153690Y-82383332D01*
X155153690Y-82383332D02*
X155153690Y-82192856D01*
X155153690Y-82192856D02*
X155177500Y-82145237D01*
X155177500Y-82145237D02*
X155201309Y-82121427D01*
X155201309Y-82121427D02*
X155248928Y-82097618D01*
X155248928Y-82097618D02*
X155320357Y-82097618D01*
X155320357Y-82097618D02*
X155367976Y-82121427D01*
X155367976Y-82121427D02*
X155391785Y-82145237D01*
X155391785Y-82145237D02*
X155415595Y-82192856D01*
X155415595Y-82192856D02*
X155415595Y-82383332D01*
X155391785Y-81716665D02*
X155391785Y-81883332D01*
X155653690Y-81883332D02*
X155153690Y-81883332D01*
X155153690Y-81883332D02*
X155153690Y-81645237D01*
X155653690Y-81192856D02*
X155653690Y-81478570D01*
X155653690Y-81335713D02*
X155153690Y-81335713D01*
X155153690Y-81335713D02*
X155225119Y-81383332D01*
X155225119Y-81383332D02*
X155272738Y-81430951D01*
X155272738Y-81430951D02*
X155296547Y-81478570D01*
X147933690Y-72003333D02*
X147933690Y-72241428D01*
X147933690Y-72241428D02*
X147433690Y-72241428D01*
X147600357Y-71622380D02*
X147933690Y-71622380D01*
X147409880Y-71741428D02*
X147767023Y-71860475D01*
X147767023Y-71860475D02*
X147767023Y-71550952D01*
X158580952Y-78013690D02*
X158580952Y-77513690D01*
X158580952Y-77513690D02*
X158700000Y-77513690D01*
X158700000Y-77513690D02*
X158771428Y-77537500D01*
X158771428Y-77537500D02*
X158819047Y-77585119D01*
X158819047Y-77585119D02*
X158842857Y-77632738D01*
X158842857Y-77632738D02*
X158866666Y-77727976D01*
X158866666Y-77727976D02*
X158866666Y-77799404D01*
X158866666Y-77799404D02*
X158842857Y-77894642D01*
X158842857Y-77894642D02*
X158819047Y-77942261D01*
X158819047Y-77942261D02*
X158771428Y-77989880D01*
X158771428Y-77989880D02*
X158700000Y-78013690D01*
X158700000Y-78013690D02*
X158580952Y-78013690D01*
X159033333Y-77513690D02*
X159366666Y-77513690D01*
X159366666Y-77513690D02*
X159152381Y-78013690D01*
X160068571Y-68153690D02*
X159901905Y-67915595D01*
X159782857Y-68153690D02*
X159782857Y-67653690D01*
X159782857Y-67653690D02*
X159973333Y-67653690D01*
X159973333Y-67653690D02*
X160020952Y-67677500D01*
X160020952Y-67677500D02*
X160044762Y-67701309D01*
X160044762Y-67701309D02*
X160068571Y-67748928D01*
X160068571Y-67748928D02*
X160068571Y-67820357D01*
X160068571Y-67820357D02*
X160044762Y-67867976D01*
X160044762Y-67867976D02*
X160020952Y-67891785D01*
X160020952Y-67891785D02*
X159973333Y-67915595D01*
X159973333Y-67915595D02*
X159782857Y-67915595D01*
X160259048Y-67701309D02*
X160282857Y-67677500D01*
X160282857Y-67677500D02*
X160330476Y-67653690D01*
X160330476Y-67653690D02*
X160449524Y-67653690D01*
X160449524Y-67653690D02*
X160497143Y-67677500D01*
X160497143Y-67677500D02*
X160520952Y-67701309D01*
X160520952Y-67701309D02*
X160544762Y-67748928D01*
X160544762Y-67748928D02*
X160544762Y-67796547D01*
X160544762Y-67796547D02*
X160520952Y-67867976D01*
X160520952Y-67867976D02*
X160235238Y-68153690D01*
X160235238Y-68153690D02*
X160544762Y-68153690D01*
X160735238Y-67701309D02*
X160759047Y-67677500D01*
X160759047Y-67677500D02*
X160806666Y-67653690D01*
X160806666Y-67653690D02*
X160925714Y-67653690D01*
X160925714Y-67653690D02*
X160973333Y-67677500D01*
X160973333Y-67677500D02*
X160997142Y-67701309D01*
X160997142Y-67701309D02*
X161020952Y-67748928D01*
X161020952Y-67748928D02*
X161020952Y-67796547D01*
X161020952Y-67796547D02*
X160997142Y-67867976D01*
X160997142Y-67867976D02*
X160711428Y-68153690D01*
X160711428Y-68153690D02*
X161020952Y-68153690D01*
X148119047Y-80983690D02*
X148119047Y-81388452D01*
X148119047Y-81388452D02*
X148142857Y-81436071D01*
X148142857Y-81436071D02*
X148166666Y-81459880D01*
X148166666Y-81459880D02*
X148214285Y-81483690D01*
X148214285Y-81483690D02*
X148309523Y-81483690D01*
X148309523Y-81483690D02*
X148357142Y-81459880D01*
X148357142Y-81459880D02*
X148380952Y-81436071D01*
X148380952Y-81436071D02*
X148404761Y-81388452D01*
X148404761Y-81388452D02*
X148404761Y-80983690D01*
X148857143Y-81150357D02*
X148857143Y-81483690D01*
X148738095Y-80959880D02*
X148619048Y-81317023D01*
X148619048Y-81317023D02*
X148928571Y-81317023D01*
D12*
X153948600Y-65950900D02*
X150951400Y-65950900D01*
X150951400Y-69964100D02*
X153948600Y-69964100D01*
X154532800Y-69456100D02*
G75*
G03*
X154380400Y-69456100I-76200J0D01*
G01*
X154380400Y-69456100D02*
G75*
G03*
X154532800Y-69456100I76200J0D01*
G01*
D13*
X141811252Y-70760000D02*
X140388748Y-70760000D01*
X141811252Y-68940000D02*
X140388748Y-68940000D01*
X133625000Y-62153748D02*
X133625000Y-63576252D01*
X131805000Y-62153748D02*
X131805000Y-63576252D01*
X185187000Y-67614748D02*
X185187000Y-69037252D01*
X183367000Y-67614748D02*
X183367000Y-69037252D01*
X119782000Y-78409748D02*
X119782000Y-79832252D01*
X117962000Y-78409748D02*
X117962000Y-79832252D01*
X126386000Y-62153748D02*
X126386000Y-63576252D01*
X124566000Y-62153748D02*
X124566000Y-63576252D01*
X167365000Y-71577252D02*
X167365000Y-70154748D01*
X169185000Y-71577252D02*
X169185000Y-70154748D01*
X183367000Y-73990252D02*
X183367000Y-72567748D01*
X185187000Y-73990252D02*
X185187000Y-72567748D01*
X176029252Y-75792000D02*
X175506748Y-75792000D01*
X176029252Y-74322000D02*
X175506748Y-74322000D01*
X171810000Y-74068252D02*
X171810000Y-72645748D01*
X173630000Y-74068252D02*
X173630000Y-72645748D01*
X128799000Y-62153748D02*
X128799000Y-63576252D01*
X126979000Y-62153748D02*
X126979000Y-63576252D01*
X139966752Y-67521500D02*
X138544248Y-67521500D01*
X139966752Y-65701500D02*
X138544248Y-65701500D01*
X117737000Y-77342000D02*
X120007000Y-77342000D01*
X120007000Y-77342000D02*
X120007000Y-73457000D01*
X117737000Y-73457000D02*
X117737000Y-77342000D01*
X122563000Y-77342000D02*
X124833000Y-77342000D01*
X124833000Y-77342000D02*
X124833000Y-73457000D01*
X122563000Y-73457000D02*
X122563000Y-77342000D01*
X122020000Y-74194936D02*
X122020000Y-74649064D01*
X120550000Y-74194936D02*
X120550000Y-74649064D01*
X127100064Y-72490000D02*
X126645936Y-72490000D01*
X127100064Y-71020000D02*
X126645936Y-71020000D01*
X132434064Y-81507000D02*
X131979936Y-81507000D01*
X132434064Y-80037000D02*
X131979936Y-80037000D01*
X138152064Y-74395000D02*
X137697936Y-74395000D01*
X138152064Y-72925000D02*
X137697936Y-72925000D01*
X180821000Y-75464936D02*
X180821000Y-75919064D01*
X179351000Y-75464936D02*
X179351000Y-75919064D01*
X138149064Y-76681000D02*
X137694936Y-76681000D01*
X138149064Y-75211000D02*
X137694936Y-75211000D01*
X173000936Y-76354000D02*
X173455064Y-76354000D01*
X173000936Y-77824000D02*
X173455064Y-77824000D01*
X147220000Y-69476252D02*
X147220000Y-68953748D01*
X148690000Y-69476252D02*
X148690000Y-68953748D01*
X156189000Y-63449252D02*
X156189000Y-62026748D01*
X158009000Y-63449252D02*
X158009000Y-62026748D01*
X163047000Y-63452252D02*
X163047000Y-62029748D01*
X164867000Y-63452252D02*
X164867000Y-62029748D01*
X158475000Y-63446252D02*
X158475000Y-62023748D01*
X160295000Y-63446252D02*
X160295000Y-62023748D01*
X160761000Y-63449252D02*
X160761000Y-62026748D01*
X162581000Y-63449252D02*
X162581000Y-62026748D01*
X123973000Y-62153748D02*
X123973000Y-63576252D01*
X122153000Y-62153748D02*
X122153000Y-63576252D01*
X143870000Y-63654252D02*
X143870000Y-62231748D01*
X145690000Y-63654252D02*
X145690000Y-62231748D01*
X157761000Y-67283064D02*
X157761000Y-66828936D01*
X159231000Y-67283064D02*
X159231000Y-66828936D01*
X157761000Y-70204064D02*
X157761000Y-69749936D01*
X159231000Y-70204064D02*
X159231000Y-69749936D01*
X137694936Y-77497000D02*
X138149064Y-77497000D01*
X137694936Y-78967000D02*
X138149064Y-78967000D01*
X131212000Y-62104748D02*
X131212000Y-63527252D01*
X129392000Y-62104748D02*
X129392000Y-63527252D01*
X176035000Y-62545000D02*
X176035000Y-62945000D01*
X176035000Y-62545000D02*
X180835000Y-62545000D01*
X176035000Y-62945000D02*
X174635000Y-62945000D01*
X176035000Y-73345000D02*
X180835000Y-73345000D01*
X171296000Y-70511936D02*
X171296000Y-70966064D01*
X169826000Y-70511936D02*
X169826000Y-70966064D01*
X132510000Y-71960000D02*
X132510000Y-71485000D01*
X132985000Y-67740000D02*
X132510000Y-67740000D01*
X132985000Y-71960000D02*
X132510000Y-71960000D01*
X136255000Y-67740000D02*
X136730000Y-67740000D01*
X136255000Y-71960000D02*
X136730000Y-71960000D01*
X136730000Y-67740000D02*
X136730000Y-68215000D01*
X136730000Y-71960000D02*
X136730000Y-71485000D01*
D10*
X134245000Y-80372000D02*
X134745000Y-79872000D01*
X134245000Y-81172000D02*
X134245000Y-80372000D01*
X134745000Y-79872000D02*
X138345000Y-79872000D01*
X134745000Y-81672000D02*
X134245000Y-81172000D01*
X138345000Y-79872000D02*
X138845000Y-80372000D01*
X138345000Y-81672000D02*
X134745000Y-81672000D01*
X138845000Y-80372000D02*
X138845000Y-81172000D01*
X138845000Y-81172000D02*
X138345000Y-81672000D01*
D13*
X146839000Y-76554064D02*
X146839000Y-76099936D01*
X148309000Y-76554064D02*
X148309000Y-76099936D01*
X139065000Y-83185000D02*
X146685000Y-83185000D01*
X146685000Y-83185000D02*
X146685000Y-73025000D01*
X139065000Y-73025000D02*
X139065000Y-83185000D01*
X145415000Y-73025000D02*
X145415000Y-83185000D01*
X146685000Y-73025000D02*
X139065000Y-73025000D01*
X173101000Y-58293000D02*
X165481000Y-58293000D01*
X165481000Y-58293000D02*
X165481000Y-68453000D01*
X173101000Y-68453000D02*
X173101000Y-58293000D01*
X166751000Y-68453000D02*
X166751000Y-58293000D01*
X165481000Y-68453000D02*
X173101000Y-68453000D01*
X163576000Y-83185000D02*
X171196000Y-83185000D01*
X171196000Y-83185000D02*
X171196000Y-73025000D01*
X163576000Y-73025000D02*
X163576000Y-83185000D01*
X169926000Y-73025000D02*
X169926000Y-83185000D01*
X171196000Y-73025000D02*
X163576000Y-73025000D01*
X104495000Y-68992000D02*
X103595000Y-68992000D01*
X100895000Y-68992000D02*
X98165000Y-68992000D01*
X98165000Y-68992000D02*
X98165000Y-78182000D01*
X107575000Y-69112000D02*
X107575000Y-78062000D01*
X104495000Y-78182000D02*
X103595000Y-78182000D01*
X100895000Y-78182000D02*
X98165000Y-78182000D01*
X134970000Y-59645000D02*
X134970000Y-58795000D01*
X134970000Y-64345000D02*
X134970000Y-63545000D01*
X135580000Y-58185000D02*
X141280000Y-58185000D01*
X141280000Y-65005000D02*
X135630000Y-65005000D01*
X141890000Y-58795000D02*
X141890000Y-59645000D01*
X141890000Y-63545000D02*
X141890000Y-64395000D01*
X135580000Y-58185000D02*
G75*
G03*
X134970000Y-58795000I0J-610000D01*
G01*
X134970000Y-64345000D02*
G75*
G03*
X135630000Y-65005000I660002J2D01*
G01*
X141890000Y-58795000D02*
G75*
G03*
X141280000Y-58185000I-610000J0D01*
G01*
X141280000Y-65005000D02*
G75*
G03*
X141890000Y-64395000I0J610000D01*
G01*
X147924000Y-59645000D02*
X147924000Y-58795000D01*
X147924000Y-64345000D02*
X147924000Y-63545000D01*
X148534000Y-58185000D02*
X154234000Y-58185000D01*
X154234000Y-65005000D02*
X148584000Y-65005000D01*
X154844000Y-58795000D02*
X154844000Y-59645000D01*
X154844000Y-63545000D02*
X154844000Y-64395000D01*
X148534000Y-58185000D02*
G75*
G03*
X147924000Y-58795000I0J-610000D01*
G01*
X147924000Y-64345000D02*
G75*
G03*
X148584000Y-65005000I660002J2D01*
G01*
X154844000Y-58795000D02*
G75*
G03*
X154234000Y-58185000I-610000J0D01*
G01*
X154234000Y-65005000D02*
G75*
G03*
X154844000Y-64395000I0J610000D01*
G01*
X97198000Y-57688500D02*
X111898000Y-57688500D01*
X97198000Y-66888500D02*
X97198000Y-57688500D01*
X105998000Y-66888500D02*
X97198000Y-66888500D01*
X111048000Y-57488500D02*
X112098000Y-57488500D01*
X111898000Y-57688500D02*
X111898000Y-60288500D01*
X111898000Y-64188500D02*
X111898000Y-66888500D01*
X111898000Y-66888500D02*
X109998000Y-66888500D01*
X112098000Y-58538500D02*
X112098000Y-57488500D01*
X115724000Y-79382252D02*
X115724000Y-78859748D01*
X117194000Y-79382252D02*
X117194000Y-78859748D01*
X116466252Y-69950000D02*
X115943748Y-69950000D01*
X116466252Y-68480000D02*
X115943748Y-68480000D01*
X113282000Y-77541000D02*
X111122000Y-77541000D01*
X113282000Y-77541000D02*
X113282000Y-78471000D01*
X113282000Y-80701000D02*
X111822000Y-80701000D01*
X113282000Y-80701000D02*
X113282000Y-79771000D01*
X120521000Y-65349000D02*
X118361000Y-65349000D01*
X120521000Y-65349000D02*
X120521000Y-66279000D01*
X120521000Y-68509000D02*
X119061000Y-68509000D01*
X120521000Y-68509000D02*
X120521000Y-67579000D01*
X112167936Y-68480000D02*
X112622064Y-68480000D01*
X112167936Y-69950000D02*
X112622064Y-69950000D01*
X112622064Y-71855000D02*
X112167936Y-71855000D01*
X112622064Y-70385000D02*
X112167936Y-70385000D01*
X119480000Y-63018936D02*
X119480000Y-63473064D01*
X118010000Y-63018936D02*
X118010000Y-63473064D01*
X120042000Y-63473064D02*
X120042000Y-63018936D01*
X121512000Y-63473064D02*
X121512000Y-63018936D01*
X115977936Y-66575000D02*
X116432064Y-66575000D01*
X115977936Y-68045000D02*
X116432064Y-68045000D01*
X131545064Y-74395000D02*
X131090936Y-74395000D01*
X131545064Y-72925000D02*
X131090936Y-72925000D01*
X127100064Y-76300000D02*
X126645936Y-76300000D01*
X127100064Y-74830000D02*
X126645936Y-74830000D01*
X127100064Y-74395000D02*
X126645936Y-74395000D01*
X127100064Y-72925000D02*
X126645936Y-72925000D01*
X133627936Y-78005000D02*
X134082064Y-78005000D01*
X133627936Y-79475000D02*
X134082064Y-79475000D01*
X122020000Y-70130936D02*
X122020000Y-70585064D01*
X120550000Y-70130936D02*
X120550000Y-70585064D01*
X131542064Y-76935000D02*
X131087936Y-76935000D01*
X131542064Y-75465000D02*
X131087936Y-75465000D01*
X176530000Y-62163000D02*
X184210000Y-62163000D01*
X176530000Y-62163000D02*
X176530000Y-59503000D01*
X184210000Y-62163000D02*
X184210000Y-59503000D01*
X173930000Y-60833000D02*
X173930000Y-59503000D01*
X173930000Y-59503000D02*
X175260000Y-59503000D01*
X176530000Y-59503000D02*
X184210000Y-59503000D01*
X122158000Y-81578000D02*
X130218000Y-81578000D01*
X122158000Y-81578000D02*
X122158000Y-79458000D01*
X130218000Y-81578000D02*
X130218000Y-79458000D01*
X120098000Y-80518000D02*
X120098000Y-79458000D01*
X120098000Y-79458000D02*
X121158000Y-79458000D01*
X122158000Y-79458000D02*
X130218000Y-79458000D01*
X178197000Y-79458000D02*
X172137000Y-79458000D01*
X178197000Y-79458000D02*
X178197000Y-81578000D01*
X172137000Y-79458000D02*
X172137000Y-81578000D01*
X180257000Y-80518000D02*
X180257000Y-81578000D01*
X180257000Y-81578000D02*
X179197000Y-81578000D01*
X178197000Y-81578000D02*
X172137000Y-81578000D01*
X112797000Y-73694936D02*
X112797000Y-75149064D01*
X110977000Y-73694936D02*
X110977000Y-75149064D01*
X113263000Y-75149064D02*
X113263000Y-73694936D01*
X115083000Y-75149064D02*
X115083000Y-73694936D01*
X112375000Y-63119000D02*
X112375000Y-66569000D01*
X112375000Y-63119000D02*
X112375000Y-61169000D01*
X117495000Y-63119000D02*
X117495000Y-65069000D01*
X117495000Y-63119000D02*
X117495000Y-61169000D01*
X163089000Y-79425748D02*
X163089000Y-80848252D01*
X161269000Y-79425748D02*
X161269000Y-80848252D01*
X159612000Y-80544936D02*
X159612000Y-80999064D01*
X158142000Y-80544936D02*
X158142000Y-80999064D01*
X155983000Y-80999064D02*
X155983000Y-80544936D01*
X157453000Y-80999064D02*
X157453000Y-80544936D01*
X148161000Y-70941000D02*
X149891000Y-70941000D01*
X148161000Y-72671000D02*
X148161000Y-70941000D01*
X148541000Y-71321000D02*
X148541000Y-72891000D01*
X148541000Y-71321000D02*
X154481000Y-71321000D01*
X148541000Y-75191000D02*
X148541000Y-76761000D01*
X148541000Y-76761000D02*
X154481000Y-76761000D01*
X154481000Y-71321000D02*
X154481000Y-72891000D01*
X154481000Y-75191000D02*
X154481000Y-76761000D01*
X162173000Y-77334000D02*
X162173000Y-73034000D01*
X162173000Y-77334000D02*
X156473000Y-77334000D01*
X162173000Y-73034000D02*
X156473000Y-73034000D01*
X159666000Y-70204064D02*
X159666000Y-69749936D01*
X161136000Y-70204064D02*
X161136000Y-69749936D01*
X151511000Y-77374000D02*
X148511000Y-77374000D01*
X152511000Y-80614000D02*
X150511000Y-80614000D01*
M02*
