G04 #@! TF.GenerationSoftware,KiCad,Pcbnew,(6.99.0-3780-g6ddc5c1a6e)*
G04 #@! TF.CreationDate,2022-10-12T10:17:30+02:00*
G04 #@! TF.ProjectId,BalthazarPSU3,42616c74-6861-47a6-9172-505355332e6b,v02*
G04 #@! TF.SameCoordinates,Original*
G04 #@! TF.FileFunction,Soldermask,Bot*
G04 #@! TF.FilePolarity,Negative*
%FSLAX46Y46*%
G04 Gerber Fmt 4.6, Leading zero omitted, Abs format (unit mm)*
G04 Created by KiCad (PCBNEW (6.99.0-3780-g6ddc5c1a6e)) date 2022-10-12 10:17:30*
%MOMM*%
%LPD*%
G01*
G04 APERTURE LIST*
G04 Aperture macros list*
%AMRoundRect*
0 Rectangle with rounded corners*
0 $1 Rounding radius*
0 $2 $3 $4 $5 $6 $7 $8 $9 X,Y pos of 4 corners*
0 Add a 4 corners polygon primitive as box body*
4,1,4,$2,$3,$4,$5,$6,$7,$8,$9,$2,$3,0*
0 Add four circle primitives for the rounded corners*
1,1,$1+$1,$2,$3*
1,1,$1+$1,$4,$5*
1,1,$1+$1,$6,$7*
1,1,$1+$1,$8,$9*
0 Add four rect primitives between the rounded corners*
20,1,$1+$1,$2,$3,$4,$5,0*
20,1,$1+$1,$4,$5,$6,$7,0*
20,1,$1+$1,$6,$7,$8,$9,0*
20,1,$1+$1,$8,$9,$2,$3,0*%
G04 Aperture macros list end*
%ADD10C,1.400000*%
%ADD11R,3.000000X3.000000*%
%ADD12C,3.000000*%
%ADD13C,0.700000*%
%ADD14O,2.400000X0.900000*%
%ADD15O,1.700000X0.900000*%
%ADD16RoundRect,0.875000X-0.875000X-0.875000X0.875000X-0.875000X0.875000X0.875000X-0.875000X0.875000X0*%
%ADD17R,3.500000X3.500000*%
%ADD18RoundRect,0.750000X-0.750000X-1.000000X0.750000X-1.000000X0.750000X1.000000X-0.750000X1.000000X0*%
%ADD19R,1.700000X1.700000*%
%ADD20O,1.700000X1.700000*%
%ADD21R,1.350000X1.350000*%
%ADD22O,1.350000X1.350000*%
%ADD23C,4.400000*%
%ADD24RoundRect,0.250000X0.375000X0.625000X-0.375000X0.625000X-0.375000X-0.625000X0.375000X-0.625000X0*%
%ADD25RoundRect,0.250000X-0.262500X-0.450000X0.262500X-0.450000X0.262500X0.450000X-0.262500X0.450000X0*%
%ADD26RoundRect,0.250000X-0.475000X0.250000X-0.475000X-0.250000X0.475000X-0.250000X0.475000X0.250000X0*%
%ADD27RoundRect,0.250000X-0.250000X-0.475000X0.250000X-0.475000X0.250000X0.475000X-0.250000X0.475000X0*%
G04 APERTURE END LIST*
D10*
X135275000Y-80772000D03*
X137815000Y-80772000D03*
D11*
X142874999Y-80644999D03*
D12*
X142875000Y-75565000D03*
D11*
X169290999Y-60832999D03*
D12*
X169291000Y-65913000D03*
D11*
X167385999Y-80644999D03*
D12*
X167386000Y-75565000D03*
D13*
X106895000Y-70612000D03*
X106895000Y-71462000D03*
X106895000Y-72312000D03*
X106895000Y-73162000D03*
X106895000Y-74012000D03*
X106895000Y-74862000D03*
X106895000Y-75712000D03*
X106895000Y-76562000D03*
X105545000Y-76562000D03*
X105545000Y-75712000D03*
X105545000Y-74862000D03*
X105545000Y-74012000D03*
X105545000Y-73162000D03*
X105545000Y-72312000D03*
X105545000Y-71462000D03*
X105545000Y-70612000D03*
D14*
X105914999Y-69261999D03*
D15*
X102534999Y-69261999D03*
D14*
X105914999Y-77911999D03*
D15*
X102534999Y-77911999D03*
D16*
X107998000Y-66988500D03*
D17*
X110997999Y-62288499D03*
D18*
X104998000Y-62288500D03*
D19*
X175259999Y-60832999D03*
D20*
X177799999Y-60832999D03*
X180339999Y-60832999D03*
X182879999Y-60832999D03*
D21*
X121157999Y-80517999D03*
D22*
X123157999Y-80517999D03*
X125157999Y-80517999D03*
X127157999Y-80517999D03*
X129157999Y-80517999D03*
D21*
X179196999Y-80517999D03*
D22*
X177196999Y-80517999D03*
X175196999Y-80517999D03*
X173196999Y-80517999D03*
D23*
X104013000Y-80772000D03*
X183515000Y-80645000D03*
D24*
X164341000Y-70866000D03*
X161541000Y-70866000D03*
D25*
X155678500Y-70993000D03*
X157503500Y-70993000D03*
X155678500Y-68961000D03*
X157503500Y-68961000D03*
X132842000Y-61976000D03*
X134667000Y-61976000D03*
D26*
X132080000Y-64810500D03*
X132080000Y-66710500D03*
D27*
X155702000Y-66929000D03*
X157602000Y-66929000D03*
D26*
X134112000Y-64810500D03*
X134112000Y-66710500D03*
D25*
X102211500Y-74295000D03*
X104036500Y-74295000D03*
X102211500Y-76200000D03*
X104036500Y-76200000D03*
D27*
X152085000Y-77851000D03*
X153985000Y-77851000D03*
M02*
