M48
; DRILL file {KiCad (6.99.0-3780-g6ddc5c1a6e)} date Wed Oct 12 10:17:33 2022
; FORMAT={-:-/ absolute / metric / decimal}
; #@! TF.CreationDate,2022-10-12T10:17:33+02:00
; #@! TF.GenerationSoftware,Kicad,Pcbnew,(6.99.0-3780-g6ddc5c1a6e)
; #@! TF.FileFunction,Plated,1,4,PTH
FMAT,2
METRIC
; #@! TA.AperFunction,Plated,PTH,ViaDrill
T1C0.250
; #@! TA.AperFunction,Plated,PTH,ComponentDrill
T2C0.300
; #@! TA.AperFunction,Plated,PTH,ViaDrill
T3C0.400
; #@! TA.AperFunction,Plated,PTH,ComponentDrill
T4C0.400
; #@! TA.AperFunction,Plated,PTH,ViaDrill
T5C0.500
; #@! TA.AperFunction,Plated,PTH,ComponentDrill
T6C0.600
; #@! TA.AperFunction,Plated,PTH,ComponentDrill
T7C0.800
; #@! TA.AperFunction,Plated,PTH,ComponentDrill
T8C1.000
; #@! TA.AperFunction,Plated,PTH,ComponentDrill
T9C1.520
; #@! TA.AperFunction,Plated,PTH,ComponentDrill
T10C2.200
%
G90
G05
T1
X149.11Y-69.81
X151.25Y-65.16
X151.26Y-70.58
X151.98Y-70.61
X152.0Y-65.08
X152.8Y-70.61
X152.85Y-65.08
X153.251Y-70.412
X153.62Y-65.05
X154.347Y-69.586
X154.625Y-69.0
X155.99Y-65.97
T2
X133.52Y-68.75
X133.52Y-69.85
X133.52Y-70.95
X134.62Y-68.75
X134.62Y-69.85
X134.62Y-70.95
X135.72Y-68.75
X135.72Y-69.85
X135.72Y-70.95
T3
X110.62Y-80.11
X114.26Y-71.12
X115.27Y-80.14
X115.49Y-72.54
X117.38Y-81.23
X118.77Y-68.84
X120.355Y-69.545
X120.8Y-61.19
X121.21Y-81.89
X121.793Y-78.613
X122.428Y-66.04
X122.428Y-67.564
X123.07Y-60.26
X125.4Y-60.26
X125.44Y-73.04
X127.89Y-60.35
X129.032Y-59.436
X129.43Y-76.28
X129.47Y-73.69
X130.048Y-65.532
X130.31Y-60.36
X131.36Y-81.9
X132.715Y-60.833
X133.096Y-76.2
X133.477Y-66.197
X134.62Y-60.96
X135.25Y-64.8
X136.017Y-77.089
X137.705Y-72.39
X138.43Y-65.278
X144.018Y-70.612
X146.41Y-73.65
X149.02Y-68.29
X151.384Y-59.499
X152.038Y-79.418
X152.43Y-68.53
X152.45Y-67.49
X153.75Y-80.74
X154.4Y-70.55
X155.35Y-77.7
X155.65Y-71.93
X156.66Y-70.03
X159.43Y-66.12
X161.43Y-72.19
X166.83Y-69.44
X180.213Y-64.77
X185.64Y-66.89
T4
X105.545Y-70.612
X105.545Y-71.462
X105.545Y-72.312
X105.545Y-73.162
X105.545Y-74.012
X105.545Y-74.862
X105.545Y-75.712
X105.545Y-76.562
X106.895Y-70.612
X106.895Y-71.462
X106.895Y-72.312
X106.895Y-73.162
X106.895Y-74.012
X106.895Y-74.862
X106.895Y-75.712
X106.895Y-76.562
T5
X102.21Y-73.16
X103.52Y-76.18
X110.76Y-72.78
X123.19Y-65.19
X132.08Y-67.57
X135.27Y-77.77
X136.11Y-75.95
X136.46Y-79.15
X144.75Y-60.35
X150.746Y-77.819
X157.12Y-60.09
X158.509Y-72.035
X159.39Y-60.09
X160.03Y-79.88
X160.18Y-71.98
X160.83Y-81.58
X161.67Y-60.09
X163.96Y-60.1
X166.88Y-72.38
X176.71Y-76.4
X176.72Y-64.82
X180.13Y-69.88
X180.15Y-72.41
X185.79Y-69.83
T7
X121.158Y-80.518
X123.158Y-80.518
X125.158Y-80.518
X127.158Y-80.518
X129.158Y-80.518
X135.275Y-80.772
X137.815Y-80.772
X173.197Y-80.518
X175.197Y-80.518
X177.197Y-80.518
X179.197Y-80.518
T8
X175.26Y-60.833
X177.8Y-60.833
X180.34Y-60.833
X182.88Y-60.833
T9
X142.875Y-75.565
X142.875Y-80.645
X167.386Y-75.565
X167.386Y-80.645
X169.291Y-60.833
X169.291Y-65.913
T10
X104.013Y-80.772
X183.515Y-80.645
T6
X102.935Y-69.262G85X102.135Y-69.262
G05
X102.935Y-77.912G85X102.135Y-77.912
G05
X106.665Y-69.262G85X105.165Y-69.262
G05
X106.665Y-77.912G85X105.165Y-77.912
G05
T8
X104.998Y-61.288G85X104.998Y-63.288
G05
X106.998Y-66.989G85X108.998Y-66.989
G05
X110.998Y-61.288G85X110.998Y-63.288
G05
T0
M30
