G04 #@! TF.GenerationSoftware,KiCad,Pcbnew,(6.99.0-1603-g82820d4b1c)*
G04 #@! TF.CreationDate,2022-06-17T10:59:49+02:00*
G04 #@! TF.ProjectId,BalthazarPSU3,42616c74-6861-47a6-9172-505355332e6b,rev?*
G04 #@! TF.SameCoordinates,Original*
G04 #@! TF.FileFunction,Legend,Top*
G04 #@! TF.FilePolarity,Positive*
%FSLAX46Y46*%
G04 Gerber Fmt 4.6, Leading zero omitted, Abs format (unit mm)*
G04 Created by KiCad (PCBNEW (6.99.0-1603-g82820d4b1c)) date 2022-06-17 10:59:49*
%MOMM*%
%LPD*%
G01*
G04 APERTURE LIST*
%ADD10C,0.150000*%
%ADD11C,0.120000*%
%ADD12C,0.100000*%
G04 APERTURE END LIST*
D10*
X139096163Y-52430946D02*
X139000923Y-52383331D01*
X139000923Y-52383331D02*
X138953302Y-52335714D01*
X138953302Y-52335714D02*
X138905679Y-52240478D01*
X138905679Y-52240478D02*
X138905677Y-52192859D01*
X138905677Y-52192859D02*
X138953292Y-52097619D01*
X138953292Y-52097619D02*
X139000909Y-52049998D01*
X139000909Y-52049998D02*
X139096145Y-52002375D01*
X139096145Y-52002375D02*
X139286621Y-52002367D01*
X139286621Y-52002367D02*
X139381861Y-52049982D01*
X139381861Y-52049982D02*
X139429482Y-52097599D01*
X139429482Y-52097599D02*
X139477105Y-52192836D01*
X139477105Y-52192836D02*
X139477107Y-52240455D01*
X139477107Y-52240455D02*
X139429492Y-52335695D01*
X139429492Y-52335695D02*
X139381875Y-52383316D01*
X139381875Y-52383316D02*
X139286639Y-52430939D01*
X139286639Y-52430939D02*
X139096163Y-52430946D01*
X139096163Y-52430946D02*
X139000926Y-52478569D01*
X139000926Y-52478569D02*
X138953309Y-52526190D01*
X138953309Y-52526190D02*
X138905694Y-52621430D01*
X138905694Y-52621430D02*
X138905702Y-52811906D01*
X138905702Y-52811906D02*
X138953325Y-52907143D01*
X138953325Y-52907143D02*
X139000946Y-52954760D01*
X139000946Y-52954760D02*
X139096186Y-53002375D01*
X139096186Y-53002375D02*
X139286662Y-53002367D01*
X139286662Y-53002367D02*
X139381898Y-52954744D01*
X139381898Y-52954744D02*
X139429515Y-52907123D01*
X139429515Y-52907123D02*
X139477130Y-52811883D01*
X139477130Y-52811883D02*
X139477123Y-52621407D01*
X139477123Y-52621407D02*
X139429500Y-52526171D01*
X139429500Y-52526171D02*
X139381879Y-52478554D01*
X139381879Y-52478554D02*
X139286639Y-52430939D01*
X140381859Y-52002322D02*
X139905669Y-52002342D01*
X139905669Y-52002342D02*
X139858069Y-52478534D01*
X139858069Y-52478534D02*
X139905686Y-52430913D01*
X139905686Y-52430913D02*
X140000923Y-52383290D01*
X140000923Y-52383290D02*
X140239018Y-52383281D01*
X140239018Y-52383281D02*
X140334258Y-52430896D01*
X140334258Y-52430896D02*
X140381879Y-52478513D01*
X140381879Y-52478513D02*
X140429502Y-52573749D01*
X140429502Y-52573749D02*
X140429511Y-52811844D01*
X140429511Y-52811844D02*
X140381896Y-52907084D01*
X140381896Y-52907084D02*
X140334279Y-52954705D01*
X140334279Y-52954705D02*
X140239043Y-53002328D01*
X140239043Y-53002328D02*
X140000948Y-53002338D01*
X140000948Y-53002338D02*
X139905708Y-52954723D01*
X139905708Y-52954723D02*
X139858087Y-52907106D01*
X140858087Y-52907065D02*
X140905708Y-52954682D01*
X140905708Y-52954682D02*
X140858091Y-53002303D01*
X140858091Y-53002303D02*
X140810470Y-52954686D01*
X140810470Y-52954686D02*
X140858087Y-52907065D01*
X140858087Y-52907065D02*
X140858091Y-53002303D01*
X141477115Y-52430849D02*
X141381875Y-52383234D01*
X141381875Y-52383234D02*
X141334254Y-52335617D01*
X141334254Y-52335617D02*
X141286631Y-52240381D01*
X141286631Y-52240381D02*
X141286629Y-52192762D01*
X141286629Y-52192762D02*
X141334244Y-52097522D01*
X141334244Y-52097522D02*
X141381861Y-52049901D01*
X141381861Y-52049901D02*
X141477097Y-52002278D01*
X141477097Y-52002278D02*
X141667573Y-52002270D01*
X141667573Y-52002270D02*
X141762813Y-52049885D01*
X141762813Y-52049885D02*
X141810434Y-52097502D01*
X141810434Y-52097502D02*
X141858057Y-52192738D01*
X141858057Y-52192738D02*
X141858059Y-52240358D01*
X141858059Y-52240358D02*
X141810444Y-52335598D01*
X141810444Y-52335598D02*
X141762827Y-52383219D01*
X141762827Y-52383219D02*
X141667591Y-52430841D01*
X141667591Y-52430841D02*
X141477115Y-52430849D01*
X141477115Y-52430849D02*
X141381878Y-52478472D01*
X141381878Y-52478472D02*
X141334261Y-52526093D01*
X141334261Y-52526093D02*
X141286646Y-52621333D01*
X141286646Y-52621333D02*
X141286654Y-52811809D01*
X141286654Y-52811809D02*
X141334277Y-52907046D01*
X141334277Y-52907046D02*
X141381898Y-52954663D01*
X141381898Y-52954663D02*
X141477138Y-53002278D01*
X141477138Y-53002278D02*
X141667614Y-53002270D01*
X141667614Y-53002270D02*
X141762850Y-52954647D01*
X141762850Y-52954647D02*
X141810467Y-52907026D01*
X141810467Y-52907026D02*
X141858082Y-52811786D01*
X141858082Y-52811786D02*
X141858075Y-52621310D01*
X141858075Y-52621310D02*
X141810452Y-52526074D01*
X141810452Y-52526074D02*
X141762831Y-52478457D01*
X141762831Y-52478457D02*
X141667591Y-52430841D01*
X142334281Y-53002243D02*
X142524757Y-53002235D01*
X142524757Y-53002235D02*
X142619993Y-52954612D01*
X142619993Y-52954612D02*
X142667610Y-52906991D01*
X142667610Y-52906991D02*
X142762842Y-52764130D01*
X142762842Y-52764130D02*
X142810454Y-52573652D01*
X142810454Y-52573652D02*
X142810438Y-52192700D01*
X142810438Y-52192700D02*
X142762815Y-52097464D01*
X142762815Y-52097464D02*
X142715194Y-52049846D01*
X142715194Y-52049846D02*
X142619954Y-52002231D01*
X142619954Y-52002231D02*
X142429478Y-52002239D01*
X142429478Y-52002239D02*
X142334242Y-52049862D01*
X142334242Y-52049862D02*
X142286625Y-52097483D01*
X142286625Y-52097483D02*
X142239010Y-52192723D01*
X142239010Y-52192723D02*
X142239019Y-52430818D01*
X142239019Y-52430818D02*
X142286642Y-52526054D01*
X142286642Y-52526054D02*
X142334263Y-52573671D01*
X142334263Y-52573671D02*
X142429503Y-52621287D01*
X142429503Y-52621287D02*
X142619980Y-52621279D01*
X142619980Y-52621279D02*
X142715216Y-52573656D01*
X142715216Y-52573656D02*
X142762833Y-52526035D01*
X142762833Y-52526035D02*
X142810448Y-52430795D01*
X143191387Y-52097446D02*
X143239004Y-52049825D01*
X143239004Y-52049825D02*
X143334240Y-52002202D01*
X143334240Y-52002202D02*
X143572335Y-52002192D01*
X143572335Y-52002192D02*
X143667575Y-52049808D01*
X143667575Y-52049808D02*
X143715196Y-52097425D01*
X143715196Y-52097425D02*
X143762819Y-52192661D01*
X143762819Y-52192661D02*
X143762823Y-52287899D01*
X143762823Y-52287899D02*
X143715210Y-52430758D01*
X143715210Y-52430758D02*
X143143805Y-53002210D01*
X143143805Y-53002210D02*
X143762852Y-53002185D01*
X144381859Y-52002159D02*
X144477097Y-52002156D01*
X144477097Y-52002156D02*
X144572337Y-52049771D01*
X144572337Y-52049771D02*
X144619958Y-52097388D01*
X144619958Y-52097388D02*
X144667581Y-52192624D01*
X144667581Y-52192624D02*
X144715208Y-52383098D01*
X144715208Y-52383098D02*
X144715218Y-52621193D01*
X144715218Y-52621193D02*
X144667606Y-52811672D01*
X144667606Y-52811672D02*
X144619991Y-52906912D01*
X144619991Y-52906912D02*
X144572374Y-52954533D01*
X144572374Y-52954533D02*
X144477138Y-53002156D01*
X144477138Y-53002156D02*
X144381900Y-53002159D01*
X144381900Y-53002159D02*
X144286660Y-52954544D01*
X144286660Y-52954544D02*
X144239039Y-52906927D01*
X144239039Y-52906927D02*
X144191416Y-52811691D01*
X144191416Y-52811691D02*
X144143789Y-52621217D01*
X144143789Y-52621217D02*
X144143779Y-52383122D01*
X144143779Y-52383122D02*
X144191391Y-52192643D01*
X144191391Y-52192643D02*
X144239006Y-52097403D01*
X144239006Y-52097403D02*
X144286623Y-52049782D01*
X144286623Y-52049782D02*
X144381859Y-52002159D01*
X146343805Y-53002080D02*
X146343778Y-52335413D01*
X146343781Y-52430651D02*
X146391399Y-52383030D01*
X146391399Y-52383030D02*
X146486635Y-52335407D01*
X146486635Y-52335407D02*
X146629492Y-52335401D01*
X146629492Y-52335401D02*
X146724732Y-52383016D01*
X146724732Y-52383016D02*
X146772355Y-52478253D01*
X146772355Y-52478253D02*
X146772376Y-53002062D01*
X146772355Y-52478253D02*
X146819970Y-52383012D01*
X146819970Y-52383012D02*
X146915206Y-52335390D01*
X146915206Y-52335390D02*
X147058063Y-52335384D01*
X147058063Y-52335384D02*
X147153303Y-52382999D01*
X147153303Y-52382999D02*
X147200926Y-52478235D01*
X147200926Y-52478235D02*
X147200948Y-53002045D01*
X147677138Y-53002025D02*
X147677111Y-52335359D01*
X147677114Y-52430597D02*
X147724732Y-52382976D01*
X147724732Y-52382976D02*
X147819968Y-52335353D01*
X147819968Y-52335353D02*
X147962825Y-52335347D01*
X147962825Y-52335347D02*
X148058065Y-52382962D01*
X148058065Y-52382962D02*
X148105688Y-52478198D01*
X148105688Y-52478198D02*
X148105709Y-53002008D01*
X148105688Y-52478198D02*
X148153303Y-52382958D01*
X148153303Y-52382958D02*
X148248539Y-52335335D01*
X148248539Y-52335335D02*
X148391396Y-52335329D01*
X148391396Y-52335329D02*
X148486636Y-52382945D01*
X148486636Y-52382945D02*
X148534259Y-52478181D01*
X148534259Y-52478181D02*
X148534281Y-53001990D01*
X100798000Y-57788500D02*
X100797813Y-53200135D01*
X186690000Y-57785000D02*
X186689813Y-53196635D01*
X100797837Y-53786555D02*
X186689837Y-53783055D01*
X100797837Y-53786555D02*
X186689837Y-53783055D01*
X100797837Y-53786555D02*
X101924317Y-53200088D01*
X100797837Y-53786555D02*
X101924365Y-54372930D01*
X186689837Y-53783055D02*
X185563357Y-54369522D01*
X186689837Y-53783055D02*
X185563309Y-53196680D01*
X139623809Y-71972142D02*
X139576190Y-72019761D01*
X139576190Y-72019761D02*
X139433333Y-72067380D01*
X139433333Y-72067380D02*
X139338095Y-72067380D01*
X139338095Y-72067380D02*
X139195238Y-72019761D01*
X139195238Y-72019761D02*
X139100000Y-71924523D01*
X139100000Y-71924523D02*
X139052381Y-71829285D01*
X139052381Y-71829285D02*
X139004762Y-71638809D01*
X139004762Y-71638809D02*
X139004762Y-71495952D01*
X139004762Y-71495952D02*
X139052381Y-71305476D01*
X139052381Y-71305476D02*
X139100000Y-71210238D01*
X139100000Y-71210238D02*
X139195238Y-71115000D01*
X139195238Y-71115000D02*
X139338095Y-71067380D01*
X139338095Y-71067380D02*
X139433333Y-71067380D01*
X139433333Y-71067380D02*
X139576190Y-71115000D01*
X139576190Y-71115000D02*
X139623809Y-71162619D01*
X140385714Y-71543571D02*
X140528571Y-71591190D01*
X140528571Y-71591190D02*
X140576190Y-71638809D01*
X140576190Y-71638809D02*
X140623809Y-71734047D01*
X140623809Y-71734047D02*
X140623809Y-71876904D01*
X140623809Y-71876904D02*
X140576190Y-71972142D01*
X140576190Y-71972142D02*
X140528571Y-72019761D01*
X140528571Y-72019761D02*
X140433333Y-72067380D01*
X140433333Y-72067380D02*
X140052381Y-72067380D01*
X140052381Y-72067380D02*
X140052381Y-71067380D01*
X140052381Y-71067380D02*
X140385714Y-71067380D01*
X140385714Y-71067380D02*
X140480952Y-71115000D01*
X140480952Y-71115000D02*
X140528571Y-71162619D01*
X140528571Y-71162619D02*
X140576190Y-71257857D01*
X140576190Y-71257857D02*
X140576190Y-71353095D01*
X140576190Y-71353095D02*
X140528571Y-71448333D01*
X140528571Y-71448333D02*
X140480952Y-71495952D01*
X140480952Y-71495952D02*
X140385714Y-71543571D01*
X140385714Y-71543571D02*
X140052381Y-71543571D01*
X141004762Y-71781666D02*
X141480952Y-71781666D01*
X140909524Y-72067380D02*
X141242857Y-71067380D01*
X141242857Y-71067380D02*
X141576190Y-72067380D01*
X141766667Y-71067380D02*
X142338095Y-71067380D01*
X142052381Y-72067380D02*
X142052381Y-71067380D01*
X143195238Y-72067380D02*
X142623810Y-72067380D01*
X142909524Y-72067380D02*
X142909524Y-71067380D01*
X142909524Y-71067380D02*
X142814286Y-71210238D01*
X142814286Y-71210238D02*
X142719048Y-71305476D01*
X142719048Y-71305476D02*
X142623810Y-71353095D01*
X134837142Y-64769762D02*
X134884761Y-64817381D01*
X134884761Y-64817381D02*
X134932380Y-64960238D01*
X134932380Y-64960238D02*
X134932380Y-65055476D01*
X134932380Y-65055476D02*
X134884761Y-65198333D01*
X134884761Y-65198333D02*
X134789523Y-65293571D01*
X134789523Y-65293571D02*
X134694285Y-65341190D01*
X134694285Y-65341190D02*
X134503809Y-65388809D01*
X134503809Y-65388809D02*
X134360952Y-65388809D01*
X134360952Y-65388809D02*
X134170476Y-65341190D01*
X134170476Y-65341190D02*
X134075238Y-65293571D01*
X134075238Y-65293571D02*
X133980000Y-65198333D01*
X133980000Y-65198333D02*
X133932380Y-65055476D01*
X133932380Y-65055476D02*
X133932380Y-64960238D01*
X133932380Y-64960238D02*
X133980000Y-64817381D01*
X133980000Y-64817381D02*
X134027619Y-64769762D01*
X134408571Y-64007857D02*
X134456190Y-63865000D01*
X134456190Y-63865000D02*
X134503809Y-63817381D01*
X134503809Y-63817381D02*
X134599047Y-63769762D01*
X134599047Y-63769762D02*
X134741904Y-63769762D01*
X134741904Y-63769762D02*
X134837142Y-63817381D01*
X134837142Y-63817381D02*
X134884761Y-63865000D01*
X134884761Y-63865000D02*
X134932380Y-63960238D01*
X134932380Y-63960238D02*
X134932380Y-64341190D01*
X134932380Y-64341190D02*
X133932380Y-64341190D01*
X133932380Y-64341190D02*
X133932380Y-64007857D01*
X133932380Y-64007857D02*
X133980000Y-63912619D01*
X133980000Y-63912619D02*
X134027619Y-63865000D01*
X134027619Y-63865000D02*
X134122857Y-63817381D01*
X134122857Y-63817381D02*
X134218095Y-63817381D01*
X134218095Y-63817381D02*
X134313333Y-63865000D01*
X134313333Y-63865000D02*
X134360952Y-63912619D01*
X134360952Y-63912619D02*
X134408571Y-64007857D01*
X134408571Y-64007857D02*
X134408571Y-64341190D01*
X133932380Y-63484047D02*
X133932380Y-62912619D01*
X134932380Y-63198333D02*
X133932380Y-63198333D01*
X134884761Y-62626904D02*
X134932380Y-62484047D01*
X134932380Y-62484047D02*
X134932380Y-62245952D01*
X134932380Y-62245952D02*
X134884761Y-62150714D01*
X134884761Y-62150714D02*
X134837142Y-62103095D01*
X134837142Y-62103095D02*
X134741904Y-62055476D01*
X134741904Y-62055476D02*
X134646666Y-62055476D01*
X134646666Y-62055476D02*
X134551428Y-62103095D01*
X134551428Y-62103095D02*
X134503809Y-62150714D01*
X134503809Y-62150714D02*
X134456190Y-62245952D01*
X134456190Y-62245952D02*
X134408571Y-62436428D01*
X134408571Y-62436428D02*
X134360952Y-62531666D01*
X134360952Y-62531666D02*
X134313333Y-62579285D01*
X134313333Y-62579285D02*
X134218095Y-62626904D01*
X134218095Y-62626904D02*
X134122857Y-62626904D01*
X134122857Y-62626904D02*
X134027619Y-62579285D01*
X134027619Y-62579285D02*
X133980000Y-62531666D01*
X133980000Y-62531666D02*
X133932380Y-62436428D01*
X133932380Y-62436428D02*
X133932380Y-62198333D01*
X133932380Y-62198333D02*
X133980000Y-62055476D01*
X133932380Y-61769761D02*
X133932380Y-61198333D01*
X134932380Y-61484047D02*
X133932380Y-61484047D01*
X134932380Y-60341190D02*
X134932380Y-60912618D01*
X134932380Y-60626904D02*
X133932380Y-60626904D01*
X133932380Y-60626904D02*
X134075238Y-60722142D01*
X134075238Y-60722142D02*
X134170476Y-60817380D01*
X134170476Y-60817380D02*
X134218095Y-60912618D01*
X186399142Y-69992666D02*
X186446761Y-70040285D01*
X186446761Y-70040285D02*
X186494380Y-70183142D01*
X186494380Y-70183142D02*
X186494380Y-70278380D01*
X186494380Y-70278380D02*
X186446761Y-70421237D01*
X186446761Y-70421237D02*
X186351523Y-70516475D01*
X186351523Y-70516475D02*
X186256285Y-70564094D01*
X186256285Y-70564094D02*
X186065809Y-70611713D01*
X186065809Y-70611713D02*
X185922952Y-70611713D01*
X185922952Y-70611713D02*
X185732476Y-70564094D01*
X185732476Y-70564094D02*
X185637238Y-70516475D01*
X185637238Y-70516475D02*
X185542000Y-70421237D01*
X185542000Y-70421237D02*
X185494380Y-70278380D01*
X185494380Y-70278380D02*
X185494380Y-70183142D01*
X185494380Y-70183142D02*
X185542000Y-70040285D01*
X185542000Y-70040285D02*
X185589619Y-69992666D01*
X185970571Y-69230761D02*
X186018190Y-69087904D01*
X186018190Y-69087904D02*
X186065809Y-69040285D01*
X186065809Y-69040285D02*
X186161047Y-68992666D01*
X186161047Y-68992666D02*
X186303904Y-68992666D01*
X186303904Y-68992666D02*
X186399142Y-69040285D01*
X186399142Y-69040285D02*
X186446761Y-69087904D01*
X186446761Y-69087904D02*
X186494380Y-69183142D01*
X186494380Y-69183142D02*
X186494380Y-69564094D01*
X186494380Y-69564094D02*
X185494380Y-69564094D01*
X185494380Y-69564094D02*
X185494380Y-69230761D01*
X185494380Y-69230761D02*
X185542000Y-69135523D01*
X185542000Y-69135523D02*
X185589619Y-69087904D01*
X185589619Y-69087904D02*
X185684857Y-69040285D01*
X185684857Y-69040285D02*
X185780095Y-69040285D01*
X185780095Y-69040285D02*
X185875333Y-69087904D01*
X185875333Y-69087904D02*
X185922952Y-69135523D01*
X185922952Y-69135523D02*
X185970571Y-69230761D01*
X185970571Y-69230761D02*
X185970571Y-69564094D01*
X185494380Y-68564094D02*
X186303904Y-68564094D01*
X186303904Y-68564094D02*
X186399142Y-68516475D01*
X186399142Y-68516475D02*
X186446761Y-68468856D01*
X186446761Y-68468856D02*
X186494380Y-68373618D01*
X186494380Y-68373618D02*
X186494380Y-68183142D01*
X186494380Y-68183142D02*
X186446761Y-68087904D01*
X186446761Y-68087904D02*
X186399142Y-68040285D01*
X186399142Y-68040285D02*
X186303904Y-67992666D01*
X186303904Y-67992666D02*
X185494380Y-67992666D01*
X186446761Y-67564094D02*
X186494380Y-67421237D01*
X186494380Y-67421237D02*
X186494380Y-67183142D01*
X186494380Y-67183142D02*
X186446761Y-67087904D01*
X186446761Y-67087904D02*
X186399142Y-67040285D01*
X186399142Y-67040285D02*
X186303904Y-66992666D01*
X186303904Y-66992666D02*
X186208666Y-66992666D01*
X186208666Y-66992666D02*
X186113428Y-67040285D01*
X186113428Y-67040285D02*
X186065809Y-67087904D01*
X186065809Y-67087904D02*
X186018190Y-67183142D01*
X186018190Y-67183142D02*
X185970571Y-67373618D01*
X185970571Y-67373618D02*
X185922952Y-67468856D01*
X185922952Y-67468856D02*
X185875333Y-67516475D01*
X185875333Y-67516475D02*
X185780095Y-67564094D01*
X185780095Y-67564094D02*
X185684857Y-67564094D01*
X185684857Y-67564094D02*
X185589619Y-67516475D01*
X185589619Y-67516475D02*
X185542000Y-67468856D01*
X185542000Y-67468856D02*
X185494380Y-67373618D01*
X185494380Y-67373618D02*
X185494380Y-67135523D01*
X185494380Y-67135523D02*
X185542000Y-66992666D01*
X186494380Y-66040285D02*
X186494380Y-66611713D01*
X186494380Y-66325999D02*
X185494380Y-66325999D01*
X185494380Y-66325999D02*
X185637238Y-66421237D01*
X185637238Y-66421237D02*
X185732476Y-66516475D01*
X185732476Y-66516475D02*
X185780095Y-66611713D01*
X120994142Y-80787666D02*
X121041761Y-80835285D01*
X121041761Y-80835285D02*
X121089380Y-80978142D01*
X121089380Y-80978142D02*
X121089380Y-81073380D01*
X121089380Y-81073380D02*
X121041761Y-81216237D01*
X121041761Y-81216237D02*
X120946523Y-81311475D01*
X120946523Y-81311475D02*
X120851285Y-81359094D01*
X120851285Y-81359094D02*
X120660809Y-81406713D01*
X120660809Y-81406713D02*
X120517952Y-81406713D01*
X120517952Y-81406713D02*
X120327476Y-81359094D01*
X120327476Y-81359094D02*
X120232238Y-81311475D01*
X120232238Y-81311475D02*
X120137000Y-81216237D01*
X120137000Y-81216237D02*
X120089380Y-81073380D01*
X120089380Y-81073380D02*
X120089380Y-80978142D01*
X120089380Y-80978142D02*
X120137000Y-80835285D01*
X120137000Y-80835285D02*
X120184619Y-80787666D01*
X120565571Y-80025761D02*
X120613190Y-79882904D01*
X120613190Y-79882904D02*
X120660809Y-79835285D01*
X120660809Y-79835285D02*
X120756047Y-79787666D01*
X120756047Y-79787666D02*
X120898904Y-79787666D01*
X120898904Y-79787666D02*
X120994142Y-79835285D01*
X120994142Y-79835285D02*
X121041761Y-79882904D01*
X121041761Y-79882904D02*
X121089380Y-79978142D01*
X121089380Y-79978142D02*
X121089380Y-80359094D01*
X121089380Y-80359094D02*
X120089380Y-80359094D01*
X120089380Y-80359094D02*
X120089380Y-80025761D01*
X120089380Y-80025761D02*
X120137000Y-79930523D01*
X120137000Y-79930523D02*
X120184619Y-79882904D01*
X120184619Y-79882904D02*
X120279857Y-79835285D01*
X120279857Y-79835285D02*
X120375095Y-79835285D01*
X120375095Y-79835285D02*
X120470333Y-79882904D01*
X120470333Y-79882904D02*
X120517952Y-79930523D01*
X120517952Y-79930523D02*
X120565571Y-80025761D01*
X120565571Y-80025761D02*
X120565571Y-80359094D01*
X120089380Y-79359094D02*
X120898904Y-79359094D01*
X120898904Y-79359094D02*
X120994142Y-79311475D01*
X120994142Y-79311475D02*
X121041761Y-79263856D01*
X121041761Y-79263856D02*
X121089380Y-79168618D01*
X121089380Y-79168618D02*
X121089380Y-78978142D01*
X121089380Y-78978142D02*
X121041761Y-78882904D01*
X121041761Y-78882904D02*
X120994142Y-78835285D01*
X120994142Y-78835285D02*
X120898904Y-78787666D01*
X120898904Y-78787666D02*
X120089380Y-78787666D01*
X121041761Y-78359094D02*
X121089380Y-78216237D01*
X121089380Y-78216237D02*
X121089380Y-77978142D01*
X121089380Y-77978142D02*
X121041761Y-77882904D01*
X121041761Y-77882904D02*
X120994142Y-77835285D01*
X120994142Y-77835285D02*
X120898904Y-77787666D01*
X120898904Y-77787666D02*
X120803666Y-77787666D01*
X120803666Y-77787666D02*
X120708428Y-77835285D01*
X120708428Y-77835285D02*
X120660809Y-77882904D01*
X120660809Y-77882904D02*
X120613190Y-77978142D01*
X120613190Y-77978142D02*
X120565571Y-78168618D01*
X120565571Y-78168618D02*
X120517952Y-78263856D01*
X120517952Y-78263856D02*
X120470333Y-78311475D01*
X120470333Y-78311475D02*
X120375095Y-78359094D01*
X120375095Y-78359094D02*
X120279857Y-78359094D01*
X120279857Y-78359094D02*
X120184619Y-78311475D01*
X120184619Y-78311475D02*
X120137000Y-78263856D01*
X120137000Y-78263856D02*
X120089380Y-78168618D01*
X120089380Y-78168618D02*
X120089380Y-77930523D01*
X120089380Y-77930523D02*
X120137000Y-77787666D01*
X120184619Y-77406713D02*
X120137000Y-77359094D01*
X120137000Y-77359094D02*
X120089380Y-77263856D01*
X120089380Y-77263856D02*
X120089380Y-77025761D01*
X120089380Y-77025761D02*
X120137000Y-76930523D01*
X120137000Y-76930523D02*
X120184619Y-76882904D01*
X120184619Y-76882904D02*
X120279857Y-76835285D01*
X120279857Y-76835285D02*
X120375095Y-76835285D01*
X120375095Y-76835285D02*
X120517952Y-76882904D01*
X120517952Y-76882904D02*
X121089380Y-77454332D01*
X121089380Y-77454332D02*
X121089380Y-76835285D01*
X127598142Y-64531666D02*
X127645761Y-64579285D01*
X127645761Y-64579285D02*
X127693380Y-64722142D01*
X127693380Y-64722142D02*
X127693380Y-64817380D01*
X127693380Y-64817380D02*
X127645761Y-64960237D01*
X127645761Y-64960237D02*
X127550523Y-65055475D01*
X127550523Y-65055475D02*
X127455285Y-65103094D01*
X127455285Y-65103094D02*
X127264809Y-65150713D01*
X127264809Y-65150713D02*
X127121952Y-65150713D01*
X127121952Y-65150713D02*
X126931476Y-65103094D01*
X126931476Y-65103094D02*
X126836238Y-65055475D01*
X126836238Y-65055475D02*
X126741000Y-64960237D01*
X126741000Y-64960237D02*
X126693380Y-64817380D01*
X126693380Y-64817380D02*
X126693380Y-64722142D01*
X126693380Y-64722142D02*
X126741000Y-64579285D01*
X126741000Y-64579285D02*
X126788619Y-64531666D01*
X127169571Y-63769761D02*
X127217190Y-63626904D01*
X127217190Y-63626904D02*
X127264809Y-63579285D01*
X127264809Y-63579285D02*
X127360047Y-63531666D01*
X127360047Y-63531666D02*
X127502904Y-63531666D01*
X127502904Y-63531666D02*
X127598142Y-63579285D01*
X127598142Y-63579285D02*
X127645761Y-63626904D01*
X127645761Y-63626904D02*
X127693380Y-63722142D01*
X127693380Y-63722142D02*
X127693380Y-64103094D01*
X127693380Y-64103094D02*
X126693380Y-64103094D01*
X126693380Y-64103094D02*
X126693380Y-63769761D01*
X126693380Y-63769761D02*
X126741000Y-63674523D01*
X126741000Y-63674523D02*
X126788619Y-63626904D01*
X126788619Y-63626904D02*
X126883857Y-63579285D01*
X126883857Y-63579285D02*
X126979095Y-63579285D01*
X126979095Y-63579285D02*
X127074333Y-63626904D01*
X127074333Y-63626904D02*
X127121952Y-63674523D01*
X127121952Y-63674523D02*
X127169571Y-63769761D01*
X127169571Y-63769761D02*
X127169571Y-64103094D01*
X126693380Y-63103094D02*
X127502904Y-63103094D01*
X127502904Y-63103094D02*
X127598142Y-63055475D01*
X127598142Y-63055475D02*
X127645761Y-63007856D01*
X127645761Y-63007856D02*
X127693380Y-62912618D01*
X127693380Y-62912618D02*
X127693380Y-62722142D01*
X127693380Y-62722142D02*
X127645761Y-62626904D01*
X127645761Y-62626904D02*
X127598142Y-62579285D01*
X127598142Y-62579285D02*
X127502904Y-62531666D01*
X127502904Y-62531666D02*
X126693380Y-62531666D01*
X127645761Y-62103094D02*
X127693380Y-61960237D01*
X127693380Y-61960237D02*
X127693380Y-61722142D01*
X127693380Y-61722142D02*
X127645761Y-61626904D01*
X127645761Y-61626904D02*
X127598142Y-61579285D01*
X127598142Y-61579285D02*
X127502904Y-61531666D01*
X127502904Y-61531666D02*
X127407666Y-61531666D01*
X127407666Y-61531666D02*
X127312428Y-61579285D01*
X127312428Y-61579285D02*
X127264809Y-61626904D01*
X127264809Y-61626904D02*
X127217190Y-61722142D01*
X127217190Y-61722142D02*
X127169571Y-61912618D01*
X127169571Y-61912618D02*
X127121952Y-62007856D01*
X127121952Y-62007856D02*
X127074333Y-62055475D01*
X127074333Y-62055475D02*
X126979095Y-62103094D01*
X126979095Y-62103094D02*
X126883857Y-62103094D01*
X126883857Y-62103094D02*
X126788619Y-62055475D01*
X126788619Y-62055475D02*
X126741000Y-62007856D01*
X126741000Y-62007856D02*
X126693380Y-61912618D01*
X126693380Y-61912618D02*
X126693380Y-61674523D01*
X126693380Y-61674523D02*
X126741000Y-61531666D01*
X126693380Y-61198332D02*
X126693380Y-60579285D01*
X126693380Y-60579285D02*
X127074333Y-60912618D01*
X127074333Y-60912618D02*
X127074333Y-60769761D01*
X127074333Y-60769761D02*
X127121952Y-60674523D01*
X127121952Y-60674523D02*
X127169571Y-60626904D01*
X127169571Y-60626904D02*
X127264809Y-60579285D01*
X127264809Y-60579285D02*
X127502904Y-60579285D01*
X127502904Y-60579285D02*
X127598142Y-60626904D01*
X127598142Y-60626904D02*
X127645761Y-60674523D01*
X127645761Y-60674523D02*
X127693380Y-60769761D01*
X127693380Y-60769761D02*
X127693380Y-61055475D01*
X127693380Y-61055475D02*
X127645761Y-61150713D01*
X127645761Y-61150713D02*
X127598142Y-61198332D01*
X166697142Y-72532666D02*
X166744761Y-72580285D01*
X166744761Y-72580285D02*
X166792380Y-72723142D01*
X166792380Y-72723142D02*
X166792380Y-72818380D01*
X166792380Y-72818380D02*
X166744761Y-72961237D01*
X166744761Y-72961237D02*
X166649523Y-73056475D01*
X166649523Y-73056475D02*
X166554285Y-73104094D01*
X166554285Y-73104094D02*
X166363809Y-73151713D01*
X166363809Y-73151713D02*
X166220952Y-73151713D01*
X166220952Y-73151713D02*
X166030476Y-73104094D01*
X166030476Y-73104094D02*
X165935238Y-73056475D01*
X165935238Y-73056475D02*
X165840000Y-72961237D01*
X165840000Y-72961237D02*
X165792380Y-72818380D01*
X165792380Y-72818380D02*
X165792380Y-72723142D01*
X165792380Y-72723142D02*
X165840000Y-72580285D01*
X165840000Y-72580285D02*
X165887619Y-72532666D01*
X166268571Y-71770761D02*
X166316190Y-71627904D01*
X166316190Y-71627904D02*
X166363809Y-71580285D01*
X166363809Y-71580285D02*
X166459047Y-71532666D01*
X166459047Y-71532666D02*
X166601904Y-71532666D01*
X166601904Y-71532666D02*
X166697142Y-71580285D01*
X166697142Y-71580285D02*
X166744761Y-71627904D01*
X166744761Y-71627904D02*
X166792380Y-71723142D01*
X166792380Y-71723142D02*
X166792380Y-72104094D01*
X166792380Y-72104094D02*
X165792380Y-72104094D01*
X165792380Y-72104094D02*
X165792380Y-71770761D01*
X165792380Y-71770761D02*
X165840000Y-71675523D01*
X165840000Y-71675523D02*
X165887619Y-71627904D01*
X165887619Y-71627904D02*
X165982857Y-71580285D01*
X165982857Y-71580285D02*
X166078095Y-71580285D01*
X166078095Y-71580285D02*
X166173333Y-71627904D01*
X166173333Y-71627904D02*
X166220952Y-71675523D01*
X166220952Y-71675523D02*
X166268571Y-71770761D01*
X166268571Y-71770761D02*
X166268571Y-72104094D01*
X165792380Y-71104094D02*
X166601904Y-71104094D01*
X166601904Y-71104094D02*
X166697142Y-71056475D01*
X166697142Y-71056475D02*
X166744761Y-71008856D01*
X166744761Y-71008856D02*
X166792380Y-70913618D01*
X166792380Y-70913618D02*
X166792380Y-70723142D01*
X166792380Y-70723142D02*
X166744761Y-70627904D01*
X166744761Y-70627904D02*
X166697142Y-70580285D01*
X166697142Y-70580285D02*
X166601904Y-70532666D01*
X166601904Y-70532666D02*
X165792380Y-70532666D01*
X166744761Y-70104094D02*
X166792380Y-69961237D01*
X166792380Y-69961237D02*
X166792380Y-69723142D01*
X166792380Y-69723142D02*
X166744761Y-69627904D01*
X166744761Y-69627904D02*
X166697142Y-69580285D01*
X166697142Y-69580285D02*
X166601904Y-69532666D01*
X166601904Y-69532666D02*
X166506666Y-69532666D01*
X166506666Y-69532666D02*
X166411428Y-69580285D01*
X166411428Y-69580285D02*
X166363809Y-69627904D01*
X166363809Y-69627904D02*
X166316190Y-69723142D01*
X166316190Y-69723142D02*
X166268571Y-69913618D01*
X166268571Y-69913618D02*
X166220952Y-70008856D01*
X166220952Y-70008856D02*
X166173333Y-70056475D01*
X166173333Y-70056475D02*
X166078095Y-70104094D01*
X166078095Y-70104094D02*
X165982857Y-70104094D01*
X165982857Y-70104094D02*
X165887619Y-70056475D01*
X165887619Y-70056475D02*
X165840000Y-70008856D01*
X165840000Y-70008856D02*
X165792380Y-69913618D01*
X165792380Y-69913618D02*
X165792380Y-69675523D01*
X165792380Y-69675523D02*
X165840000Y-69532666D01*
X166125714Y-68675523D02*
X166792380Y-68675523D01*
X165744761Y-68913618D02*
X166459047Y-69151713D01*
X166459047Y-69151713D02*
X166459047Y-68532666D01*
X182699142Y-74945666D02*
X182746761Y-74993285D01*
X182746761Y-74993285D02*
X182794380Y-75136142D01*
X182794380Y-75136142D02*
X182794380Y-75231380D01*
X182794380Y-75231380D02*
X182746761Y-75374237D01*
X182746761Y-75374237D02*
X182651523Y-75469475D01*
X182651523Y-75469475D02*
X182556285Y-75517094D01*
X182556285Y-75517094D02*
X182365809Y-75564713D01*
X182365809Y-75564713D02*
X182222952Y-75564713D01*
X182222952Y-75564713D02*
X182032476Y-75517094D01*
X182032476Y-75517094D02*
X181937238Y-75469475D01*
X181937238Y-75469475D02*
X181842000Y-75374237D01*
X181842000Y-75374237D02*
X181794380Y-75231380D01*
X181794380Y-75231380D02*
X181794380Y-75136142D01*
X181794380Y-75136142D02*
X181842000Y-74993285D01*
X181842000Y-74993285D02*
X181889619Y-74945666D01*
X182270571Y-74183761D02*
X182318190Y-74040904D01*
X182318190Y-74040904D02*
X182365809Y-73993285D01*
X182365809Y-73993285D02*
X182461047Y-73945666D01*
X182461047Y-73945666D02*
X182603904Y-73945666D01*
X182603904Y-73945666D02*
X182699142Y-73993285D01*
X182699142Y-73993285D02*
X182746761Y-74040904D01*
X182746761Y-74040904D02*
X182794380Y-74136142D01*
X182794380Y-74136142D02*
X182794380Y-74517094D01*
X182794380Y-74517094D02*
X181794380Y-74517094D01*
X181794380Y-74517094D02*
X181794380Y-74183761D01*
X181794380Y-74183761D02*
X181842000Y-74088523D01*
X181842000Y-74088523D02*
X181889619Y-74040904D01*
X181889619Y-74040904D02*
X181984857Y-73993285D01*
X181984857Y-73993285D02*
X182080095Y-73993285D01*
X182080095Y-73993285D02*
X182175333Y-74040904D01*
X182175333Y-74040904D02*
X182222952Y-74088523D01*
X182222952Y-74088523D02*
X182270571Y-74183761D01*
X182270571Y-74183761D02*
X182270571Y-74517094D01*
X181794380Y-73517094D02*
X182603904Y-73517094D01*
X182603904Y-73517094D02*
X182699142Y-73469475D01*
X182699142Y-73469475D02*
X182746761Y-73421856D01*
X182746761Y-73421856D02*
X182794380Y-73326618D01*
X182794380Y-73326618D02*
X182794380Y-73136142D01*
X182794380Y-73136142D02*
X182746761Y-73040904D01*
X182746761Y-73040904D02*
X182699142Y-72993285D01*
X182699142Y-72993285D02*
X182603904Y-72945666D01*
X182603904Y-72945666D02*
X181794380Y-72945666D01*
X182746761Y-72517094D02*
X182794380Y-72374237D01*
X182794380Y-72374237D02*
X182794380Y-72136142D01*
X182794380Y-72136142D02*
X182746761Y-72040904D01*
X182746761Y-72040904D02*
X182699142Y-71993285D01*
X182699142Y-71993285D02*
X182603904Y-71945666D01*
X182603904Y-71945666D02*
X182508666Y-71945666D01*
X182508666Y-71945666D02*
X182413428Y-71993285D01*
X182413428Y-71993285D02*
X182365809Y-72040904D01*
X182365809Y-72040904D02*
X182318190Y-72136142D01*
X182318190Y-72136142D02*
X182270571Y-72326618D01*
X182270571Y-72326618D02*
X182222952Y-72421856D01*
X182222952Y-72421856D02*
X182175333Y-72469475D01*
X182175333Y-72469475D02*
X182080095Y-72517094D01*
X182080095Y-72517094D02*
X181984857Y-72517094D01*
X181984857Y-72517094D02*
X181889619Y-72469475D01*
X181889619Y-72469475D02*
X181842000Y-72421856D01*
X181842000Y-72421856D02*
X181794380Y-72326618D01*
X181794380Y-72326618D02*
X181794380Y-72088523D01*
X181794380Y-72088523D02*
X181842000Y-71945666D01*
X181794380Y-71040904D02*
X181794380Y-71517094D01*
X181794380Y-71517094D02*
X182270571Y-71564713D01*
X182270571Y-71564713D02*
X182222952Y-71517094D01*
X182222952Y-71517094D02*
X182175333Y-71421856D01*
X182175333Y-71421856D02*
X182175333Y-71183761D01*
X182175333Y-71183761D02*
X182222952Y-71088523D01*
X182222952Y-71088523D02*
X182270571Y-71040904D01*
X182270571Y-71040904D02*
X182365809Y-70993285D01*
X182365809Y-70993285D02*
X182603904Y-70993285D01*
X182603904Y-70993285D02*
X182699142Y-71040904D01*
X182699142Y-71040904D02*
X182746761Y-71088523D01*
X182746761Y-71088523D02*
X182794380Y-71183761D01*
X182794380Y-71183761D02*
X182794380Y-71421856D01*
X182794380Y-71421856D02*
X182746761Y-71517094D01*
X182746761Y-71517094D02*
X182699142Y-71564713D01*
X174101333Y-77009142D02*
X174053714Y-77056761D01*
X174053714Y-77056761D02*
X173910857Y-77104380D01*
X173910857Y-77104380D02*
X173815619Y-77104380D01*
X173815619Y-77104380D02*
X173672762Y-77056761D01*
X173672762Y-77056761D02*
X173577524Y-76961523D01*
X173577524Y-76961523D02*
X173529905Y-76866285D01*
X173529905Y-76866285D02*
X173482286Y-76675809D01*
X173482286Y-76675809D02*
X173482286Y-76532952D01*
X173482286Y-76532952D02*
X173529905Y-76342476D01*
X173529905Y-76342476D02*
X173577524Y-76247238D01*
X173577524Y-76247238D02*
X173672762Y-76152000D01*
X173672762Y-76152000D02*
X173815619Y-76104380D01*
X173815619Y-76104380D02*
X173910857Y-76104380D01*
X173910857Y-76104380D02*
X174053714Y-76152000D01*
X174053714Y-76152000D02*
X174101333Y-76199619D01*
X174863238Y-76580571D02*
X175006095Y-76628190D01*
X175006095Y-76628190D02*
X175053714Y-76675809D01*
X175053714Y-76675809D02*
X175101333Y-76771047D01*
X175101333Y-76771047D02*
X175101333Y-76913904D01*
X175101333Y-76913904D02*
X175053714Y-77009142D01*
X175053714Y-77009142D02*
X175006095Y-77056761D01*
X175006095Y-77056761D02*
X174910857Y-77104380D01*
X174910857Y-77104380D02*
X174529905Y-77104380D01*
X174529905Y-77104380D02*
X174529905Y-76104380D01*
X174529905Y-76104380D02*
X174863238Y-76104380D01*
X174863238Y-76104380D02*
X174958476Y-76152000D01*
X174958476Y-76152000D02*
X175006095Y-76199619D01*
X175006095Y-76199619D02*
X175053714Y-76294857D01*
X175053714Y-76294857D02*
X175053714Y-76390095D01*
X175053714Y-76390095D02*
X175006095Y-76485333D01*
X175006095Y-76485333D02*
X174958476Y-76532952D01*
X174958476Y-76532952D02*
X174863238Y-76580571D01*
X174863238Y-76580571D02*
X174529905Y-76580571D01*
X175529905Y-76104380D02*
X175529905Y-76913904D01*
X175529905Y-76913904D02*
X175577524Y-77009142D01*
X175577524Y-77009142D02*
X175625143Y-77056761D01*
X175625143Y-77056761D02*
X175720381Y-77104380D01*
X175720381Y-77104380D02*
X175910857Y-77104380D01*
X175910857Y-77104380D02*
X176006095Y-77056761D01*
X176006095Y-77056761D02*
X176053714Y-77009142D01*
X176053714Y-77009142D02*
X176101333Y-76913904D01*
X176101333Y-76913904D02*
X176101333Y-76104380D01*
X176529905Y-77056761D02*
X176672762Y-77104380D01*
X176672762Y-77104380D02*
X176910857Y-77104380D01*
X176910857Y-77104380D02*
X177006095Y-77056761D01*
X177006095Y-77056761D02*
X177053714Y-77009142D01*
X177053714Y-77009142D02*
X177101333Y-76913904D01*
X177101333Y-76913904D02*
X177101333Y-76818666D01*
X177101333Y-76818666D02*
X177053714Y-76723428D01*
X177053714Y-76723428D02*
X177006095Y-76675809D01*
X177006095Y-76675809D02*
X176910857Y-76628190D01*
X176910857Y-76628190D02*
X176720381Y-76580571D01*
X176720381Y-76580571D02*
X176625143Y-76532952D01*
X176625143Y-76532952D02*
X176577524Y-76485333D01*
X176577524Y-76485333D02*
X176529905Y-76390095D01*
X176529905Y-76390095D02*
X176529905Y-76294857D01*
X176529905Y-76294857D02*
X176577524Y-76199619D01*
X176577524Y-76199619D02*
X176625143Y-76152000D01*
X176625143Y-76152000D02*
X176720381Y-76104380D01*
X176720381Y-76104380D02*
X176958476Y-76104380D01*
X176958476Y-76104380D02*
X177101333Y-76152000D01*
X177434667Y-76104380D02*
X178101333Y-76104380D01*
X178101333Y-76104380D02*
X177672762Y-77104380D01*
X171142142Y-75023666D02*
X171189761Y-75071285D01*
X171189761Y-75071285D02*
X171237380Y-75214142D01*
X171237380Y-75214142D02*
X171237380Y-75309380D01*
X171237380Y-75309380D02*
X171189761Y-75452237D01*
X171189761Y-75452237D02*
X171094523Y-75547475D01*
X171094523Y-75547475D02*
X170999285Y-75595094D01*
X170999285Y-75595094D02*
X170808809Y-75642713D01*
X170808809Y-75642713D02*
X170665952Y-75642713D01*
X170665952Y-75642713D02*
X170475476Y-75595094D01*
X170475476Y-75595094D02*
X170380238Y-75547475D01*
X170380238Y-75547475D02*
X170285000Y-75452237D01*
X170285000Y-75452237D02*
X170237380Y-75309380D01*
X170237380Y-75309380D02*
X170237380Y-75214142D01*
X170237380Y-75214142D02*
X170285000Y-75071285D01*
X170285000Y-75071285D02*
X170332619Y-75023666D01*
X170713571Y-74261761D02*
X170761190Y-74118904D01*
X170761190Y-74118904D02*
X170808809Y-74071285D01*
X170808809Y-74071285D02*
X170904047Y-74023666D01*
X170904047Y-74023666D02*
X171046904Y-74023666D01*
X171046904Y-74023666D02*
X171142142Y-74071285D01*
X171142142Y-74071285D02*
X171189761Y-74118904D01*
X171189761Y-74118904D02*
X171237380Y-74214142D01*
X171237380Y-74214142D02*
X171237380Y-74595094D01*
X171237380Y-74595094D02*
X170237380Y-74595094D01*
X170237380Y-74595094D02*
X170237380Y-74261761D01*
X170237380Y-74261761D02*
X170285000Y-74166523D01*
X170285000Y-74166523D02*
X170332619Y-74118904D01*
X170332619Y-74118904D02*
X170427857Y-74071285D01*
X170427857Y-74071285D02*
X170523095Y-74071285D01*
X170523095Y-74071285D02*
X170618333Y-74118904D01*
X170618333Y-74118904D02*
X170665952Y-74166523D01*
X170665952Y-74166523D02*
X170713571Y-74261761D01*
X170713571Y-74261761D02*
X170713571Y-74595094D01*
X170237380Y-73595094D02*
X171046904Y-73595094D01*
X171046904Y-73595094D02*
X171142142Y-73547475D01*
X171142142Y-73547475D02*
X171189761Y-73499856D01*
X171189761Y-73499856D02*
X171237380Y-73404618D01*
X171237380Y-73404618D02*
X171237380Y-73214142D01*
X171237380Y-73214142D02*
X171189761Y-73118904D01*
X171189761Y-73118904D02*
X171142142Y-73071285D01*
X171142142Y-73071285D02*
X171046904Y-73023666D01*
X171046904Y-73023666D02*
X170237380Y-73023666D01*
X171189761Y-72595094D02*
X171237380Y-72452237D01*
X171237380Y-72452237D02*
X171237380Y-72214142D01*
X171237380Y-72214142D02*
X171189761Y-72118904D01*
X171189761Y-72118904D02*
X171142142Y-72071285D01*
X171142142Y-72071285D02*
X171046904Y-72023666D01*
X171046904Y-72023666D02*
X170951666Y-72023666D01*
X170951666Y-72023666D02*
X170856428Y-72071285D01*
X170856428Y-72071285D02*
X170808809Y-72118904D01*
X170808809Y-72118904D02*
X170761190Y-72214142D01*
X170761190Y-72214142D02*
X170713571Y-72404618D01*
X170713571Y-72404618D02*
X170665952Y-72499856D01*
X170665952Y-72499856D02*
X170618333Y-72547475D01*
X170618333Y-72547475D02*
X170523095Y-72595094D01*
X170523095Y-72595094D02*
X170427857Y-72595094D01*
X170427857Y-72595094D02*
X170332619Y-72547475D01*
X170332619Y-72547475D02*
X170285000Y-72499856D01*
X170285000Y-72499856D02*
X170237380Y-72404618D01*
X170237380Y-72404618D02*
X170237380Y-72166523D01*
X170237380Y-72166523D02*
X170285000Y-72023666D01*
X170665952Y-71452237D02*
X170618333Y-71547475D01*
X170618333Y-71547475D02*
X170570714Y-71595094D01*
X170570714Y-71595094D02*
X170475476Y-71642713D01*
X170475476Y-71642713D02*
X170427857Y-71642713D01*
X170427857Y-71642713D02*
X170332619Y-71595094D01*
X170332619Y-71595094D02*
X170285000Y-71547475D01*
X170285000Y-71547475D02*
X170237380Y-71452237D01*
X170237380Y-71452237D02*
X170237380Y-71261761D01*
X170237380Y-71261761D02*
X170285000Y-71166523D01*
X170285000Y-71166523D02*
X170332619Y-71118904D01*
X170332619Y-71118904D02*
X170427857Y-71071285D01*
X170427857Y-71071285D02*
X170475476Y-71071285D01*
X170475476Y-71071285D02*
X170570714Y-71118904D01*
X170570714Y-71118904D02*
X170618333Y-71166523D01*
X170618333Y-71166523D02*
X170665952Y-71261761D01*
X170665952Y-71261761D02*
X170665952Y-71452237D01*
X170665952Y-71452237D02*
X170713571Y-71547475D01*
X170713571Y-71547475D02*
X170761190Y-71595094D01*
X170761190Y-71595094D02*
X170856428Y-71642713D01*
X170856428Y-71642713D02*
X171046904Y-71642713D01*
X171046904Y-71642713D02*
X171142142Y-71595094D01*
X171142142Y-71595094D02*
X171189761Y-71547475D01*
X171189761Y-71547475D02*
X171237380Y-71452237D01*
X171237380Y-71452237D02*
X171237380Y-71261761D01*
X171237380Y-71261761D02*
X171189761Y-71166523D01*
X171189761Y-71166523D02*
X171142142Y-71118904D01*
X171142142Y-71118904D02*
X171046904Y-71071285D01*
X171046904Y-71071285D02*
X170856428Y-71071285D01*
X170856428Y-71071285D02*
X170761190Y-71118904D01*
X170761190Y-71118904D02*
X170713571Y-71166523D01*
X170713571Y-71166523D02*
X170665952Y-71261761D01*
X130011142Y-64841190D02*
X130058761Y-64888809D01*
X130058761Y-64888809D02*
X130106380Y-65031666D01*
X130106380Y-65031666D02*
X130106380Y-65126904D01*
X130106380Y-65126904D02*
X130058761Y-65269761D01*
X130058761Y-65269761D02*
X129963523Y-65364999D01*
X129963523Y-65364999D02*
X129868285Y-65412618D01*
X129868285Y-65412618D02*
X129677809Y-65460237D01*
X129677809Y-65460237D02*
X129534952Y-65460237D01*
X129534952Y-65460237D02*
X129344476Y-65412618D01*
X129344476Y-65412618D02*
X129249238Y-65364999D01*
X129249238Y-65364999D02*
X129154000Y-65269761D01*
X129154000Y-65269761D02*
X129106380Y-65126904D01*
X129106380Y-65126904D02*
X129106380Y-65031666D01*
X129106380Y-65031666D02*
X129154000Y-64888809D01*
X129154000Y-64888809D02*
X129201619Y-64841190D01*
X130106380Y-64412618D02*
X129106380Y-64412618D01*
X129106380Y-64412618D02*
X129106380Y-64031666D01*
X129106380Y-64031666D02*
X129154000Y-63936428D01*
X129154000Y-63936428D02*
X129201619Y-63888809D01*
X129201619Y-63888809D02*
X129296857Y-63841190D01*
X129296857Y-63841190D02*
X129439714Y-63841190D01*
X129439714Y-63841190D02*
X129534952Y-63888809D01*
X129534952Y-63888809D02*
X129582571Y-63936428D01*
X129582571Y-63936428D02*
X129630190Y-64031666D01*
X129630190Y-64031666D02*
X129630190Y-64412618D01*
X130106380Y-63412618D02*
X129106380Y-63412618D01*
X129106380Y-63412618D02*
X129820666Y-63079285D01*
X129820666Y-63079285D02*
X129106380Y-62745952D01*
X129106380Y-62745952D02*
X130106380Y-62745952D01*
X130106380Y-62269761D02*
X129106380Y-62269761D01*
X130106380Y-61793571D02*
X129106380Y-61793571D01*
X129106380Y-61793571D02*
X129106380Y-61555476D01*
X129106380Y-61555476D02*
X129154000Y-61412619D01*
X129154000Y-61412619D02*
X129249238Y-61317381D01*
X129249238Y-61317381D02*
X129344476Y-61269762D01*
X129344476Y-61269762D02*
X129534952Y-61222143D01*
X129534952Y-61222143D02*
X129677809Y-61222143D01*
X129677809Y-61222143D02*
X129868285Y-61269762D01*
X129868285Y-61269762D02*
X129963523Y-61317381D01*
X129963523Y-61317381D02*
X130058761Y-61412619D01*
X130058761Y-61412619D02*
X130106380Y-61555476D01*
X130106380Y-61555476D02*
X130106380Y-61793571D01*
X130106380Y-60269762D02*
X130106380Y-60841190D01*
X130106380Y-60555476D02*
X129106380Y-60555476D01*
X129106380Y-60555476D02*
X129249238Y-60650714D01*
X129249238Y-60650714D02*
X129344476Y-60745952D01*
X129344476Y-60745952D02*
X129392095Y-60841190D01*
X137707880Y-68733642D02*
X137660261Y-68781261D01*
X137660261Y-68781261D02*
X137517404Y-68828880D01*
X137517404Y-68828880D02*
X137422166Y-68828880D01*
X137422166Y-68828880D02*
X137279309Y-68781261D01*
X137279309Y-68781261D02*
X137184071Y-68686023D01*
X137184071Y-68686023D02*
X137136452Y-68590785D01*
X137136452Y-68590785D02*
X137088833Y-68400309D01*
X137088833Y-68400309D02*
X137088833Y-68257452D01*
X137088833Y-68257452D02*
X137136452Y-68066976D01*
X137136452Y-68066976D02*
X137184071Y-67971738D01*
X137184071Y-67971738D02*
X137279309Y-67876500D01*
X137279309Y-67876500D02*
X137422166Y-67828880D01*
X137422166Y-67828880D02*
X137517404Y-67828880D01*
X137517404Y-67828880D02*
X137660261Y-67876500D01*
X137660261Y-67876500D02*
X137707880Y-67924119D01*
X138088833Y-68781261D02*
X138231690Y-68828880D01*
X138231690Y-68828880D02*
X138469785Y-68828880D01*
X138469785Y-68828880D02*
X138565023Y-68781261D01*
X138565023Y-68781261D02*
X138612642Y-68733642D01*
X138612642Y-68733642D02*
X138660261Y-68638404D01*
X138660261Y-68638404D02*
X138660261Y-68543166D01*
X138660261Y-68543166D02*
X138612642Y-68447928D01*
X138612642Y-68447928D02*
X138565023Y-68400309D01*
X138565023Y-68400309D02*
X138469785Y-68352690D01*
X138469785Y-68352690D02*
X138279309Y-68305071D01*
X138279309Y-68305071D02*
X138184071Y-68257452D01*
X138184071Y-68257452D02*
X138136452Y-68209833D01*
X138136452Y-68209833D02*
X138088833Y-68114595D01*
X138088833Y-68114595D02*
X138088833Y-68019357D01*
X138088833Y-68019357D02*
X138136452Y-67924119D01*
X138136452Y-67924119D02*
X138184071Y-67876500D01*
X138184071Y-67876500D02*
X138279309Y-67828880D01*
X138279309Y-67828880D02*
X138517404Y-67828880D01*
X138517404Y-67828880D02*
X138660261Y-67876500D01*
X139279309Y-68352690D02*
X139279309Y-68828880D01*
X138945976Y-67828880D02*
X139279309Y-68352690D01*
X139279309Y-68352690D02*
X139612642Y-67828880D01*
X139898357Y-68781261D02*
X140041214Y-68828880D01*
X140041214Y-68828880D02*
X140279309Y-68828880D01*
X140279309Y-68828880D02*
X140374547Y-68781261D01*
X140374547Y-68781261D02*
X140422166Y-68733642D01*
X140422166Y-68733642D02*
X140469785Y-68638404D01*
X140469785Y-68638404D02*
X140469785Y-68543166D01*
X140469785Y-68543166D02*
X140422166Y-68447928D01*
X140422166Y-68447928D02*
X140374547Y-68400309D01*
X140374547Y-68400309D02*
X140279309Y-68352690D01*
X140279309Y-68352690D02*
X140088833Y-68305071D01*
X140088833Y-68305071D02*
X139993595Y-68257452D01*
X139993595Y-68257452D02*
X139945976Y-68209833D01*
X139945976Y-68209833D02*
X139898357Y-68114595D01*
X139898357Y-68114595D02*
X139898357Y-68019357D01*
X139898357Y-68019357D02*
X139945976Y-67924119D01*
X139945976Y-67924119D02*
X139993595Y-67876500D01*
X139993595Y-67876500D02*
X140088833Y-67828880D01*
X140088833Y-67828880D02*
X140326928Y-67828880D01*
X140326928Y-67828880D02*
X140469785Y-67876500D01*
X141422166Y-68828880D02*
X140850738Y-68828880D01*
X141136452Y-68828880D02*
X141136452Y-67828880D01*
X141136452Y-67828880D02*
X141041214Y-67971738D01*
X141041214Y-67971738D02*
X140945976Y-68066976D01*
X140945976Y-68066976D02*
X140850738Y-68114595D01*
X117419380Y-75795094D02*
X116419380Y-75795094D01*
X116419380Y-75795094D02*
X116419380Y-75556999D01*
X116419380Y-75556999D02*
X116467000Y-75414142D01*
X116467000Y-75414142D02*
X116562238Y-75318904D01*
X116562238Y-75318904D02*
X116657476Y-75271285D01*
X116657476Y-75271285D02*
X116847952Y-75223666D01*
X116847952Y-75223666D02*
X116990809Y-75223666D01*
X116990809Y-75223666D02*
X117181285Y-75271285D01*
X117181285Y-75271285D02*
X117276523Y-75318904D01*
X117276523Y-75318904D02*
X117371761Y-75414142D01*
X117371761Y-75414142D02*
X117419380Y-75556999D01*
X117419380Y-75556999D02*
X117419380Y-75795094D01*
X117419380Y-74271285D02*
X117419380Y-74842713D01*
X117419380Y-74556999D02*
X116419380Y-74556999D01*
X116419380Y-74556999D02*
X116562238Y-74652237D01*
X116562238Y-74652237D02*
X116657476Y-74747475D01*
X116657476Y-74747475D02*
X116705095Y-74842713D01*
X122245380Y-75795094D02*
X121245380Y-75795094D01*
X121245380Y-75795094D02*
X121245380Y-75556999D01*
X121245380Y-75556999D02*
X121293000Y-75414142D01*
X121293000Y-75414142D02*
X121388238Y-75318904D01*
X121388238Y-75318904D02*
X121483476Y-75271285D01*
X121483476Y-75271285D02*
X121673952Y-75223666D01*
X121673952Y-75223666D02*
X121816809Y-75223666D01*
X121816809Y-75223666D02*
X122007285Y-75271285D01*
X122007285Y-75271285D02*
X122102523Y-75318904D01*
X122102523Y-75318904D02*
X122197761Y-75414142D01*
X122197761Y-75414142D02*
X122245380Y-75556999D01*
X122245380Y-75556999D02*
X122245380Y-75795094D01*
X121340619Y-74842713D02*
X121293000Y-74795094D01*
X121293000Y-74795094D02*
X121245380Y-74699856D01*
X121245380Y-74699856D02*
X121245380Y-74461761D01*
X121245380Y-74461761D02*
X121293000Y-74366523D01*
X121293000Y-74366523D02*
X121340619Y-74318904D01*
X121340619Y-74318904D02*
X121435857Y-74271285D01*
X121435857Y-74271285D02*
X121531095Y-74271285D01*
X121531095Y-74271285D02*
X121673952Y-74318904D01*
X121673952Y-74318904D02*
X122245380Y-74890332D01*
X122245380Y-74890332D02*
X122245380Y-74271285D01*
X123302380Y-74588666D02*
X122826190Y-74921999D01*
X123302380Y-75160094D02*
X122302380Y-75160094D01*
X122302380Y-75160094D02*
X122302380Y-74779142D01*
X122302380Y-74779142D02*
X122350000Y-74683904D01*
X122350000Y-74683904D02*
X122397619Y-74636285D01*
X122397619Y-74636285D02*
X122492857Y-74588666D01*
X122492857Y-74588666D02*
X122635714Y-74588666D01*
X122635714Y-74588666D02*
X122730952Y-74636285D01*
X122730952Y-74636285D02*
X122778571Y-74683904D01*
X122778571Y-74683904D02*
X122826190Y-74779142D01*
X122826190Y-74779142D02*
X122826190Y-75160094D01*
X122635714Y-73731523D02*
X123302380Y-73731523D01*
X122254761Y-73969618D02*
X122969047Y-74207713D01*
X122969047Y-74207713D02*
X122969047Y-73588666D01*
X126706333Y-73772380D02*
X126373000Y-73296190D01*
X126134905Y-73772380D02*
X126134905Y-72772380D01*
X126134905Y-72772380D02*
X126515857Y-72772380D01*
X126515857Y-72772380D02*
X126611095Y-72820000D01*
X126611095Y-72820000D02*
X126658714Y-72867619D01*
X126658714Y-72867619D02*
X126706333Y-72962857D01*
X126706333Y-72962857D02*
X126706333Y-73105714D01*
X126706333Y-73105714D02*
X126658714Y-73200952D01*
X126658714Y-73200952D02*
X126611095Y-73248571D01*
X126611095Y-73248571D02*
X126515857Y-73296190D01*
X126515857Y-73296190D02*
X126134905Y-73296190D01*
X127611095Y-72772380D02*
X127134905Y-72772380D01*
X127134905Y-72772380D02*
X127087286Y-73248571D01*
X127087286Y-73248571D02*
X127134905Y-73200952D01*
X127134905Y-73200952D02*
X127230143Y-73153333D01*
X127230143Y-73153333D02*
X127468238Y-73153333D01*
X127468238Y-73153333D02*
X127563476Y-73200952D01*
X127563476Y-73200952D02*
X127611095Y-73248571D01*
X127611095Y-73248571D02*
X127658714Y-73343809D01*
X127658714Y-73343809D02*
X127658714Y-73581904D01*
X127658714Y-73581904D02*
X127611095Y-73677142D01*
X127611095Y-73677142D02*
X127563476Y-73724761D01*
X127563476Y-73724761D02*
X127468238Y-73772380D01*
X127468238Y-73772380D02*
X127230143Y-73772380D01*
X127230143Y-73772380D02*
X127134905Y-73724761D01*
X127134905Y-73724761D02*
X127087286Y-73677142D01*
X132040333Y-82789380D02*
X131707000Y-82313190D01*
X131468905Y-82789380D02*
X131468905Y-81789380D01*
X131468905Y-81789380D02*
X131849857Y-81789380D01*
X131849857Y-81789380D02*
X131945095Y-81837000D01*
X131945095Y-81837000D02*
X131992714Y-81884619D01*
X131992714Y-81884619D02*
X132040333Y-81979857D01*
X132040333Y-81979857D02*
X132040333Y-82122714D01*
X132040333Y-82122714D02*
X131992714Y-82217952D01*
X131992714Y-82217952D02*
X131945095Y-82265571D01*
X131945095Y-82265571D02*
X131849857Y-82313190D01*
X131849857Y-82313190D02*
X131468905Y-82313190D01*
X132373667Y-81789380D02*
X133040333Y-81789380D01*
X133040333Y-81789380D02*
X132611762Y-82789380D01*
X137758333Y-75677380D02*
X137425000Y-75201190D01*
X137186905Y-75677380D02*
X137186905Y-74677380D01*
X137186905Y-74677380D02*
X137567857Y-74677380D01*
X137567857Y-74677380D02*
X137663095Y-74725000D01*
X137663095Y-74725000D02*
X137710714Y-74772619D01*
X137710714Y-74772619D02*
X137758333Y-74867857D01*
X137758333Y-74867857D02*
X137758333Y-75010714D01*
X137758333Y-75010714D02*
X137710714Y-75105952D01*
X137710714Y-75105952D02*
X137663095Y-75153571D01*
X137663095Y-75153571D02*
X137567857Y-75201190D01*
X137567857Y-75201190D02*
X137186905Y-75201190D01*
X138329762Y-75105952D02*
X138234524Y-75058333D01*
X138234524Y-75058333D02*
X138186905Y-75010714D01*
X138186905Y-75010714D02*
X138139286Y-74915476D01*
X138139286Y-74915476D02*
X138139286Y-74867857D01*
X138139286Y-74867857D02*
X138186905Y-74772619D01*
X138186905Y-74772619D02*
X138234524Y-74725000D01*
X138234524Y-74725000D02*
X138329762Y-74677380D01*
X138329762Y-74677380D02*
X138520238Y-74677380D01*
X138520238Y-74677380D02*
X138615476Y-74725000D01*
X138615476Y-74725000D02*
X138663095Y-74772619D01*
X138663095Y-74772619D02*
X138710714Y-74867857D01*
X138710714Y-74867857D02*
X138710714Y-74915476D01*
X138710714Y-74915476D02*
X138663095Y-75010714D01*
X138663095Y-75010714D02*
X138615476Y-75058333D01*
X138615476Y-75058333D02*
X138520238Y-75105952D01*
X138520238Y-75105952D02*
X138329762Y-75105952D01*
X138329762Y-75105952D02*
X138234524Y-75153571D01*
X138234524Y-75153571D02*
X138186905Y-75201190D01*
X138186905Y-75201190D02*
X138139286Y-75296428D01*
X138139286Y-75296428D02*
X138139286Y-75486904D01*
X138139286Y-75486904D02*
X138186905Y-75582142D01*
X138186905Y-75582142D02*
X138234524Y-75629761D01*
X138234524Y-75629761D02*
X138329762Y-75677380D01*
X138329762Y-75677380D02*
X138520238Y-75677380D01*
X138520238Y-75677380D02*
X138615476Y-75629761D01*
X138615476Y-75629761D02*
X138663095Y-75582142D01*
X138663095Y-75582142D02*
X138710714Y-75486904D01*
X138710714Y-75486904D02*
X138710714Y-75296428D01*
X138710714Y-75296428D02*
X138663095Y-75201190D01*
X138663095Y-75201190D02*
X138615476Y-75153571D01*
X138615476Y-75153571D02*
X138520238Y-75105952D01*
X182103380Y-75858666D02*
X181627190Y-76191999D01*
X182103380Y-76430094D02*
X181103380Y-76430094D01*
X181103380Y-76430094D02*
X181103380Y-76049142D01*
X181103380Y-76049142D02*
X181151000Y-75953904D01*
X181151000Y-75953904D02*
X181198619Y-75906285D01*
X181198619Y-75906285D02*
X181293857Y-75858666D01*
X181293857Y-75858666D02*
X181436714Y-75858666D01*
X181436714Y-75858666D02*
X181531952Y-75906285D01*
X181531952Y-75906285D02*
X181579571Y-75953904D01*
X181579571Y-75953904D02*
X181627190Y-76049142D01*
X181627190Y-76049142D02*
X181627190Y-76430094D01*
X182103380Y-75382475D02*
X182103380Y-75191999D01*
X182103380Y-75191999D02*
X182055761Y-75096761D01*
X182055761Y-75096761D02*
X182008142Y-75049142D01*
X182008142Y-75049142D02*
X181865285Y-74953904D01*
X181865285Y-74953904D02*
X181674809Y-74906285D01*
X181674809Y-74906285D02*
X181293857Y-74906285D01*
X181293857Y-74906285D02*
X181198619Y-74953904D01*
X181198619Y-74953904D02*
X181151000Y-75001523D01*
X181151000Y-75001523D02*
X181103380Y-75096761D01*
X181103380Y-75096761D02*
X181103380Y-75287237D01*
X181103380Y-75287237D02*
X181151000Y-75382475D01*
X181151000Y-75382475D02*
X181198619Y-75430094D01*
X181198619Y-75430094D02*
X181293857Y-75477713D01*
X181293857Y-75477713D02*
X181531952Y-75477713D01*
X181531952Y-75477713D02*
X181627190Y-75430094D01*
X181627190Y-75430094D02*
X181674809Y-75382475D01*
X181674809Y-75382475D02*
X181722428Y-75287237D01*
X181722428Y-75287237D02*
X181722428Y-75096761D01*
X181722428Y-75096761D02*
X181674809Y-75001523D01*
X181674809Y-75001523D02*
X181627190Y-74953904D01*
X181627190Y-74953904D02*
X181531952Y-74906285D01*
X137279142Y-77963380D02*
X136945809Y-77487190D01*
X136707714Y-77963380D02*
X136707714Y-76963380D01*
X136707714Y-76963380D02*
X137088666Y-76963380D01*
X137088666Y-76963380D02*
X137183904Y-77011000D01*
X137183904Y-77011000D02*
X137231523Y-77058619D01*
X137231523Y-77058619D02*
X137279142Y-77153857D01*
X137279142Y-77153857D02*
X137279142Y-77296714D01*
X137279142Y-77296714D02*
X137231523Y-77391952D01*
X137231523Y-77391952D02*
X137183904Y-77439571D01*
X137183904Y-77439571D02*
X137088666Y-77487190D01*
X137088666Y-77487190D02*
X136707714Y-77487190D01*
X138231523Y-77963380D02*
X137660095Y-77963380D01*
X137945809Y-77963380D02*
X137945809Y-76963380D01*
X137945809Y-76963380D02*
X137850571Y-77106238D01*
X137850571Y-77106238D02*
X137755333Y-77201476D01*
X137755333Y-77201476D02*
X137660095Y-77249095D01*
X138850571Y-76963380D02*
X138945809Y-76963380D01*
X138945809Y-76963380D02*
X139041047Y-77011000D01*
X139041047Y-77011000D02*
X139088666Y-77058619D01*
X139088666Y-77058619D02*
X139136285Y-77153857D01*
X139136285Y-77153857D02*
X139183904Y-77344333D01*
X139183904Y-77344333D02*
X139183904Y-77582428D01*
X139183904Y-77582428D02*
X139136285Y-77772904D01*
X139136285Y-77772904D02*
X139088666Y-77868142D01*
X139088666Y-77868142D02*
X139041047Y-77915761D01*
X139041047Y-77915761D02*
X138945809Y-77963380D01*
X138945809Y-77963380D02*
X138850571Y-77963380D01*
X138850571Y-77963380D02*
X138755333Y-77915761D01*
X138755333Y-77915761D02*
X138707714Y-77868142D01*
X138707714Y-77868142D02*
X138660095Y-77772904D01*
X138660095Y-77772904D02*
X138612476Y-77582428D01*
X138612476Y-77582428D02*
X138612476Y-77344333D01*
X138612476Y-77344333D02*
X138660095Y-77153857D01*
X138660095Y-77153857D02*
X138707714Y-77058619D01*
X138707714Y-77058619D02*
X138755333Y-77011000D01*
X138755333Y-77011000D02*
X138850571Y-76963380D01*
X146547142Y-69381666D02*
X146594761Y-69429285D01*
X146594761Y-69429285D02*
X146642380Y-69572142D01*
X146642380Y-69572142D02*
X146642380Y-69667380D01*
X146642380Y-69667380D02*
X146594761Y-69810237D01*
X146594761Y-69810237D02*
X146499523Y-69905475D01*
X146499523Y-69905475D02*
X146404285Y-69953094D01*
X146404285Y-69953094D02*
X146213809Y-70000713D01*
X146213809Y-70000713D02*
X146070952Y-70000713D01*
X146070952Y-70000713D02*
X145880476Y-69953094D01*
X145880476Y-69953094D02*
X145785238Y-69905475D01*
X145785238Y-69905475D02*
X145690000Y-69810237D01*
X145690000Y-69810237D02*
X145642380Y-69667380D01*
X145642380Y-69667380D02*
X145642380Y-69572142D01*
X145642380Y-69572142D02*
X145690000Y-69429285D01*
X145690000Y-69429285D02*
X145737619Y-69381666D01*
X146642380Y-68429285D02*
X146642380Y-69000713D01*
X146642380Y-68714999D02*
X145642380Y-68714999D01*
X145642380Y-68714999D02*
X145785238Y-68810237D01*
X145785238Y-68810237D02*
X145880476Y-68905475D01*
X145880476Y-68905475D02*
X145928095Y-69000713D01*
X155521142Y-62904666D02*
X155568761Y-62952285D01*
X155568761Y-62952285D02*
X155616380Y-63095142D01*
X155616380Y-63095142D02*
X155616380Y-63190380D01*
X155616380Y-63190380D02*
X155568761Y-63333237D01*
X155568761Y-63333237D02*
X155473523Y-63428475D01*
X155473523Y-63428475D02*
X155378285Y-63476094D01*
X155378285Y-63476094D02*
X155187809Y-63523713D01*
X155187809Y-63523713D02*
X155044952Y-63523713D01*
X155044952Y-63523713D02*
X154854476Y-63476094D01*
X154854476Y-63476094D02*
X154759238Y-63428475D01*
X154759238Y-63428475D02*
X154664000Y-63333237D01*
X154664000Y-63333237D02*
X154616380Y-63190380D01*
X154616380Y-63190380D02*
X154616380Y-63095142D01*
X154616380Y-63095142D02*
X154664000Y-62952285D01*
X154664000Y-62952285D02*
X154711619Y-62904666D01*
X154616380Y-62571332D02*
X154616380Y-61952285D01*
X154616380Y-61952285D02*
X154997333Y-62285618D01*
X154997333Y-62285618D02*
X154997333Y-62142761D01*
X154997333Y-62142761D02*
X155044952Y-62047523D01*
X155044952Y-62047523D02*
X155092571Y-61999904D01*
X155092571Y-61999904D02*
X155187809Y-61952285D01*
X155187809Y-61952285D02*
X155425904Y-61952285D01*
X155425904Y-61952285D02*
X155521142Y-61999904D01*
X155521142Y-61999904D02*
X155568761Y-62047523D01*
X155568761Y-62047523D02*
X155616380Y-62142761D01*
X155616380Y-62142761D02*
X155616380Y-62428475D01*
X155616380Y-62428475D02*
X155568761Y-62523713D01*
X155568761Y-62523713D02*
X155521142Y-62571332D01*
X162379142Y-62907666D02*
X162426761Y-62955285D01*
X162426761Y-62955285D02*
X162474380Y-63098142D01*
X162474380Y-63098142D02*
X162474380Y-63193380D01*
X162474380Y-63193380D02*
X162426761Y-63336237D01*
X162426761Y-63336237D02*
X162331523Y-63431475D01*
X162331523Y-63431475D02*
X162236285Y-63479094D01*
X162236285Y-63479094D02*
X162045809Y-63526713D01*
X162045809Y-63526713D02*
X161902952Y-63526713D01*
X161902952Y-63526713D02*
X161712476Y-63479094D01*
X161712476Y-63479094D02*
X161617238Y-63431475D01*
X161617238Y-63431475D02*
X161522000Y-63336237D01*
X161522000Y-63336237D02*
X161474380Y-63193380D01*
X161474380Y-63193380D02*
X161474380Y-63098142D01*
X161474380Y-63098142D02*
X161522000Y-62955285D01*
X161522000Y-62955285D02*
X161569619Y-62907666D01*
X161474380Y-62002904D02*
X161474380Y-62479094D01*
X161474380Y-62479094D02*
X161950571Y-62526713D01*
X161950571Y-62526713D02*
X161902952Y-62479094D01*
X161902952Y-62479094D02*
X161855333Y-62383856D01*
X161855333Y-62383856D02*
X161855333Y-62145761D01*
X161855333Y-62145761D02*
X161902952Y-62050523D01*
X161902952Y-62050523D02*
X161950571Y-62002904D01*
X161950571Y-62002904D02*
X162045809Y-61955285D01*
X162045809Y-61955285D02*
X162283904Y-61955285D01*
X162283904Y-61955285D02*
X162379142Y-62002904D01*
X162379142Y-62002904D02*
X162426761Y-62050523D01*
X162426761Y-62050523D02*
X162474380Y-62145761D01*
X162474380Y-62145761D02*
X162474380Y-62383856D01*
X162474380Y-62383856D02*
X162426761Y-62479094D01*
X162426761Y-62479094D02*
X162379142Y-62526713D01*
X157807142Y-62901666D02*
X157854761Y-62949285D01*
X157854761Y-62949285D02*
X157902380Y-63092142D01*
X157902380Y-63092142D02*
X157902380Y-63187380D01*
X157902380Y-63187380D02*
X157854761Y-63330237D01*
X157854761Y-63330237D02*
X157759523Y-63425475D01*
X157759523Y-63425475D02*
X157664285Y-63473094D01*
X157664285Y-63473094D02*
X157473809Y-63520713D01*
X157473809Y-63520713D02*
X157330952Y-63520713D01*
X157330952Y-63520713D02*
X157140476Y-63473094D01*
X157140476Y-63473094D02*
X157045238Y-63425475D01*
X157045238Y-63425475D02*
X156950000Y-63330237D01*
X156950000Y-63330237D02*
X156902380Y-63187380D01*
X156902380Y-63187380D02*
X156902380Y-63092142D01*
X156902380Y-63092142D02*
X156950000Y-62949285D01*
X156950000Y-62949285D02*
X156997619Y-62901666D01*
X156902380Y-62568332D02*
X156902380Y-61901666D01*
X156902380Y-61901666D02*
X157902380Y-62330237D01*
X160093142Y-62904666D02*
X160140761Y-62952285D01*
X160140761Y-62952285D02*
X160188380Y-63095142D01*
X160188380Y-63095142D02*
X160188380Y-63190380D01*
X160188380Y-63190380D02*
X160140761Y-63333237D01*
X160140761Y-63333237D02*
X160045523Y-63428475D01*
X160045523Y-63428475D02*
X159950285Y-63476094D01*
X159950285Y-63476094D02*
X159759809Y-63523713D01*
X159759809Y-63523713D02*
X159616952Y-63523713D01*
X159616952Y-63523713D02*
X159426476Y-63476094D01*
X159426476Y-63476094D02*
X159331238Y-63428475D01*
X159331238Y-63428475D02*
X159236000Y-63333237D01*
X159236000Y-63333237D02*
X159188380Y-63190380D01*
X159188380Y-63190380D02*
X159188380Y-63095142D01*
X159188380Y-63095142D02*
X159236000Y-62952285D01*
X159236000Y-62952285D02*
X159283619Y-62904666D01*
X160188380Y-62428475D02*
X160188380Y-62237999D01*
X160188380Y-62237999D02*
X160140761Y-62142761D01*
X160140761Y-62142761D02*
X160093142Y-62095142D01*
X160093142Y-62095142D02*
X159950285Y-61999904D01*
X159950285Y-61999904D02*
X159759809Y-61952285D01*
X159759809Y-61952285D02*
X159378857Y-61952285D01*
X159378857Y-61952285D02*
X159283619Y-61999904D01*
X159283619Y-61999904D02*
X159236000Y-62047523D01*
X159236000Y-62047523D02*
X159188380Y-62142761D01*
X159188380Y-62142761D02*
X159188380Y-62333237D01*
X159188380Y-62333237D02*
X159236000Y-62428475D01*
X159236000Y-62428475D02*
X159283619Y-62476094D01*
X159283619Y-62476094D02*
X159378857Y-62523713D01*
X159378857Y-62523713D02*
X159616952Y-62523713D01*
X159616952Y-62523713D02*
X159712190Y-62476094D01*
X159712190Y-62476094D02*
X159759809Y-62428475D01*
X159759809Y-62428475D02*
X159807428Y-62333237D01*
X159807428Y-62333237D02*
X159807428Y-62142761D01*
X159807428Y-62142761D02*
X159759809Y-62047523D01*
X159759809Y-62047523D02*
X159712190Y-61999904D01*
X159712190Y-61999904D02*
X159616952Y-61952285D01*
X125185142Y-64531666D02*
X125232761Y-64579285D01*
X125232761Y-64579285D02*
X125280380Y-64722142D01*
X125280380Y-64722142D02*
X125280380Y-64817380D01*
X125280380Y-64817380D02*
X125232761Y-64960237D01*
X125232761Y-64960237D02*
X125137523Y-65055475D01*
X125137523Y-65055475D02*
X125042285Y-65103094D01*
X125042285Y-65103094D02*
X124851809Y-65150713D01*
X124851809Y-65150713D02*
X124708952Y-65150713D01*
X124708952Y-65150713D02*
X124518476Y-65103094D01*
X124518476Y-65103094D02*
X124423238Y-65055475D01*
X124423238Y-65055475D02*
X124328000Y-64960237D01*
X124328000Y-64960237D02*
X124280380Y-64817380D01*
X124280380Y-64817380D02*
X124280380Y-64722142D01*
X124280380Y-64722142D02*
X124328000Y-64579285D01*
X124328000Y-64579285D02*
X124375619Y-64531666D01*
X125280380Y-64103094D02*
X124280380Y-64103094D01*
X124280380Y-64103094D02*
X124280380Y-63722142D01*
X124280380Y-63722142D02*
X124328000Y-63626904D01*
X124328000Y-63626904D02*
X124375619Y-63579285D01*
X124375619Y-63579285D02*
X124470857Y-63531666D01*
X124470857Y-63531666D02*
X124613714Y-63531666D01*
X124613714Y-63531666D02*
X124708952Y-63579285D01*
X124708952Y-63579285D02*
X124756571Y-63626904D01*
X124756571Y-63626904D02*
X124804190Y-63722142D01*
X124804190Y-63722142D02*
X124804190Y-64103094D01*
X125232761Y-63150713D02*
X125280380Y-63007856D01*
X125280380Y-63007856D02*
X125280380Y-62769761D01*
X125280380Y-62769761D02*
X125232761Y-62674523D01*
X125232761Y-62674523D02*
X125185142Y-62626904D01*
X125185142Y-62626904D02*
X125089904Y-62579285D01*
X125089904Y-62579285D02*
X124994666Y-62579285D01*
X124994666Y-62579285D02*
X124899428Y-62626904D01*
X124899428Y-62626904D02*
X124851809Y-62674523D01*
X124851809Y-62674523D02*
X124804190Y-62769761D01*
X124804190Y-62769761D02*
X124756571Y-62960237D01*
X124756571Y-62960237D02*
X124708952Y-63055475D01*
X124708952Y-63055475D02*
X124661333Y-63103094D01*
X124661333Y-63103094D02*
X124566095Y-63150713D01*
X124566095Y-63150713D02*
X124470857Y-63150713D01*
X124470857Y-63150713D02*
X124375619Y-63103094D01*
X124375619Y-63103094D02*
X124328000Y-63055475D01*
X124328000Y-63055475D02*
X124280380Y-62960237D01*
X124280380Y-62960237D02*
X124280380Y-62722142D01*
X124280380Y-62722142D02*
X124328000Y-62579285D01*
X124280380Y-62150713D02*
X125089904Y-62150713D01*
X125089904Y-62150713D02*
X125185142Y-62103094D01*
X125185142Y-62103094D02*
X125232761Y-62055475D01*
X125232761Y-62055475D02*
X125280380Y-61960237D01*
X125280380Y-61960237D02*
X125280380Y-61769761D01*
X125280380Y-61769761D02*
X125232761Y-61674523D01*
X125232761Y-61674523D02*
X125185142Y-61626904D01*
X125185142Y-61626904D02*
X125089904Y-61579285D01*
X125089904Y-61579285D02*
X124280380Y-61579285D01*
X124375619Y-61150713D02*
X124328000Y-61103094D01*
X124328000Y-61103094D02*
X124280380Y-61007856D01*
X124280380Y-61007856D02*
X124280380Y-60769761D01*
X124280380Y-60769761D02*
X124328000Y-60674523D01*
X124328000Y-60674523D02*
X124375619Y-60626904D01*
X124375619Y-60626904D02*
X124470857Y-60579285D01*
X124470857Y-60579285D02*
X124566095Y-60579285D01*
X124566095Y-60579285D02*
X124708952Y-60626904D01*
X124708952Y-60626904D02*
X125280380Y-61198332D01*
X125280380Y-61198332D02*
X125280380Y-60579285D01*
X143202142Y-64490619D02*
X143249761Y-64538238D01*
X143249761Y-64538238D02*
X143297380Y-64681095D01*
X143297380Y-64681095D02*
X143297380Y-64776333D01*
X143297380Y-64776333D02*
X143249761Y-64919190D01*
X143249761Y-64919190D02*
X143154523Y-65014428D01*
X143154523Y-65014428D02*
X143059285Y-65062047D01*
X143059285Y-65062047D02*
X142868809Y-65109666D01*
X142868809Y-65109666D02*
X142725952Y-65109666D01*
X142725952Y-65109666D02*
X142535476Y-65062047D01*
X142535476Y-65062047D02*
X142440238Y-65014428D01*
X142440238Y-65014428D02*
X142345000Y-64919190D01*
X142345000Y-64919190D02*
X142297380Y-64776333D01*
X142297380Y-64776333D02*
X142297380Y-64681095D01*
X142297380Y-64681095D02*
X142345000Y-64538238D01*
X142345000Y-64538238D02*
X142392619Y-64490619D01*
X143249761Y-64109666D02*
X143297380Y-63966809D01*
X143297380Y-63966809D02*
X143297380Y-63728714D01*
X143297380Y-63728714D02*
X143249761Y-63633476D01*
X143249761Y-63633476D02*
X143202142Y-63585857D01*
X143202142Y-63585857D02*
X143106904Y-63538238D01*
X143106904Y-63538238D02*
X143011666Y-63538238D01*
X143011666Y-63538238D02*
X142916428Y-63585857D01*
X142916428Y-63585857D02*
X142868809Y-63633476D01*
X142868809Y-63633476D02*
X142821190Y-63728714D01*
X142821190Y-63728714D02*
X142773571Y-63919190D01*
X142773571Y-63919190D02*
X142725952Y-64014428D01*
X142725952Y-64014428D02*
X142678333Y-64062047D01*
X142678333Y-64062047D02*
X142583095Y-64109666D01*
X142583095Y-64109666D02*
X142487857Y-64109666D01*
X142487857Y-64109666D02*
X142392619Y-64062047D01*
X142392619Y-64062047D02*
X142345000Y-64014428D01*
X142345000Y-64014428D02*
X142297380Y-63919190D01*
X142297380Y-63919190D02*
X142297380Y-63681095D01*
X142297380Y-63681095D02*
X142345000Y-63538238D01*
X142821190Y-62919190D02*
X143297380Y-62919190D01*
X142297380Y-63252523D02*
X142821190Y-62919190D01*
X142821190Y-62919190D02*
X142297380Y-62585857D01*
X143249761Y-62300142D02*
X143297380Y-62157285D01*
X143297380Y-62157285D02*
X143297380Y-61919190D01*
X143297380Y-61919190D02*
X143249761Y-61823952D01*
X143249761Y-61823952D02*
X143202142Y-61776333D01*
X143202142Y-61776333D02*
X143106904Y-61728714D01*
X143106904Y-61728714D02*
X143011666Y-61728714D01*
X143011666Y-61728714D02*
X142916428Y-61776333D01*
X142916428Y-61776333D02*
X142868809Y-61823952D01*
X142868809Y-61823952D02*
X142821190Y-61919190D01*
X142821190Y-61919190D02*
X142773571Y-62109666D01*
X142773571Y-62109666D02*
X142725952Y-62204904D01*
X142725952Y-62204904D02*
X142678333Y-62252523D01*
X142678333Y-62252523D02*
X142583095Y-62300142D01*
X142583095Y-62300142D02*
X142487857Y-62300142D01*
X142487857Y-62300142D02*
X142392619Y-62252523D01*
X142392619Y-62252523D02*
X142345000Y-62204904D01*
X142345000Y-62204904D02*
X142297380Y-62109666D01*
X142297380Y-62109666D02*
X142297380Y-61871571D01*
X142297380Y-61871571D02*
X142345000Y-61728714D01*
X142297380Y-61395380D02*
X142297380Y-60776333D01*
X142297380Y-60776333D02*
X142678333Y-61109666D01*
X142678333Y-61109666D02*
X142678333Y-60966809D01*
X142678333Y-60966809D02*
X142725952Y-60871571D01*
X142725952Y-60871571D02*
X142773571Y-60823952D01*
X142773571Y-60823952D02*
X142868809Y-60776333D01*
X142868809Y-60776333D02*
X143106904Y-60776333D01*
X143106904Y-60776333D02*
X143202142Y-60823952D01*
X143202142Y-60823952D02*
X143249761Y-60871571D01*
X143249761Y-60871571D02*
X143297380Y-60966809D01*
X143297380Y-60966809D02*
X143297380Y-61252523D01*
X143297380Y-61252523D02*
X143249761Y-61347761D01*
X143249761Y-61347761D02*
X143202142Y-61395380D01*
X157213380Y-67698857D02*
X156737190Y-68032190D01*
X157213380Y-68270285D02*
X156213380Y-68270285D01*
X156213380Y-68270285D02*
X156213380Y-67889333D01*
X156213380Y-67889333D02*
X156261000Y-67794095D01*
X156261000Y-67794095D02*
X156308619Y-67746476D01*
X156308619Y-67746476D02*
X156403857Y-67698857D01*
X156403857Y-67698857D02*
X156546714Y-67698857D01*
X156546714Y-67698857D02*
X156641952Y-67746476D01*
X156641952Y-67746476D02*
X156689571Y-67794095D01*
X156689571Y-67794095D02*
X156737190Y-67889333D01*
X156737190Y-67889333D02*
X156737190Y-68270285D01*
X157213380Y-66746476D02*
X157213380Y-67317904D01*
X157213380Y-67032190D02*
X156213380Y-67032190D01*
X156213380Y-67032190D02*
X156356238Y-67127428D01*
X156356238Y-67127428D02*
X156451476Y-67222666D01*
X156451476Y-67222666D02*
X156499095Y-67317904D01*
X156308619Y-66365523D02*
X156261000Y-66317904D01*
X156261000Y-66317904D02*
X156213380Y-66222666D01*
X156213380Y-66222666D02*
X156213380Y-65984571D01*
X156213380Y-65984571D02*
X156261000Y-65889333D01*
X156261000Y-65889333D02*
X156308619Y-65841714D01*
X156308619Y-65841714D02*
X156403857Y-65794095D01*
X156403857Y-65794095D02*
X156499095Y-65794095D01*
X156499095Y-65794095D02*
X156641952Y-65841714D01*
X156641952Y-65841714D02*
X157213380Y-66413142D01*
X157213380Y-66413142D02*
X157213380Y-65794095D01*
X157213380Y-70619857D02*
X156737190Y-70953190D01*
X157213380Y-71191285D02*
X156213380Y-71191285D01*
X156213380Y-71191285D02*
X156213380Y-70810333D01*
X156213380Y-70810333D02*
X156261000Y-70715095D01*
X156261000Y-70715095D02*
X156308619Y-70667476D01*
X156308619Y-70667476D02*
X156403857Y-70619857D01*
X156403857Y-70619857D02*
X156546714Y-70619857D01*
X156546714Y-70619857D02*
X156641952Y-70667476D01*
X156641952Y-70667476D02*
X156689571Y-70715095D01*
X156689571Y-70715095D02*
X156737190Y-70810333D01*
X156737190Y-70810333D02*
X156737190Y-71191285D01*
X157213380Y-69667476D02*
X157213380Y-70238904D01*
X157213380Y-69953190D02*
X156213380Y-69953190D01*
X156213380Y-69953190D02*
X156356238Y-70048428D01*
X156356238Y-70048428D02*
X156451476Y-70143666D01*
X156451476Y-70143666D02*
X156499095Y-70238904D01*
X156213380Y-69334142D02*
X156213380Y-68715095D01*
X156213380Y-68715095D02*
X156594333Y-69048428D01*
X156594333Y-69048428D02*
X156594333Y-68905571D01*
X156594333Y-68905571D02*
X156641952Y-68810333D01*
X156641952Y-68810333D02*
X156689571Y-68762714D01*
X156689571Y-68762714D02*
X156784809Y-68715095D01*
X156784809Y-68715095D02*
X157022904Y-68715095D01*
X157022904Y-68715095D02*
X157118142Y-68762714D01*
X157118142Y-68762714D02*
X157165761Y-68810333D01*
X157165761Y-68810333D02*
X157213380Y-68905571D01*
X157213380Y-68905571D02*
X157213380Y-69191285D01*
X157213380Y-69191285D02*
X157165761Y-69286523D01*
X157165761Y-69286523D02*
X157118142Y-69334142D01*
X129469619Y-75949380D02*
X130041047Y-75949380D01*
X129755333Y-76949380D02*
X129755333Y-75949380D01*
X130374381Y-76949380D02*
X130374381Y-75949380D01*
X130374381Y-76425571D02*
X130945809Y-76425571D01*
X130945809Y-76949380D02*
X130945809Y-75949380D01*
X131422000Y-76425571D02*
X131755333Y-76425571D01*
X131898190Y-76949380D02*
X131422000Y-76949380D01*
X131422000Y-76949380D02*
X131422000Y-75949380D01*
X131422000Y-75949380D02*
X131898190Y-75949380D01*
X132898190Y-76949380D02*
X132564857Y-76473190D01*
X132326762Y-76949380D02*
X132326762Y-75949380D01*
X132326762Y-75949380D02*
X132707714Y-75949380D01*
X132707714Y-75949380D02*
X132802952Y-75997000D01*
X132802952Y-75997000D02*
X132850571Y-76044619D01*
X132850571Y-76044619D02*
X132898190Y-76139857D01*
X132898190Y-76139857D02*
X132898190Y-76282714D01*
X132898190Y-76282714D02*
X132850571Y-76377952D01*
X132850571Y-76377952D02*
X132802952Y-76425571D01*
X132802952Y-76425571D02*
X132707714Y-76473190D01*
X132707714Y-76473190D02*
X132326762Y-76473190D01*
X133326762Y-76949380D02*
X133326762Y-75949380D01*
X133326762Y-75949380D02*
X133660095Y-76663666D01*
X133660095Y-76663666D02*
X133993428Y-75949380D01*
X133993428Y-75949380D02*
X133993428Y-76949380D01*
X134469619Y-76949380D02*
X134469619Y-75949380D01*
X134898190Y-76901761D02*
X135041047Y-76949380D01*
X135041047Y-76949380D02*
X135279142Y-76949380D01*
X135279142Y-76949380D02*
X135374380Y-76901761D01*
X135374380Y-76901761D02*
X135421999Y-76854142D01*
X135421999Y-76854142D02*
X135469618Y-76758904D01*
X135469618Y-76758904D02*
X135469618Y-76663666D01*
X135469618Y-76663666D02*
X135421999Y-76568428D01*
X135421999Y-76568428D02*
X135374380Y-76520809D01*
X135374380Y-76520809D02*
X135279142Y-76473190D01*
X135279142Y-76473190D02*
X135088666Y-76425571D01*
X135088666Y-76425571D02*
X134993428Y-76377952D01*
X134993428Y-76377952D02*
X134945809Y-76330333D01*
X134945809Y-76330333D02*
X134898190Y-76235095D01*
X134898190Y-76235095D02*
X134898190Y-76139857D01*
X134898190Y-76139857D02*
X134945809Y-76044619D01*
X134945809Y-76044619D02*
X134993428Y-75997000D01*
X134993428Y-75997000D02*
X135088666Y-75949380D01*
X135088666Y-75949380D02*
X135326761Y-75949380D01*
X135326761Y-75949380D02*
X135469618Y-75997000D01*
X135755333Y-75949380D02*
X136326761Y-75949380D01*
X136041047Y-76949380D02*
X136041047Y-75949380D01*
X136850571Y-75949380D02*
X137041047Y-75949380D01*
X137041047Y-75949380D02*
X137136285Y-75997000D01*
X137136285Y-75997000D02*
X137231523Y-76092238D01*
X137231523Y-76092238D02*
X137279142Y-76282714D01*
X137279142Y-76282714D02*
X137279142Y-76616047D01*
X137279142Y-76616047D02*
X137231523Y-76806523D01*
X137231523Y-76806523D02*
X137136285Y-76901761D01*
X137136285Y-76901761D02*
X137041047Y-76949380D01*
X137041047Y-76949380D02*
X136850571Y-76949380D01*
X136850571Y-76949380D02*
X136755333Y-76901761D01*
X136755333Y-76901761D02*
X136660095Y-76806523D01*
X136660095Y-76806523D02*
X136612476Y-76616047D01*
X136612476Y-76616047D02*
X136612476Y-76282714D01*
X136612476Y-76282714D02*
X136660095Y-76092238D01*
X136660095Y-76092238D02*
X136755333Y-75997000D01*
X136755333Y-75997000D02*
X136850571Y-75949380D01*
X138279142Y-76949380D02*
X137945809Y-76473190D01*
X137707714Y-76949380D02*
X137707714Y-75949380D01*
X137707714Y-75949380D02*
X138088666Y-75949380D01*
X138088666Y-75949380D02*
X138183904Y-75997000D01*
X138183904Y-75997000D02*
X138231523Y-76044619D01*
X138231523Y-76044619D02*
X138279142Y-76139857D01*
X138279142Y-76139857D02*
X138279142Y-76282714D01*
X138279142Y-76282714D02*
X138231523Y-76377952D01*
X138231523Y-76377952D02*
X138183904Y-76425571D01*
X138183904Y-76425571D02*
X138088666Y-76473190D01*
X138088666Y-76473190D02*
X137707714Y-76473190D01*
X138993428Y-77330333D02*
X138945809Y-77282714D01*
X138945809Y-77282714D02*
X138850571Y-77139857D01*
X138850571Y-77139857D02*
X138802952Y-77044619D01*
X138802952Y-77044619D02*
X138755333Y-76901761D01*
X138755333Y-76901761D02*
X138707714Y-76663666D01*
X138707714Y-76663666D02*
X138707714Y-76473190D01*
X138707714Y-76473190D02*
X138755333Y-76235095D01*
X138755333Y-76235095D02*
X138802952Y-76092238D01*
X138802952Y-76092238D02*
X138850571Y-75997000D01*
X138850571Y-75997000D02*
X138945809Y-75854142D01*
X138945809Y-75854142D02*
X138993428Y-75806523D01*
X139898190Y-76949380D02*
X139326762Y-76949380D01*
X139612476Y-76949380D02*
X139612476Y-75949380D01*
X139612476Y-75949380D02*
X139517238Y-76092238D01*
X139517238Y-76092238D02*
X139422000Y-76187476D01*
X139422000Y-76187476D02*
X139326762Y-76235095D01*
X140517238Y-75949380D02*
X140612476Y-75949380D01*
X140612476Y-75949380D02*
X140707714Y-75997000D01*
X140707714Y-75997000D02*
X140755333Y-76044619D01*
X140755333Y-76044619D02*
X140802952Y-76139857D01*
X140802952Y-76139857D02*
X140850571Y-76330333D01*
X140850571Y-76330333D02*
X140850571Y-76568428D01*
X140850571Y-76568428D02*
X140802952Y-76758904D01*
X140802952Y-76758904D02*
X140755333Y-76854142D01*
X140755333Y-76854142D02*
X140707714Y-76901761D01*
X140707714Y-76901761D02*
X140612476Y-76949380D01*
X140612476Y-76949380D02*
X140517238Y-76949380D01*
X140517238Y-76949380D02*
X140422000Y-76901761D01*
X140422000Y-76901761D02*
X140374381Y-76854142D01*
X140374381Y-76854142D02*
X140326762Y-76758904D01*
X140326762Y-76758904D02*
X140279143Y-76568428D01*
X140279143Y-76568428D02*
X140279143Y-76330333D01*
X140279143Y-76330333D02*
X140326762Y-76139857D01*
X140326762Y-76139857D02*
X140374381Y-76044619D01*
X140374381Y-76044619D02*
X140422000Y-75997000D01*
X140422000Y-75997000D02*
X140517238Y-75949380D01*
X141183905Y-75949380D02*
X141802952Y-75949380D01*
X141802952Y-75949380D02*
X141469619Y-76330333D01*
X141469619Y-76330333D02*
X141612476Y-76330333D01*
X141612476Y-76330333D02*
X141707714Y-76377952D01*
X141707714Y-76377952D02*
X141755333Y-76425571D01*
X141755333Y-76425571D02*
X141802952Y-76520809D01*
X141802952Y-76520809D02*
X141802952Y-76758904D01*
X141802952Y-76758904D02*
X141755333Y-76854142D01*
X141755333Y-76854142D02*
X141707714Y-76901761D01*
X141707714Y-76901761D02*
X141612476Y-76949380D01*
X141612476Y-76949380D02*
X141326762Y-76949380D01*
X141326762Y-76949380D02*
X141231524Y-76901761D01*
X141231524Y-76901761D02*
X141183905Y-76854142D01*
X142231524Y-76568428D02*
X142993429Y-76568428D01*
X143422000Y-76663666D02*
X143898190Y-76663666D01*
X143326762Y-76949380D02*
X143660095Y-75949380D01*
X143660095Y-75949380D02*
X143993428Y-76949380D01*
X144183905Y-75949380D02*
X144755333Y-75949380D01*
X144469619Y-76949380D02*
X144469619Y-75949380D01*
X144993429Y-77330333D02*
X145041048Y-77282714D01*
X145041048Y-77282714D02*
X145136286Y-77139857D01*
X145136286Y-77139857D02*
X145183905Y-77044619D01*
X145183905Y-77044619D02*
X145231524Y-76901761D01*
X145231524Y-76901761D02*
X145279143Y-76663666D01*
X145279143Y-76663666D02*
X145279143Y-76473190D01*
X145279143Y-76473190D02*
X145231524Y-76235095D01*
X145231524Y-76235095D02*
X145183905Y-76092238D01*
X145183905Y-76092238D02*
X145136286Y-75997000D01*
X145136286Y-75997000D02*
X145041048Y-75854142D01*
X145041048Y-75854142D02*
X144993429Y-75806523D01*
X146279143Y-76949380D02*
X145707715Y-76949380D01*
X145993429Y-76949380D02*
X145993429Y-75949380D01*
X145993429Y-75949380D02*
X145898191Y-76092238D01*
X145898191Y-76092238D02*
X145802953Y-76187476D01*
X145802953Y-76187476D02*
X145707715Y-76235095D01*
X132424142Y-64958857D02*
X132471761Y-65006476D01*
X132471761Y-65006476D02*
X132519380Y-65149333D01*
X132519380Y-65149333D02*
X132519380Y-65244571D01*
X132519380Y-65244571D02*
X132471761Y-65387428D01*
X132471761Y-65387428D02*
X132376523Y-65482666D01*
X132376523Y-65482666D02*
X132281285Y-65530285D01*
X132281285Y-65530285D02*
X132090809Y-65577904D01*
X132090809Y-65577904D02*
X131947952Y-65577904D01*
X131947952Y-65577904D02*
X131757476Y-65530285D01*
X131757476Y-65530285D02*
X131662238Y-65482666D01*
X131662238Y-65482666D02*
X131567000Y-65387428D01*
X131567000Y-65387428D02*
X131519380Y-65244571D01*
X131519380Y-65244571D02*
X131519380Y-65149333D01*
X131519380Y-65149333D02*
X131567000Y-65006476D01*
X131567000Y-65006476D02*
X131614619Y-64958857D01*
X132519380Y-63958857D02*
X132043190Y-64292190D01*
X132519380Y-64530285D02*
X131519380Y-64530285D01*
X131519380Y-64530285D02*
X131519380Y-64149333D01*
X131519380Y-64149333D02*
X131567000Y-64054095D01*
X131567000Y-64054095D02*
X131614619Y-64006476D01*
X131614619Y-64006476D02*
X131709857Y-63958857D01*
X131709857Y-63958857D02*
X131852714Y-63958857D01*
X131852714Y-63958857D02*
X131947952Y-64006476D01*
X131947952Y-64006476D02*
X131995571Y-64054095D01*
X131995571Y-64054095D02*
X132043190Y-64149333D01*
X132043190Y-64149333D02*
X132043190Y-64530285D01*
X131995571Y-63530285D02*
X131995571Y-63196952D01*
X132519380Y-63054095D02*
X132519380Y-63530285D01*
X132519380Y-63530285D02*
X131519380Y-63530285D01*
X131519380Y-63530285D02*
X131519380Y-63054095D01*
X131567000Y-62101714D02*
X131519380Y-62196952D01*
X131519380Y-62196952D02*
X131519380Y-62339809D01*
X131519380Y-62339809D02*
X131567000Y-62482666D01*
X131567000Y-62482666D02*
X131662238Y-62577904D01*
X131662238Y-62577904D02*
X131757476Y-62625523D01*
X131757476Y-62625523D02*
X131947952Y-62673142D01*
X131947952Y-62673142D02*
X132090809Y-62673142D01*
X132090809Y-62673142D02*
X132281285Y-62625523D01*
X132281285Y-62625523D02*
X132376523Y-62577904D01*
X132376523Y-62577904D02*
X132471761Y-62482666D01*
X132471761Y-62482666D02*
X132519380Y-62339809D01*
X132519380Y-62339809D02*
X132519380Y-62244571D01*
X132519380Y-62244571D02*
X132471761Y-62101714D01*
X132471761Y-62101714D02*
X132424142Y-62054095D01*
X132424142Y-62054095D02*
X132090809Y-62054095D01*
X132090809Y-62054095D02*
X132090809Y-62244571D01*
X132519380Y-61625523D02*
X131519380Y-61625523D01*
X131519380Y-61625523D02*
X132519380Y-61054095D01*
X132519380Y-61054095D02*
X131519380Y-61054095D01*
X132519380Y-60054095D02*
X132519380Y-60625523D01*
X132519380Y-60339809D02*
X131519380Y-60339809D01*
X131519380Y-60339809D02*
X131662238Y-60435047D01*
X131662238Y-60435047D02*
X131757476Y-60530285D01*
X131757476Y-60530285D02*
X131805095Y-60625523D01*
X177673095Y-61212380D02*
X177673095Y-62021904D01*
X177673095Y-62021904D02*
X177720714Y-62117142D01*
X177720714Y-62117142D02*
X177768333Y-62164761D01*
X177768333Y-62164761D02*
X177863571Y-62212380D01*
X177863571Y-62212380D02*
X178054047Y-62212380D01*
X178054047Y-62212380D02*
X178149285Y-62164761D01*
X178149285Y-62164761D02*
X178196904Y-62117142D01*
X178196904Y-62117142D02*
X178244523Y-62021904D01*
X178244523Y-62021904D02*
X178244523Y-61212380D01*
X179244523Y-62212380D02*
X178673095Y-62212380D01*
X178958809Y-62212380D02*
X178958809Y-61212380D01*
X178958809Y-61212380D02*
X178863571Y-61355238D01*
X178863571Y-61355238D02*
X178768333Y-61450476D01*
X178768333Y-61450476D02*
X178673095Y-61498095D01*
X172578380Y-71381857D02*
X172102190Y-71715190D01*
X172578380Y-71953285D02*
X171578380Y-71953285D01*
X171578380Y-71953285D02*
X171578380Y-71572333D01*
X171578380Y-71572333D02*
X171626000Y-71477095D01*
X171626000Y-71477095D02*
X171673619Y-71429476D01*
X171673619Y-71429476D02*
X171768857Y-71381857D01*
X171768857Y-71381857D02*
X171911714Y-71381857D01*
X171911714Y-71381857D02*
X172006952Y-71429476D01*
X172006952Y-71429476D02*
X172054571Y-71477095D01*
X172054571Y-71477095D02*
X172102190Y-71572333D01*
X172102190Y-71572333D02*
X172102190Y-71953285D01*
X172578380Y-70429476D02*
X172578380Y-71000904D01*
X172578380Y-70715190D02*
X171578380Y-70715190D01*
X171578380Y-70715190D02*
X171721238Y-70810428D01*
X171721238Y-70810428D02*
X171816476Y-70905666D01*
X171816476Y-70905666D02*
X171864095Y-71000904D01*
X172006952Y-69858047D02*
X171959333Y-69953285D01*
X171959333Y-69953285D02*
X171911714Y-70000904D01*
X171911714Y-70000904D02*
X171816476Y-70048523D01*
X171816476Y-70048523D02*
X171768857Y-70048523D01*
X171768857Y-70048523D02*
X171673619Y-70000904D01*
X171673619Y-70000904D02*
X171626000Y-69953285D01*
X171626000Y-69953285D02*
X171578380Y-69858047D01*
X171578380Y-69858047D02*
X171578380Y-69667571D01*
X171578380Y-69667571D02*
X171626000Y-69572333D01*
X171626000Y-69572333D02*
X171673619Y-69524714D01*
X171673619Y-69524714D02*
X171768857Y-69477095D01*
X171768857Y-69477095D02*
X171816476Y-69477095D01*
X171816476Y-69477095D02*
X171911714Y-69524714D01*
X171911714Y-69524714D02*
X171959333Y-69572333D01*
X171959333Y-69572333D02*
X172006952Y-69667571D01*
X172006952Y-69667571D02*
X172006952Y-69858047D01*
X172006952Y-69858047D02*
X172054571Y-69953285D01*
X172054571Y-69953285D02*
X172102190Y-70000904D01*
X172102190Y-70000904D02*
X172197428Y-70048523D01*
X172197428Y-70048523D02*
X172387904Y-70048523D01*
X172387904Y-70048523D02*
X172483142Y-70000904D01*
X172483142Y-70000904D02*
X172530761Y-69953285D01*
X172530761Y-69953285D02*
X172578380Y-69858047D01*
X172578380Y-69858047D02*
X172578380Y-69667571D01*
X172578380Y-69667571D02*
X172530761Y-69572333D01*
X172530761Y-69572333D02*
X172483142Y-69524714D01*
X172483142Y-69524714D02*
X172387904Y-69477095D01*
X172387904Y-69477095D02*
X172197428Y-69477095D01*
X172197428Y-69477095D02*
X172102190Y-69524714D01*
X172102190Y-69524714D02*
X172054571Y-69572333D01*
X172054571Y-69572333D02*
X172006952Y-69667571D01*
X133643810Y-66897380D02*
X133643810Y-65897380D01*
X134691428Y-66802142D02*
X134643809Y-66849761D01*
X134643809Y-66849761D02*
X134500952Y-66897380D01*
X134500952Y-66897380D02*
X134405714Y-66897380D01*
X134405714Y-66897380D02*
X134262857Y-66849761D01*
X134262857Y-66849761D02*
X134167619Y-66754523D01*
X134167619Y-66754523D02*
X134120000Y-66659285D01*
X134120000Y-66659285D02*
X134072381Y-66468809D01*
X134072381Y-66468809D02*
X134072381Y-66325952D01*
X134072381Y-66325952D02*
X134120000Y-66135476D01*
X134120000Y-66135476D02*
X134167619Y-66040238D01*
X134167619Y-66040238D02*
X134262857Y-65945000D01*
X134262857Y-65945000D02*
X134405714Y-65897380D01*
X134405714Y-65897380D02*
X134500952Y-65897380D01*
X134500952Y-65897380D02*
X134643809Y-65945000D01*
X134643809Y-65945000D02*
X134691428Y-65992619D01*
X135643809Y-66897380D02*
X135072381Y-66897380D01*
X135358095Y-66897380D02*
X135358095Y-65897380D01*
X135358095Y-65897380D02*
X135262857Y-66040238D01*
X135262857Y-66040238D02*
X135167619Y-66135476D01*
X135167619Y-66135476D02*
X135072381Y-66183095D01*
X133765476Y-78139380D02*
X134336904Y-78139380D01*
X134051190Y-79139380D02*
X134051190Y-78139380D01*
X134670238Y-79139380D02*
X134670238Y-78139380D01*
X134670238Y-78615571D02*
X135241666Y-78615571D01*
X135241666Y-79139380D02*
X135241666Y-78139380D01*
X135717857Y-78615571D02*
X136051190Y-78615571D01*
X136194047Y-79139380D02*
X135717857Y-79139380D01*
X135717857Y-79139380D02*
X135717857Y-78139380D01*
X135717857Y-78139380D02*
X136194047Y-78139380D01*
X137194047Y-79139380D02*
X136860714Y-78663190D01*
X136622619Y-79139380D02*
X136622619Y-78139380D01*
X136622619Y-78139380D02*
X137003571Y-78139380D01*
X137003571Y-78139380D02*
X137098809Y-78187000D01*
X137098809Y-78187000D02*
X137146428Y-78234619D01*
X137146428Y-78234619D02*
X137194047Y-78329857D01*
X137194047Y-78329857D02*
X137194047Y-78472714D01*
X137194047Y-78472714D02*
X137146428Y-78567952D01*
X137146428Y-78567952D02*
X137098809Y-78615571D01*
X137098809Y-78615571D02*
X137003571Y-78663190D01*
X137003571Y-78663190D02*
X136622619Y-78663190D01*
X137622619Y-79139380D02*
X137622619Y-78139380D01*
X137622619Y-78139380D02*
X137955952Y-78853666D01*
X137955952Y-78853666D02*
X138289285Y-78139380D01*
X138289285Y-78139380D02*
X138289285Y-79139380D01*
X139289285Y-79139380D02*
X138717857Y-79139380D01*
X139003571Y-79139380D02*
X139003571Y-78139380D01*
X139003571Y-78139380D02*
X138908333Y-78282238D01*
X138908333Y-78282238D02*
X138813095Y-78377476D01*
X138813095Y-78377476D02*
X138717857Y-78425095D01*
X146291380Y-76969857D02*
X145815190Y-77303190D01*
X146291380Y-77541285D02*
X145291380Y-77541285D01*
X145291380Y-77541285D02*
X145291380Y-77160333D01*
X145291380Y-77160333D02*
X145339000Y-77065095D01*
X145339000Y-77065095D02*
X145386619Y-77017476D01*
X145386619Y-77017476D02*
X145481857Y-76969857D01*
X145481857Y-76969857D02*
X145624714Y-76969857D01*
X145624714Y-76969857D02*
X145719952Y-77017476D01*
X145719952Y-77017476D02*
X145767571Y-77065095D01*
X145767571Y-77065095D02*
X145815190Y-77160333D01*
X145815190Y-77160333D02*
X145815190Y-77541285D01*
X145386619Y-76588904D02*
X145339000Y-76541285D01*
X145339000Y-76541285D02*
X145291380Y-76446047D01*
X145291380Y-76446047D02*
X145291380Y-76207952D01*
X145291380Y-76207952D02*
X145339000Y-76112714D01*
X145339000Y-76112714D02*
X145386619Y-76065095D01*
X145386619Y-76065095D02*
X145481857Y-76017476D01*
X145481857Y-76017476D02*
X145577095Y-76017476D01*
X145577095Y-76017476D02*
X145719952Y-76065095D01*
X145719952Y-76065095D02*
X146291380Y-76636523D01*
X146291380Y-76636523D02*
X146291380Y-76017476D01*
X145291380Y-75112714D02*
X145291380Y-75588904D01*
X145291380Y-75588904D02*
X145767571Y-75636523D01*
X145767571Y-75636523D02*
X145719952Y-75588904D01*
X145719952Y-75588904D02*
X145672333Y-75493666D01*
X145672333Y-75493666D02*
X145672333Y-75255571D01*
X145672333Y-75255571D02*
X145719952Y-75160333D01*
X145719952Y-75160333D02*
X145767571Y-75112714D01*
X145767571Y-75112714D02*
X145862809Y-75065095D01*
X145862809Y-75065095D02*
X146100904Y-75065095D01*
X146100904Y-75065095D02*
X146196142Y-75112714D01*
X146196142Y-75112714D02*
X146243761Y-75160333D01*
X146243761Y-75160333D02*
X146291380Y-75255571D01*
X146291380Y-75255571D02*
X146291380Y-75493666D01*
X146291380Y-75493666D02*
X146243761Y-75588904D01*
X146243761Y-75588904D02*
X146196142Y-75636523D01*
X151595732Y-70480656D02*
X151595732Y-71290180D01*
X151595732Y-71290180D02*
X151643351Y-71385418D01*
X151643351Y-71385418D02*
X151690970Y-71433037D01*
X151690970Y-71433037D02*
X151786208Y-71480656D01*
X151786208Y-71480656D02*
X151976684Y-71480656D01*
X151976684Y-71480656D02*
X152071922Y-71433037D01*
X152071922Y-71433037D02*
X152119541Y-71385418D01*
X152119541Y-71385418D02*
X152167160Y-71290180D01*
X152167160Y-71290180D02*
X152167160Y-70480656D01*
X152595732Y-70575895D02*
X152643351Y-70528276D01*
X152643351Y-70528276D02*
X152738589Y-70480656D01*
X152738589Y-70480656D02*
X152976684Y-70480656D01*
X152976684Y-70480656D02*
X153071922Y-70528276D01*
X153071922Y-70528276D02*
X153119541Y-70575895D01*
X153119541Y-70575895D02*
X153167160Y-70671133D01*
X153167160Y-70671133D02*
X153167160Y-70766371D01*
X153167160Y-70766371D02*
X153119541Y-70909228D01*
X153119541Y-70909228D02*
X152548113Y-71480656D01*
X152548113Y-71480656D02*
X153167160Y-71480656D01*
X139670571Y-79446238D02*
X139718190Y-79303381D01*
X139718190Y-79303381D02*
X139765809Y-79255762D01*
X139765809Y-79255762D02*
X139861047Y-79208143D01*
X139861047Y-79208143D02*
X140003904Y-79208143D01*
X140003904Y-79208143D02*
X140099142Y-79255762D01*
X140099142Y-79255762D02*
X140146761Y-79303381D01*
X140146761Y-79303381D02*
X140194380Y-79398619D01*
X140194380Y-79398619D02*
X140194380Y-79779571D01*
X140194380Y-79779571D02*
X139194380Y-79779571D01*
X139194380Y-79779571D02*
X139194380Y-79446238D01*
X139194380Y-79446238D02*
X139242000Y-79351000D01*
X139242000Y-79351000D02*
X139289619Y-79303381D01*
X139289619Y-79303381D02*
X139384857Y-79255762D01*
X139384857Y-79255762D02*
X139480095Y-79255762D01*
X139480095Y-79255762D02*
X139575333Y-79303381D01*
X139575333Y-79303381D02*
X139622952Y-79351000D01*
X139622952Y-79351000D02*
X139670571Y-79446238D01*
X139670571Y-79446238D02*
X139670571Y-79779571D01*
X139908666Y-78827190D02*
X139908666Y-78351000D01*
X140194380Y-78922428D02*
X139194380Y-78589095D01*
X139194380Y-78589095D02*
X140194380Y-78255762D01*
X139194380Y-78065285D02*
X139194380Y-77493857D01*
X140194380Y-77779571D02*
X139194380Y-77779571D01*
X139194380Y-77303380D02*
X139194380Y-76731952D01*
X140194380Y-77017666D02*
X139194380Y-77017666D01*
X140194380Y-75874809D02*
X140194380Y-76446237D01*
X140194380Y-76160523D02*
X139194380Y-76160523D01*
X139194380Y-76160523D02*
X139337238Y-76255761D01*
X139337238Y-76255761D02*
X139432476Y-76350999D01*
X139432476Y-76350999D02*
X139480095Y-76446237D01*
X173738380Y-63706333D02*
X174452666Y-63706333D01*
X174452666Y-63706333D02*
X174595523Y-63753952D01*
X174595523Y-63753952D02*
X174690761Y-63849190D01*
X174690761Y-63849190D02*
X174738380Y-63992047D01*
X174738380Y-63992047D02*
X174738380Y-64087285D01*
X174166952Y-63087285D02*
X174119333Y-63182523D01*
X174119333Y-63182523D02*
X174071714Y-63230142D01*
X174071714Y-63230142D02*
X173976476Y-63277761D01*
X173976476Y-63277761D02*
X173928857Y-63277761D01*
X173928857Y-63277761D02*
X173833619Y-63230142D01*
X173833619Y-63230142D02*
X173786000Y-63182523D01*
X173786000Y-63182523D02*
X173738380Y-63087285D01*
X173738380Y-63087285D02*
X173738380Y-62896809D01*
X173738380Y-62896809D02*
X173786000Y-62801571D01*
X173786000Y-62801571D02*
X173833619Y-62753952D01*
X173833619Y-62753952D02*
X173928857Y-62706333D01*
X173928857Y-62706333D02*
X173976476Y-62706333D01*
X173976476Y-62706333D02*
X174071714Y-62753952D01*
X174071714Y-62753952D02*
X174119333Y-62801571D01*
X174119333Y-62801571D02*
X174166952Y-62896809D01*
X174166952Y-62896809D02*
X174166952Y-63087285D01*
X174166952Y-63087285D02*
X174214571Y-63182523D01*
X174214571Y-63182523D02*
X174262190Y-63230142D01*
X174262190Y-63230142D02*
X174357428Y-63277761D01*
X174357428Y-63277761D02*
X174547904Y-63277761D01*
X174547904Y-63277761D02*
X174643142Y-63230142D01*
X174643142Y-63230142D02*
X174690761Y-63182523D01*
X174690761Y-63182523D02*
X174738380Y-63087285D01*
X174738380Y-63087285D02*
X174738380Y-62896809D01*
X174738380Y-62896809D02*
X174690761Y-62801571D01*
X174690761Y-62801571D02*
X174643142Y-62753952D01*
X174643142Y-62753952D02*
X174547904Y-62706333D01*
X174547904Y-62706333D02*
X174357428Y-62706333D01*
X174357428Y-62706333D02*
X174262190Y-62753952D01*
X174262190Y-62753952D02*
X174214571Y-62801571D01*
X174214571Y-62801571D02*
X174166952Y-62896809D01*
X165864380Y-64768238D02*
X165864380Y-65244428D01*
X165864380Y-65244428D02*
X166340571Y-65292047D01*
X166340571Y-65292047D02*
X166292952Y-65244428D01*
X166292952Y-65244428D02*
X166245333Y-65149190D01*
X166245333Y-65149190D02*
X166245333Y-64911095D01*
X166245333Y-64911095D02*
X166292952Y-64815857D01*
X166292952Y-64815857D02*
X166340571Y-64768238D01*
X166340571Y-64768238D02*
X166435809Y-64720619D01*
X166435809Y-64720619D02*
X166673904Y-64720619D01*
X166673904Y-64720619D02*
X166769142Y-64768238D01*
X166769142Y-64768238D02*
X166816761Y-64815857D01*
X166816761Y-64815857D02*
X166864380Y-64911095D01*
X166864380Y-64911095D02*
X166864380Y-65149190D01*
X166864380Y-65149190D02*
X166816761Y-65244428D01*
X166816761Y-65244428D02*
X166769142Y-65292047D01*
X165864380Y-64434904D02*
X166864380Y-64101571D01*
X166864380Y-64101571D02*
X165864380Y-63768238D01*
X165864380Y-62930142D02*
X165864380Y-62311095D01*
X165864380Y-62311095D02*
X166245333Y-62644428D01*
X166245333Y-62644428D02*
X166245333Y-62501571D01*
X166245333Y-62501571D02*
X166292952Y-62406333D01*
X166292952Y-62406333D02*
X166340571Y-62358714D01*
X166340571Y-62358714D02*
X166435809Y-62311095D01*
X166435809Y-62311095D02*
X166673904Y-62311095D01*
X166673904Y-62311095D02*
X166769142Y-62358714D01*
X166769142Y-62358714D02*
X166816761Y-62406333D01*
X166816761Y-62406333D02*
X166864380Y-62501571D01*
X166864380Y-62501571D02*
X166864380Y-62787285D01*
X166864380Y-62787285D02*
X166816761Y-62882523D01*
X166816761Y-62882523D02*
X166769142Y-62930142D01*
X166578666Y-61930142D02*
X166578666Y-61453952D01*
X166864380Y-62025380D02*
X165864380Y-61692047D01*
X165864380Y-61692047D02*
X166864380Y-61358714D01*
X163578380Y-78057333D02*
X164292666Y-78057333D01*
X164292666Y-78057333D02*
X164435523Y-78104952D01*
X164435523Y-78104952D02*
X164530761Y-78200190D01*
X164530761Y-78200190D02*
X164578380Y-78343047D01*
X164578380Y-78343047D02*
X164578380Y-78438285D01*
X164578380Y-77533523D02*
X164578380Y-77343047D01*
X164578380Y-77343047D02*
X164530761Y-77247809D01*
X164530761Y-77247809D02*
X164483142Y-77200190D01*
X164483142Y-77200190D02*
X164340285Y-77104952D01*
X164340285Y-77104952D02*
X164149809Y-77057333D01*
X164149809Y-77057333D02*
X163768857Y-77057333D01*
X163768857Y-77057333D02*
X163673619Y-77104952D01*
X163673619Y-77104952D02*
X163626000Y-77152571D01*
X163626000Y-77152571D02*
X163578380Y-77247809D01*
X163578380Y-77247809D02*
X163578380Y-77438285D01*
X163578380Y-77438285D02*
X163626000Y-77533523D01*
X163626000Y-77533523D02*
X163673619Y-77581142D01*
X163673619Y-77581142D02*
X163768857Y-77628761D01*
X163768857Y-77628761D02*
X164006952Y-77628761D01*
X164006952Y-77628761D02*
X164102190Y-77581142D01*
X164102190Y-77581142D02*
X164149809Y-77533523D01*
X164149809Y-77533523D02*
X164197428Y-77438285D01*
X164197428Y-77438285D02*
X164197428Y-77247809D01*
X164197428Y-77247809D02*
X164149809Y-77152571D01*
X164149809Y-77152571D02*
X164102190Y-77104952D01*
X164102190Y-77104952D02*
X164006952Y-77057333D01*
X108062380Y-73920333D02*
X108776666Y-73920333D01*
X108776666Y-73920333D02*
X108919523Y-73967952D01*
X108919523Y-73967952D02*
X109014761Y-74063190D01*
X109014761Y-74063190D02*
X109062380Y-74206047D01*
X109062380Y-74206047D02*
X109062380Y-74301285D01*
X108157619Y-73491761D02*
X108110000Y-73444142D01*
X108110000Y-73444142D02*
X108062380Y-73348904D01*
X108062380Y-73348904D02*
X108062380Y-73110809D01*
X108062380Y-73110809D02*
X108110000Y-73015571D01*
X108110000Y-73015571D02*
X108157619Y-72967952D01*
X108157619Y-72967952D02*
X108252857Y-72920333D01*
X108252857Y-72920333D02*
X108348095Y-72920333D01*
X108348095Y-72920333D02*
X108490952Y-72967952D01*
X108490952Y-72967952D02*
X109062380Y-73539380D01*
X109062380Y-73539380D02*
X109062380Y-72920333D01*
X138263333Y-57762380D02*
X137787143Y-57762380D01*
X137787143Y-57762380D02*
X137787143Y-56762380D01*
X139120476Y-57762380D02*
X138549048Y-57762380D01*
X138834762Y-57762380D02*
X138834762Y-56762380D01*
X138834762Y-56762380D02*
X138739524Y-56905238D01*
X138739524Y-56905238D02*
X138644286Y-57000476D01*
X138644286Y-57000476D02*
X138549048Y-57048095D01*
X151217333Y-57762380D02*
X150741143Y-57762380D01*
X150741143Y-57762380D02*
X150741143Y-56762380D01*
X151503048Y-56857619D02*
X151550667Y-56810000D01*
X151550667Y-56810000D02*
X151645905Y-56762380D01*
X151645905Y-56762380D02*
X151884000Y-56762380D01*
X151884000Y-56762380D02*
X151979238Y-56810000D01*
X151979238Y-56810000D02*
X152026857Y-56857619D01*
X152026857Y-56857619D02*
X152074476Y-56952857D01*
X152074476Y-56952857D02*
X152074476Y-57048095D01*
X152074476Y-57048095D02*
X152026857Y-57190952D01*
X152026857Y-57190952D02*
X151455429Y-57762380D01*
X151455429Y-57762380D02*
X152074476Y-57762380D01*
X102214666Y-67405880D02*
X102214666Y-68120166D01*
X102214666Y-68120166D02*
X102167047Y-68263023D01*
X102167047Y-68263023D02*
X102071809Y-68358261D01*
X102071809Y-68358261D02*
X101928952Y-68405880D01*
X101928952Y-68405880D02*
X101833714Y-68405880D01*
X102595619Y-67405880D02*
X103214666Y-67405880D01*
X103214666Y-67405880D02*
X102881333Y-67786833D01*
X102881333Y-67786833D02*
X103024190Y-67786833D01*
X103024190Y-67786833D02*
X103119428Y-67834452D01*
X103119428Y-67834452D02*
X103167047Y-67882071D01*
X103167047Y-67882071D02*
X103214666Y-67977309D01*
X103214666Y-67977309D02*
X103214666Y-68215404D01*
X103214666Y-68215404D02*
X103167047Y-68310642D01*
X103167047Y-68310642D02*
X103119428Y-68358261D01*
X103119428Y-68358261D02*
X103024190Y-68405880D01*
X103024190Y-68405880D02*
X102738476Y-68405880D01*
X102738476Y-68405880D02*
X102643238Y-68358261D01*
X102643238Y-68358261D02*
X102595619Y-68310642D01*
X115051142Y-79763857D02*
X115098761Y-79811476D01*
X115098761Y-79811476D02*
X115146380Y-79954333D01*
X115146380Y-79954333D02*
X115146380Y-80049571D01*
X115146380Y-80049571D02*
X115098761Y-80192428D01*
X115098761Y-80192428D02*
X115003523Y-80287666D01*
X115003523Y-80287666D02*
X114908285Y-80335285D01*
X114908285Y-80335285D02*
X114717809Y-80382904D01*
X114717809Y-80382904D02*
X114574952Y-80382904D01*
X114574952Y-80382904D02*
X114384476Y-80335285D01*
X114384476Y-80335285D02*
X114289238Y-80287666D01*
X114289238Y-80287666D02*
X114194000Y-80192428D01*
X114194000Y-80192428D02*
X114146380Y-80049571D01*
X114146380Y-80049571D02*
X114146380Y-79954333D01*
X114146380Y-79954333D02*
X114194000Y-79811476D01*
X114194000Y-79811476D02*
X114241619Y-79763857D01*
X114241619Y-79382904D02*
X114194000Y-79335285D01*
X114194000Y-79335285D02*
X114146380Y-79240047D01*
X114146380Y-79240047D02*
X114146380Y-79001952D01*
X114146380Y-79001952D02*
X114194000Y-78906714D01*
X114194000Y-78906714D02*
X114241619Y-78859095D01*
X114241619Y-78859095D02*
X114336857Y-78811476D01*
X114336857Y-78811476D02*
X114432095Y-78811476D01*
X114432095Y-78811476D02*
X114574952Y-78859095D01*
X114574952Y-78859095D02*
X115146380Y-79430523D01*
X115146380Y-79430523D02*
X115146380Y-78811476D01*
X114479714Y-77954333D02*
X115146380Y-77954333D01*
X114098761Y-78192428D02*
X114813047Y-78430523D01*
X114813047Y-78430523D02*
X114813047Y-77811476D01*
X115562142Y-71167142D02*
X115514523Y-71214761D01*
X115514523Y-71214761D02*
X115371666Y-71262380D01*
X115371666Y-71262380D02*
X115276428Y-71262380D01*
X115276428Y-71262380D02*
X115133571Y-71214761D01*
X115133571Y-71214761D02*
X115038333Y-71119523D01*
X115038333Y-71119523D02*
X114990714Y-71024285D01*
X114990714Y-71024285D02*
X114943095Y-70833809D01*
X114943095Y-70833809D02*
X114943095Y-70690952D01*
X114943095Y-70690952D02*
X114990714Y-70500476D01*
X114990714Y-70500476D02*
X115038333Y-70405238D01*
X115038333Y-70405238D02*
X115133571Y-70310000D01*
X115133571Y-70310000D02*
X115276428Y-70262380D01*
X115276428Y-70262380D02*
X115371666Y-70262380D01*
X115371666Y-70262380D02*
X115514523Y-70310000D01*
X115514523Y-70310000D02*
X115562142Y-70357619D01*
X115943095Y-70357619D02*
X115990714Y-70310000D01*
X115990714Y-70310000D02*
X116085952Y-70262380D01*
X116085952Y-70262380D02*
X116324047Y-70262380D01*
X116324047Y-70262380D02*
X116419285Y-70310000D01*
X116419285Y-70310000D02*
X116466904Y-70357619D01*
X116466904Y-70357619D02*
X116514523Y-70452857D01*
X116514523Y-70452857D02*
X116514523Y-70548095D01*
X116514523Y-70548095D02*
X116466904Y-70690952D01*
X116466904Y-70690952D02*
X115895476Y-71262380D01*
X115895476Y-71262380D02*
X116514523Y-71262380D01*
X117419285Y-70262380D02*
X116943095Y-70262380D01*
X116943095Y-70262380D02*
X116895476Y-70738571D01*
X116895476Y-70738571D02*
X116943095Y-70690952D01*
X116943095Y-70690952D02*
X117038333Y-70643333D01*
X117038333Y-70643333D02*
X117276428Y-70643333D01*
X117276428Y-70643333D02*
X117371666Y-70690952D01*
X117371666Y-70690952D02*
X117419285Y-70738571D01*
X117419285Y-70738571D02*
X117466904Y-70833809D01*
X117466904Y-70833809D02*
X117466904Y-71071904D01*
X117466904Y-71071904D02*
X117419285Y-71167142D01*
X117419285Y-71167142D02*
X117371666Y-71214761D01*
X117371666Y-71214761D02*
X117276428Y-71262380D01*
X117276428Y-71262380D02*
X117038333Y-71262380D01*
X117038333Y-71262380D02*
X116943095Y-71214761D01*
X116943095Y-71214761D02*
X116895476Y-71167142D01*
X112426761Y-77083619D02*
X112331523Y-77036000D01*
X112331523Y-77036000D02*
X112236285Y-76940761D01*
X112236285Y-76940761D02*
X112093428Y-76797904D01*
X112093428Y-76797904D02*
X111998190Y-76750285D01*
X111998190Y-76750285D02*
X111902952Y-76750285D01*
X111950571Y-76988380D02*
X111855333Y-76940761D01*
X111855333Y-76940761D02*
X111760095Y-76845523D01*
X111760095Y-76845523D02*
X111712476Y-76655047D01*
X111712476Y-76655047D02*
X111712476Y-76321714D01*
X111712476Y-76321714D02*
X111760095Y-76131238D01*
X111760095Y-76131238D02*
X111855333Y-76036000D01*
X111855333Y-76036000D02*
X111950571Y-75988380D01*
X111950571Y-75988380D02*
X112141047Y-75988380D01*
X112141047Y-75988380D02*
X112236285Y-76036000D01*
X112236285Y-76036000D02*
X112331523Y-76131238D01*
X112331523Y-76131238D02*
X112379142Y-76321714D01*
X112379142Y-76321714D02*
X112379142Y-76655047D01*
X112379142Y-76655047D02*
X112331523Y-76845523D01*
X112331523Y-76845523D02*
X112236285Y-76940761D01*
X112236285Y-76940761D02*
X112141047Y-76988380D01*
X112141047Y-76988380D02*
X111950571Y-76988380D01*
X112760095Y-76083619D02*
X112807714Y-76036000D01*
X112807714Y-76036000D02*
X112902952Y-75988380D01*
X112902952Y-75988380D02*
X113141047Y-75988380D01*
X113141047Y-75988380D02*
X113236285Y-76036000D01*
X113236285Y-76036000D02*
X113283904Y-76083619D01*
X113283904Y-76083619D02*
X113331523Y-76178857D01*
X113331523Y-76178857D02*
X113331523Y-76274095D01*
X113331523Y-76274095D02*
X113283904Y-76416952D01*
X113283904Y-76416952D02*
X112712476Y-76988380D01*
X112712476Y-76988380D02*
X113331523Y-76988380D01*
X119665761Y-64891619D02*
X119570523Y-64844000D01*
X119570523Y-64844000D02*
X119475285Y-64748761D01*
X119475285Y-64748761D02*
X119332428Y-64605904D01*
X119332428Y-64605904D02*
X119237190Y-64558285D01*
X119237190Y-64558285D02*
X119141952Y-64558285D01*
X119189571Y-64796380D02*
X119094333Y-64748761D01*
X119094333Y-64748761D02*
X118999095Y-64653523D01*
X118999095Y-64653523D02*
X118951476Y-64463047D01*
X118951476Y-64463047D02*
X118951476Y-64129714D01*
X118951476Y-64129714D02*
X118999095Y-63939238D01*
X118999095Y-63939238D02*
X119094333Y-63844000D01*
X119094333Y-63844000D02*
X119189571Y-63796380D01*
X119189571Y-63796380D02*
X119380047Y-63796380D01*
X119380047Y-63796380D02*
X119475285Y-63844000D01*
X119475285Y-63844000D02*
X119570523Y-63939238D01*
X119570523Y-63939238D02*
X119618142Y-64129714D01*
X119618142Y-64129714D02*
X119618142Y-64463047D01*
X119618142Y-64463047D02*
X119570523Y-64653523D01*
X119570523Y-64653523D02*
X119475285Y-64748761D01*
X119475285Y-64748761D02*
X119380047Y-64796380D01*
X119380047Y-64796380D02*
X119189571Y-64796380D01*
X119951476Y-63796380D02*
X120570523Y-63796380D01*
X120570523Y-63796380D02*
X120237190Y-64177333D01*
X120237190Y-64177333D02*
X120380047Y-64177333D01*
X120380047Y-64177333D02*
X120475285Y-64224952D01*
X120475285Y-64224952D02*
X120522904Y-64272571D01*
X120522904Y-64272571D02*
X120570523Y-64367809D01*
X120570523Y-64367809D02*
X120570523Y-64605904D01*
X120570523Y-64605904D02*
X120522904Y-64701142D01*
X120522904Y-64701142D02*
X120475285Y-64748761D01*
X120475285Y-64748761D02*
X120380047Y-64796380D01*
X120380047Y-64796380D02*
X120094333Y-64796380D01*
X120094333Y-64796380D02*
X119999095Y-64748761D01*
X119999095Y-64748761D02*
X119951476Y-64701142D01*
X111752142Y-67932380D02*
X111418809Y-67456190D01*
X111180714Y-67932380D02*
X111180714Y-66932380D01*
X111180714Y-66932380D02*
X111561666Y-66932380D01*
X111561666Y-66932380D02*
X111656904Y-66980000D01*
X111656904Y-66980000D02*
X111704523Y-67027619D01*
X111704523Y-67027619D02*
X111752142Y-67122857D01*
X111752142Y-67122857D02*
X111752142Y-67265714D01*
X111752142Y-67265714D02*
X111704523Y-67360952D01*
X111704523Y-67360952D02*
X111656904Y-67408571D01*
X111656904Y-67408571D02*
X111561666Y-67456190D01*
X111561666Y-67456190D02*
X111180714Y-67456190D01*
X112133095Y-67027619D02*
X112180714Y-66980000D01*
X112180714Y-66980000D02*
X112275952Y-66932380D01*
X112275952Y-66932380D02*
X112514047Y-66932380D01*
X112514047Y-66932380D02*
X112609285Y-66980000D01*
X112609285Y-66980000D02*
X112656904Y-67027619D01*
X112656904Y-67027619D02*
X112704523Y-67122857D01*
X112704523Y-67122857D02*
X112704523Y-67218095D01*
X112704523Y-67218095D02*
X112656904Y-67360952D01*
X112656904Y-67360952D02*
X112085476Y-67932380D01*
X112085476Y-67932380D02*
X112704523Y-67932380D01*
X113323571Y-66932380D02*
X113418809Y-66932380D01*
X113418809Y-66932380D02*
X113514047Y-66980000D01*
X113514047Y-66980000D02*
X113561666Y-67027619D01*
X113561666Y-67027619D02*
X113609285Y-67122857D01*
X113609285Y-67122857D02*
X113656904Y-67313333D01*
X113656904Y-67313333D02*
X113656904Y-67551428D01*
X113656904Y-67551428D02*
X113609285Y-67741904D01*
X113609285Y-67741904D02*
X113561666Y-67837142D01*
X113561666Y-67837142D02*
X113514047Y-67884761D01*
X113514047Y-67884761D02*
X113418809Y-67932380D01*
X113418809Y-67932380D02*
X113323571Y-67932380D01*
X113323571Y-67932380D02*
X113228333Y-67884761D01*
X113228333Y-67884761D02*
X113180714Y-67837142D01*
X113180714Y-67837142D02*
X113133095Y-67741904D01*
X113133095Y-67741904D02*
X113085476Y-67551428D01*
X113085476Y-67551428D02*
X113085476Y-67313333D01*
X113085476Y-67313333D02*
X113133095Y-67122857D01*
X113133095Y-67122857D02*
X113180714Y-67027619D01*
X113180714Y-67027619D02*
X113228333Y-66980000D01*
X113228333Y-66980000D02*
X113323571Y-66932380D01*
X111752142Y-73137380D02*
X111418809Y-72661190D01*
X111180714Y-73137380D02*
X111180714Y-72137380D01*
X111180714Y-72137380D02*
X111561666Y-72137380D01*
X111561666Y-72137380D02*
X111656904Y-72185000D01*
X111656904Y-72185000D02*
X111704523Y-72232619D01*
X111704523Y-72232619D02*
X111752142Y-72327857D01*
X111752142Y-72327857D02*
X111752142Y-72470714D01*
X111752142Y-72470714D02*
X111704523Y-72565952D01*
X111704523Y-72565952D02*
X111656904Y-72613571D01*
X111656904Y-72613571D02*
X111561666Y-72661190D01*
X111561666Y-72661190D02*
X111180714Y-72661190D01*
X112133095Y-72232619D02*
X112180714Y-72185000D01*
X112180714Y-72185000D02*
X112275952Y-72137380D01*
X112275952Y-72137380D02*
X112514047Y-72137380D01*
X112514047Y-72137380D02*
X112609285Y-72185000D01*
X112609285Y-72185000D02*
X112656904Y-72232619D01*
X112656904Y-72232619D02*
X112704523Y-72327857D01*
X112704523Y-72327857D02*
X112704523Y-72423095D01*
X112704523Y-72423095D02*
X112656904Y-72565952D01*
X112656904Y-72565952D02*
X112085476Y-73137380D01*
X112085476Y-73137380D02*
X112704523Y-73137380D01*
X113037857Y-72137380D02*
X113704523Y-72137380D01*
X113704523Y-72137380D02*
X113275952Y-73137380D01*
X120762380Y-63888857D02*
X120286190Y-64222190D01*
X120762380Y-64460285D02*
X119762380Y-64460285D01*
X119762380Y-64460285D02*
X119762380Y-64079333D01*
X119762380Y-64079333D02*
X119810000Y-63984095D01*
X119810000Y-63984095D02*
X119857619Y-63936476D01*
X119857619Y-63936476D02*
X119952857Y-63888857D01*
X119952857Y-63888857D02*
X120095714Y-63888857D01*
X120095714Y-63888857D02*
X120190952Y-63936476D01*
X120190952Y-63936476D02*
X120238571Y-63984095D01*
X120238571Y-63984095D02*
X120286190Y-64079333D01*
X120286190Y-64079333D02*
X120286190Y-64460285D01*
X120095714Y-63031714D02*
X120762380Y-63031714D01*
X119714761Y-63269809D02*
X120429047Y-63507904D01*
X120429047Y-63507904D02*
X120429047Y-62888857D01*
X119762380Y-62317428D02*
X119762380Y-62222190D01*
X119762380Y-62222190D02*
X119810000Y-62126952D01*
X119810000Y-62126952D02*
X119857619Y-62079333D01*
X119857619Y-62079333D02*
X119952857Y-62031714D01*
X119952857Y-62031714D02*
X120143333Y-61984095D01*
X120143333Y-61984095D02*
X120381428Y-61984095D01*
X120381428Y-61984095D02*
X120571904Y-62031714D01*
X120571904Y-62031714D02*
X120667142Y-62079333D01*
X120667142Y-62079333D02*
X120714761Y-62126952D01*
X120714761Y-62126952D02*
X120762380Y-62222190D01*
X120762380Y-62222190D02*
X120762380Y-62317428D01*
X120762380Y-62317428D02*
X120714761Y-62412666D01*
X120714761Y-62412666D02*
X120667142Y-62460285D01*
X120667142Y-62460285D02*
X120571904Y-62507904D01*
X120571904Y-62507904D02*
X120381428Y-62555523D01*
X120381428Y-62555523D02*
X120143333Y-62555523D01*
X120143333Y-62555523D02*
X119952857Y-62507904D01*
X119952857Y-62507904D02*
X119857619Y-62460285D01*
X119857619Y-62460285D02*
X119810000Y-62412666D01*
X119810000Y-62412666D02*
X119762380Y-62317428D01*
X119494380Y-63888857D02*
X119018190Y-64222190D01*
X119494380Y-64460285D02*
X118494380Y-64460285D01*
X118494380Y-64460285D02*
X118494380Y-64079333D01*
X118494380Y-64079333D02*
X118542000Y-63984095D01*
X118542000Y-63984095D02*
X118589619Y-63936476D01*
X118589619Y-63936476D02*
X118684857Y-63888857D01*
X118684857Y-63888857D02*
X118827714Y-63888857D01*
X118827714Y-63888857D02*
X118922952Y-63936476D01*
X118922952Y-63936476D02*
X118970571Y-63984095D01*
X118970571Y-63984095D02*
X119018190Y-64079333D01*
X119018190Y-64079333D02*
X119018190Y-64460285D01*
X118827714Y-63031714D02*
X119494380Y-63031714D01*
X118446761Y-63269809D02*
X119161047Y-63507904D01*
X119161047Y-63507904D02*
X119161047Y-62888857D01*
X119494380Y-61984095D02*
X119494380Y-62555523D01*
X119494380Y-62269809D02*
X118494380Y-62269809D01*
X118494380Y-62269809D02*
X118637238Y-62365047D01*
X118637238Y-62365047D02*
X118732476Y-62460285D01*
X118732476Y-62460285D02*
X118780095Y-62555523D01*
X115562142Y-66027380D02*
X115228809Y-65551190D01*
X114990714Y-66027380D02*
X114990714Y-65027380D01*
X114990714Y-65027380D02*
X115371666Y-65027380D01*
X115371666Y-65027380D02*
X115466904Y-65075000D01*
X115466904Y-65075000D02*
X115514523Y-65122619D01*
X115514523Y-65122619D02*
X115562142Y-65217857D01*
X115562142Y-65217857D02*
X115562142Y-65360714D01*
X115562142Y-65360714D02*
X115514523Y-65455952D01*
X115514523Y-65455952D02*
X115466904Y-65503571D01*
X115466904Y-65503571D02*
X115371666Y-65551190D01*
X115371666Y-65551190D02*
X114990714Y-65551190D01*
X116419285Y-65360714D02*
X116419285Y-66027380D01*
X116181190Y-64979761D02*
X115943095Y-65694047D01*
X115943095Y-65694047D02*
X116562142Y-65694047D01*
X116895476Y-65122619D02*
X116943095Y-65075000D01*
X116943095Y-65075000D02*
X117038333Y-65027380D01*
X117038333Y-65027380D02*
X117276428Y-65027380D01*
X117276428Y-65027380D02*
X117371666Y-65075000D01*
X117371666Y-65075000D02*
X117419285Y-65122619D01*
X117419285Y-65122619D02*
X117466904Y-65217857D01*
X117466904Y-65217857D02*
X117466904Y-65313095D01*
X117466904Y-65313095D02*
X117419285Y-65455952D01*
X117419285Y-65455952D02*
X116847857Y-66027380D01*
X116847857Y-66027380D02*
X117466904Y-66027380D01*
X131151333Y-75677380D02*
X130818000Y-75201190D01*
X130579905Y-75677380D02*
X130579905Y-74677380D01*
X130579905Y-74677380D02*
X130960857Y-74677380D01*
X130960857Y-74677380D02*
X131056095Y-74725000D01*
X131056095Y-74725000D02*
X131103714Y-74772619D01*
X131103714Y-74772619D02*
X131151333Y-74867857D01*
X131151333Y-74867857D02*
X131151333Y-75010714D01*
X131151333Y-75010714D02*
X131103714Y-75105952D01*
X131103714Y-75105952D02*
X131056095Y-75153571D01*
X131056095Y-75153571D02*
X130960857Y-75201190D01*
X130960857Y-75201190D02*
X130579905Y-75201190D01*
X132103714Y-75677380D02*
X131532286Y-75677380D01*
X131818000Y-75677380D02*
X131818000Y-74677380D01*
X131818000Y-74677380D02*
X131722762Y-74820238D01*
X131722762Y-74820238D02*
X131627524Y-74915476D01*
X131627524Y-74915476D02*
X131532286Y-74963095D01*
X126706333Y-77582380D02*
X126373000Y-77106190D01*
X126134905Y-77582380D02*
X126134905Y-76582380D01*
X126134905Y-76582380D02*
X126515857Y-76582380D01*
X126515857Y-76582380D02*
X126611095Y-76630000D01*
X126611095Y-76630000D02*
X126658714Y-76677619D01*
X126658714Y-76677619D02*
X126706333Y-76772857D01*
X126706333Y-76772857D02*
X126706333Y-76915714D01*
X126706333Y-76915714D02*
X126658714Y-77010952D01*
X126658714Y-77010952D02*
X126611095Y-77058571D01*
X126611095Y-77058571D02*
X126515857Y-77106190D01*
X126515857Y-77106190D02*
X126134905Y-77106190D01*
X127087286Y-76677619D02*
X127134905Y-76630000D01*
X127134905Y-76630000D02*
X127230143Y-76582380D01*
X127230143Y-76582380D02*
X127468238Y-76582380D01*
X127468238Y-76582380D02*
X127563476Y-76630000D01*
X127563476Y-76630000D02*
X127611095Y-76677619D01*
X127611095Y-76677619D02*
X127658714Y-76772857D01*
X127658714Y-76772857D02*
X127658714Y-76868095D01*
X127658714Y-76868095D02*
X127611095Y-77010952D01*
X127611095Y-77010952D02*
X127039667Y-77582380D01*
X127039667Y-77582380D02*
X127658714Y-77582380D01*
X126706333Y-75677380D02*
X126373000Y-75201190D01*
X126134905Y-75677380D02*
X126134905Y-74677380D01*
X126134905Y-74677380D02*
X126515857Y-74677380D01*
X126515857Y-74677380D02*
X126611095Y-74725000D01*
X126611095Y-74725000D02*
X126658714Y-74772619D01*
X126658714Y-74772619D02*
X126706333Y-74867857D01*
X126706333Y-74867857D02*
X126706333Y-75010714D01*
X126706333Y-75010714D02*
X126658714Y-75105952D01*
X126658714Y-75105952D02*
X126611095Y-75153571D01*
X126611095Y-75153571D02*
X126515857Y-75201190D01*
X126515857Y-75201190D02*
X126134905Y-75201190D01*
X127039667Y-74677380D02*
X127658714Y-74677380D01*
X127658714Y-74677380D02*
X127325381Y-75058333D01*
X127325381Y-75058333D02*
X127468238Y-75058333D01*
X127468238Y-75058333D02*
X127563476Y-75105952D01*
X127563476Y-75105952D02*
X127611095Y-75153571D01*
X127611095Y-75153571D02*
X127658714Y-75248809D01*
X127658714Y-75248809D02*
X127658714Y-75486904D01*
X127658714Y-75486904D02*
X127611095Y-75582142D01*
X127611095Y-75582142D02*
X127563476Y-75629761D01*
X127563476Y-75629761D02*
X127468238Y-75677380D01*
X127468238Y-75677380D02*
X127182524Y-75677380D01*
X127182524Y-75677380D02*
X127087286Y-75629761D01*
X127087286Y-75629761D02*
X127039667Y-75582142D01*
X133688333Y-77457380D02*
X133355000Y-76981190D01*
X133116905Y-77457380D02*
X133116905Y-76457380D01*
X133116905Y-76457380D02*
X133497857Y-76457380D01*
X133497857Y-76457380D02*
X133593095Y-76505000D01*
X133593095Y-76505000D02*
X133640714Y-76552619D01*
X133640714Y-76552619D02*
X133688333Y-76647857D01*
X133688333Y-76647857D02*
X133688333Y-76790714D01*
X133688333Y-76790714D02*
X133640714Y-76885952D01*
X133640714Y-76885952D02*
X133593095Y-76933571D01*
X133593095Y-76933571D02*
X133497857Y-76981190D01*
X133497857Y-76981190D02*
X133116905Y-76981190D01*
X134545476Y-76457380D02*
X134355000Y-76457380D01*
X134355000Y-76457380D02*
X134259762Y-76505000D01*
X134259762Y-76505000D02*
X134212143Y-76552619D01*
X134212143Y-76552619D02*
X134116905Y-76695476D01*
X134116905Y-76695476D02*
X134069286Y-76885952D01*
X134069286Y-76885952D02*
X134069286Y-77266904D01*
X134069286Y-77266904D02*
X134116905Y-77362142D01*
X134116905Y-77362142D02*
X134164524Y-77409761D01*
X134164524Y-77409761D02*
X134259762Y-77457380D01*
X134259762Y-77457380D02*
X134450238Y-77457380D01*
X134450238Y-77457380D02*
X134545476Y-77409761D01*
X134545476Y-77409761D02*
X134593095Y-77362142D01*
X134593095Y-77362142D02*
X134640714Y-77266904D01*
X134640714Y-77266904D02*
X134640714Y-77028809D01*
X134640714Y-77028809D02*
X134593095Y-76933571D01*
X134593095Y-76933571D02*
X134545476Y-76885952D01*
X134545476Y-76885952D02*
X134450238Y-76838333D01*
X134450238Y-76838333D02*
X134259762Y-76838333D01*
X134259762Y-76838333D02*
X134164524Y-76885952D01*
X134164524Y-76885952D02*
X134116905Y-76933571D01*
X134116905Y-76933571D02*
X134069286Y-77028809D01*
X123302380Y-71000857D02*
X122826190Y-71334190D01*
X123302380Y-71572285D02*
X122302380Y-71572285D01*
X122302380Y-71572285D02*
X122302380Y-71191333D01*
X122302380Y-71191333D02*
X122350000Y-71096095D01*
X122350000Y-71096095D02*
X122397619Y-71048476D01*
X122397619Y-71048476D02*
X122492857Y-71000857D01*
X122492857Y-71000857D02*
X122635714Y-71000857D01*
X122635714Y-71000857D02*
X122730952Y-71048476D01*
X122730952Y-71048476D02*
X122778571Y-71096095D01*
X122778571Y-71096095D02*
X122826190Y-71191333D01*
X122826190Y-71191333D02*
X122826190Y-71572285D01*
X123302380Y-70048476D02*
X123302380Y-70619904D01*
X123302380Y-70334190D02*
X122302380Y-70334190D01*
X122302380Y-70334190D02*
X122445238Y-70429428D01*
X122445238Y-70429428D02*
X122540476Y-70524666D01*
X122540476Y-70524666D02*
X122588095Y-70619904D01*
X122302380Y-69191333D02*
X122302380Y-69381809D01*
X122302380Y-69381809D02*
X122350000Y-69477047D01*
X122350000Y-69477047D02*
X122397619Y-69524666D01*
X122397619Y-69524666D02*
X122540476Y-69619904D01*
X122540476Y-69619904D02*
X122730952Y-69667523D01*
X122730952Y-69667523D02*
X123111904Y-69667523D01*
X123111904Y-69667523D02*
X123207142Y-69619904D01*
X123207142Y-69619904D02*
X123254761Y-69572285D01*
X123254761Y-69572285D02*
X123302380Y-69477047D01*
X123302380Y-69477047D02*
X123302380Y-69286571D01*
X123302380Y-69286571D02*
X123254761Y-69191333D01*
X123254761Y-69191333D02*
X123207142Y-69143714D01*
X123207142Y-69143714D02*
X123111904Y-69096095D01*
X123111904Y-69096095D02*
X122873809Y-69096095D01*
X122873809Y-69096095D02*
X122778571Y-69143714D01*
X122778571Y-69143714D02*
X122730952Y-69191333D01*
X122730952Y-69191333D02*
X122683333Y-69286571D01*
X122683333Y-69286571D02*
X122683333Y-69477047D01*
X122683333Y-69477047D02*
X122730952Y-69572285D01*
X122730952Y-69572285D02*
X122778571Y-69619904D01*
X122778571Y-69619904D02*
X122873809Y-69667523D01*
X130672142Y-78217380D02*
X130338809Y-77741190D01*
X130100714Y-78217380D02*
X130100714Y-77217380D01*
X130100714Y-77217380D02*
X130481666Y-77217380D01*
X130481666Y-77217380D02*
X130576904Y-77265000D01*
X130576904Y-77265000D02*
X130624523Y-77312619D01*
X130624523Y-77312619D02*
X130672142Y-77407857D01*
X130672142Y-77407857D02*
X130672142Y-77550714D01*
X130672142Y-77550714D02*
X130624523Y-77645952D01*
X130624523Y-77645952D02*
X130576904Y-77693571D01*
X130576904Y-77693571D02*
X130481666Y-77741190D01*
X130481666Y-77741190D02*
X130100714Y-77741190D01*
X131624523Y-78217380D02*
X131053095Y-78217380D01*
X131338809Y-78217380D02*
X131338809Y-77217380D01*
X131338809Y-77217380D02*
X131243571Y-77360238D01*
X131243571Y-77360238D02*
X131148333Y-77455476D01*
X131148333Y-77455476D02*
X131053095Y-77503095D01*
X131957857Y-77217380D02*
X132624523Y-77217380D01*
X132624523Y-77217380D02*
X132195952Y-78217380D01*
X171857380Y-61166333D02*
X172571666Y-61166333D01*
X172571666Y-61166333D02*
X172714523Y-61213952D01*
X172714523Y-61213952D02*
X172809761Y-61309190D01*
X172809761Y-61309190D02*
X172857380Y-61452047D01*
X172857380Y-61452047D02*
X172857380Y-61547285D01*
X172190714Y-60261571D02*
X172857380Y-60261571D01*
X171809761Y-60499666D02*
X172524047Y-60737761D01*
X172524047Y-60737761D02*
X172524047Y-60118714D01*
X118025380Y-80851333D02*
X118739666Y-80851333D01*
X118739666Y-80851333D02*
X118882523Y-80898952D01*
X118882523Y-80898952D02*
X118977761Y-80994190D01*
X118977761Y-80994190D02*
X119025380Y-81137047D01*
X119025380Y-81137047D02*
X119025380Y-81232285D01*
X118025380Y-80470380D02*
X118025380Y-79803714D01*
X118025380Y-79803714D02*
X119025380Y-80232285D01*
X181064380Y-80851333D02*
X181778666Y-80851333D01*
X181778666Y-80851333D02*
X181921523Y-80898952D01*
X181921523Y-80898952D02*
X182016761Y-80994190D01*
X182016761Y-80994190D02*
X182064380Y-81137047D01*
X182064380Y-81137047D02*
X182064380Y-81232285D01*
X182064380Y-79851333D02*
X182064380Y-80422761D01*
X182064380Y-80137047D02*
X181064380Y-80137047D01*
X181064380Y-80137047D02*
X181207238Y-80232285D01*
X181207238Y-80232285D02*
X181302476Y-80327523D01*
X181302476Y-80327523D02*
X181350095Y-80422761D01*
X114074380Y-75064857D02*
X113598190Y-75398190D01*
X114074380Y-75636285D02*
X113074380Y-75636285D01*
X113074380Y-75636285D02*
X113074380Y-75255333D01*
X113074380Y-75255333D02*
X113122000Y-75160095D01*
X113122000Y-75160095D02*
X113169619Y-75112476D01*
X113169619Y-75112476D02*
X113264857Y-75064857D01*
X113264857Y-75064857D02*
X113407714Y-75064857D01*
X113407714Y-75064857D02*
X113502952Y-75112476D01*
X113502952Y-75112476D02*
X113550571Y-75160095D01*
X113550571Y-75160095D02*
X113598190Y-75255333D01*
X113598190Y-75255333D02*
X113598190Y-75636285D01*
X113074380Y-74731523D02*
X113074380Y-74112476D01*
X113074380Y-74112476D02*
X113455333Y-74445809D01*
X113455333Y-74445809D02*
X113455333Y-74302952D01*
X113455333Y-74302952D02*
X113502952Y-74207714D01*
X113502952Y-74207714D02*
X113550571Y-74160095D01*
X113550571Y-74160095D02*
X113645809Y-74112476D01*
X113645809Y-74112476D02*
X113883904Y-74112476D01*
X113883904Y-74112476D02*
X113979142Y-74160095D01*
X113979142Y-74160095D02*
X114026761Y-74207714D01*
X114026761Y-74207714D02*
X114074380Y-74302952D01*
X114074380Y-74302952D02*
X114074380Y-74588666D01*
X114074380Y-74588666D02*
X114026761Y-74683904D01*
X114026761Y-74683904D02*
X113979142Y-74731523D01*
X113502952Y-73541047D02*
X113455333Y-73636285D01*
X113455333Y-73636285D02*
X113407714Y-73683904D01*
X113407714Y-73683904D02*
X113312476Y-73731523D01*
X113312476Y-73731523D02*
X113264857Y-73731523D01*
X113264857Y-73731523D02*
X113169619Y-73683904D01*
X113169619Y-73683904D02*
X113122000Y-73636285D01*
X113122000Y-73636285D02*
X113074380Y-73541047D01*
X113074380Y-73541047D02*
X113074380Y-73350571D01*
X113074380Y-73350571D02*
X113122000Y-73255333D01*
X113122000Y-73255333D02*
X113169619Y-73207714D01*
X113169619Y-73207714D02*
X113264857Y-73160095D01*
X113264857Y-73160095D02*
X113312476Y-73160095D01*
X113312476Y-73160095D02*
X113407714Y-73207714D01*
X113407714Y-73207714D02*
X113455333Y-73255333D01*
X113455333Y-73255333D02*
X113502952Y-73350571D01*
X113502952Y-73350571D02*
X113502952Y-73541047D01*
X113502952Y-73541047D02*
X113550571Y-73636285D01*
X113550571Y-73636285D02*
X113598190Y-73683904D01*
X113598190Y-73683904D02*
X113693428Y-73731523D01*
X113693428Y-73731523D02*
X113883904Y-73731523D01*
X113883904Y-73731523D02*
X113979142Y-73683904D01*
X113979142Y-73683904D02*
X114026761Y-73636285D01*
X114026761Y-73636285D02*
X114074380Y-73541047D01*
X114074380Y-73541047D02*
X114074380Y-73350571D01*
X114074380Y-73350571D02*
X114026761Y-73255333D01*
X114026761Y-73255333D02*
X113979142Y-73207714D01*
X113979142Y-73207714D02*
X113883904Y-73160095D01*
X113883904Y-73160095D02*
X113693428Y-73160095D01*
X113693428Y-73160095D02*
X113598190Y-73207714D01*
X113598190Y-73207714D02*
X113550571Y-73255333D01*
X113550571Y-73255333D02*
X113502952Y-73350571D01*
X112720380Y-75064857D02*
X112244190Y-75398190D01*
X112720380Y-75636285D02*
X111720380Y-75636285D01*
X111720380Y-75636285D02*
X111720380Y-75255333D01*
X111720380Y-75255333D02*
X111768000Y-75160095D01*
X111768000Y-75160095D02*
X111815619Y-75112476D01*
X111815619Y-75112476D02*
X111910857Y-75064857D01*
X111910857Y-75064857D02*
X112053714Y-75064857D01*
X112053714Y-75064857D02*
X112148952Y-75112476D01*
X112148952Y-75112476D02*
X112196571Y-75160095D01*
X112196571Y-75160095D02*
X112244190Y-75255333D01*
X112244190Y-75255333D02*
X112244190Y-75636285D01*
X111720380Y-74731523D02*
X111720380Y-74112476D01*
X111720380Y-74112476D02*
X112101333Y-74445809D01*
X112101333Y-74445809D02*
X112101333Y-74302952D01*
X112101333Y-74302952D02*
X112148952Y-74207714D01*
X112148952Y-74207714D02*
X112196571Y-74160095D01*
X112196571Y-74160095D02*
X112291809Y-74112476D01*
X112291809Y-74112476D02*
X112529904Y-74112476D01*
X112529904Y-74112476D02*
X112625142Y-74160095D01*
X112625142Y-74160095D02*
X112672761Y-74207714D01*
X112672761Y-74207714D02*
X112720380Y-74302952D01*
X112720380Y-74302952D02*
X112720380Y-74588666D01*
X112720380Y-74588666D02*
X112672761Y-74683904D01*
X112672761Y-74683904D02*
X112625142Y-74731523D01*
X112720380Y-73636285D02*
X112720380Y-73445809D01*
X112720380Y-73445809D02*
X112672761Y-73350571D01*
X112672761Y-73350571D02*
X112625142Y-73302952D01*
X112625142Y-73302952D02*
X112482285Y-73207714D01*
X112482285Y-73207714D02*
X112291809Y-73160095D01*
X112291809Y-73160095D02*
X111910857Y-73160095D01*
X111910857Y-73160095D02*
X111815619Y-73207714D01*
X111815619Y-73207714D02*
X111768000Y-73255333D01*
X111768000Y-73255333D02*
X111720380Y-73350571D01*
X111720380Y-73350571D02*
X111720380Y-73541047D01*
X111720380Y-73541047D02*
X111768000Y-73636285D01*
X111768000Y-73636285D02*
X111815619Y-73683904D01*
X111815619Y-73683904D02*
X111910857Y-73731523D01*
X111910857Y-73731523D02*
X112148952Y-73731523D01*
X112148952Y-73731523D02*
X112244190Y-73683904D01*
X112244190Y-73683904D02*
X112291809Y-73636285D01*
X112291809Y-73636285D02*
X112339428Y-73541047D01*
X112339428Y-73541047D02*
X112339428Y-73350571D01*
X112339428Y-73350571D02*
X112291809Y-73255333D01*
X112291809Y-73255333D02*
X112244190Y-73207714D01*
X112244190Y-73207714D02*
X112148952Y-73160095D01*
X103251095Y-77939380D02*
X103251095Y-76939380D01*
X103251095Y-77415571D02*
X103822523Y-77415571D01*
X103822523Y-77939380D02*
X103822523Y-76939380D01*
X104203476Y-76939380D02*
X104822523Y-76939380D01*
X104822523Y-76939380D02*
X104489190Y-77320333D01*
X104489190Y-77320333D02*
X104632047Y-77320333D01*
X104632047Y-77320333D02*
X104727285Y-77367952D01*
X104727285Y-77367952D02*
X104774904Y-77415571D01*
X104774904Y-77415571D02*
X104822523Y-77510809D01*
X104822523Y-77510809D02*
X104822523Y-77748904D01*
X104822523Y-77748904D02*
X104774904Y-77844142D01*
X104774904Y-77844142D02*
X104727285Y-77891761D01*
X104727285Y-77891761D02*
X104632047Y-77939380D01*
X104632047Y-77939380D02*
X104346333Y-77939380D01*
X104346333Y-77939380D02*
X104251095Y-77891761D01*
X104251095Y-77891761D02*
X104203476Y-77844142D01*
X182753095Y-84212380D02*
X182753095Y-83212380D01*
X182753095Y-83688571D02*
X183324523Y-83688571D01*
X183324523Y-84212380D02*
X183324523Y-83212380D01*
X184229285Y-83545714D02*
X184229285Y-84212380D01*
X183991190Y-83164761D02*
X183753095Y-83879047D01*
X183753095Y-83879047D02*
X184372142Y-83879047D01*
X111997619Y-63214238D02*
X111950000Y-63309476D01*
X111950000Y-63309476D02*
X111854761Y-63404714D01*
X111854761Y-63404714D02*
X111711904Y-63547571D01*
X111711904Y-63547571D02*
X111664285Y-63642809D01*
X111664285Y-63642809D02*
X111664285Y-63738047D01*
X111902380Y-63690428D02*
X111854761Y-63785666D01*
X111854761Y-63785666D02*
X111759523Y-63880904D01*
X111759523Y-63880904D02*
X111569047Y-63928523D01*
X111569047Y-63928523D02*
X111235714Y-63928523D01*
X111235714Y-63928523D02*
X111045238Y-63880904D01*
X111045238Y-63880904D02*
X110950000Y-63785666D01*
X110950000Y-63785666D02*
X110902380Y-63690428D01*
X110902380Y-63690428D02*
X110902380Y-63499952D01*
X110902380Y-63499952D02*
X110950000Y-63404714D01*
X110950000Y-63404714D02*
X111045238Y-63309476D01*
X111045238Y-63309476D02*
X111235714Y-63261857D01*
X111235714Y-63261857D02*
X111569047Y-63261857D01*
X111569047Y-63261857D02*
X111759523Y-63309476D01*
X111759523Y-63309476D02*
X111854761Y-63404714D01*
X111854761Y-63404714D02*
X111902380Y-63499952D01*
X111902380Y-63499952D02*
X111902380Y-63690428D01*
X111902380Y-62309476D02*
X111902380Y-62880904D01*
X111902380Y-62595190D02*
X110902380Y-62595190D01*
X110902380Y-62595190D02*
X111045238Y-62690428D01*
X111045238Y-62690428D02*
X111140476Y-62785666D01*
X111140476Y-62785666D02*
X111188095Y-62880904D01*
X164301142Y-80779857D02*
X164348761Y-80827476D01*
X164348761Y-80827476D02*
X164396380Y-80970333D01*
X164396380Y-80970333D02*
X164396380Y-81065571D01*
X164396380Y-81065571D02*
X164348761Y-81208428D01*
X164348761Y-81208428D02*
X164253523Y-81303666D01*
X164253523Y-81303666D02*
X164158285Y-81351285D01*
X164158285Y-81351285D02*
X163967809Y-81398904D01*
X163967809Y-81398904D02*
X163824952Y-81398904D01*
X163824952Y-81398904D02*
X163634476Y-81351285D01*
X163634476Y-81351285D02*
X163539238Y-81303666D01*
X163539238Y-81303666D02*
X163444000Y-81208428D01*
X163444000Y-81208428D02*
X163396380Y-81065571D01*
X163396380Y-81065571D02*
X163396380Y-80970333D01*
X163396380Y-80970333D02*
X163444000Y-80827476D01*
X163444000Y-80827476D02*
X163491619Y-80779857D01*
X164396380Y-79827476D02*
X164396380Y-80398904D01*
X164396380Y-80113190D02*
X163396380Y-80113190D01*
X163396380Y-80113190D02*
X163539238Y-80208428D01*
X163539238Y-80208428D02*
X163634476Y-80303666D01*
X163634476Y-80303666D02*
X163682095Y-80398904D01*
X163729714Y-78970333D02*
X164396380Y-78970333D01*
X163348761Y-79208428D02*
X164063047Y-79446523D01*
X164063047Y-79446523D02*
X164063047Y-78827476D01*
X160894380Y-81367238D02*
X160418190Y-81700571D01*
X160894380Y-81938666D02*
X159894380Y-81938666D01*
X159894380Y-81938666D02*
X159894380Y-81557714D01*
X159894380Y-81557714D02*
X159942000Y-81462476D01*
X159942000Y-81462476D02*
X159989619Y-81414857D01*
X159989619Y-81414857D02*
X160084857Y-81367238D01*
X160084857Y-81367238D02*
X160227714Y-81367238D01*
X160227714Y-81367238D02*
X160322952Y-81414857D01*
X160322952Y-81414857D02*
X160370571Y-81462476D01*
X160370571Y-81462476D02*
X160418190Y-81557714D01*
X160418190Y-81557714D02*
X160418190Y-81938666D01*
X160370571Y-80605333D02*
X160370571Y-80938666D01*
X160894380Y-80938666D02*
X159894380Y-80938666D01*
X159894380Y-80938666D02*
X159894380Y-80462476D01*
X159989619Y-80129142D02*
X159942000Y-80081523D01*
X159942000Y-80081523D02*
X159894380Y-79986285D01*
X159894380Y-79986285D02*
X159894380Y-79748190D01*
X159894380Y-79748190D02*
X159942000Y-79652952D01*
X159942000Y-79652952D02*
X159989619Y-79605333D01*
X159989619Y-79605333D02*
X160084857Y-79557714D01*
X160084857Y-79557714D02*
X160180095Y-79557714D01*
X160180095Y-79557714D02*
X160322952Y-79605333D01*
X160322952Y-79605333D02*
X160894380Y-80176761D01*
X160894380Y-80176761D02*
X160894380Y-79557714D01*
X155435380Y-81367238D02*
X154959190Y-81700571D01*
X155435380Y-81938666D02*
X154435380Y-81938666D01*
X154435380Y-81938666D02*
X154435380Y-81557714D01*
X154435380Y-81557714D02*
X154483000Y-81462476D01*
X154483000Y-81462476D02*
X154530619Y-81414857D01*
X154530619Y-81414857D02*
X154625857Y-81367238D01*
X154625857Y-81367238D02*
X154768714Y-81367238D01*
X154768714Y-81367238D02*
X154863952Y-81414857D01*
X154863952Y-81414857D02*
X154911571Y-81462476D01*
X154911571Y-81462476D02*
X154959190Y-81557714D01*
X154959190Y-81557714D02*
X154959190Y-81938666D01*
X154911571Y-80605333D02*
X154911571Y-80938666D01*
X155435380Y-80938666D02*
X154435380Y-80938666D01*
X154435380Y-80938666D02*
X154435380Y-80462476D01*
X155435380Y-79557714D02*
X155435380Y-80129142D01*
X155435380Y-79843428D02*
X154435380Y-79843428D01*
X154435380Y-79843428D02*
X154578238Y-79938666D01*
X154578238Y-79938666D02*
X154673476Y-80033904D01*
X154673476Y-80033904D02*
X154721095Y-80129142D01*
X150994333Y-70608380D02*
X150518143Y-70608380D01*
X150518143Y-70608380D02*
X150518143Y-69608380D01*
X151756238Y-69941714D02*
X151756238Y-70608380D01*
X151518143Y-69560761D02*
X151280048Y-70275047D01*
X151280048Y-70275047D02*
X151899095Y-70275047D01*
X157884905Y-78551380D02*
X157884905Y-77551380D01*
X157884905Y-77551380D02*
X158123000Y-77551380D01*
X158123000Y-77551380D02*
X158265857Y-77599000D01*
X158265857Y-77599000D02*
X158361095Y-77694238D01*
X158361095Y-77694238D02*
X158408714Y-77789476D01*
X158408714Y-77789476D02*
X158456333Y-77979952D01*
X158456333Y-77979952D02*
X158456333Y-78122809D01*
X158456333Y-78122809D02*
X158408714Y-78313285D01*
X158408714Y-78313285D02*
X158361095Y-78408523D01*
X158361095Y-78408523D02*
X158265857Y-78503761D01*
X158265857Y-78503761D02*
X158123000Y-78551380D01*
X158123000Y-78551380D02*
X157884905Y-78551380D01*
X158789667Y-77551380D02*
X159456333Y-77551380D01*
X159456333Y-77551380D02*
X159027762Y-78551380D01*
X159118380Y-70619857D02*
X158642190Y-70953190D01*
X159118380Y-71191285D02*
X158118380Y-71191285D01*
X158118380Y-71191285D02*
X158118380Y-70810333D01*
X158118380Y-70810333D02*
X158166000Y-70715095D01*
X158166000Y-70715095D02*
X158213619Y-70667476D01*
X158213619Y-70667476D02*
X158308857Y-70619857D01*
X158308857Y-70619857D02*
X158451714Y-70619857D01*
X158451714Y-70619857D02*
X158546952Y-70667476D01*
X158546952Y-70667476D02*
X158594571Y-70715095D01*
X158594571Y-70715095D02*
X158642190Y-70810333D01*
X158642190Y-70810333D02*
X158642190Y-71191285D01*
X158213619Y-70238904D02*
X158166000Y-70191285D01*
X158166000Y-70191285D02*
X158118380Y-70096047D01*
X158118380Y-70096047D02*
X158118380Y-69857952D01*
X158118380Y-69857952D02*
X158166000Y-69762714D01*
X158166000Y-69762714D02*
X158213619Y-69715095D01*
X158213619Y-69715095D02*
X158308857Y-69667476D01*
X158308857Y-69667476D02*
X158404095Y-69667476D01*
X158404095Y-69667476D02*
X158546952Y-69715095D01*
X158546952Y-69715095D02*
X159118380Y-70286523D01*
X159118380Y-70286523D02*
X159118380Y-69667476D01*
X158213619Y-69286523D02*
X158166000Y-69238904D01*
X158166000Y-69238904D02*
X158118380Y-69143666D01*
X158118380Y-69143666D02*
X158118380Y-68905571D01*
X158118380Y-68905571D02*
X158166000Y-68810333D01*
X158166000Y-68810333D02*
X158213619Y-68762714D01*
X158213619Y-68762714D02*
X158308857Y-68715095D01*
X158308857Y-68715095D02*
X158404095Y-68715095D01*
X158404095Y-68715095D02*
X158546952Y-68762714D01*
X158546952Y-68762714D02*
X159118380Y-69334142D01*
X159118380Y-69334142D02*
X159118380Y-68715095D01*
X150749095Y-75861380D02*
X150749095Y-76670904D01*
X150749095Y-76670904D02*
X150796714Y-76766142D01*
X150796714Y-76766142D02*
X150844333Y-76813761D01*
X150844333Y-76813761D02*
X150939571Y-76861380D01*
X150939571Y-76861380D02*
X151130047Y-76861380D01*
X151130047Y-76861380D02*
X151225285Y-76813761D01*
X151225285Y-76813761D02*
X151272904Y-76766142D01*
X151272904Y-76766142D02*
X151320523Y-76670904D01*
X151320523Y-76670904D02*
X151320523Y-75861380D01*
X152225285Y-76194714D02*
X152225285Y-76861380D01*
X151987190Y-75813761D02*
X151749095Y-76528047D01*
X151749095Y-76528047D02*
X152368142Y-76528047D01*
D11*
X141811252Y-70760000D02*
X140388748Y-70760000D01*
X141811252Y-68940000D02*
X140388748Y-68940000D01*
X133625000Y-62153748D02*
X133625000Y-63576252D01*
X131805000Y-62153748D02*
X131805000Y-63576252D01*
X185187000Y-67614748D02*
X185187000Y-69037252D01*
X183367000Y-67614748D02*
X183367000Y-69037252D01*
X119782000Y-78409748D02*
X119782000Y-79832252D01*
X117962000Y-78409748D02*
X117962000Y-79832252D01*
X126386000Y-62153748D02*
X126386000Y-63576252D01*
X124566000Y-62153748D02*
X124566000Y-63576252D01*
X167365000Y-71577252D02*
X167365000Y-70154748D01*
X169185000Y-71577252D02*
X169185000Y-70154748D01*
X183367000Y-73990252D02*
X183367000Y-72567748D01*
X185187000Y-73990252D02*
X185187000Y-72567748D01*
X176029252Y-75792000D02*
X175506748Y-75792000D01*
X176029252Y-74322000D02*
X175506748Y-74322000D01*
X171810000Y-74068252D02*
X171810000Y-72645748D01*
X173630000Y-74068252D02*
X173630000Y-72645748D01*
X128799000Y-62153748D02*
X128799000Y-63576252D01*
X126979000Y-62153748D02*
X126979000Y-63576252D01*
X139966752Y-67521500D02*
X138544248Y-67521500D01*
X139966752Y-65701500D02*
X138544248Y-65701500D01*
X117737000Y-77342000D02*
X120007000Y-77342000D01*
X120007000Y-77342000D02*
X120007000Y-73457000D01*
X117737000Y-73457000D02*
X117737000Y-77342000D01*
X122563000Y-77342000D02*
X124833000Y-77342000D01*
X124833000Y-77342000D02*
X124833000Y-73457000D01*
X122563000Y-73457000D02*
X122563000Y-77342000D01*
X122020000Y-74194936D02*
X122020000Y-74649064D01*
X120550000Y-74194936D02*
X120550000Y-74649064D01*
X127100064Y-72490000D02*
X126645936Y-72490000D01*
X127100064Y-71020000D02*
X126645936Y-71020000D01*
X132434064Y-81507000D02*
X131979936Y-81507000D01*
X132434064Y-80037000D02*
X131979936Y-80037000D01*
X138152064Y-74395000D02*
X137697936Y-74395000D01*
X138152064Y-72925000D02*
X137697936Y-72925000D01*
X180821000Y-75464936D02*
X180821000Y-75919064D01*
X179351000Y-75464936D02*
X179351000Y-75919064D01*
X138149064Y-76681000D02*
X137694936Y-76681000D01*
X138149064Y-75211000D02*
X137694936Y-75211000D01*
X173000936Y-76354000D02*
X173455064Y-76354000D01*
X173000936Y-77824000D02*
X173455064Y-77824000D01*
X147220000Y-69476252D02*
X147220000Y-68953748D01*
X148690000Y-69476252D02*
X148690000Y-68953748D01*
X156189000Y-63449252D02*
X156189000Y-62026748D01*
X158009000Y-63449252D02*
X158009000Y-62026748D01*
X163047000Y-63452252D02*
X163047000Y-62029748D01*
X164867000Y-63452252D02*
X164867000Y-62029748D01*
X158475000Y-63446252D02*
X158475000Y-62023748D01*
X160295000Y-63446252D02*
X160295000Y-62023748D01*
X160761000Y-63449252D02*
X160761000Y-62026748D01*
X162581000Y-63449252D02*
X162581000Y-62026748D01*
X123973000Y-62153748D02*
X123973000Y-63576252D01*
X122153000Y-62153748D02*
X122153000Y-63576252D01*
X143870000Y-63654252D02*
X143870000Y-62231748D01*
X145690000Y-63654252D02*
X145690000Y-62231748D01*
X157761000Y-67283064D02*
X157761000Y-66828936D01*
X159231000Y-67283064D02*
X159231000Y-66828936D01*
X157761000Y-70204064D02*
X157761000Y-69749936D01*
X159231000Y-70204064D02*
X159231000Y-69749936D01*
X137694936Y-77497000D02*
X138149064Y-77497000D01*
X137694936Y-78967000D02*
X138149064Y-78967000D01*
X131212000Y-62104748D02*
X131212000Y-63527252D01*
X129392000Y-62104748D02*
X129392000Y-63527252D01*
X176050000Y-62685000D02*
X176050000Y-62940000D01*
X176050000Y-62940000D02*
X174385000Y-62940000D01*
X176050000Y-73205000D02*
X176050000Y-72950000D01*
X178435000Y-62685000D02*
X176050000Y-62685000D01*
X178435000Y-62685000D02*
X180820000Y-62685000D01*
X178435000Y-73205000D02*
X176050000Y-73205000D01*
X178435000Y-73205000D02*
X180820000Y-73205000D01*
X180820000Y-62685000D02*
X180820000Y-62940000D01*
X180820000Y-73205000D02*
X180820000Y-72950000D01*
X171296000Y-70511936D02*
X171296000Y-70966064D01*
X169826000Y-70511936D02*
X169826000Y-70966064D01*
X132510000Y-71960000D02*
X132510000Y-71485000D01*
X132985000Y-67740000D02*
X132510000Y-67740000D01*
X132985000Y-71960000D02*
X132510000Y-71960000D01*
X136255000Y-67740000D02*
X136730000Y-67740000D01*
X136255000Y-71960000D02*
X136730000Y-71960000D01*
X136730000Y-67740000D02*
X136730000Y-68215000D01*
X136730000Y-71960000D02*
X136730000Y-71485000D01*
D10*
X134245000Y-80372000D02*
X134745000Y-79872000D01*
X134245000Y-81172000D02*
X134245000Y-80372000D01*
X134745000Y-79872000D02*
X138345000Y-79872000D01*
X134745000Y-81672000D02*
X134245000Y-81172000D01*
X138345000Y-79872000D02*
X138845000Y-80372000D01*
X138345000Y-81672000D02*
X134745000Y-81672000D01*
X138845000Y-80372000D02*
X138845000Y-81172000D01*
X138845000Y-81172000D02*
X138345000Y-81672000D01*
D11*
X146839000Y-76554064D02*
X146839000Y-76099936D01*
X148309000Y-76554064D02*
X148309000Y-76099936D01*
D12*
X154810000Y-69835000D02*
X154510000Y-69835000D01*
X154510000Y-70085000D02*
X154510000Y-69835000D01*
X154510000Y-65835000D02*
X154510000Y-66210000D01*
X150260000Y-70085000D02*
X154510000Y-70085000D01*
X150260000Y-70085000D02*
X150260000Y-69785000D01*
X150260000Y-66210000D02*
X150260000Y-65835000D01*
X150260000Y-65835000D02*
X154485000Y-65835000D01*
D11*
X139065000Y-83185000D02*
X146685000Y-83185000D01*
X146685000Y-83185000D02*
X146685000Y-73025000D01*
X139065000Y-73025000D02*
X139065000Y-83185000D01*
X145415000Y-73025000D02*
X145415000Y-83185000D01*
X146685000Y-73025000D02*
X139065000Y-73025000D01*
X173101000Y-58293000D02*
X165481000Y-58293000D01*
X165481000Y-58293000D02*
X165481000Y-68453000D01*
X173101000Y-68453000D02*
X173101000Y-58293000D01*
X166751000Y-68453000D02*
X166751000Y-58293000D01*
X165481000Y-68453000D02*
X173101000Y-68453000D01*
X163576000Y-83185000D02*
X171196000Y-83185000D01*
X171196000Y-83185000D02*
X171196000Y-73025000D01*
X163576000Y-73025000D02*
X163576000Y-83185000D01*
X169926000Y-73025000D02*
X169926000Y-83185000D01*
X171196000Y-73025000D02*
X163576000Y-73025000D01*
X104495000Y-68992000D02*
X103595000Y-68992000D01*
X100895000Y-68992000D02*
X98165000Y-68992000D01*
X98165000Y-68992000D02*
X98165000Y-78182000D01*
X107575000Y-69112000D02*
X107575000Y-78062000D01*
X104495000Y-78182000D02*
X103595000Y-78182000D01*
X100895000Y-78182000D02*
X98165000Y-78182000D01*
X134970000Y-59645000D02*
X134970000Y-58795000D01*
X134970000Y-64345000D02*
X134970000Y-63545000D01*
X135580000Y-58185000D02*
X141280000Y-58185000D01*
X141280000Y-65005000D02*
X135630000Y-65005000D01*
X141890000Y-58795000D02*
X141890000Y-59645000D01*
X141890000Y-63545000D02*
X141890000Y-64395000D01*
X135580000Y-58185000D02*
G75*
G03*
X134970000Y-58795000I0J-610000D01*
G01*
X134970000Y-64345000D02*
G75*
G03*
X135630000Y-65005000I660002J2D01*
G01*
X141890000Y-58795000D02*
G75*
G03*
X141280000Y-58185000I-610000J0D01*
G01*
X141280000Y-65005000D02*
G75*
G03*
X141890000Y-64395000I0J610000D01*
G01*
X147924000Y-59645000D02*
X147924000Y-58795000D01*
X147924000Y-64345000D02*
X147924000Y-63545000D01*
X148534000Y-58185000D02*
X154234000Y-58185000D01*
X154234000Y-65005000D02*
X148584000Y-65005000D01*
X154844000Y-58795000D02*
X154844000Y-59645000D01*
X154844000Y-63545000D02*
X154844000Y-64395000D01*
X148534000Y-58185000D02*
G75*
G03*
X147924000Y-58795000I0J-610000D01*
G01*
X147924000Y-64345000D02*
G75*
G03*
X148584000Y-65005000I660002J2D01*
G01*
X154844000Y-58795000D02*
G75*
G03*
X154234000Y-58185000I-610000J0D01*
G01*
X154234000Y-65005000D02*
G75*
G03*
X154844000Y-64395000I0J610000D01*
G01*
X97198000Y-57688500D02*
X111898000Y-57688500D01*
X97198000Y-66888500D02*
X97198000Y-57688500D01*
X105998000Y-66888500D02*
X97198000Y-66888500D01*
X111048000Y-57488500D02*
X112098000Y-57488500D01*
X111898000Y-57688500D02*
X111898000Y-60288500D01*
X111898000Y-64188500D02*
X111898000Y-66888500D01*
X111898000Y-66888500D02*
X109998000Y-66888500D01*
X112098000Y-58538500D02*
X112098000Y-57488500D01*
X115724000Y-79382252D02*
X115724000Y-78859748D01*
X117194000Y-79382252D02*
X117194000Y-78859748D01*
X116466252Y-69950000D02*
X115943748Y-69950000D01*
X116466252Y-68480000D02*
X115943748Y-68480000D01*
X113282000Y-77541000D02*
X111122000Y-77541000D01*
X113282000Y-77541000D02*
X113282000Y-78471000D01*
X113282000Y-80701000D02*
X111822000Y-80701000D01*
X113282000Y-80701000D02*
X113282000Y-79771000D01*
X120521000Y-65349000D02*
X118361000Y-65349000D01*
X120521000Y-65349000D02*
X120521000Y-66279000D01*
X120521000Y-68509000D02*
X119061000Y-68509000D01*
X120521000Y-68509000D02*
X120521000Y-67579000D01*
X112167936Y-68480000D02*
X112622064Y-68480000D01*
X112167936Y-69950000D02*
X112622064Y-69950000D01*
X112622064Y-71855000D02*
X112167936Y-71855000D01*
X112622064Y-70385000D02*
X112167936Y-70385000D01*
X119480000Y-63018936D02*
X119480000Y-63473064D01*
X118010000Y-63018936D02*
X118010000Y-63473064D01*
X120042000Y-63473064D02*
X120042000Y-63018936D01*
X121512000Y-63473064D02*
X121512000Y-63018936D01*
X115977936Y-66575000D02*
X116432064Y-66575000D01*
X115977936Y-68045000D02*
X116432064Y-68045000D01*
X131545064Y-74395000D02*
X131090936Y-74395000D01*
X131545064Y-72925000D02*
X131090936Y-72925000D01*
X127100064Y-76300000D02*
X126645936Y-76300000D01*
X127100064Y-74830000D02*
X126645936Y-74830000D01*
X127100064Y-74395000D02*
X126645936Y-74395000D01*
X127100064Y-72925000D02*
X126645936Y-72925000D01*
X133627936Y-78005000D02*
X134082064Y-78005000D01*
X133627936Y-79475000D02*
X134082064Y-79475000D01*
X122020000Y-70130936D02*
X122020000Y-70585064D01*
X120550000Y-70130936D02*
X120550000Y-70585064D01*
X131542064Y-76935000D02*
X131087936Y-76935000D01*
X131542064Y-75465000D02*
X131087936Y-75465000D01*
X176530000Y-62163000D02*
X184210000Y-62163000D01*
X176530000Y-62163000D02*
X176530000Y-59503000D01*
X184210000Y-62163000D02*
X184210000Y-59503000D01*
X173930000Y-60833000D02*
X173930000Y-59503000D01*
X173930000Y-59503000D02*
X175260000Y-59503000D01*
X176530000Y-59503000D02*
X184210000Y-59503000D01*
X122158000Y-81578000D02*
X130218000Y-81578000D01*
X122158000Y-81578000D02*
X122158000Y-79458000D01*
X130218000Y-81578000D02*
X130218000Y-79458000D01*
X120098000Y-80518000D02*
X120098000Y-79458000D01*
X120098000Y-79458000D02*
X121158000Y-79458000D01*
X122158000Y-79458000D02*
X130218000Y-79458000D01*
X178197000Y-79458000D02*
X172137000Y-79458000D01*
X178197000Y-79458000D02*
X178197000Y-81578000D01*
X172137000Y-79458000D02*
X172137000Y-81578000D01*
X180257000Y-80518000D02*
X180257000Y-81578000D01*
X180257000Y-81578000D02*
X179197000Y-81578000D01*
X178197000Y-81578000D02*
X172137000Y-81578000D01*
X112797000Y-73694936D02*
X112797000Y-75149064D01*
X110977000Y-73694936D02*
X110977000Y-75149064D01*
X113263000Y-75149064D02*
X113263000Y-73694936D01*
X115083000Y-75149064D02*
X115083000Y-73694936D01*
X112375000Y-63119000D02*
X112375000Y-66569000D01*
X112375000Y-63119000D02*
X112375000Y-61169000D01*
X117495000Y-63119000D02*
X117495000Y-65069000D01*
X117495000Y-63119000D02*
X117495000Y-61169000D01*
X163089000Y-79425748D02*
X163089000Y-80848252D01*
X161269000Y-79425748D02*
X161269000Y-80848252D01*
X159612000Y-80544936D02*
X159612000Y-80999064D01*
X158142000Y-80544936D02*
X158142000Y-80999064D01*
X155983000Y-80999064D02*
X155983000Y-80544936D01*
X157453000Y-80999064D02*
X157453000Y-80544936D01*
X148161000Y-70941000D02*
X149891000Y-70941000D01*
X148161000Y-72671000D02*
X148161000Y-70941000D01*
X148541000Y-71321000D02*
X148541000Y-72891000D01*
X148541000Y-71321000D02*
X154481000Y-71321000D01*
X148541000Y-75191000D02*
X148541000Y-76761000D01*
X148541000Y-76761000D02*
X154481000Y-76761000D01*
X154481000Y-71321000D02*
X154481000Y-72891000D01*
X154481000Y-75191000D02*
X154481000Y-76761000D01*
X162173000Y-77334000D02*
X162173000Y-73034000D01*
X162173000Y-77334000D02*
X156473000Y-77334000D01*
X162173000Y-73034000D02*
X156473000Y-73034000D01*
X159666000Y-70204064D02*
X159666000Y-69749936D01*
X161136000Y-70204064D02*
X161136000Y-69749936D01*
X151511000Y-77374000D02*
X148511000Y-77374000D01*
X152511000Y-80614000D02*
X150511000Y-80614000D01*
M02*
